<svg width="313" height="542" viewBox="0 0 313 542" fill="none" xmlns="http://www.w3.org/2000/svg">
<g id="arrow">
<path id="bouncing-arrow" d="M166.5 41.0059C166.5 35.483 162.023 31.0059 156.5 31.0059C150.977 31.0059 146.5 35.483 146.5 41.0059L166.5 41.0059ZM149.429 508.066C153.334 511.971 159.666 511.971 163.571 508.066L227.211 444.426C231.116 440.521 231.116 434.189 227.211 430.284C223.305 426.379 216.974 426.379 213.069 430.284L156.5 486.852L99.9315 430.284C96.0262 426.379 89.6946 426.379 85.7893 430.284C81.8841 434.189 81.8841 440.521 85.7893 444.426L149.429 508.066ZM146.5 41.0059L146.5 500.994L166.5 500.994L166.5 41.0059L146.5 41.0059Z" fill="#4B6F75"/>
</g>
</svg>
