<svg width="313" height="800" viewBox="0 0 313 800" fill="none" xmlns="http://www.w3.org/2000/svg">
<g id="arrow" clip-path="url(#clip0_26_5)">
<rect width="313" height="800" fill="white"/>
<rect id="Rectangle 37" x="-317.168" y="-65.084" width="693.767" height="880.002" fill="#F5F5F5"/>
<path id="bouncing-arrow" d="M165.529 82.5098C165.529 76.9869 161.051 72.5098 155.529 72.5098C150.006 72.5098 145.529 76.9869 145.529 82.5098L165.529 82.5098ZM148.457 549.569C152.363 553.475 158.694 553.475 162.6 549.569L226.239 485.93C230.144 482.025 230.144 475.693 226.239 471.788C222.334 467.882 216.002 467.882 212.097 471.788L155.529 528.356L98.96 471.788C95.0547 467.882 88.7231 467.882 84.8178 471.788C80.9126 475.693 80.9126 482.025 84.8178 485.93L148.457 549.569ZM145.529 82.5098L145.529 542.498L165.529 542.498L165.529 82.5098L145.529 82.5098Z" fill="#4B6F75"/>
</g>
<defs>
<clipPath id="clip0_26_5">
<rect width="313" height="800" fill="white"/>
</clipPath>
</defs>
</svg>
