<svg width="529" height="449" viewBox="0 0 529 449" fill="none" xmlns="http://www.w3.org/2000/svg">
<g id="branding-svg" clip-path="url(#clip0_101_124)">
<rect id="clipping-mask" x="49.8369" y="14.1406" width="422.068" height="148.946" fill="#34C027"/>
<g id="Group 9">
<path id="Vector" d="M143.448 145.151L143.025 144.734L143.571 144.169C144.238 143.504 144.769 142.716 145.134 141.848C145.418 141.15 145.456 140.375 145.24 139.653C144.977 138.857 144.511 138.143 143.889 137.582L119.85 114.294C119.294 113.711 118.59 113.291 117.814 113.079C117.098 112.924 116.351 113.012 115.691 113.329C114.843 113.734 114.08 114.3 113.447 114.995L112.901 115.56L112.464 115.141L123.729 103.498C127.354 99.7994 130.674 97.6144 133.691 96.9432C135.164 96.6056 136.7 96.6615 138.145 97.1054C139.589 97.5492 140.891 98.3654 141.921 99.4718C143.26 100.695 144.234 102.264 144.736 104.007C145.157 105.701 145.061 107.482 144.46 109.121C143.672 111.197 142.523 113.118 141.067 114.794L141.156 114.884C144.625 111.568 147.804 109.862 150.692 109.767C152.142 109.724 153.585 109.987 154.926 110.538C156.268 111.09 157.478 111.918 158.478 112.968C159.755 114.036 160.75 115.401 161.379 116.942C162.007 118.484 162.249 120.156 162.083 121.812C161.677 124.974 159.662 128.444 156.013 132.204L143.448 145.151ZM138.131 117.703C139.457 116.443 140.495 114.911 141.173 113.212C141.666 111.836 141.63 110.327 141.074 108.976C140.299 107.271 139.179 105.746 137.786 104.495C135.13 101.916 132.73 100.639 130.622 100.547C128.513 100.456 126.282 101.691 123.935 104.132L121.092 107.027L135.21 120.705L138.131 117.703ZM155.345 132C157.689 129.573 158.761 127.243 158.535 125.065C158.308 122.887 156.792 120.384 153.942 117.623C152.485 116.108 150.757 114.879 148.847 114C147.421 113.369 145.814 113.28 144.327 113.751C142.597 114.4 141.05 115.461 139.82 116.84L135.659 121.14L151.257 136.223L155.345 132Z" fill="black"/>
<path id="Vector_2" d="M167.477 120.267L167.162 119.749L167.818 119.323C168.617 118.831 169.312 118.187 169.863 117.428C170.289 116.804 170.501 116.057 170.465 115.302C170.377 114.466 170.082 113.665 169.607 112.971L151.355 84.8838C150.948 84.1952 150.362 83.6298 149.66 83.2477C148.989 82.9401 148.237 82.8587 147.515 83.0158C146.607 83.2042 145.743 83.5643 144.97 84.0767L144.314 84.5031L143.982 83.9975L157.628 75.1401C160.063 73.4577 162.776 72.2197 165.643 71.4836C167.765 70.9473 170.002 71.0992 172.032 71.9173C174.015 72.8197 175.68 74.2981 176.811 76.1601C177.984 77.808 178.663 79.7558 178.769 81.7755C178.809 83.4889 178.426 85.1857 177.655 86.7163C176.896 88.1956 175.962 89.578 174.872 90.8332L189.272 97.3485C190.663 97.9603 191.878 98.4672 192.875 98.8471C193.706 99.1911 194.567 99.4584 195.446 99.6456C196.05 99.7737 196.669 99.809 197.283 99.7502C197.771 99.6828 198.238 99.5129 198.655 99.2516L198.806 99.1577L199.138 99.6633L198.431 100.126C197.121 100.987 195.767 101.779 194.375 102.499C193.441 102.974 192.441 103.307 191.409 103.488C190.519 103.627 189.61 103.569 188.745 103.317C187.647 103 186.575 102.597 185.54 102.111L169.668 94.7607L166.471 96.8323L174.765 109.574C175.183 110.318 175.789 110.937 176.523 111.371C177.189 111.731 177.955 111.862 178.703 111.743C179.62 111.57 180.491 111.209 181.262 110.685L181.921 110.244L182.251 110.764L167.477 120.267ZM169.675 94.1038C171.285 93.1736 172.643 91.8654 173.633 90.2923C174.393 88.9359 174.607 87.3405 174.231 85.8318C173.708 83.7832 172.818 81.8467 171.602 80.1167C170.483 78.2363 169.027 76.5778 167.308 75.2238C166.043 74.2362 164.458 73.752 162.857 73.8648C160.996 74.1006 159.222 74.7946 157.695 75.8846L154.246 78.1224L166.078 96.421L169.675 94.1038Z" fill="black"/>
<path id="Vector_3" d="M194.239 101.982L194.038 101.41L195.636 100.815C196.373 100.581 197.049 100.185 197.614 99.6571C198.113 99.129 198.458 98.4738 198.611 97.7631C198.813 96.743 198.896 95.7027 198.856 94.6635L198.647 54.5805L201.555 53.5816L228.991 85.6174C229.453 86.1612 229.97 86.6557 230.534 87.0929C230.943 87.4004 231.425 87.5963 231.932 87.6611C232.451 87.7155 232.976 87.6463 233.463 87.4589L234.211 87.1978L234.412 87.7707L218.743 93.3204L218.542 92.7474L219.848 92.2825C220.941 91.9699 221.951 91.4166 222.802 90.6632C223.063 90.3746 223.237 90.0177 223.302 89.6342C223.368 89.2507 223.323 88.8564 223.173 88.4975C223.081 88.2595 222.976 88.0268 222.858 87.8005L222.42 87.0375C222.241 86.7208 222.019 86.431 221.759 86.1765L214.978 78.0612L199.533 83.5294L199.564 93.5876C199.507 93.9219 199.568 94.2616 199.601 94.5963C199.627 94.8955 199.671 95.1928 199.733 95.4865C199.775 95.7321 199.838 95.9733 199.924 96.2073C200.058 96.6771 200.336 97.0931 200.719 97.3972C201.101 97.7013 201.569 97.8783 202.057 97.9034C203.652 97.906 205.232 97.5911 206.704 96.9772L208.01 96.5123L208.211 97.0852L194.239 101.982ZM199.465 82.8746L214.513 77.5478L206.407 67.9046C205.461 66.7856 204.566 65.7201 203.742 64.6815C202.917 63.6429 202.111 62.6675 201.364 61.702C200.616 60.7365 199.919 59.8245 199.254 58.903C199.275 59.8339 199.307 60.6922 199.323 61.4729L199.377 63.7859C199.396 64.552 199.39 65.3738 199.389 66.2562C199.387 67.1386 199.378 68.1543 199.415 69.2526L199.465 82.8746Z" fill="black"/>
<path id="Vector_4" d="M231.592 88.425L231.546 87.8188L233.292 87.6685C234.229 87.6231 235.147 87.3825 235.986 86.962C236.661 86.6237 237.204 86.0686 237.527 85.3854C237.849 84.6101 237.968 83.7652 237.872 82.9311L235.11 49.5478C235.07 48.7453 234.815 47.9682 234.373 47.2975C233.934 46.709 233.313 46.282 232.606 46.0829C231.704 45.83 230.762 45.7553 229.831 45.8629L228.087 45.9987L228.025 45.4045L239.786 44.4229L265.644 76.937L263.201 47.4677C263.161 46.6288 262.909 45.8138 262.469 45.0986C262.042 44.4858 261.427 44.0288 260.717 43.7969C259.807 43.5178 258.849 43.4305 257.904 43.5404L256.221 43.6716L256.172 43.0799L270.087 41.9278L270.136 42.5195L268.389 42.6698C267.461 42.7132 266.552 42.9559 265.725 43.3812C265.051 43.7223 264.509 44.2767 264.184 44.9579C263.829 45.7251 263.684 46.5728 263.764 47.4143L266.889 85.4973L265.082 85.6522L235.614 48.5268L238.463 82.8826C238.497 83.7184 238.75 84.5304 239.198 85.2372C239.626 85.8626 240.254 86.3235 240.979 86.5439C241.879 86.8206 242.825 86.9111 243.761 86.81L245.446 86.6642L245.492 87.2705L231.592 88.425Z" fill="black"/>
<path id="Vector_5" d="M272.278 84.9529L272.38 84.3569L273.15 84.4886C274.069 84.6863 275.019 84.696 275.943 84.5171C276.695 84.3541 277.372 83.9428 277.863 83.3493C278.376 82.6819 278.711 81.895 278.837 81.0625L285.017 48.1453C285.194 47.366 285.157 46.5533 284.91 45.7933C284.649 45.1059 284.162 44.5272 283.53 44.1513C282.724 43.6621 281.829 43.3364 280.897 43.1925L280.126 43.0608L280.228 42.4649L298.405 45.871C302.066 46.4564 305.512 47.9836 308.404 50.3027C310.986 52.4865 312.832 55.414 313.688 58.6857C314.635 62.5962 314.68 66.6707 313.821 70.6013C313.183 74.4853 311.724 78.1885 309.54 81.4635C307.621 84.2634 304.89 86.4072 301.714 87.6056C298.092 88.841 294.199 89.0457 290.468 88.1966L272.278 84.9529ZM289.208 87.5175C292.043 88.1828 295.014 87.9651 297.722 86.8933C300.275 85.6621 302.333 83.597 303.554 81.0387C305.361 77.3988 306.602 73.5046 307.234 69.4904C308.08 65.5488 308.333 61.5027 307.984 57.4863C307.755 54.6722 306.586 52.0169 304.665 49.9478C302.542 47.9778 299.869 46.7016 297.003 46.2894L291.785 45.3078L284.058 86.4877L289.208 87.5175Z" fill="black"/>
<path id="Vector_6" d="M310.768 93.0132L310.983 92.4517L311.714 92.7262C312.595 93.0618 313.533 93.2222 314.476 93.1982C315.229 93.1768 315.954 92.9061 316.537 92.4286C317.164 91.868 317.637 91.1553 317.908 90.3591L329.744 59.0968C330.058 58.3592 330.165 57.5502 330.055 56.7563C329.915 56.034 329.537 55.3795 328.981 54.8973C328.274 54.2822 327.457 53.8073 326.572 53.4983L325.829 53.2067L326.045 52.6452L342.497 58.8829L342.281 59.4445L341.55 59.17C340.676 58.8274 339.741 58.6676 338.803 58.7004C338.046 58.7098 337.316 58.9751 336.729 59.453C336.105 60.0158 335.633 60.7278 335.358 61.5225L323.567 92.6128C323.222 93.3779 323.078 94.2185 323.149 95.0547C323.268 95.8054 323.635 96.4947 324.191 97.013C324.889 97.6438 325.707 98.1293 326.595 98.4411L327.326 98.7156L327.11 99.2772L310.768 93.0132Z" fill="black"/>
<path id="Vector_7" d="M327.643 98.1714L327.97 97.6588L329.457 98.5862C330.244 99.0992 331.124 99.4529 332.047 99.6272C332.791 99.762 333.558 99.6341 334.218 99.2653C334.963 98.8497 335.583 98.243 336.014 97.5079L353.717 69.1183C354.167 68.4557 354.428 67.6834 354.473 66.8839C354.469 66.1475 354.223 65.4327 353.774 64.8495C353.209 64.0963 352.498 63.4658 351.682 62.996L350.195 62.0687L350.507 61.5536L360.533 67.755L361.82 109.234L377.449 84.1401C377.925 83.4455 378.208 82.6368 378.268 81.7969C378.298 81.0503 378.082 80.3146 377.654 79.7022C377.084 78.9477 376.368 78.3164 375.548 77.8462L374.116 76.9433L374.429 76.4283L386.287 83.8107L385.96 84.3233L384.473 83.3959C383.697 82.8837 382.825 82.5361 381.91 82.3744C381.164 82.2633 380.402 82.3837 379.726 82.7192C378.983 83.136 378.363 83.7424 377.93 84.4766L357.723 116.926L356.195 115.977L354.696 68.6424L336.473 97.8856C335.997 98.5802 335.715 99.3889 335.654 100.229C335.619 100.982 335.847 101.724 336.298 102.328C336.854 103.083 337.562 103.713 338.375 104.179L339.85 105L339.523 105.513L327.643 98.1714Z" fill="black"/>
<path id="Vector_8" d="M376.898 136.284C374.001 133.436 371.944 129.844 370.954 125.903C370.19 122.452 370.513 118.85 371.879 115.59C373.48 111.904 375.854 108.606 378.842 105.919C381.667 103.155 385.045 101.02 388.754 99.6547C392.081 98.4685 395.692 98.3336 399.098 99.2684C402.952 100.441 406.396 102.679 409.034 105.724C410.827 107.546 412.373 109.596 413.632 111.821C414.532 113.364 415.065 115.093 415.192 116.874C415.229 117.527 415.127 118.18 414.891 118.79C414.655 119.4 414.291 119.953 413.825 120.41C413.423 120.844 412.924 121.177 412.369 121.381C411.814 121.585 411.219 121.655 410.632 121.585C409.136 121.234 407.776 120.45 406.724 119.331C408.268 117.978 409.558 116.36 410.532 114.552C411.231 113.241 411.422 111.719 411.069 110.275C410.559 108.641 409.65 107.16 408.425 105.964C406.608 103.841 404.168 102.345 401.451 101.69C398.674 101.298 395.846 101.871 393.44 103.313C389.77 105.368 386.396 107.911 383.411 110.874C380.246 113.687 377.519 116.957 375.32 120.576C373.788 123.046 373.176 125.976 373.591 128.852C374.26 131.83 375.781 134.549 377.968 136.676C378.746 137.503 379.592 138.263 380.497 138.949C381.281 139.558 382.098 140.122 382.946 140.639L393.377 130.813C393.98 130.284 394.428 129.6 394.672 128.835C394.863 128.128 394.813 127.377 394.528 126.701C394.164 125.839 393.638 125.053 392.979 124.387L392.8 124.207L393.246 123.79L404.02 135.235L403.575 135.653L403.482 135.323C402.93 134.67 402.225 134.164 401.43 133.85C400.8 133.632 400.112 133.647 399.492 133.893C398.735 134.218 398.046 134.684 397.462 135.266L388.122 144.052C386.087 143.232 384.148 142.193 382.338 140.954C380.363 139.596 378.54 138.031 376.898 136.284V136.284Z" fill="black"/>
<path id="Vector_9" d="M407.109 148.584L408.169 147.987L415.93 161.656L414.871 162.252L407.109 148.584Z" fill="black"/>
<path id="Vector_10" d="M405.8 178.474L406.382 178.305L406.597 179.059C406.843 179.968 407.268 180.818 407.845 181.562C408.315 182.154 408.971 182.572 409.707 182.747C410.534 182.91 411.388 182.855 412.187 182.588L444.294 173.116C445.073 172.936 445.784 172.539 446.345 171.971C446.834 171.426 447.126 170.733 447.175 170.003C447.24 169.067 447.121 168.127 446.825 167.236L446.61 166.481L447.193 166.311L451.778 181.845C453.236 186.792 453.516 190.759 452.587 193.742C452.152 195.19 451.345 196.498 450.246 197.536C449.147 198.574 447.795 199.306 446.325 199.658C444.606 200.218 442.766 200.291 441.008 199.871C439.326 199.405 437.822 198.444 436.692 197.114C435.262 195.409 434.151 193.46 433.412 191.362L433.31 191.344C434.508 196.007 434.43 199.614 433.076 202.165C432.393 203.447 431.45 204.572 430.307 205.469C429.165 206.365 427.848 207.014 426.441 207.374C424.886 207.961 423.211 208.157 421.562 207.946C419.913 207.735 418.341 207.122 416.984 206.162C414.413 204.226 412.398 200.785 410.909 195.758L405.8 178.474ZM411.405 195.305C412.357 198.549 413.849 200.614 415.881 201.5C417.914 202.386 420.825 202.275 424.615 201.168C426.654 200.643 428.578 199.744 430.289 198.517C431.532 197.578 432.395 196.223 432.721 194.7C433.015 192.876 432.852 191.007 432.245 189.263L430.547 183.527L409.734 189.678L411.405 195.305ZM432.318 187.345C432.76 189.132 433.582 190.803 434.727 192.245C435.678 193.357 437.017 194.067 438.471 194.231C440.335 194.395 442.212 194.171 443.984 193.573C447.528 192.533 449.854 191.091 450.94 189.287C452.026 187.483 452.078 184.993 451.115 181.702L449.969 177.811L431.161 183.437L432.318 187.345Z" fill="black"/>
<path id="Vector_11" d="M415.639 211.586L416.243 211.555L416.303 212.343C416.322 213.283 416.542 214.207 416.946 215.056C417.262 215.744 417.806 216.302 418.486 216.636C419.25 216.984 420.092 217.127 420.928 217.053L454.373 215.065C455.172 215.048 455.952 214.814 456.628 214.389C457.231 213.964 457.673 213.349 457.884 212.644C458.164 211.751 458.263 210.812 458.177 209.881L458.131 209.095L458.735 209.064L459.701 225.296C459.953 228.242 459.684 231.209 458.906 234.061C458.335 236.184 457.1 238.07 455.383 239.443C453.614 240.724 451.5 241.442 449.316 241.502C447.321 241.696 445.311 241.326 443.515 240.436C442.006 239.62 440.722 238.445 439.776 237.014C438.845 235.632 438.095 234.137 437.545 232.564L424.765 241.869C423.529 242.794 422.496 243.59 421.666 244.331C420.956 244.885 420.3 245.504 419.704 246.18C419.297 246.638 418.961 247.156 418.709 247.715C418.523 248.176 418.438 248.672 418.46 249.169L418.431 249.343L417.827 249.374L417.777 248.528C417.665 246.971 417.642 245.409 417.709 243.849C417.721 242.791 417.901 241.741 418.241 240.739C418.571 239.9 419.073 239.14 419.714 238.507C420.531 237.715 421.406 236.984 422.332 236.322L436.575 226.16L436.343 222.351L421.229 223.253C420.391 223.272 419.573 223.509 418.853 223.939C418.215 224.348 417.735 224.963 417.493 225.681C417.2 226.575 417.095 227.519 417.184 228.456L417.229 229.241L416.623 229.287L415.639 211.586ZM437.287 226.371C437.318 228.234 437.79 230.063 438.663 231.708C439.471 233.04 440.752 234.018 442.25 234.445C444.29 234.993 446.412 235.173 448.516 234.978C450.703 234.919 452.861 234.473 454.89 233.659C456.37 233.043 457.574 231.908 458.278 230.468C458.992 228.727 459.264 226.836 459.069 224.963L458.827 220.868L437.035 222.155L437.287 226.371Z" fill="black"/>
<path id="Vector_12" d="M418.523 243.809L419.119 243.911L418.823 245.641C418.654 246.389 418.654 247.166 418.824 247.915C419.033 248.623 419.445 249.255 420.009 249.733C420.786 250.43 421.65 251.025 422.579 251.503L457.347 271.448L456.827 274.486L415.351 282.147C414.646 282.272 413.955 282.47 413.291 282.737C412.824 282.934 412.418 283.252 412.116 283.659C411.814 284.071 411.619 284.552 411.548 285.057L411.416 285.828L410.689 285.704L413.753 269.353L414.349 269.455L414.116 270.821C413.841 271.925 413.818 273.076 414.048 274.19C414.167 274.562 414.392 274.89 414.697 275.134C415.001 275.378 415.371 275.526 415.759 275.56L416.5 275.687L417.397 275.69C417.758 275.697 418.118 275.652 418.467 275.559L428.886 273.764L431.908 257.661L423.192 252.64C422.906 252.462 422.608 252.301 422.302 252.159L421.477 251.824C421.233 251.743 420.985 251.676 420.733 251.622C420.253 251.511 419.75 251.554 419.296 251.745C418.842 251.935 418.459 252.265 418.203 252.685C417.408 254.055 416.895 255.569 416.693 257.14L416.46 258.506L415.864 258.404L418.523 243.809ZM432.416 257.927L429.466 273.609L441.878 271.452C443.314 271.189 444.687 270.945 446.007 270.752C447.326 270.558 448.573 270.353 449.766 270.198C450.96 270.043 452.124 269.883 453.264 269.778L450.99 268.552L448.968 267.428C448.298 267.059 447.604 266.657 446.83 266.195L444.187 264.681L432.416 257.927Z" fill="black"/>
<path id="Vector_13" d="M411.643 283.099L412.2 283.344L411.464 284.938C411.045 285.782 410.801 286.702 410.747 287.643C410.713 288.397 410.933 289.141 411.373 289.755C411.887 290.423 412.566 290.946 413.343 291.273L443.752 305.297C444.477 305.638 445.281 305.775 446.078 305.695C446.808 305.607 447.487 305.275 448.004 304.752C448.669 304.09 449.203 303.308 449.58 302.449L450.302 300.852L450.856 301.111L445.915 311.815L404.928 318.273L431.776 330.641C432.525 331.024 433.361 331.203 434.201 331.161C434.947 331.104 435.653 330.798 436.204 330.291C436.89 329.632 437.433 328.839 437.799 327.961L438.511 326.422L439.065 326.681L433.216 339.37L432.662 339.11L433.398 337.516C433.817 336.687 434.053 335.779 434.093 334.852C434.123 334.097 433.909 333.353 433.484 332.728C432.976 332.051 432.297 331.522 431.517 331.195L396.851 315.202L397.612 313.552L444.425 306.175L413.128 291.745C412.376 291.369 411.542 291.191 410.703 291.226C409.952 291.293 409.245 291.609 408.695 292.124C408.012 292.774 407.471 293.558 407.104 294.426L406.393 295.964L405.839 295.705L411.643 283.099Z" fill="black"/>
<path id="Vector_14" d="M394.474 320.182L394.947 320.562L394.438 321.178C393.82 321.881 393.349 322.701 393.054 323.589C392.823 324.311 392.843 325.089 393.11 325.798C393.432 326.572 393.951 327.249 394.615 327.761L420.371 349.142C420.97 349.679 421.704 350.043 422.495 350.193C423.221 350.293 423.96 350.151 424.598 349.79C425.41 349.315 426.126 348.691 426.708 347.952L427.215 347.35L427.671 347.742L415.845 361.967C413.559 364.88 410.552 367.145 407.122 368.539C403.943 369.759 400.463 369.959 397.166 369.111C393.284 368.038 389.698 366.095 386.678 363.429C383.577 360.99 381.041 357.908 379.246 354.395C377.711 351.356 377.155 347.916 377.653 344.548C378.332 340.782 380.044 337.278 382.599 334.428L394.474 320.182ZM384.006 333.726C382.047 335.878 380.788 338.574 380.396 341.457C380.26 344.262 381.066 347.033 382.685 349.328C384.988 352.693 387.783 355.693 390.978 358.225C394.004 360.89 397.419 363.078 401.104 364.713C403.676 365.893 406.572 366.166 409.319 365.489C412.069 364.596 414.481 362.884 416.231 360.582L419.623 356.494L387.378 329.665L384.006 333.726Z" fill="black"/>
<path id="Vector_15" d="M368.604 349.704L369.002 350.176L368.392 350.685C367.636 351.253 367.004 351.97 366.536 352.792C366.175 353.457 366.043 354.224 366.163 354.972C366.344 355.791 366.729 356.551 367.281 357.182L388.629 383.002C389.114 383.637 389.765 384.127 390.511 384.415C391.206 384.652 391.959 384.649 392.652 384.407C393.538 384.102 394.356 383.627 395.06 383.009L395.671 382.5L396.054 382.969L382.51 394.118L382.124 393.663L382.735 393.154C383.492 392.587 384.123 391.87 384.59 391.048C384.958 390.384 385.09 389.616 384.963 388.868C384.788 388.046 384.403 387.285 383.845 386.657L362.635 361.086C362.124 360.421 361.451 359.899 360.68 359.57C359.973 359.301 359.197 359.279 358.476 359.507C357.578 359.794 356.749 360.263 356.042 360.886L355.434 361.381L355.048 360.926L368.604 349.704Z" fill="black"/>
<path id="Vector_16" d="M355.79 361.83L356.088 362.359L354.538 363.201C353.667 363.605 352.893 364.192 352.269 364.923C351.79 365.508 351.523 366.237 351.512 366.993C351.524 367.833 351.754 368.656 352.181 369.381L368.202 398.792C368.559 399.514 369.106 400.125 369.785 400.559C370.428 400.909 371.169 401.036 371.892 400.919C372.822 400.786 373.718 400.478 374.531 400.009L376.067 399.164L376.365 399.694L366.007 405.329L329.258 386.032L343.401 411.996C343.779 412.748 344.344 413.391 345.041 413.862C345.677 414.259 346.428 414.429 347.173 414.346C348.116 414.238 349.026 413.929 349.841 413.441L351.325 412.633L351.624 413.162L339.351 419.846L339.067 419.319L340.603 418.474C341.435 418.06 342.169 417.471 342.753 416.747C343.232 416.163 343.503 415.436 343.525 414.68C343.527 413.836 343.301 413.007 342.873 412.28L324.67 378.741L326.313 377.884L368.262 399.925L351.711 369.675C351.334 368.927 350.775 368.286 350.085 367.811C349.437 367.417 348.676 367.25 347.922 367.336C346.987 367.45 346.085 367.754 345.271 368.23L343.787 369.038L343.505 368.496L355.79 361.83Z" fill="black"/>
<path id="Vector_17" d="M298.324 385.936C302.236 384.823 306.379 384.802 310.302 385.874C313.698 386.922 316.684 389.001 318.845 391.822C321.263 395.028 322.965 398.717 323.833 402.638C324.834 406.447 325.021 410.424 324.381 414.31C323.776 417.791 322.115 421.001 319.623 423.505C316.701 426.277 313.059 428.174 309.113 428.979C306.619 429.64 304.048 429.965 301.468 429.946C299.683 429.979 297.915 429.595 296.304 428.824C295.729 428.532 295.223 428.119 294.822 427.615C294.42 427.11 294.132 426.524 293.977 425.898C293.806 425.34 293.769 424.75 293.867 424.174C293.966 423.599 294.197 423.054 294.543 422.584C295.585 421.443 296.941 420.634 298.441 420.259C298.848 422.269 299.614 424.189 300.704 425.926C301.499 427.186 302.733 428.106 304.167 428.508C305.842 428.868 307.58 428.805 309.225 428.325C311.968 427.789 314.473 426.4 316.38 424.357C318.091 422.148 319 419.423 318.958 416.63C318.974 412.427 318.421 408.241 317.315 404.187C316.424 400.044 314.923 396.056 312.86 392.355C311.463 389.81 309.216 387.837 306.512 386.782C303.589 385.9 300.473 385.888 297.542 386.745C296.457 387.019 295.396 387.378 294.367 387.818C293.456 388.204 292.567 388.642 291.705 389.128L295.116 403.04C295.29 403.839 295.683 404.574 296.249 405.164C296.776 405.675 297.457 405.997 298.187 406.078C299.117 406.194 300.06 406.121 300.961 405.864L301.194 405.814L301.35 406.394L286.078 410.142L285.94 409.55L286.173 409.5C287.015 409.317 287.802 408.939 288.471 408.397C288.978 407.953 289.302 407.337 289.38 406.667C289.475 405.85 289.413 405.022 289.199 404.228L286.142 391.738C287.865 390.366 289.727 389.18 291.699 388.199C293.825 387.224 296.045 386.465 298.324 385.936V385.936Z" fill="black"/>
<path id="Vector_18" d="M272.766 406.192L272.771 407.39L257.057 407.337L257.055 406.125L272.766 406.192Z" fill="black"/>
<path id="Vector_19" d="M247.421 390.19L247.319 390.786L246.549 390.655C245.639 390.418 244.691 390.368 243.762 390.507C243.017 390.622 242.333 390.985 241.821 391.537C241.267 392.174 240.892 392.946 240.735 393.775L233.119 426.342C232.914 427.118 232.919 427.935 233.133 428.708C233.37 429.408 233.829 430.012 234.44 430.427C235.223 430.938 236.096 431.296 237.013 431.48L237.798 431.615L237.696 432.211L221.869 428.533C216.844 427.355 213.264 425.631 211.129 423.361C210.09 422.276 209.352 420.938 208.99 419.48C208.628 418.022 208.653 416.495 209.064 415.05C209.421 413.275 210.261 411.632 211.491 410.303C212.734 409.074 214.313 408.24 216.029 407.908C218.211 407.513 220.445 407.509 222.628 407.899L222.648 407.782C218.02 406.503 214.92 404.651 213.35 402.229C212.568 401.007 212.052 399.635 211.835 398.201C211.619 396.767 211.707 395.304 212.095 393.906C212.359 392.272 213.019 390.728 214.016 389.407C215.014 388.086 216.319 387.029 217.818 386.327C220.747 385.033 224.75 384.984 229.814 386.164L247.421 390.19ZM230.054 386.773C226.757 386.015 224.228 386.286 222.431 387.609C220.634 388.933 219.316 391.565 218.425 395.377C217.868 397.408 217.699 399.526 217.927 401.62C218.131 403.162 218.881 404.58 220.041 405.616C221.486 406.769 223.192 407.548 225.009 407.887L230.836 409.242L235.75 388.106L230.054 386.773ZM226.576 408.873C224.81 408.386 222.96 408.285 221.151 408.574C219.719 408.863 218.445 409.674 217.576 410.85C216.513 412.39 215.781 414.135 215.429 415.973C214.591 419.59 214.689 422.314 215.722 424.146C216.755 425.978 218.927 427.277 222.237 428.042L226.194 428.958L230.632 409.82L226.576 408.873Z" fill="black"/>
<path id="Vector_20" d="M213.728 382.428L213.471 382.967L212.753 382.62C211.92 382.186 211.008 381.923 210.072 381.848C209.316 381.797 208.565 382 207.939 382.426C207.264 382.925 206.732 383.592 206.396 384.361L191.651 414.438C191.274 415.146 191.097 415.943 191.137 416.744C191.209 417.475 191.524 418.16 192.031 418.692C192.678 419.369 193.447 419.917 194.298 420.306L195.002 420.651L194.746 421.19L180.126 414.039C177.437 412.814 174.986 411.124 172.886 409.046C171.328 407.503 170.302 405.505 169.957 403.34C169.718 401.171 170.134 398.981 171.151 397.051C171.958 395.208 173.264 393.628 174.923 392.49C176.354 391.575 177.989 391.027 179.683 390.895C181.368 390.766 183.063 390.85 184.727 391.144L182.921 375.457C182.733 373.929 182.535 372.638 182.357 371.576C182.221 370.695 182.009 369.828 181.723 368.984C181.52 368.397 181.232 367.844 180.867 367.342C180.565 366.955 180.178 366.643 179.736 366.43L179.562 366.4L179.833 365.863L180.593 366.233C182 366.895 183.372 367.629 184.705 368.431C185.602 368.985 186.413 369.668 187.111 370.458C187.68 371.157 188.097 371.967 188.335 372.837C188.616 373.943 188.819 375.067 188.942 376.202L190.801 393.678L194.225 395.355L200.892 381.73C201.291 380.989 201.49 380.157 201.469 379.315C201.423 378.562 201.124 377.847 200.62 377.285C199.993 376.58 199.221 376.02 198.357 375.642L197.653 375.297L197.927 374.745L213.728 382.428ZM190.226 393.984C188.588 393.098 186.764 392.611 184.903 392.565C183.346 392.613 181.865 393.247 180.755 394.34C179.277 395.845 178.076 397.6 177.206 399.522C176.176 401.452 175.502 403.551 175.22 405.72C175.02 407.315 175.416 408.927 176.331 410.248C177.499 411.72 179.011 412.883 180.733 413.634L184.418 415.446L194.022 395.844L190.226 393.984Z" fill="black"/>
<path id="Vector_21" d="M184.315 368.873L183.923 369.33L182.616 368.224C182.044 367.717 181.368 367.341 180.635 367.122C179.925 366.955 179.181 366.994 178.492 367.234C177.488 367.583 176.532 368.058 175.647 368.648L141.332 389.291L138.949 387.388L152.424 347.415C152.661 346.739 152.821 346.039 152.9 345.327C152.966 344.806 152.891 344.277 152.684 343.794C152.453 343.339 152.13 342.937 151.733 342.615L151.129 342.122L151.524 341.651L164.309 352.274L163.929 352.747L162.854 351.861C162.026 351.078 161.031 350.494 159.945 350.152C159.564 350.078 159.17 350.116 158.81 350.262C158.451 350.408 158.141 350.654 157.919 350.972C157.763 351.174 157.618 351.384 157.483 351.601L157.038 352.363C156.871 352.684 156.738 353.022 156.642 353.372L153.148 363.306L165.75 373.778L174.382 368.611C174.681 368.438 174.953 368.245 175.225 368.052C175.498 367.86 175.724 367.674 175.933 367.5C176.121 367.327 176.298 367.143 176.462 366.947C176.793 366.59 177.004 366.138 177.065 365.655C177.126 365.171 177.034 364.681 176.802 364.253C176.003 362.879 174.937 361.679 173.666 360.725L172.59 359.838L172.968 359.379L184.315 368.873ZM165.193 374.147L152.918 363.955L148.776 375.843C148.295 377.257 147.834 378.555 147.383 379.794C146.932 381.033 146.474 382.227 146.042 383.35C145.611 384.473 145.153 385.576 144.708 386.607L146.844 385.222L148.808 384.062C149.459 383.664 150.162 383.231 150.925 382.793C151.688 382.355 152.584 381.835 153.527 381.218L165.193 374.147Z" fill="black"/>
<path id="Vector_22" d="M153.552 343.704L153.056 344.068L152.043 342.638C151.514 341.859 150.835 341.193 150.044 340.681C149.402 340.275 148.642 340.097 147.886 340.177C147.057 340.3 146.273 340.635 145.611 341.15L118.34 360.663C117.672 361.107 117.137 361.724 116.793 362.448C116.537 363.125 116.51 363.866 116.717 364.559C116.971 365.461 117.389 366.309 117.95 367.059L118.979 368.477L118.486 368.826L111.609 359.258L126.237 320.41L102.205 337.695C101.505 338.155 100.937 338.79 100.558 339.538C100.245 340.218 100.167 340.984 100.336 341.714C100.559 342.639 100.977 343.506 101.562 344.257L102.538 345.635L102.059 345.987L93.917 334.633L94.396 334.281L95.4228 335.713C95.9423 336.482 96.6146 337.137 97.3979 337.636C98.0456 338.029 98.8013 338.205 99.5558 338.139C100.395 338.047 101.191 337.722 101.855 337.201L132.883 314.964L133.946 316.447L117.256 360.792L145.254 340.7C145.955 340.234 146.524 339.594 146.903 338.842C147.211 338.154 147.285 337.383 147.113 336.649C146.876 335.74 146.463 334.887 145.897 334.137L144.906 332.756L145.4 332.407L153.552 343.704Z" fill="black"/>
<path id="Vector_23" d="M129.712 310.411L129.136 310.627L128.858 309.892C128.549 309.003 128.063 308.187 127.428 307.493C126.913 306.939 126.228 306.575 125.481 306.457C124.648 306.362 123.804 306.48 123.029 306.801L91.7481 318.703C90.9885 318.954 90.3113 319.407 89.7887 320.013C89.348 320.601 89.1102 321.317 89.1112 322.052C89.1218 322.992 89.3079 323.922 89.6599 324.793L89.938 325.529L89.3796 325.733L82.8064 308.438C81.3992 305.011 80.9083 301.277 81.3822 297.603C81.9312 294.244 83.5074 291.137 85.8941 288.71C88.7319 285.876 92.1686 283.713 95.9518 282.381C99.5983 280.899 103.521 280.217 107.453 280.383C110.853 280.549 114.119 281.754 116.811 283.837C119.754 286.282 121.96 289.498 123.182 293.124L129.712 310.411ZM123.074 294.631C122.159 291.871 120.429 289.452 118.111 287.694C115.725 286.159 112.887 285.479 110.064 285.765C106.018 286.133 102.05 287.104 98.2919 288.645C94.4791 289.987 90.89 291.895 87.6455 294.305C85.3572 295.963 83.6994 298.348 82.9436 301.071C82.3645 303.903 82.6714 306.843 83.8226 309.494L85.7539 314.387L124.979 299.505L123.074 294.631Z" fill="black"/>
<path id="Vector_24" d="M116.767 273.418L116.165 273.525L116.028 272.753C115.895 271.819 115.569 270.923 115.071 270.121C114.671 269.484 114.07 268.997 113.363 268.737C112.559 268.492 111.706 268.454 110.884 268.628L77.8997 274.479C77.1075 274.588 76.3597 274.91 75.7359 275.411C75.1849 275.904 74.8136 276.567 74.6808 277.295C74.5141 278.218 74.525 279.164 74.7129 280.083L74.8503 280.854L74.2632 280.963L71.2392 263.647L71.8408 263.54L71.9782 264.311C72.1157 265.24 72.442 266.131 72.9371 266.929C73.334 267.576 73.9427 268.066 74.6598 268.315C75.4556 268.572 76.3051 268.614 77.1223 268.437L109.876 262.621C110.708 262.507 111.497 262.177 112.163 261.666C112.745 261.184 113.143 260.519 113.294 259.779C113.487 258.857 113.486 257.904 113.293 256.982L113.156 256.21L113.743 256.101L116.767 273.418Z" fill="black"/>
<path id="Vector_25" d="M112.546 256.272L111.935 256.257L111.965 254.512C112.01 253.571 111.865 252.63 111.54 251.746C111.283 251.023 110.786 250.41 110.131 250.01C109.387 249.62 108.559 249.416 107.719 249.418L74.2285 248.78C73.4308 248.743 72.6374 248.917 71.9283 249.284C71.2915 249.662 70.798 250.241 70.5251 250.929C70.2002 251.808 70.041 252.74 70.0556 253.676L70.0265 255.422L69.4157 255.407L69.6487 243.629L104.553 221.291L74.9992 220.727C74.1632 220.68 73.3293 220.852 72.5802 221.227C71.9193 221.578 71.396 222.142 71.0948 222.828C70.7434 223.715 70.5809 224.665 70.6178 225.618L70.5842 227.303L69.9733 227.288L70.2493 213.333L70.8456 213.345L70.8165 215.091C70.7701 216.023 70.9164 216.954 71.2464 217.827C71.5168 218.542 72.0108 219.152 72.655 219.564C73.3834 219.992 74.2174 220.207 75.0621 220.185L113.262 220.925L113.223 222.728L73.3118 248.279L107.772 248.933C108.612 248.978 109.45 248.807 110.205 248.437C110.864 248.07 111.383 247.496 111.681 246.804C112.046 245.934 112.232 244.999 112.226 244.055L112.245 242.368L112.856 242.382L112.546 256.272Z" fill="black"/>
<path id="Vector_26" d="M119.979 194.411C119.021 198.36 117.002 201.973 114.139 204.857C111.567 207.298 108.302 208.883 104.792 209.393C100.809 209.915 96.7601 209.575 92.92 208.396C89.0895 207.404 85.5154 205.605 82.4377 203.118C79.7015 200.888 77.7251 197.864 76.7814 194.462C75.8038 190.536 75.9486 186.414 77.1992 182.566C77.8479 180.093 78.8126 177.714 80.0696 175.487C80.9316 173.94 82.1362 172.611 83.5912 171.601C84.1298 171.231 84.742 170.981 85.3859 170.869C86.0298 170.757 86.6903 170.786 87.3223 170.952C87.8931 171.075 88.4278 171.328 88.8846 171.692C89.3415 172.055 89.7082 172.519 89.9561 173.048C90.4098 174.51 90.4386 176.072 90.0392 177.55C88.083 176.929 86.0322 176.66 83.982 176.754C82.4942 176.827 81.0867 177.45 80.0329 178.503C78.8925 179.783 78.0888 181.326 77.6944 182.995C76.8075 185.643 76.7846 188.504 77.629 191.167C78.7004 193.755 80.6247 195.9 83.0826 197.245C86.739 199.33 90.6606 200.911 94.7406 201.945C98.7777 203.214 102.983 203.868 107.215 203.883C110.112 203.92 112.929 202.934 115.171 201.099C117.385 198.997 118.934 196.292 119.627 193.319C119.932 192.228 120.152 191.115 120.286 189.99C120.397 189.006 120.451 188.017 120.448 187.026L106.656 183.173C105.893 182.925 105.077 182.889 104.295 183.068C103.612 183.275 103.015 183.698 102.593 184.274C102.036 185.027 101.636 185.884 101.414 186.795L101.374 187.027L100.778 186.925L105.04 171.796L105.636 171.898L105.594 172.145C105.331 172.954 105.261 173.813 105.389 174.654C105.522 175.321 105.893 175.916 106.434 176.328C107.097 176.817 107.851 177.17 108.651 177.365L120.983 180.835C121.344 183.005 121.469 185.208 121.356 187.406C121.141 189.782 120.679 192.13 119.979 194.411V194.411Z" fill="black"/>
<path id="Vector_27" d="M114.985 162.187L113.933 161.603L121.679 147.968L122.728 148.566L114.985 162.187Z" fill="black"/>
</g>
</g>
<defs>
<clipPath id="clip0_101_124">
<rect width="529" height="448" fill="white" transform="translate(0 0.691406)"/>
</clipPath>
</defs>
</svg>
