<svg width="242" height="272" viewBox="0 0 242 272" fill="none" xmlns="http://www.w3.org/2000/svg">
<g id="click-me-circle" clip-path="url(#clip0_101_124)">
<g id="click-me-type">
<path id="Vector" d="M196.752 135.31C196.266 133.543 196.212 131.912 196.594 130.368C196.976 128.825 197.835 127.471 199.267 126.315C200.7 125.159 202.707 124.202 205.329 123.545C208.003 122.843 210.235 122.694 211.98 123.044C213.773 123.399 215.136 124.159 216.175 125.236C217.211 126.362 217.926 127.756 218.327 129.368C218.624 130.478 218.726 131.571 218.725 132.705C218.724 133.838 218.491 134.804 218.12 135.658C217.701 136.508 217.013 137.039 216.053 137.3C215.498 137.449 215.004 137.455 214.577 137.269C214.149 137.084 213.784 136.756 213.529 136.29C213.225 135.82 212.983 135.207 212.803 134.452C214.167 134.079 215.286 133.684 216.112 133.264C216.938 132.844 217.527 132.304 217.828 131.69C218.128 131.075 218.144 130.337 217.927 129.431C217.666 128.472 217.188 127.74 216.399 127.178C215.611 126.616 214.453 126.317 212.826 126.322C211.247 126.331 209.047 126.68 206.27 127.422C203.746 128.088 201.712 128.797 200.309 129.61C198.858 130.419 197.94 131.324 197.454 132.366C197.017 133.412 196.963 134.59 197.288 135.949C197.508 136.806 197.84 137.525 198.326 138.159C198.813 138.793 199.464 139.245 200.274 139.562C201.133 139.884 202.205 140.028 203.539 139.997C203.563 140.295 203.496 140.486 203.328 140.718C203.164 140.9 202.902 141.074 202.551 141.142C201.947 141.286 201.262 141.226 200.505 140.864C199.744 140.551 199.057 139.948 198.396 139.053C197.699 138.006 197.161 136.825 196.752 135.31Z" fill="#112E3E"/>
<path id="Vector_2" d="M198.767 142.684L199.163 142.669L199.214 143.216C199.292 144.011 199.432 144.664 199.687 145.13C199.942 145.596 200.307 145.924 200.784 146.113C201.26 146.303 201.847 146.355 202.59 146.321L226.068 144.538C226.811 144.504 227.419 144.311 227.832 144.101C228.249 143.842 228.577 143.477 228.767 143C228.957 142.524 229.017 141.84 228.939 141.044L228.888 140.498L229.284 140.483L229.85 148.073L202.998 150.103C202.202 150.181 201.549 150.321 201.082 150.575C200.616 150.83 200.288 151.196 200.099 151.672C199.909 152.148 199.849 152.833 199.927 153.628L199.978 154.175L199.582 154.189L198.767 142.684Z" fill="#112E3E"/>
<path id="Vector_3" d="M199.597 154.584L199.988 154.618L199.941 155.156C199.872 155.939 199.963 156.588 200.116 157.094C200.318 157.604 200.63 157.977 201.053 158.211C201.477 158.445 202.055 158.595 202.789 158.659L217.298 159.637C218.032 159.701 218.681 159.61 219.138 159.453C219.6 159.248 219.973 158.935 220.211 158.463C220.45 157.991 220.604 157.364 220.672 156.582L220.681 156.484L221.072 156.518L220.588 163.721L202.743 162.549C201.961 162.48 201.312 162.571 200.805 162.724C200.294 162.925 199.922 163.237 199.683 163.709C199.445 164.181 199.291 164.808 199.222 165.591L199.175 166.129L198.784 166.095L199.597 154.584ZM224.651 161.81C224.694 161.321 224.879 160.894 225.252 160.581C225.624 160.269 226.18 160.121 227.012 160.194C227.843 160.267 228.467 160.469 228.734 160.789C229.047 161.161 229.159 161.565 229.112 162.103C229.069 162.592 228.888 162.971 228.56 163.336C228.236 163.653 227.632 163.797 226.751 163.719C225.92 163.646 225.345 163.448 225.033 163.076C224.72 162.703 224.608 162.299 224.651 161.81Z" fill="#112E3E"/>
<path id="Vector_4" d="M196.103 176.407C196.556 174.623 197.325 173.163 198.366 171.973C199.408 170.783 200.855 170.023 202.659 169.688C204.464 169.354 206.67 169.498 209.322 170.174C212.024 170.855 214.014 171.769 215.441 172.929C216.819 174.085 217.69 175.394 218.05 176.904C218.415 178.365 218.376 179.939 217.936 181.576C217.642 182.684 217.258 183.685 216.678 184.669C216.148 185.658 215.492 186.389 214.707 186.911C213.97 187.438 213.068 187.605 212.107 187.324C211.528 187.174 211.105 186.94 210.841 186.572C210.578 186.204 210.421 185.746 210.37 185.2C210.319 184.653 210.424 184.022 210.591 183.248C211.988 183.617 213.158 183.769 214.092 183.802C215.026 183.834 215.781 183.654 216.358 183.261C216.935 182.868 217.289 182.209 217.517 181.293C217.746 180.377 217.68 179.434 217.264 178.56C216.848 177.686 215.982 176.87 214.575 176.057C213.163 175.292 211.11 174.521 208.311 173.831C205.756 173.164 203.661 172.881 202.033 172.886C200.406 172.891 199.095 173.22 198.243 173.933C197.343 174.643 196.715 175.623 196.399 176.975C196.175 177.843 196.155 178.629 196.233 179.425C196.364 180.176 196.696 180.895 197.276 181.586C197.856 182.278 198.739 182.897 199.915 183.543C199.795 183.779 199.631 183.962 199.378 184.038C199.125 184.114 198.827 184.137 198.44 184.054C197.812 183.9 197.255 183.507 196.773 182.824C196.286 182.189 195.968 181.324 195.769 180.222C195.61 179.222 195.726 177.902 196.103 176.407Z" fill="#112E3E"/>
<path id="Vector_5" d="M194.909 183.843L195.287 184.024L195.115 184.304C194.757 185.012 194.505 185.631 194.507 186.173C194.46 186.711 194.617 187.168 194.876 187.585C195.184 188.007 195.648 188.343 196.307 188.697L217.078 199.785C217.737 200.139 218.311 200.337 218.854 200.335C219.343 200.378 219.8 200.221 220.226 199.865C220.648 199.557 221.042 199 221.4 198.292L221.457 198.198L221.836 198.379L218.418 204.733L203.723 196.888C203.251 196.65 202.783 196.362 202.311 196.124C201.839 195.885 201.371 195.597 200.899 195.359C200.431 195.071 199.959 194.833 199.491 194.545L203.035 204.171C203.277 204.784 203.479 205.294 203.685 205.756C203.891 206.218 204.105 206.582 204.28 206.843C204.503 207.109 204.681 207.322 204.873 207.388C205.296 207.622 205.7 207.51 206.135 207.055C206.569 206.601 207.078 205.857 207.666 204.775L208.045 204.956L203.854 212.819L203.475 212.638C203.776 212.023 204.018 211.502 204.164 210.973C204.309 210.444 204.267 209.799 204.14 209C203.964 208.196 203.667 207.085 203.106 205.607L201.473 201.176L190.146 202.153C188.657 202.268 187.505 202.463 186.803 202.599C186.048 202.779 185.537 202.98 185.271 203.203C184.956 203.422 184.734 203.699 184.558 204.028L184.5 204.122L184.122 203.94L184.948 202.387C185.306 201.679 185.705 201.073 186.09 200.614C186.475 200.155 186.857 199.745 187.278 199.437C187.699 199.129 188.166 198.874 188.721 198.726C189.227 198.573 189.876 198.482 190.574 198.395L200.204 197.664L198.97 194.302L194.685 192.004C193.977 191.646 193.358 191.395 192.816 191.397C192.277 191.349 191.82 191.506 191.398 191.814C190.977 192.122 190.583 192.679 190.225 193.387L190.167 193.481L189.789 193.299L194.909 183.843Z" fill="#112E3E"/>
<path id="Vector_6" d="M180.189 210.544L180.408 210.859L180.146 211.033C179.511 211.52 179.028 211.97 178.79 212.442C178.551 212.914 178.459 213.399 178.567 213.852C178.671 214.354 178.922 214.869 179.364 215.45L188.001 227.149C188.443 227.73 188.898 228.164 189.321 228.398C189.744 228.633 190.234 228.676 190.785 228.576C191.287 228.472 191.904 228.182 192.538 227.695L192.645 227.606L192.864 227.921L187.114 232.197L184.819 229.137L184.766 229.181C185.156 230.349 185.311 231.398 185.14 232.221C185.014 233.097 184.656 233.805 184.155 234.451C183.655 235.097 183.065 235.636 182.431 236.123C181.273 236.958 180.047 237.441 178.704 237.57C177.362 237.699 175.932 237.13 174.359 235.956L174.306 236.001C174.875 237.382 175.119 238.537 175.037 239.466C174.955 240.395 174.638 241.205 174.142 241.802C173.641 242.448 173.1 242.992 172.47 243.43C170.625 244.796 168.856 245.281 167.165 244.886C165.474 244.491 163.861 243.216 162.226 241.052L156.188 232.883C155.702 232.249 155.251 231.766 154.779 231.527C154.307 231.289 153.822 231.197 153.319 231.301C152.817 231.404 152.2 231.695 151.566 232.182L151.459 232.271L151.24 231.956L157.039 227.684L165.806 239.592C167.128 241.384 168.359 242.527 169.454 242.968C170.549 243.409 171.647 243.259 172.756 242.42C173.599 241.804 174.108 241.06 174.377 240.246C174.65 239.383 174.634 238.445 174.328 237.432C174.022 236.42 173.477 235.337 172.592 234.175L166.206 225.482C165.719 224.848 165.269 224.365 164.796 224.127C164.324 223.888 163.839 223.796 163.337 223.9C162.835 224.004 162.218 224.295 161.583 224.781L161.477 224.87L161.258 224.555L167.057 220.284L175.823 232.191C177.145 233.983 178.376 235.126 179.472 235.567C180.567 236.008 181.718 235.814 182.876 234.979C183.719 234.363 184.33 233.579 184.554 232.711C184.827 231.848 184.766 230.857 184.416 229.791C184.066 228.726 183.431 227.536 182.462 226.219L176.379 217.997C175.892 217.363 175.442 216.88 174.97 216.641C174.497 216.402 174.012 216.311 173.51 216.414C173.008 216.518 172.391 216.809 171.757 217.295L171.65 217.385L171.431 217.07L180.189 210.544Z" fill="#112E3E"/>
<path id="Vector_7" d="M140.31 233.461C143.198 232.581 145.693 232.8 147.894 234.127C150.095 235.454 151.664 237.809 152.701 241.153C153.815 244.75 153.905 247.666 153.014 249.953C152.074 252.236 150.26 253.802 147.572 254.65C145.089 255.418 142.883 255.274 141.007 254.173C139.083 253.067 137.684 251.022 136.719 247.981L136.453 247.07L149.279 243.07C148.421 240.481 147.566 238.435 146.711 236.931C145.853 235.475 144.907 234.456 143.861 234.019C142.819 233.533 141.636 233.528 140.37 233.91C139.406 234.22 138.58 234.64 137.933 235.273C137.29 235.857 136.829 236.606 136.508 237.464C136.235 238.328 136.149 239.306 136.299 240.403C136.001 240.426 135.712 240.352 135.48 240.183C135.252 239.966 135.074 239.754 135.002 239.452C134.849 238.945 134.905 238.309 135.218 237.548C135.532 236.787 136.089 236.048 136.892 235.33C137.695 234.612 138.84 233.923 140.31 233.461ZM140.422 246.236C141.114 248.465 141.844 250.254 142.524 251.497C143.253 252.743 143.967 253.595 144.813 254.063C145.66 254.532 146.545 254.56 147.509 254.25C148.575 253.9 149.316 253.325 149.78 252.528C150.249 251.682 150.445 250.565 150.329 249.077C150.262 247.592 149.883 245.735 149.293 243.466L140.422 246.236Z" fill="#112E3E"/>
<path id="Vector_8" d="M123.026 247.814L123.055 248.605L112.592 248.721L112.563 247.93L123.026 247.814Z" fill="#112E3E"/>
<path id="Vector_9" d="M93.2673 233.521C95.0476 234.023 96.4597 234.787 97.646 235.877C98.7833 236.963 99.5439 238.409 99.8297 240.209C100.116 242.008 99.9223 244.209 99.1969 246.856C98.4716 249.503 97.5041 251.537 96.2989 252.91C95.0937 254.283 93.7889 255.105 92.2823 255.416C90.8248 255.732 89.2547 255.643 87.6169 255.204C86.5087 254.909 85.5112 254.477 84.5267 253.898C83.5421 253.318 82.8107 252.663 82.288 251.878C81.7652 251.092 81.6425 250.244 81.924 249.283C82.0734 248.704 82.3567 248.286 82.725 248.022C83.0932 247.759 83.5507 247.602 84.0933 247.6C84.6358 247.599 85.2718 247.654 86.0418 247.87C85.677 249.218 85.4272 250.379 85.3903 251.361C85.3576 252.295 85.489 253.046 85.8821 253.622C86.2752 254.199 86.8813 254.597 87.798 254.825C88.7105 255.103 89.6531 255.037 90.5278 254.621C91.3982 254.254 92.2669 253.345 93.0764 251.987C93.8859 250.628 94.662 248.528 95.4449 245.787C96.1617 243.238 96.493 241.148 96.5369 239.526C96.5807 237.903 96.2519 236.593 95.5909 235.697C94.93 234.801 93.9008 234.168 92.5565 233.755C91.6887 233.531 90.9058 233.462 90.11 233.54C89.3632 233.622 88.595 233.949 87.9031 234.529C87.2112 235.109 86.5425 235.987 85.9012 237.113C85.6652 236.994 85.4866 236.781 85.4059 236.577C85.3295 236.324 85.3064 236.026 85.4386 235.644C85.5922 235.016 86.0352 234.464 86.6652 234.026C87.3485 233.544 88.2147 233.226 89.3083 233.125C90.4551 232.979 91.7762 233.095 93.2673 233.521Z" fill="#112E3E"/>
<path id="Vector_10" d="M85.897 231.543L85.7159 231.922L85.2437 231.683C84.5356 231.325 83.9081 231.172 83.3698 231.124C82.8273 231.126 82.3741 231.234 81.9972 231.595C81.6247 231.908 81.235 232.416 80.9345 233.03L70.6934 254.211C70.3886 254.874 70.1861 255.497 70.1921 255.99C70.1981 256.484 70.3551 256.941 70.7122 257.367C71.0693 257.792 71.5818 258.133 72.29 258.491L72.7621 258.729L72.581 259.108L65.7223 255.795L77.4614 231.591C77.8194 230.884 77.973 230.256 78.0203 229.718C78.0186 229.176 77.8615 228.719 77.5533 228.297C77.1962 227.872 76.6838 227.531 75.9756 227.173L75.5035 226.935L75.6846 226.556L85.897 231.543Z" fill="#112E3E"/>
<path id="Vector_11" d="M56.3744 244.329C56.7933 244.612 57.0568 244.98 57.1649 245.433C57.2731 245.886 57.0748 246.46 56.619 247.16C56.1631 247.859 55.6841 248.26 55.2309 248.369C54.782 248.428 54.3459 248.34 53.927 248.057C53.5081 247.774 53.2935 247.41 53.1853 246.957C53.0772 246.504 53.2755 245.93 53.7356 245.182C54.1914 244.482 54.6704 244.081 55.1683 244.026C55.5194 243.958 55.9512 244.095 56.3744 244.329ZM75.1634 226.313L74.9377 226.639L74.5188 226.355C73.8681 225.904 73.2492 225.653 72.7153 225.556C72.1813 225.46 71.7281 225.568 71.262 225.823C70.8448 226.082 70.4147 226.488 70.0164 227.094L61.9077 239.147C61.5094 239.753 61.2622 240.322 61.1703 240.807C61.0785 241.292 61.1823 241.794 61.4905 242.215C61.7454 242.681 62.2493 243.12 62.9 243.571L62.9935 243.629L62.7678 243.954L56.8096 239.932L66.7906 225.086C67.2421 224.435 67.4936 223.817 67.5898 223.283C67.6859 222.749 67.5778 222.296 67.2739 221.826C66.97 221.356 66.5151 220.922 65.8644 220.47L65.4455 220.187L65.6713 219.862L75.1634 226.313Z" fill="#112E3E"/>
<path id="Vector_12" d="M58.048 212.342C59.3639 213.641 60.2308 214.998 60.7381 216.521C61.1965 218.04 61.1527 219.663 60.5578 221.385C59.9629 223.107 58.7148 224.969 56.8219 226.872C54.8716 228.87 53.0835 230.142 51.3555 230.73C49.6765 231.322 48.0893 231.429 46.6515 230.957C45.2094 230.535 43.8505 229.726 42.6728 228.538C41.8565 227.727 41.1912 226.88 40.5878 225.891C40.0332 224.906 39.6702 223.987 39.6049 223.045C39.5397 222.103 39.8573 221.293 40.5089 220.611C40.9389 220.205 41.3561 219.946 41.8051 219.887C42.254 219.827 42.739 219.919 43.2111 220.158C43.6833 220.396 44.2404 220.79 44.7846 221.331C43.8094 222.33 43.0386 223.248 42.5252 224.04C42.0119 224.833 41.7964 225.603 41.8385 226.247C41.8762 226.941 42.2651 227.566 42.9432 228.266C43.6256 228.918 44.4763 229.337 45.4059 229.419C46.3845 229.505 47.5485 229.163 48.9023 228.346C50.3049 227.532 51.9591 226.101 53.9626 224.059C55.8022 222.199 57.1311 220.542 57.9491 219.086C58.7629 217.679 59.1235 216.38 58.9733 215.282C58.8231 214.185 58.2771 213.102 57.278 212.127C56.6402 211.529 55.9895 211.077 55.277 210.768C54.5646 210.459 53.7774 210.44 52.8795 210.558C51.9773 210.725 51.0005 211.182 49.8553 211.87C49.6768 211.657 49.6493 211.408 49.6708 211.163C49.6922 210.919 49.8648 210.638 50.1352 210.366C50.5696 209.912 51.2357 209.625 52.0314 209.547C52.8272 209.469 53.7525 209.6 54.7989 210.036C55.89 210.527 56.9595 211.261 58.048 212.342Z" fill="#112E3E"/>
<path id="Vector_13" d="M52.2563 207.546L51.8924 207.76L51.7181 207.498C51.2846 206.82 50.8829 206.341 50.4194 206.004C50.0005 205.721 49.5198 205.581 49.0219 205.635C48.524 205.69 47.96 205.936 47.3385 206.276L27.3177 218.664C26.6919 219.052 26.2129 219.454 25.9297 219.873C25.6464 220.291 25.5545 220.776 25.6095 221.274C25.6644 221.771 25.9554 222.388 26.3399 223.063L26.3803 223.165L26.0163 223.379L22.2171 217.23L36.4865 208.577C36.9569 208.273 37.3741 208.014 37.8402 207.759C38.3064 207.504 38.7278 207.196 39.194 206.941C39.6601 206.687 40.1305 206.383 40.5966 206.128L30.4966 204.354C29.8648 204.25 29.282 204.149 28.7927 204.106C28.3034 204.063 27.9077 204.078 27.5609 204.097C27.2141 204.116 26.9608 204.192 26.8012 204.326C26.4329 204.589 26.3007 204.972 26.4449 205.576C26.5891 206.18 27.0097 207.005 27.6578 208.048L27.2938 208.263L22.583 200.703L22.947 200.488C23.2912 201.061 23.6929 201.539 24.0543 201.916C24.4646 202.297 25.0303 202.593 25.796 202.858C26.5617 203.122 27.7188 203.421 29.2228 203.7L33.8856 204.504L38.7358 194.186C39.3495 192.81 39.7865 191.764 39.9977 191.044C40.2088 190.323 40.305 189.789 40.2415 189.389C40.1737 189.038 40.0569 188.683 39.887 188.372L39.8466 188.27L40.2106 188.056L41.1625 189.569C41.596 190.247 41.936 190.869 42.1334 191.428C42.3797 191.992 42.4793 192.543 42.5342 193.04C42.5892 193.538 42.5419 194.076 42.4458 194.61C42.3007 195.139 42.1024 195.713 41.7977 196.376L37.5871 205.026L41.0842 205.629L45.2029 203.082C45.8819 202.649 46.3609 202.248 46.6974 201.784C46.9807 201.366 47.1214 200.885 47.0219 200.334C46.9712 199.788 46.676 199.22 46.2914 198.545L46.2511 198.443L46.615 198.229L52.2563 207.546Z" fill="#112E3E"/>
<path id="Vector_14" d="M36.4542 181.418L36.0542 181.481L36.031 181.183C35.9529 180.388 35.764 179.731 35.5048 179.314C35.2499 178.848 34.8799 178.569 34.4035 178.379C33.9228 178.238 33.3356 178.187 32.5888 178.269L18.1547 179.811C17.4079 179.894 16.7992 180.087 16.3821 180.346C15.9649 180.605 15.6369 180.97 15.4919 181.5C15.3468 182.029 15.291 182.665 15.3691 183.46L15.3605 183.558L14.9605 183.622L14.2043 176.508L17.9873 176.1L17.9959 176.002C16.7856 175.748 15.8327 175.369 15.195 174.771C14.504 174.217 14.0215 173.534 13.7391 172.82C13.461 172.056 13.2318 171.297 13.1537 170.501C12.9804 169.106 13.1941 167.794 13.7461 166.561C14.2938 165.377 15.5136 164.4 17.3566 163.625L17.3652 163.527C15.9016 163.35 14.7531 162.953 14.0131 162.395C13.2732 161.837 12.7375 161.199 12.4105 160.431C12.1324 159.667 11.9032 158.908 11.8208 158.161C11.5779 155.873 12.0303 154.089 13.2716 152.867C14.4682 151.593 16.4091 150.826 19.0942 150.569L29.3007 149.444C30.0964 149.366 30.754 149.178 31.1712 148.919C31.6373 148.664 31.9206 148.245 32.1103 147.769C32.2554 147.24 32.3112 146.604 32.2288 145.857L32.2373 145.759L32.6374 145.696L33.3892 152.859L18.7062 154.429C16.4657 154.676 14.8974 155.129 13.9437 155.884C12.9943 156.589 12.6063 157.639 12.7307 159.03C12.8406 160.025 13.208 160.895 13.7925 161.538C14.3771 162.181 15.2235 162.649 16.2338 162.935C17.2484 163.172 18.476 163.231 19.9164 163.111L30.6697 161.935C31.4654 161.857 32.1229 161.668 32.5401 161.409C33.0063 161.155 33.2895 160.736 33.4792 160.26C33.6243 159.73 33.6801 159.094 33.5977 158.348L33.6063 158.25L34.0063 158.187L34.7582 165.35L20.0751 166.919C17.8347 167.166 16.2621 167.669 15.3127 168.374C14.359 169.128 13.9709 170.179 14.14 171.623C14.2456 172.667 14.613 173.537 15.2422 174.233C15.8757 174.88 16.7221 175.349 17.8346 175.594C18.947 175.84 20.2767 175.858 21.9171 175.706L32.0704 174.626C32.8661 174.548 33.5237 174.359 33.9409 174.1C34.407 173.845 34.6903 173.426 34.88 172.95C35.0251 172.421 35.0809 171.785 34.9985 171.039L35.0071 170.941L35.4071 170.877L36.4542 181.418Z" fill="#112E3E"/>
<path id="Vector_15" d="M36.7448 135.411C36.0915 138.36 34.6305 140.4 32.3531 141.63C30.0757 142.859 27.2481 143.054 23.866 142.265C20.1903 141.449 17.6023 140.039 16.0932 138.133C14.5885 136.177 14.1541 133.822 14.7413 131.065C15.3113 128.503 16.5552 126.69 18.4729 125.626C20.3906 124.562 22.8757 124.337 26.0175 125.056L26.9832 125.289L24.0094 138.384C26.6705 138.962 28.8637 139.253 30.5891 139.257C32.3145 139.261 33.6253 138.932 34.5704 138.276C35.5155 137.62 36.1439 136.64 36.4109 135.283C36.6478 134.269 36.6762 133.384 36.4556 132.527C36.2839 131.674 35.859 130.898 35.2787 130.206C34.6985 129.514 33.8607 128.948 32.8589 128.564C32.9825 128.279 33.1997 128.052 33.5019 127.98C33.8083 127.859 34.1019 127.885 34.3955 127.911C34.9294 128.007 35.4376 128.396 35.9243 129.031C36.411 129.665 36.7784 130.535 36.9818 131.588C37.1852 132.64 37.0736 133.912 36.7448 135.411ZM25.6612 129.115C23.3383 128.616 21.4919 128.306 20.0154 128.275C18.539 128.244 17.4325 128.492 16.6513 128.965C15.8702 129.439 15.3611 130.183 15.1242 131.197C14.8829 132.26 14.9971 133.206 15.4666 134.036C15.9362 134.866 16.859 135.588 18.1817 136.246C19.5045 136.904 21.272 137.552 23.5862 138.15L25.6612 129.115Z" fill="#112E3E"/>
<path id="Vector_16" d="M32.9712 113.247L32.2673 112.84L37.4548 103.734L38.1587 104.141L32.9712 113.247Z" fill="#112E3E"/>
<path id="Vector_17" d="M60.3322 94.7519C59.0377 96.0182 57.6307 96.8804 56.1113 97.3385C54.5919 97.7966 52.973 97.7037 51.2545 97.0601C49.536 96.4164 47.7264 95.124 45.826 93.1829C43.8808 91.1887 42.6611 89.3566 42.0731 87.6293C41.4851 85.902 41.4757 84.3241 41.947 82.8869C42.4183 81.4497 43.2724 80.1447 44.4605 78.9676C45.2674 78.2006 46.1678 77.491 47.149 76.9857C48.1345 76.4315 49.0985 76.1219 49.9878 76.1014C50.9303 76.0362 51.7406 76.3538 52.4145 77.1029C52.8205 77.5328 53.0797 77.9499 53.09 78.3943C53.1492 78.8431 53.0574 79.3279 52.7698 79.7955C52.5312 80.2674 52.0925 80.771 51.5517 81.315C50.5568 80.2912 49.6873 79.5249 48.8941 79.0117C48.101 78.4986 47.3842 78.2385 46.6906 78.2762C45.997 78.3139 45.3266 78.6493 44.675 79.3314C43.9746 80.0092 43.5591 80.8106 43.4732 81.7887C43.3385 82.7626 43.6801 83.9262 44.4938 85.3283C45.2587 86.7261 46.687 88.4286 48.6725 90.525C50.5283 92.4128 52.1335 93.7858 53.537 94.6483C54.9405 95.5108 56.1912 95.867 57.3337 95.7701C58.4763 95.6732 59.5107 95.1233 60.5348 94.129C61.182 93.4958 61.6335 92.8454 61.9426 92.1333C62.2516 91.4211 62.3203 90.6386 62.2018 89.7411C62.0834 88.8435 61.631 87.8181 60.9383 86.7223C61.1469 86.5928 61.4001 86.5165 61.6894 86.5911C61.9298 86.6615 62.2148 86.7851 62.4869 87.0554C62.9375 87.5385 63.1796 88.1512 63.2577 88.9466C63.3358 89.742 63.1564 90.6627 62.7194 91.7086C62.1975 92.5992 61.4138 93.664 60.3322 94.7519Z" fill="#112E3E"/>
<path id="Vector_18" d="M65.736 89.3612L65.5171 89.0463L65.9386 88.7383C66.6176 88.3051 67.1009 87.8546 67.3396 87.3827C67.6271 86.9151 67.7147 86.4792 67.6598 85.9816C67.6048 85.4839 67.3585 84.9201 66.9164 84.3392L53.741 64.7995C53.3032 64.1696 52.8972 63.7397 52.4783 63.4565C52.0062 63.218 51.5212 63.1261 51.019 63.2299C50.5169 63.3337 49.904 63.5756 49.2207 64.0577L48.7992 64.3657L48.5803 64.0508L54.8725 59.7732L69.9286 82.0408C70.3621 82.7195 70.8127 83.2026 71.2849 83.4412C71.7527 83.7287 72.2377 83.8206 72.7399 83.7168C73.242 83.613 73.8549 83.3711 74.5382 82.8889L74.9597 82.5809L75.1786 82.8959L65.736 89.3612Z" fill="#112E3E"/>
<path id="Vector_19" d="M69.4771 57.4075C69.0153 57.6134 68.5663 57.6725 68.1346 57.536C67.7028 57.3996 67.3011 56.9208 66.9208 56.1974C66.5448 55.4251 66.4496 54.8253 66.5861 54.3937C66.7225 53.9622 67.0462 53.6456 67.5123 53.3908C67.9252 53.1806 68.3741 53.1214 68.8548 53.2622C69.2866 53.3987 69.7416 53.8329 70.1175 54.6051C70.4935 55.3774 70.5888 55.9772 70.4034 56.4045C70.1647 56.8764 69.89 57.1973 69.4771 57.4075ZM75.6358 82.7383L75.4701 82.3788L75.932 82.1729C76.6513 81.8418 77.1793 81.4445 77.5115 81.0301C77.8437 80.6157 78.0291 80.1884 78.0274 79.6462C78.0214 79.1528 77.8772 78.5487 77.5373 77.9275L71.1904 64.852C70.8548 64.1818 70.5063 63.6584 70.0874 63.3752C69.6728 63.0431 69.241 62.9066 68.6985 62.9083C68.156 62.91 67.5473 63.103 66.8237 63.483L66.7215 63.5234L66.5559 63.1638L73.0472 59.9879L80.8576 76.0503C81.1889 76.7694 81.5864 77.2972 82.001 77.6293C82.4156 77.9614 82.892 78.151 83.4388 78.1005C83.9813 78.0988 84.5899 77.9058 85.3093 77.5746L85.7711 77.3687L85.9368 77.7283L75.6358 82.7383Z" fill="#112E3E"/>
<path id="Vector_20" d="M96.3382 74.9453C94.5699 75.4308 92.938 75.4847 91.3895 75.1517C89.8409 74.8186 88.4863 73.9605 87.2812 72.524C86.0717 71.1364 85.1137 69.1302 84.4073 66.5054C83.6562 63.8274 83.4537 61.6411 83.8082 59.8486C84.1628 58.0562 84.8744 56.6894 85.9517 55.6504C87.078 54.6157 88.4231 53.8959 90.0404 53.4465C91.1511 53.1497 92.2491 52.9996 93.383 53.0006C94.517 53.0015 95.487 53.1852 96.3376 53.6049C97.1883 54.0246 97.724 54.663 97.9849 55.6223C98.1334 56.1775 98.1394 56.6709 97.954 57.0982C97.7686 57.5254 97.4406 57.8909 97.0191 58.1989C96.5977 58.5069 95.9358 58.7446 95.1761 58.9736C94.8028 57.6101 94.4079 56.4912 93.9384 55.6614C93.5178 54.8359 92.9778 54.2464 92.3632 53.946C91.7486 53.6457 91.0104 53.6302 90.0996 53.8952C89.1888 54.1603 88.4034 54.6828 87.8411 55.4712C87.2788 56.2597 86.9758 57.4653 87.0341 59.0475C87.0436 60.6255 87.4418 62.8289 88.1843 65.6048C88.8993 68.1318 89.6616 70.1208 90.471 71.5718C91.2805 73.0229 92.235 73.9445 93.2325 74.377C94.2789 74.8139 95.4575 74.868 96.8215 74.4949C97.679 74.2745 98.4027 73.8944 99.037 73.408C99.6225 72.9172 100.123 72.2712 100.396 71.408C100.718 70.5491 100.812 69.4731 100.781 68.1397C101.03 68.1123 101.271 68.1827 101.502 68.3509C101.685 68.5148 101.86 68.7765 101.976 69.1317C102.169 69.7401 102.06 70.4205 101.747 71.1816C101.434 71.9426 100.831 72.629 99.9796 73.3428C98.9855 73.9949 97.8044 74.5319 96.3382 74.9453Z" fill="#112E3E"/>
<path id="Vector_21" d="M103.374 72.3103L103.359 71.9148L103.706 71.8959C104.497 71.8668 105.151 71.727 105.612 71.5211C106.074 71.3152 106.451 70.954 106.641 70.4778C106.831 70.0016 106.931 69.419 106.898 68.6768L106.299 45.1646C106.265 44.4224 106.17 43.8226 105.915 43.3567C105.709 42.895 105.343 42.5672 104.818 42.3733C104.342 42.1836 103.661 42.0746 102.869 42.1037L102.772 42.0951L102.757 41.6995L109.969 41.544L110.431 58.1935C110.433 58.7358 110.434 59.2781 110.489 59.7758C110.491 60.3181 110.497 60.8114 110.499 61.3537C110.5 61.896 110.502 62.4383 110.504 62.9806L117.158 55.1369C117.597 54.6333 117.929 54.2189 118.212 53.8002C118.496 53.3815 118.721 53.0563 118.849 52.7225C118.977 52.3888 119.048 52.1485 119.065 51.9529C119.055 51.5084 118.738 51.1849 118.164 50.9867C117.585 50.8373 116.655 50.7557 115.419 50.7951L115.405 50.3995L124.302 50.1455L124.317 50.541C123.623 50.5787 123.027 50.625 122.521 50.7777C122.014 50.9304 121.442 51.2744 120.803 51.8098C120.164 52.3451 119.349 53.21 118.361 54.3554L115.331 57.9829L121.804 67.3731C122.679 68.6328 123.34 69.5286 123.885 70.0692C124.38 70.6056 124.843 70.9419 125.173 71.1187C125.507 71.2466 125.894 71.3299 126.241 71.311L126.339 71.3196L126.353 71.7152L124.575 71.7562C123.783 71.7853 123.049 71.7209 122.462 71.6694C121.879 71.5689 121.301 71.4196 120.824 71.2299C120.352 70.9913 119.933 70.7081 119.523 70.3271C119.113 69.9461 118.711 69.4673 118.318 68.8906L112.858 60.8709L110.55 63.5761L110.668 68.4163C110.697 69.2074 110.837 69.8604 111.043 70.3221C111.249 70.7837 111.61 71.1604 112.136 71.3544C112.612 71.5441 113.293 71.6531 114.084 71.624L114.182 71.6326L114.197 72.0281L103.374 72.3103Z" fill="#112E3E"/>
<path id="Vector_22" d="M133.887 71.8339L134.068 71.4555L134.353 71.5791C135.114 71.8924 135.738 72.0949 136.231 72.089C136.774 72.0873 137.231 71.9303 137.604 71.618C137.976 71.3057 138.317 70.7935 138.622 70.1303L144.521 56.8483C144.826 56.185 144.979 55.5578 144.973 55.0644C144.967 54.5711 144.761 54.1094 144.4 53.7327C144.039 53.356 143.482 52.9621 142.769 52.6531L142.676 52.5956L142.857 52.2172L149.407 55.1086L147.866 58.6204L147.96 58.6779C148.78 57.7642 149.623 57.1482 150.44 56.8256C151.253 56.552 152.053 56.4251 152.88 56.547C153.659 56.6646 154.429 56.88 155.19 57.1933C156.473 57.7494 157.534 58.5818 158.275 59.6819C159.017 60.782 159.28 62.2836 159.01 64.2313L159.104 64.2888C159.998 63.0859 160.903 62.3275 161.773 61.9603C162.644 61.5932 163.444 61.4662 164.271 61.5882C165.05 61.7058 165.82 61.9212 166.483 62.2259C168.572 63.1485 169.888 64.4468 170.382 66.1166C170.877 67.7864 170.549 69.8277 169.445 72.2936L165.268 81.6854C164.955 82.4464 164.752 83.0693 164.758 83.5627C164.76 84.105 164.917 84.5623 165.328 84.9434C165.689 85.3201 166.246 85.714 166.958 86.0229L167.052 86.0804L166.822 86.4545L160.227 83.51L166.245 69.992C167.164 67.9534 167.501 66.3566 167.36 65.1613C167.218 63.9661 166.504 63.1148 165.27 62.563C164.322 62.1347 163.441 62.0574 162.539 62.2247C161.686 62.3962 160.856 62.8655 160.147 63.6411C159.389 64.4124 158.756 65.4411 158.2 66.723L153.833 76.591C153.519 77.352 153.317 77.975 153.323 78.4683C153.325 79.0106 153.482 79.468 153.892 79.849C154.253 80.2257 154.81 80.6196 155.523 80.9285L155.616 80.986L155.435 81.3644L148.836 78.4688L154.854 64.9508C155.773 62.9122 156.11 61.3154 155.969 60.1202C155.827 58.9249 155.064 58.0693 153.786 57.4643C152.788 57.0318 151.863 56.9013 151.005 57.1217C150.099 57.3378 149.318 57.8114 148.551 58.6805C147.789 59.5008 147.094 60.6719 146.423 62.1408L142.201 71.4794C141.888 72.2405 141.685 72.8634 141.691 73.3568C141.693 73.8991 141.85 74.3564 142.261 74.7374C142.622 75.1141 143.179 75.508 143.892 75.817L143.985 75.8745L143.804 76.2529L133.887 71.8339Z" fill="#112E3E"/>
<path id="Vector_23" d="M173.551 95.1772C171.366 93.1126 170.287 90.8001 170.412 88.2483C170.488 85.6921 171.748 83.1413 174.141 80.5914C176.698 77.8588 179.201 76.3042 181.646 75.9766C184.091 75.6491 186.339 76.4378 188.435 78.3961C190.349 80.1904 191.311 82.1477 191.264 84.3615C191.218 86.5752 190.184 88.8009 187.955 91.168L187.299 91.899L177.505 82.7102C175.653 84.7162 174.315 86.4716 173.444 87.9722C172.577 89.424 172.212 90.7719 172.313 91.8651C172.415 92.9582 172.96 94.0411 173.964 94.9671C174.691 95.6716 175.488 96.1359 176.352 96.4088C177.167 96.6774 178.052 96.7058 178.954 96.5386C179.856 96.3714 180.731 95.9553 181.627 95.2947C181.801 95.5564 181.873 95.8584 181.848 96.1519C181.773 96.441 181.649 96.7259 181.432 96.9532C181.051 97.3634 180.487 97.6096 179.687 97.7365C178.887 97.8634 177.962 97.7329 176.911 97.345C175.762 96.9484 174.693 96.2139 173.551 95.1772ZM184.613 88.8047C186.244 87.075 187.408 85.6001 188.16 84.3354C188.912 83.0708 189.3 82.0205 189.284 81.0827C189.268 80.1449 188.847 79.3194 188.12 78.6149C187.3 77.8528 186.445 77.4821 185.457 77.494C184.519 77.5102 183.4 77.9048 182.197 78.6864C180.995 79.468 179.504 80.7172 177.829 82.3936L184.613 88.8047Z" fill="#112E3E"/>
<path id="Vector_24" d="M194.601 103.087L195.275 102.702L200.547 111.741L199.872 112.125L194.601 103.087Z" fill="#112E3E"/>
</g>
<rect id="clipping-mask" x="9.43164" y="8.54199" width="221.075" height="110.242" fill="#34C027"/>
</g>
<defs>
<clipPath id="clip0_101_124">
<rect width="242" height="272" fill="white"/>
</clipPath>
</defs>
</svg>
