<svg width="242" height="240" viewBox="0 0 242 240" fill="none" xmlns="http://www.w3.org/2000/svg">
<g id="click-me-circle" clip-path="url(#clip0_101_124)">
<rect width="242" height="239" transform="translate(0 0.0175781)" fill="white"/>
<rect id="background" x="-11.5386" y="-4.10254" width="462.773" height="338.09" fill="#E3BCBA"/>
<g id="click-me-type">
<path id="Vector" d="M198.752 102.459C198.266 100.691 198.212 99.0601 198.594 97.5165C198.976 95.9729 199.835 94.619 201.267 93.4634C202.7 92.3077 204.707 91.3503 207.329 90.6933C210.003 89.9916 212.235 89.8425 213.98 90.1928C215.773 90.5473 217.136 91.3077 218.175 92.3846C219.211 93.5104 219.926 94.904 220.327 96.5163C220.624 97.6266 220.726 98.7198 220.725 99.8532C220.724 100.987 220.491 101.952 220.12 102.807C219.701 103.657 219.013 104.188 218.053 104.449C217.498 104.597 217.004 104.603 216.577 104.418C216.149 104.232 215.784 103.904 215.529 103.439C215.225 102.968 214.983 102.356 214.803 101.601C216.167 101.227 217.286 100.833 218.112 100.412C218.938 99.9921 219.527 99.4524 219.828 98.8381C220.128 98.2238 220.144 97.4859 219.927 96.5797C219.666 95.6204 219.188 94.8885 218.399 94.3264C217.611 93.7643 216.453 93.4656 214.826 93.4706C213.247 93.4799 211.047 93.8289 208.27 94.5709C205.746 95.2365 203.712 95.945 202.309 96.7583C200.858 97.5674 199.94 98.4725 199.454 99.5141C199.017 100.56 198.963 101.738 199.288 103.097C199.508 103.955 199.84 104.674 200.326 105.308C200.813 105.942 201.464 106.393 202.274 106.711C203.133 107.033 204.205 107.176 205.539 107.145C205.563 107.443 205.496 107.634 205.328 107.866C205.164 108.049 204.902 108.223 204.551 108.291C203.947 108.435 203.262 108.375 202.505 108.012C201.744 107.699 201.057 107.097 200.396 106.201C199.699 105.154 199.161 103.973 198.752 102.459Z" fill="#112E3E"/>
<path id="Vector_2" d="M200.767 109.832L201.163 109.818L201.214 110.364C201.292 111.16 201.432 111.813 201.687 112.279C201.942 112.744 202.307 113.072 202.784 113.262C203.26 113.452 203.847 113.503 204.59 113.47L228.068 111.686C228.811 111.653 229.419 111.46 229.832 111.25C230.249 110.991 230.577 110.625 230.767 110.149C230.957 109.673 231.017 108.988 230.939 108.193L230.888 107.646L231.284 107.631L231.85 115.222L204.998 117.251C204.202 117.329 203.549 117.469 203.082 117.724C202.616 117.979 202.288 118.344 202.099 118.82C201.909 119.296 201.849 119.981 201.927 120.777L201.978 121.323L201.582 121.338L200.767 109.832Z" fill="#112E3E"/>
<path id="Vector_3" d="M201.597 121.732L201.988 121.767L201.941 122.305C201.872 123.087 201.963 123.736 202.116 124.242C202.318 124.753 202.63 125.125 203.053 125.36C203.477 125.594 204.055 125.743 204.789 125.808L219.298 126.785C220.032 126.85 220.681 126.759 221.138 126.602C221.6 126.396 221.973 126.084 222.211 125.612C222.45 125.14 222.604 124.513 222.672 123.73L222.681 123.632L223.072 123.667L222.588 130.869L204.743 129.697C203.961 129.628 203.312 129.719 202.805 129.872C202.294 130.074 201.922 130.386 201.683 130.858C201.445 131.33 201.291 131.957 201.222 132.739L201.175 133.277L200.784 133.243L201.597 121.732ZM226.651 128.959C226.694 128.469 226.879 128.042 227.252 127.73C227.624 127.418 228.18 127.269 229.012 127.342C229.843 127.415 230.467 127.618 230.734 127.937C231.047 128.309 231.159 128.714 231.112 129.252C231.069 129.741 230.888 130.119 230.56 130.485C230.236 130.801 229.632 130.945 228.751 130.868C227.92 130.795 227.345 130.597 227.033 130.224C226.72 129.852 226.608 129.448 226.651 128.959Z" fill="#112E3E"/>
<path id="Vector_4" d="M198.103 143.555C198.556 141.772 199.325 140.311 200.366 139.121C201.408 137.931 202.855 137.171 204.659 136.837C206.464 136.502 208.67 136.647 211.322 137.323C214.024 138.004 216.014 138.918 217.441 140.078C218.819 141.234 219.69 142.542 220.05 144.052C220.415 145.514 220.376 147.087 219.936 148.725C219.642 149.832 219.258 150.834 218.678 151.818C218.148 152.806 217.492 153.537 216.707 154.06C215.97 154.586 215.068 154.754 214.107 154.472C213.528 154.323 213.105 154.088 212.841 153.72C212.578 153.352 212.421 152.895 212.37 152.348C212.319 151.802 212.424 151.17 212.591 150.396C213.988 150.765 215.158 150.917 216.092 150.95C217.026 150.983 217.781 150.803 218.358 150.41C218.935 150.017 219.289 149.358 219.517 148.441C219.746 147.525 219.68 146.583 219.264 145.708C218.848 144.834 217.982 144.019 216.575 143.205C215.163 142.441 213.11 141.669 210.311 140.98C207.756 140.312 205.661 140.03 204.033 140.035C202.406 140.04 201.095 140.368 200.243 141.082C199.343 141.791 198.715 142.771 198.399 144.123C198.175 144.991 198.155 145.778 198.233 146.573C198.364 147.324 198.696 148.043 199.276 148.735C199.856 149.426 200.739 150.046 201.915 150.691C201.795 150.927 201.631 151.11 201.378 151.186C201.125 151.263 200.827 151.286 200.44 151.203C199.812 151.049 199.255 150.655 198.773 149.972C198.286 149.338 197.968 148.472 197.769 147.37C197.61 146.371 197.726 145.05 198.103 143.555Z" fill="#112E3E"/>
<path id="Vector_5" d="M196.909 150.991L197.287 151.172L197.115 151.453C196.757 152.16 196.505 152.779 196.507 153.321C196.46 153.859 196.617 154.317 196.876 154.734C197.184 155.155 197.648 155.492 198.307 155.845L219.078 166.934C219.737 167.287 220.311 167.486 220.854 167.484C221.343 167.527 221.8 167.37 222.226 167.013C222.648 166.705 223.042 166.148 223.4 165.44L223.457 165.347L223.836 165.528L220.418 171.881L205.723 164.037C205.251 163.798 204.783 163.511 204.311 163.272C203.839 163.033 203.371 162.746 202.899 162.507C202.431 162.22 201.959 161.981 201.491 161.694L205.035 171.32C205.277 171.932 205.479 172.443 205.685 172.905C205.891 173.366 206.105 173.73 206.28 173.992C206.503 174.258 206.681 174.471 206.873 174.537C207.296 174.771 207.7 174.659 208.135 174.204C208.569 173.749 209.078 173.005 209.666 171.923L210.045 172.104L205.854 179.967L205.475 179.786C205.776 179.172 206.018 178.651 206.164 178.121C206.309 177.592 206.267 176.948 206.14 176.148C205.964 175.344 205.667 174.234 205.106 172.755L203.473 168.324L192.146 169.301C190.657 169.417 189.505 169.612 188.803 169.747C188.048 169.927 187.537 170.129 187.271 170.352C186.956 170.571 186.734 170.847 186.558 171.176L186.5 171.27L186.122 171.089L186.948 169.535C187.306 168.827 187.705 168.221 188.09 167.762C188.475 167.303 188.857 166.893 189.278 166.585C189.699 166.277 190.166 166.022 190.721 165.874C191.227 165.721 191.876 165.63 192.574 165.544L202.204 164.812L200.97 161.451L196.685 159.153C195.977 158.795 195.358 158.543 194.816 158.545C194.277 158.498 193.82 158.655 193.398 158.963C192.977 159.271 192.583 159.828 192.225 160.535L192.167 160.629L191.789 160.448L196.909 150.991Z" fill="#112E3E"/>
<path id="Vector_6" d="M182.189 177.693L182.408 178.008L182.146 178.182C181.511 178.668 181.028 179.119 180.79 179.591C180.551 180.062 180.459 180.547 180.567 181C180.671 181.502 180.922 182.017 181.364 182.598L190.001 194.297C190.443 194.878 190.898 195.313 191.321 195.547C191.744 195.781 192.234 195.824 192.785 195.725C193.287 195.621 193.904 195.33 194.538 194.844L194.645 194.754L194.864 195.069L189.114 199.345L186.819 196.285L186.766 196.33C187.156 197.498 187.311 198.546 187.14 199.369C187.014 200.245 186.656 200.953 186.155 201.599C185.655 202.245 185.065 202.785 184.431 203.271C183.273 204.106 182.047 204.59 180.704 204.718C179.362 204.847 177.932 204.278 176.359 203.105L176.306 203.149C176.875 204.53 177.119 205.685 177.037 206.614C176.955 207.544 176.638 208.354 176.142 208.951C175.641 209.597 175.1 210.141 174.47 210.578C172.625 211.944 170.856 212.43 169.165 212.035C167.474 211.64 165.861 210.365 164.226 208.201L158.188 200.031C157.702 199.397 157.251 198.914 156.779 198.676C156.307 198.437 155.822 198.345 155.319 198.449C154.817 198.553 154.2 198.844 153.566 199.33L153.459 199.419L153.24 199.104L159.039 194.833L167.806 206.74C169.128 208.532 170.359 209.675 171.454 210.116C172.549 210.558 173.647 210.407 174.756 209.568C175.599 208.952 176.108 208.209 176.377 207.394C176.65 206.531 176.634 205.593 176.328 204.581C176.022 203.568 175.477 202.485 174.592 201.323L168.206 192.631C167.719 191.997 167.269 191.514 166.796 191.275C166.324 191.036 165.839 190.945 165.337 191.048C164.835 191.152 164.218 191.443 163.583 191.929L163.477 192.019L163.258 191.704L169.057 187.432L177.823 199.34C179.145 201.132 180.376 202.275 181.472 202.716C182.567 203.157 183.718 202.962 184.876 202.127C185.719 201.511 186.33 200.727 186.554 199.86C186.827 198.997 186.766 198.006 186.416 196.94C186.066 195.874 185.431 194.685 184.462 193.368L178.379 185.145C177.892 184.511 177.442 184.028 176.97 183.79C176.497 183.551 176.012 183.459 175.51 183.563C175.008 183.667 174.391 183.957 173.757 184.444L173.65 184.533L173.431 184.218L182.189 177.693Z" fill="#112E3E"/>
<path id="Vector_7" d="M142.31 200.61C145.198 199.729 147.693 199.948 149.894 201.275C152.095 202.602 153.664 204.957 154.701 208.301C155.815 211.898 155.905 214.814 155.014 217.101C154.074 219.385 152.26 220.95 149.572 221.799C147.089 222.566 144.883 222.422 143.007 221.321C141.083 220.216 139.684 218.171 138.719 215.129L138.453 214.219L151.279 210.219C150.421 207.63 149.566 205.583 148.711 204.079C147.853 202.624 146.907 201.604 145.861 201.168C144.819 200.682 143.636 200.677 142.37 201.058C141.406 201.368 140.58 201.788 139.933 202.422C139.29 203.006 138.829 203.754 138.508 204.613C138.235 205.476 138.149 206.454 138.299 207.552C138.001 207.575 137.712 207.5 137.48 207.332C137.252 207.115 137.074 206.902 137.002 206.6C136.849 206.094 136.905 205.458 137.218 204.697C137.532 203.936 138.089 203.196 138.892 202.478C139.695 201.76 140.84 201.072 142.31 200.61ZM142.422 213.384C143.114 215.613 143.844 217.402 144.524 218.645C145.253 219.892 145.967 220.743 146.813 221.212C147.66 221.68 148.545 221.709 149.509 221.399C150.575 221.049 151.316 220.473 151.78 219.676C152.249 218.83 152.445 217.714 152.329 216.225C152.262 214.741 151.883 212.884 151.293 210.614L142.422 213.384Z" fill="#112E3E"/>
<path id="Vector_8" d="M125.026 214.962L125.055 215.753L114.592 215.87L114.563 215.079L125.026 214.962Z" fill="#112E3E"/>
<path id="Vector_9" d="M95.2673 200.67C97.0476 201.171 98.4597 201.936 99.646 203.026C100.783 204.111 101.544 205.558 101.83 207.357C102.116 209.157 101.922 211.357 101.197 214.004C100.472 216.651 99.5041 218.686 98.2989 220.059C97.0937 221.431 95.7889 222.253 94.2823 222.565C92.8248 222.88 91.2547 222.792 89.6169 222.352C88.5087 222.058 87.5112 221.625 86.5267 221.046C85.5421 220.467 84.8107 219.811 84.288 219.026C83.7652 218.241 83.6425 217.392 83.924 216.431C84.0734 215.853 84.3567 215.434 84.725 215.171C85.0932 214.907 85.5507 214.75 86.0933 214.749C86.6358 214.747 87.2718 214.803 88.0418 215.018C87.677 216.366 87.4272 217.527 87.3903 218.51C87.3576 219.443 87.489 220.194 87.8821 220.771C88.2752 221.347 88.8813 221.745 89.798 221.974C90.7105 222.251 91.6531 222.186 92.5278 221.77C93.3982 221.403 94.2669 220.493 95.0764 219.135C95.8859 217.777 96.662 215.676 97.4449 212.936C98.1617 210.387 98.493 208.297 98.5369 206.674C98.5807 205.051 98.2519 203.741 97.5909 202.845C96.93 201.949 95.9008 201.317 94.5565 200.903C93.6887 200.679 92.9058 200.61 92.11 200.689C91.3632 200.771 90.595 201.098 89.9031 201.678C89.2112 202.258 88.5425 203.135 87.9012 204.262C87.6652 204.143 87.4866 203.93 87.4059 203.726C87.3295 203.472 87.3064 203.175 87.4386 202.792C87.5922 202.165 88.0352 201.612 88.6652 201.175C89.3485 200.693 90.2147 200.374 91.3083 200.273C92.4551 200.127 93.7762 200.243 95.2673 200.67Z" fill="#112E3E"/>
<path id="Vector_10" d="M87.897 198.692L87.7159 199.07L87.2437 198.832C86.5356 198.474 85.9081 198.32 85.3698 198.273C84.8273 198.274 84.3741 198.383 83.9972 198.744C83.6247 199.056 83.235 199.564 82.9345 200.178L72.6934 221.359C72.3886 222.022 72.1861 222.645 72.1921 223.139C72.1981 223.632 72.3551 224.089 72.7122 224.515C73.0693 224.941 73.5818 225.281 74.29 225.639L74.7621 225.878L74.581 226.256L67.7223 222.943L79.4614 198.74C79.8194 198.032 79.973 197.405 80.0203 196.867C80.0186 196.325 79.8615 195.867 79.5533 195.446C79.1962 195.02 78.6838 194.68 77.9756 194.322L77.5035 194.083L77.6846 193.705L87.897 198.692Z" fill="#112E3E"/>
<path id="Vector_11" d="M58.3744 211.477C58.7933 211.761 59.0568 212.129 59.1649 212.582C59.2731 213.035 59.0748 213.609 58.619 214.308C58.1631 215.007 57.6841 215.409 57.2309 215.517C56.782 215.576 56.3459 215.489 55.927 215.205C55.5081 214.922 55.2935 214.558 55.1853 214.105C55.0772 213.652 55.2755 213.078 55.7356 212.33C56.1914 211.631 56.6704 211.229 57.1683 211.174C57.5194 211.107 57.9512 211.243 58.3744 211.477ZM77.1634 193.462L76.9377 193.787L76.5188 193.504C75.8681 193.053 75.2492 192.801 74.7153 192.705C74.1813 192.609 73.7281 192.717 73.262 192.972C72.8448 193.231 72.4147 193.637 72.0164 194.242L63.9077 206.295C63.5094 206.901 63.2622 207.471 63.1703 207.956C63.0785 208.44 63.1823 208.942 63.4905 209.364C63.7454 209.83 64.2493 210.268 64.9 210.72L64.9935 210.777L64.7678 211.102L58.8096 207.08L68.7906 192.234C69.2421 191.584 69.4936 190.965 69.5898 190.431C69.6859 189.898 69.5778 189.445 69.2739 188.974C68.97 188.504 68.5151 188.07 67.8644 187.619L67.4455 187.335L67.6713 187.01L77.1634 193.462Z" fill="#112E3E"/>
<path id="Vector_12" d="M60.048 179.491C61.3639 180.789 62.2308 182.147 62.7381 183.67C63.1965 185.188 63.1527 186.811 62.5578 188.533C61.9629 190.255 60.7148 192.117 58.8219 194.021C56.8716 196.018 55.0835 197.29 53.3555 197.878C51.6765 198.47 50.0893 198.577 48.6515 198.106C47.2094 197.684 45.8505 196.874 44.6728 195.687C43.8565 194.876 43.1912 194.029 42.5878 193.039C42.0332 192.054 41.6702 191.135 41.6049 190.193C41.5397 189.251 41.8573 188.441 42.5089 187.759C42.9389 187.353 43.3561 187.094 43.8051 187.035C44.254 186.976 44.739 187.068 45.2111 187.306C45.6833 187.545 46.2404 187.939 46.7846 188.479C45.8094 189.478 45.0386 190.396 44.5252 191.189C44.0119 191.982 43.7964 192.751 43.8385 193.396C43.8762 194.089 44.2651 194.714 44.9432 195.415C45.6256 196.066 46.4763 196.486 47.4059 196.567C48.3845 196.653 49.5485 196.312 50.9023 195.494C52.3049 194.681 53.9591 193.249 55.9626 191.207C57.8022 189.348 59.1311 187.69 59.9491 186.234C60.7629 184.827 61.1235 183.528 60.9733 182.431C60.8231 181.333 60.2771 180.25 59.278 179.275C58.6402 178.677 57.9895 178.226 57.277 177.917C56.5646 177.608 55.7774 177.588 54.8795 177.706C53.9773 177.874 53.0005 178.33 51.8553 179.018C51.6768 178.805 51.6493 178.556 51.6708 178.312C51.6922 178.067 51.8648 177.787 52.1352 177.515C52.5696 177.06 53.2357 176.774 54.0314 176.696C54.8272 176.618 55.7525 176.748 56.7989 177.185C57.89 177.675 58.9595 178.41 60.048 179.491Z" fill="#112E3E"/>
<path id="Vector_13" d="M54.2563 174.694L53.8924 174.909L53.7181 174.647C53.2846 173.968 52.8829 173.489 52.4194 173.153C52.0005 172.87 51.5198 172.729 51.0219 172.784C50.524 172.839 49.96 173.085 49.3385 173.425L29.3177 185.812C28.6919 186.201 28.2129 186.602 27.9297 187.021C27.6464 187.44 27.5545 187.925 27.6095 188.422C27.6644 188.92 27.9554 189.537 28.3399 190.211L28.3803 190.313L28.0163 190.528L24.2171 184.379L38.4865 175.725C38.9569 175.421 39.3741 175.162 39.8402 174.907C40.3064 174.653 40.7278 174.345 41.194 174.09C41.6601 173.835 42.1305 173.531 42.5966 173.276L32.4966 171.503C31.8648 171.398 31.282 171.298 30.7927 171.255C30.3034 171.212 29.9077 171.226 29.5609 171.245C29.2141 171.264 28.9608 171.34 28.8012 171.474C28.4329 171.738 28.3007 172.12 28.4449 172.724C28.5891 173.328 29.0097 174.154 29.6578 175.196L29.2938 175.411L24.583 167.851L24.947 167.637C25.2912 168.209 25.6929 168.688 26.0543 169.065C26.4646 169.446 27.0303 169.742 27.796 170.006C28.5617 170.27 29.7188 170.569 31.2228 170.849L35.8856 171.652L40.7358 161.334C41.3495 159.959 41.7865 158.913 41.9977 158.192C42.2088 157.471 42.305 156.938 42.2415 156.538C42.1737 156.187 42.0569 155.832 41.887 155.521L41.8466 155.419L42.2106 155.204L43.1625 156.717C43.596 157.396 43.936 158.017 44.1334 158.577C44.3797 159.14 44.4793 159.691 44.5342 160.189C44.5892 160.687 44.5419 161.225 44.4458 161.758C44.3007 162.288 44.1024 162.862 43.7977 163.525L39.5871 172.174L43.0842 172.777L47.2029 170.231C47.8819 169.798 48.3609 169.396 48.6974 168.933C48.9807 168.514 49.1214 168.034 49.0219 167.483C48.9712 166.936 48.676 166.368 48.2914 165.694L48.2511 165.591L48.615 165.377L54.2563 174.694Z" fill="#112E3E"/>
<path id="Vector_14" d="M38.4542 148.566L38.0542 148.629L38.031 148.332C37.9529 147.536 37.764 146.879 37.5048 146.462C37.2499 145.996 36.8799 145.717 36.4035 145.527C35.9228 145.387 35.3356 145.335 34.5888 145.417L20.1547 146.96C19.4079 147.042 18.7992 147.235 18.3821 147.494C17.9649 147.753 17.6369 148.119 17.4919 148.648C17.3468 149.178 17.291 149.813 17.3691 150.609L17.3605 150.707L16.9605 150.77L16.2043 143.656L19.9873 143.249L19.9959 143.151C18.7856 142.897 17.8327 142.517 17.195 141.919C16.504 141.366 16.0215 140.683 15.7391 139.968C15.461 139.204 15.2318 138.445 15.1537 137.65C14.9804 136.254 15.1941 134.942 15.7461 133.709C16.2938 132.525 17.5136 131.548 19.3566 130.774L19.3652 130.676C17.9016 130.498 16.7531 130.101 16.0131 129.544C15.2732 128.986 14.7375 128.347 14.4105 127.579C14.1324 126.816 13.9032 126.056 13.8208 125.31C13.5779 123.021 14.0303 121.238 15.2716 120.016C16.4682 118.741 18.4091 117.975 21.0942 117.718L31.3007 116.593C32.0964 116.515 32.754 116.326 33.1712 116.067C33.6373 115.812 33.9206 115.394 34.1103 114.917C34.2554 114.388 34.3112 113.752 34.2288 113.006L34.2373 112.908L34.6374 112.844L35.3892 120.007L20.7062 121.577C18.4657 121.824 16.8974 122.278 15.9437 123.032C14.9943 123.737 14.6063 124.787 14.7307 126.178C14.8406 127.174 15.208 128.044 15.7925 128.686C16.3771 129.329 17.2235 129.798 18.2338 130.084C19.2484 130.321 20.476 130.379 21.9164 130.259L32.6697 129.084C33.4654 129.006 34.1229 128.817 34.5401 128.558C35.0063 128.303 35.2895 127.884 35.4792 127.408C35.6243 126.879 35.6801 126.243 35.5977 125.496L35.6063 125.399L36.0063 125.335L36.7582 132.498L22.0751 134.068C19.8347 134.315 18.2621 134.817 17.3127 135.523C16.359 136.277 15.9709 137.327 16.14 138.771C16.2456 139.815 16.613 140.685 17.2422 141.381C17.8757 142.028 18.7221 142.497 19.8346 142.742C20.947 142.988 22.2767 143.006 23.9171 142.854L34.0704 141.774C34.8661 141.696 35.5237 141.507 35.9409 141.248C36.407 140.994 36.6903 140.575 36.88 140.099C37.0251 139.569 37.0809 138.933 36.9985 138.187L37.0071 138.089L37.4071 138.026L38.4542 148.566Z" fill="#112E3E"/>
<path id="Vector_15" d="M38.7448 102.559C38.0915 105.508 36.6305 107.549 34.3531 108.778C32.0757 110.008 29.2481 110.203 25.866 109.413C22.1903 108.598 19.6023 107.188 18.0932 105.281C16.5885 103.325 16.1541 100.971 16.7413 98.2132C17.3113 95.6511 18.5552 93.8382 20.4729 92.7744C22.3906 91.7106 24.8757 91.4851 28.0175 92.2045L28.9832 92.4371L26.0094 105.532C28.6705 106.111 30.8637 106.402 32.5891 106.406C34.3145 106.409 35.6253 106.081 36.5704 105.424C37.5155 104.768 38.1439 103.788 38.4109 102.432C38.6478 101.417 38.6762 100.533 38.4556 99.6755C38.2839 98.8226 37.859 98.0461 37.2787 97.3544C36.6985 96.6628 35.8607 96.0964 34.8589 95.7128C34.9825 95.4279 35.1997 95.2005 35.5019 95.1285C35.8083 95.0075 36.1019 95.0333 36.3955 95.0591C36.9294 95.1552 37.4376 95.5448 37.9243 96.179C38.411 96.8131 38.7784 97.6832 38.9818 98.736C39.1852 99.7889 39.0736 101.06 38.7448 102.559ZM27.6612 96.2638C25.3383 95.7643 23.4919 95.4543 22.0154 95.4233C20.539 95.3923 19.4325 95.6402 18.6513 96.1137C17.8702 96.5873 17.3611 97.3312 17.1242 98.3454C16.8829 99.4085 16.9971 100.355 17.4666 101.185C17.9362 102.014 18.859 102.736 20.1817 103.394C21.5045 104.053 23.272 104.701 25.5862 105.298L27.6612 96.2638Z" fill="#112E3E"/>
<path id="Vector_16" d="M34.9712 80.395L34.2673 79.9882L39.4548 70.8822L40.1587 71.289L34.9712 80.395Z" fill="#112E3E"/>
<path id="Vector_17" d="M62.3322 61.9003C61.0377 63.1667 59.6307 64.0289 58.1113 64.4869C56.5919 64.945 54.973 64.8522 53.2545 64.2085C51.536 63.5648 49.7264 62.2724 47.826 60.3314C45.8808 58.3371 44.6611 56.5051 44.0731 54.7778C43.4851 53.0505 43.4757 51.4725 43.947 50.0353C44.4183 48.5982 45.2724 47.2931 46.4605 46.116C47.2674 45.349 48.1678 44.6395 49.149 44.1342C50.1345 43.58 51.0985 43.2703 51.9878 43.2498C52.9303 43.1847 53.7406 43.5022 54.4145 44.2513C54.8205 44.6813 55.0797 45.0983 55.09 45.5428C55.1492 45.9915 55.0574 46.4763 54.7698 46.9439C54.5312 47.4158 54.0925 47.9195 53.5517 48.4634C52.5568 47.4397 51.6873 46.6734 50.8941 46.1602C50.101 45.647 49.3842 45.3869 48.6906 45.4246C47.997 45.4623 47.3266 45.7978 46.675 46.4799C45.9746 47.1576 45.5591 47.959 45.4732 48.9372C45.3385 49.911 45.6801 51.0746 46.4938 52.4767C47.2587 53.8745 48.687 55.577 50.6725 57.6734C52.5283 59.5613 54.1335 60.9343 55.537 61.7967C56.9405 62.6592 58.1912 63.0154 59.3337 62.9185C60.4763 62.8217 61.5107 62.2718 62.5348 61.2774C63.182 60.6442 63.6335 59.9939 63.9426 59.2817C64.2516 58.5696 64.3203 57.787 64.2018 56.8895C64.0834 55.992 63.631 54.9666 62.9383 53.8708C63.1469 53.7412 63.4001 53.6649 63.6894 53.7396C63.9298 53.81 64.2148 53.9335 64.4869 54.2038C64.9375 54.687 65.1796 55.2996 65.2577 56.095C65.3358 56.8905 65.1564 57.8111 64.7194 58.857C64.1975 59.7476 63.4138 60.8124 62.3322 61.9003Z" fill="#112E3E"/>
<path id="Vector_18" d="M67.736 56.5097L67.5171 56.1947L67.9386 55.8867C68.6176 55.4535 69.1009 55.0031 69.3396 54.5312C69.6271 54.0636 69.7147 53.6277 69.6598 53.13C69.6048 52.6323 69.3585 52.0686 68.9164 51.4876L55.741 31.9479C55.3032 31.3181 54.8972 30.8882 54.4783 30.605C54.0062 30.3664 53.5212 30.2745 53.019 30.3783C52.5169 30.4821 51.904 30.724 51.2207 31.2062L50.7992 31.5142L50.5803 31.1992L56.8725 26.9216L71.9286 49.1892C72.3621 49.868 72.8127 50.3511 73.2849 50.5897C73.7527 50.8771 74.2377 50.969 74.7399 50.8652C75.242 50.7614 75.8549 50.5195 76.5382 50.0374L76.9597 49.7294L77.1786 50.0443L67.736 56.5097Z" fill="#112E3E"/>
<path id="Vector_19" d="M71.4771 24.5559C71.0153 24.7618 70.5663 24.821 70.1346 24.6845C69.7028 24.548 69.3011 24.0692 68.9208 23.3458C68.5448 22.5736 68.4496 21.9738 68.5861 21.5422C68.7225 21.1106 69.0462 20.794 69.5123 20.5392C69.9252 20.329 70.3741 20.2699 70.8548 20.4106C71.2866 20.5471 71.7416 20.9813 72.1175 21.7536C72.4935 22.5259 72.5888 23.1256 72.4034 23.5529C72.1647 24.0248 71.89 24.3457 71.4771 24.5559ZM77.6358 49.8868L77.4701 49.5272L77.932 49.3214C78.6513 48.9902 79.1793 48.593 79.5115 48.1786C79.8437 47.7642 80.0291 47.3369 80.0274 46.7946C80.0214 46.3012 79.8772 45.6971 79.5373 45.0759L73.1904 32.0004C72.8548 31.3303 72.5063 30.8068 72.0874 30.5237C71.6728 30.1916 71.241 30.0551 70.6985 30.0568C70.156 30.0584 69.5473 30.2514 68.8237 30.6315L68.7215 30.6718L68.5559 30.3123L75.0472 27.1364L82.8576 43.1988C83.1889 43.9179 83.5864 44.4456 84.001 44.7777C84.4156 45.1098 84.892 45.2995 85.4388 45.2489C85.9813 45.2472 86.5899 45.0542 87.3093 44.7231L87.7711 44.5172L87.9368 44.8767L77.6358 49.8868Z" fill="#112E3E"/>
<path id="Vector_20" d="M98.3382 42.0938C96.5699 42.5793 94.938 42.6332 93.3895 42.3001C91.8409 41.9671 90.4863 41.1089 89.2812 39.6724C88.0717 38.2849 87.1137 36.2787 86.4073 33.6538C85.6562 30.9758 85.4537 28.7895 85.8082 26.9971C86.1628 25.2046 86.8744 23.8378 87.9517 22.7988C89.078 21.7641 90.4231 21.0444 92.0404 20.5949C93.1511 20.2981 94.2491 20.1481 95.383 20.149C96.517 20.15 97.487 20.3337 98.3376 20.7533C99.1883 21.173 99.724 21.8114 99.9849 22.7708C100.133 23.3259 100.139 23.8193 99.954 24.2466C99.7686 24.6739 99.4406 25.0394 99.0191 25.3474C98.5977 25.6554 97.9358 25.893 97.1761 26.122C96.8028 24.7586 96.4079 23.6396 95.9384 22.8099C95.5178 21.9844 94.9778 21.3949 94.3632 21.0945C93.7486 20.7941 93.0104 20.7786 92.0996 21.0437C91.1888 21.3087 90.4034 21.8312 89.8411 22.6197C89.2788 23.4082 88.9758 24.6137 89.0341 26.1959C89.0436 27.7739 89.4418 29.9774 90.1843 32.7532C90.8993 35.2802 91.6616 37.2692 92.471 38.7203C93.2805 40.1713 94.235 41.0929 95.2325 41.5255C96.2789 41.9623 97.4575 42.0165 98.8215 41.6433C99.679 41.4229 100.403 41.0429 101.037 40.5564C101.622 40.0657 102.123 39.4196 102.396 38.5564C102.718 37.6975 102.812 36.6216 102.781 35.2882C103.03 35.2607 103.271 35.3311 103.502 35.4993C103.685 35.6632 103.86 35.9249 103.976 36.2802C104.169 36.8885 104.06 37.569 103.747 38.33C103.434 39.0911 102.831 39.7775 101.98 40.4913C100.986 41.1433 99.8044 41.6803 98.3382 42.0938Z" fill="#112E3E"/>
<path id="Vector_21" d="M105.374 39.4588L105.359 39.0632L105.706 39.0444C106.497 39.0152 107.151 38.8754 107.612 38.6696C108.074 38.4637 108.451 38.1025 108.641 37.6263C108.831 37.1501 108.931 36.5675 108.898 35.8253L108.299 12.3131C108.265 11.5708 108.17 10.9711 107.915 10.5051C107.709 10.0435 107.343 9.71567 106.818 9.52171C106.342 9.33204 105.661 9.22301 104.869 9.25211L104.772 9.24352L104.757 8.84796L111.969 8.69244L112.431 25.342C112.433 25.8843 112.434 26.4266 112.489 26.9242C112.491 27.4665 112.497 27.9599 112.499 28.5022C112.5 29.0444 112.502 29.5867 112.504 30.129L119.158 22.2854C119.597 21.7817 119.929 21.3673 120.212 20.9486C120.496 20.5299 120.721 20.2048 120.849 19.871C120.977 19.5372 121.048 19.297 121.065 19.1013C121.055 18.6569 120.738 18.3334 120.164 18.1351C119.585 17.9857 118.655 17.9041 117.419 17.9435L117.405 17.548L126.302 17.2939L126.317 17.6895C125.623 17.7272 125.027 17.7734 124.521 17.9261C124.014 18.0788 123.442 18.4228 122.803 18.9582C122.164 19.4936 121.349 20.3584 120.361 21.5038L117.331 25.1313L123.804 34.5215C124.679 35.7812 125.34 36.6771 125.885 37.2177C126.38 37.754 126.843 38.0904 127.173 38.2672C127.507 38.395 127.894 38.4783 128.241 38.4595L128.339 38.4681L128.353 38.8636L126.575 38.9046C125.783 38.9337 125.049 38.8693 124.462 38.8178C123.879 38.7173 123.301 38.568 122.824 38.3783C122.352 38.1397 121.933 37.8566 121.523 37.4755C121.113 37.0945 120.711 36.6157 120.318 36.0391L114.858 28.0193L112.55 30.7245L112.668 35.5647C112.697 36.3559 112.837 37.0089 113.043 37.4705C113.249 37.9321 113.61 38.3089 114.136 38.5028C114.612 38.6925 115.293 38.8015 116.084 38.7724L116.182 38.781L116.197 39.1766L105.374 39.4588Z" fill="#112E3E"/>
<path id="Vector_22" d="M135.887 38.9823L136.068 38.604L136.353 38.7275C137.114 39.0408 137.738 39.2434 138.231 39.2374C138.774 39.2357 139.231 39.0787 139.604 38.7665C139.976 38.4542 140.317 37.9419 140.622 37.2787L146.521 23.9967C146.826 23.3335 146.979 22.7062 146.973 22.2129C146.967 21.7195 146.761 21.2578 146.4 20.8811C146.039 20.5044 145.482 20.1105 144.769 19.8016L144.676 19.7441L144.857 19.3657L151.407 22.257L149.866 25.7689L149.96 25.8264C150.78 24.9126 151.623 24.2966 152.44 23.9741C153.253 23.7004 154.053 23.5735 154.88 23.6954C155.659 23.813 156.429 24.0285 157.19 24.3417C158.473 24.8979 159.534 25.7303 160.275 26.8303C161.017 27.9304 161.28 29.432 161.01 31.3798L161.104 31.4372C161.998 30.2344 162.903 29.4759 163.773 29.1088C164.644 28.7416 165.444 28.6147 166.271 28.7366C167.05 28.8542 167.82 29.0696 168.483 29.3743C170.572 30.2969 171.888 31.5952 172.382 33.265C172.877 34.9348 172.549 36.9761 171.445 39.442L167.268 48.8338C166.955 49.5948 166.752 50.2178 166.758 50.7111C166.76 51.2534 166.917 51.7108 167.328 52.0918C167.689 52.4685 168.246 52.8624 168.958 53.1714L169.052 53.2289L168.822 53.6029L162.227 50.6584L168.245 37.1405C169.164 35.1018 169.501 33.505 169.36 32.3098C169.218 31.1145 168.504 30.2633 167.27 29.7114C166.322 29.2832 165.441 29.2059 164.539 29.3731C163.686 29.5446 162.856 30.0139 162.147 30.7895C161.389 31.5608 160.756 32.5896 160.2 33.8714L155.833 43.7394C155.519 44.5005 155.317 45.1234 155.323 45.6168C155.325 46.1591 155.482 46.6164 155.892 46.9974C156.253 47.3741 156.81 47.768 157.523 48.077L157.616 48.1345L157.435 48.5129L150.836 45.6172L156.854 32.0993C157.773 30.0606 158.11 28.4639 157.969 27.2686C157.827 26.0733 157.064 25.2178 155.786 24.6127C154.788 24.1802 153.863 24.0497 153.005 24.2701C152.099 24.4863 151.318 24.9599 150.551 25.829C149.789 26.6492 149.094 27.8204 148.423 29.2893L144.201 38.6279C143.888 39.3889 143.685 40.0118 143.691 40.5052C143.693 41.0475 143.85 41.5049 144.261 41.8859C144.622 42.2626 145.179 42.6565 145.892 42.9654L145.985 43.0229L145.804 43.4013L135.887 38.9823Z" fill="#112E3E"/>
<path id="Vector_23" d="M175.551 62.3257C173.366 60.261 172.287 57.9485 172.412 55.3967C172.488 52.8406 173.748 50.2897 176.141 47.7398C178.698 45.0072 181.201 43.4526 183.646 43.1251C186.091 42.7975 188.339 43.5863 190.435 45.5445C192.349 47.3389 193.311 49.2962 193.264 51.5099C193.218 53.7237 192.184 55.9493 189.955 58.3165L189.299 59.0475L179.505 49.8586C177.653 51.8646 176.315 53.62 175.444 55.1207C174.577 56.5724 174.212 57.9204 174.313 59.0135C174.415 60.1067 174.96 61.1896 175.964 62.1155C176.691 62.82 177.488 63.2843 178.352 63.5572C179.167 63.8259 180.052 63.8543 180.954 63.687C181.856 63.5198 182.731 63.1037 183.627 62.4431C183.801 62.7048 183.873 63.0069 183.848 63.3003C183.773 63.5895 183.649 63.8743 183.432 64.1017C183.051 64.5118 182.487 64.758 181.687 64.8849C180.887 65.0118 179.962 64.8813 178.911 64.4934C177.762 64.0969 176.693 63.3623 175.551 62.3257ZM186.613 55.9531C188.244 54.2234 189.408 52.7486 190.16 51.4839C190.912 50.2192 191.3 49.169 191.284 48.2311C191.268 47.2933 190.847 46.4678 190.12 45.7633C189.3 45.0013 188.445 44.6305 187.457 44.6424C186.519 44.6587 185.4 45.0533 184.197 45.8348C182.995 46.6164 181.504 47.8656 179.829 49.5421L186.613 55.9531Z" fill="#112E3E"/>
<path id="Vector_24" d="M196.601 70.2351L197.275 69.8508L202.547 78.889L201.872 79.2734L196.601 70.2351Z" fill="#112E3E"/>
</g>
<rect id="clipping-mask" x="11.4316" y="4.60449" width="221.075" height="81.3281" fill="#34C027"/>
</g>
<defs>
<clipPath id="clip0_101_124">
<rect width="242" height="239" fill="white" transform="translate(0 0.0175781)"/>
</clipPath>
</defs>
</svg>
