<svg width="529" height="449" viewBox="0 0 529 449" fill="none" xmlns="http://www.w3.org/2000/svg">
<g id="contact-svg" clip-path="url(#clip0_101_124)">
<rect id="clipping-mask" x="49.8369" y="14.1406" width="422.068" height="148.566" fill="#34C027"/>
<g id="Group 7">
<path id="Vector" d="M170.475 112.081C167.825 114.583 164.484 116.232 160.886 116.813C157.54 117.243 154.142 116.654 151.137 115.122C144.19 111.336 138.831 105.184 136.035 97.7831C134.892 94.5379 134.767 91.0207 135.677 87.7025C136.838 84.075 139.032 80.865 141.99 78.4662C143.632 76.9491 145.525 75.7283 147.584 74.8579C149.079 74.2021 150.714 73.9274 152.341 74.0586C153.616 74.1732 154.801 74.7633 155.661 75.7115C156.077 76.1319 156.376 76.6541 156.528 77.2261C156.679 77.798 156.678 78.3996 156.524 78.971C156.145 80.2256 155.396 81.3367 154.376 82.1592C153.091 80.6012 151.564 79.2601 149.853 78.187C148.661 77.4362 147.239 77.1398 145.847 77.3521C144.355 77.6804 142.982 78.4118 141.877 79.4665C139.925 81.0379 138.649 83.2964 138.309 85.7788C138.121 88.5281 138.748 91.2717 140.112 93.6665C141.972 97.127 144.255 100.343 146.907 103.242C149.497 106.345 152.481 109.097 155.783 111.429C158.055 113.108 160.783 114.059 163.606 114.155C166.25 114.065 168.768 113 170.673 111.164C172.53 109.686 173.804 107.597 174.266 105.268C174.508 102.659 173.951 100.037 172.668 97.7525C173.124 97.5703 173.626 97.5389 174.101 97.6627C174.572 97.8177 174.99 98.1018 175.308 98.4827C175.822 99.1428 176.138 99.9361 176.217 100.769C176.362 101.869 176.282 102.988 175.982 104.056C175.599 105.435 174.996 106.744 174.197 107.931C173.149 109.477 171.897 110.873 170.475 112.081V112.081Z" fill="black"/>
<path id="Vector_2" d="M200.117 92.7564C196.848 94.5344 193.127 95.3084 189.42 94.9813C186.049 94.5586 182.889 93.1126 180.366 90.8382C177.417 88.1592 175.025 84.9247 173.328 81.32C171.485 77.8123 170.366 73.9703 170.035 70.0218C169.769 66.6463 170.553 63.271 172.279 60.3583C174.283 57.2137 177.16 54.7222 180.559 53.1892C183.735 51.4827 187.345 50.7528 190.935 51.0911C194.309 51.5118 197.484 52.923 200.057 55.1464C205.988 60.5387 209.667 67.9695 210.36 75.9553C210.57 79.3623 209.77 82.7554 208.061 85.7104C206.171 88.7952 203.405 91.2478 200.117 92.7564V92.7564ZM199.851 92.2161C201.58 91.418 203.085 90.2027 204.228 88.6794C205.272 87.1671 205.855 85.3849 205.907 83.5482C205.96 81.1853 205.616 78.8303 204.89 76.5811C203.936 73.468 202.71 70.4452 201.224 67.5477C199.806 64.6227 198.146 61.8208 196.263 59.171C194.91 57.2423 193.241 55.5552 191.328 54.1805C189.846 53.1166 188.091 52.4988 186.269 52.3998C184.373 52.3897 182.503 52.8463 180.825 53.7294C179.078 54.5367 177.556 55.7621 176.394 57.2974C175.347 58.8124 174.753 60.5948 174.683 62.4352C174.607 64.7969 174.935 67.1543 175.654 69.4052C177.656 75.6131 180.566 81.4907 184.288 86.8473C185.64 88.7829 187.305 90.4792 189.215 91.8662C190.713 92.933 192.487 93.5453 194.324 93.6298C196.256 93.6297 198.156 93.1436 199.851 92.2161V92.2161Z" fill="black"/>
<path id="Vector_3" d="M220.687 82.2695L220.571 81.6781L222.288 81.3756C223.214 81.2397 224.103 80.9189 224.902 80.4322C225.539 80.0392 226.024 79.4409 226.276 78.7357C226.524 77.9368 226.567 77.0881 226.4 76.2683L220.662 43.5018C220.55 42.7097 220.224 41.9631 219.719 41.3426C219.23 40.7994 218.579 40.4298 217.862 40.2895C216.94 40.1261 215.996 40.138 215.079 40.3246L213.366 40.6129L213.265 40.0253L224.801 38.0076L253.253 67.8565L248.196 38.9224C248.098 38.1012 247.782 37.3214 247.28 36.664C246.811 36.0844 246.159 35.6818 245.431 35.5223C244.507 35.3255 243.552 35.3253 242.628 35.5216L241.032 35.8257L240.93 35.2381L254.607 32.8032L254.709 33.3909L252.992 33.6933C252.077 33.8286 251.199 34.1473 250.41 34.6302C249.787 35.0466 249.307 35.6435 249.032 36.3408C248.764 37.1344 248.717 37.9858 248.894 38.8044L255.348 76.1854L253.571 76.487L221.1 42.4209L226.954 76.2335C227.067 77.0546 227.381 77.8351 227.867 78.506C228.353 79.0797 229.014 79.4785 229.748 79.6412C230.665 79.8225 231.608 79.8202 232.523 79.6344L234.119 79.3302L234.221 79.9178L220.687 82.2695Z" fill="black"/>
<path id="Vector_4" d="M271.877 76.3097L271.932 75.703L272.716 75.7745C273.641 75.8888 274.579 75.8126 275.473 75.5507C276.218 75.3545 276.872 74.9069 277.324 74.2838C277.775 73.5808 278.036 72.773 278.082 71.9391L281.516 34.7553L276.623 34.2915C275.011 34.0702 273.372 34.1493 271.788 34.5248C270.584 34.852 269.557 35.6419 268.933 36.7225C268.153 38.1573 267.659 39.7296 267.478 41.3524L267.169 43.3162L266.577 43.2652L267.834 32.8096L301.377 35.9147L300.774 46.3618L300.185 46.2966L300.242 44.3115C300.355 42.6837 300.162 41.0491 299.671 39.493C299.258 38.3423 298.43 37.3876 297.35 36.8168C295.853 36.1329 294.239 35.741 292.595 35.6621L287.581 35.1967L284.015 72.4816C283.916 73.3075 284.028 74.1448 284.339 74.9163C284.656 75.6003 285.188 76.1618 285.854 76.5152C286.69 76.9281 287.6 77.1694 288.53 77.2246L289.314 77.2962L289.249 77.885L271.877 76.3097Z" fill="black"/>
<path id="Vector_5" d="M294.572 77.5836L294.726 77.0031L296.385 77.5489C297.098 77.8177 297.863 77.9221 298.622 77.8543C299.338 77.7549 300.009 77.4482 300.553 76.9722C301.352 76.3076 302.064 75.5442 302.671 74.7001L326.943 43.1625L329.853 44.131L331.835 85.9783C331.857 86.6867 331.96 87.3902 332.142 88.0752C332.271 88.5649 332.53 89.0107 332.892 89.3648C333.263 89.7184 333.714 89.9781 334.206 90.1224L334.956 90.3214L334.802 90.9018L319.134 85.7021L319.288 85.1216L320.6 85.5453C321.645 85.97 322.771 86.1548 323.896 86.0859C324.278 86.0161 324.631 85.8365 324.912 85.5691C325.192 85.3017 325.389 84.9582 325.477 84.5806C325.555 84.3439 325.619 84.1028 325.669 83.8586C325.736 83.6038 325.811 83.3206 325.795 82.9829C325.845 82.6273 325.849 82.2667 325.807 81.9101L325.441 71.4031L309.995 66.2775L303.886 74.1737C303.676 74.4336 303.482 74.7061 303.306 74.9898C303.139 75.2375 302.989 75.4966 302.858 75.765C302.738 75.987 302.636 76.2185 302.553 76.457C302.378 76.9069 302.347 77.4 302.465 77.8682C302.582 78.3364 302.842 78.7565 303.209 79.0705C304.449 80.0361 305.867 80.7469 307.382 81.1618L308.691 81.5996L308.537 82.1801L294.572 77.5836ZM310.336 65.7921L325.375 70.7946L324.924 58.2649C324.856 56.8073 324.815 55.4176 324.784 54.1062C324.753 52.7948 324.742 51.5192 324.742 50.3219C324.741 49.1247 324.765 47.949 324.791 46.8197C324.258 47.5724 323.744 48.2543 323.288 48.8909C322.831 49.5274 322.36 50.1602 321.918 50.7402C321.477 51.3201 320.963 52.002 320.42 52.6765C319.878 53.3509 319.255 54.1556 318.57 55.0803L310.336 65.7921Z" fill="black"/>
<path id="Vector_6" d="M350.783 102.579C347.644 100.726 345.128 97.9809 343.555 94.6926C342.208 91.6082 341.82 88.1895 342.444 84.8819C344.088 77.1123 348.499 70.2046 354.856 65.4435C357.653 63.4486 360.993 62.3568 364.428 62.3145C368.238 62.4096 371.937 63.6168 375.069 65.7873C376.977 66.9498 378.676 68.4247 380.095 70.1503C381.131 71.4008 381.845 72.8854 382.176 74.4751C382.44 75.7288 382.207 77.0359 381.527 78.1217C381.242 78.6417 380.825 79.0773 380.318 79.3845C379.811 79.6917 379.232 79.8596 378.639 79.8712C377.326 79.8521 376.048 79.4499 374.96 78.7141C376.099 77.0429 376.961 75.1995 377.514 73.2543C377.901 71.8973 377.786 70.4461 377.188 69.1676C376.462 67.8215 375.371 66.7076 374.04 65.9539C371.984 64.522 369.459 63.9284 366.98 64.294C364.275 64.8759 361.803 66.245 359.875 68.2291C357.08 70.989 354.632 74.0801 352.586 77.4337C350.344 80.797 348.544 84.4348 347.231 88.2575C346.25 90.9042 346.099 93.7872 346.797 96.5221C347.638 99.0333 349.367 101.151 351.658 102.478C353.602 103.837 355.965 104.463 358.327 104.246C360.898 103.749 363.257 102.483 365.093 100.615C365.395 100.999 365.568 101.469 365.585 101.958C365.575 102.458 365.415 102.944 365.125 103.351C364.644 104.056 363.972 104.608 363.187 104.944C362.171 105.369 361.082 105.595 359.981 105.609C358.547 105.63 357.119 105.416 355.755 104.973C353.997 104.403 352.325 103.598 350.783 102.579V102.579Z" fill="black"/>
<path id="Vector_7" d="M369.454 116.288L369.882 115.871L370.414 116.436C371.044 117.129 371.81 117.683 372.665 118.064C373.348 118.374 374.118 118.439 374.844 118.247C375.649 118.021 376.378 117.58 376.954 116.973L403.858 91.058L400.433 87.5135C399.341 86.2992 398.036 85.2957 396.582 84.5527C395.45 84.0328 394.163 83.9624 392.982 84.356C391.456 84.9415 390.054 85.8086 388.849 86.9121L387.339 88.2087L386.926 87.7659L394.742 80.7465L418.116 105.006L410.796 112.551L410.38 112.122L411.722 110.66C412.873 109.503 413.791 108.137 414.426 106.634C414.881 105.48 414.868 104.194 414.392 103.049C413.707 101.554 412.744 100.203 411.553 99.0685L408.055 95.459L381.152 121.374C380.529 121.928 380.065 122.636 379.804 123.427C379.589 124.148 379.624 124.921 379.905 125.62C380.262 126.486 380.791 127.271 381.46 127.926L381.996 128.478L381.567 128.894L369.454 116.288Z" fill="black"/>
<path id="Vector_8" d="M409.769 141.115L410.832 140.533L418.283 154.267L417.223 154.834L409.769 141.115Z" fill="black"/>
<path id="Vector_9" d="M414.294 197.258C413.342 193.738 413.469 190.013 414.659 186.566C415.86 183.418 417.984 180.707 420.753 178.787C423.977 176.552 427.618 174.987 431.458 174.185C435.3 173.213 439.298 173.021 443.215 173.62C446.609 174.164 449.757 175.728 452.239 178.104C454.241 180.347 455.777 182.967 456.756 185.81C457.735 188.653 458.137 191.662 457.941 194.663C457.809 196.282 457.28 197.843 456.402 199.21C455.706 200.277 454.631 201.043 453.394 201.352C452.82 201.525 452.21 201.542 451.626 201.401C451.043 201.26 450.508 200.965 450.077 200.548C449.148 199.619 448.518 198.433 448.267 197.144C450.254 196.757 452.163 196.044 453.918 195.035C455.144 194.341 456.08 193.228 456.552 191.9C456.972 190.417 456.979 188.847 456.574 187.36C456.108 184.896 454.715 182.705 452.682 181.237C450.339 179.788 447.619 179.067 444.867 179.165C436.886 179.336 429.03 181.182 421.807 184.582C419.254 185.787 417.125 187.738 415.702 190.176C414.541 192.555 414.293 195.277 415.008 197.826C415.423 200.163 416.665 202.273 418.508 203.77C420.687 205.223 423.259 205.974 425.878 205.921C425.829 206.426 425.618 206.902 425.276 207.276C424.911 207.614 424.462 207.846 423.977 207.947C423.143 208.104 422.282 208.023 421.493 207.713C420.46 207.318 419.516 206.723 418.715 205.961C417.669 204.973 416.798 203.814 416.138 202.535C415.283 200.87 414.662 199.094 414.294 197.258V197.258Z" fill="black"/>
<path id="Vector_10" d="M417.225 232.554C417.218 228.835 418.309 225.197 420.361 222.096C422.338 219.328 425.115 217.23 428.319 216.084C432.077 214.766 436.058 214.2 440.035 214.417C443.983 214.474 447.881 215.311 451.503 216.882C454.564 218.248 457.135 220.515 458.872 223.382C460.679 226.64 461.5 230.354 461.236 234.07C461.235 237.68 460.163 241.209 458.153 244.208C456.175 246.975 453.425 249.098 450.247 250.31C442.678 252.963 434.387 252.674 427.02 249.501C423.925 248.063 421.32 245.75 419.526 242.847C417.773 239.713 416.972 236.136 417.225 232.554V232.554ZM417.825 232.576C417.718 234.479 418.078 236.38 418.872 238.112C419.701 239.75 420.987 241.113 422.575 242.034C424.634 243.195 426.869 244.013 429.192 244.455C432.391 245.079 435.638 245.433 438.897 245.512C442.146 245.645 445.401 245.494 448.624 245.061C450.965 244.788 453.245 244.128 455.37 243.107C457.021 242.316 458.407 241.062 459.357 239.497C460.283 237.838 460.777 235.974 460.795 234.074C460.91 232.154 460.556 230.235 459.762 228.482C458.926 226.842 457.637 225.475 456.049 224.543C454.009 223.352 451.777 222.524 449.454 222.097C446.269 221.471 443.036 221.121 439.791 221.05C436.533 220.911 433.269 221.059 430.036 221.495C427.686 221.764 425.397 222.422 423.262 223.441C421.602 224.244 420.213 225.513 419.263 227.094C418.342 228.776 417.848 230.659 417.825 232.576V232.576Z" fill="black"/>
<path id="Vector_11" d="M416.66 255.603L417.227 255.753L416.684 257.397C416.372 258.281 416.232 259.216 416.272 260.152C416.329 260.9 416.632 261.609 417.132 262.168C417.713 262.764 418.437 263.201 419.235 263.438L450.808 273.915C451.554 274.196 452.363 274.269 453.147 274.126C453.864 273.964 454.505 273.562 454.964 272.986C455.55 272.264 455.987 271.432 456.249 270.539L456.795 268.881L457.376 269.035L453.679 280.177L413.935 291.141L441.789 300.39C442.571 300.682 443.416 300.765 444.24 300.631C444.955 300.5 445.608 300.141 446.102 299.609C446.712 298.889 447.163 298.048 447.423 297.141L447.954 295.539L448.535 295.693L444.099 308.821L443.519 308.667L444.075 307.027C444.39 306.158 444.522 305.233 444.462 304.311C444.403 303.563 444.108 302.854 443.62 302.285C443.053 301.669 442.328 301.22 441.525 300.987L405.496 289.025L406.067 287.327L451.591 274.85L419.112 264.072C418.33 263.78 417.485 263.697 416.661 263.831C415.927 263.98 415.264 264.369 414.776 264.937C414.176 265.653 413.724 266.481 413.449 267.374L412.918 268.975L412.351 268.825L416.66 255.603Z" fill="black"/>
<path id="Vector_12" d="M397.655 303.569L398.158 303.899L397.73 304.544C397.184 305.307 396.804 306.177 396.613 307.096C396.469 307.831 396.571 308.593 396.902 309.264C397.315 309.989 397.904 310.599 398.615 311.036L429.753 331.672L432.465 327.557C433.42 326.234 434.118 324.744 434.524 323.163C434.797 321.947 434.592 320.672 433.953 319.603C433.05 318.248 431.901 317.075 430.566 316.144L428.978 314.935L429.304 314.446L437.869 320.55L419.269 348.637L410.306 343.123L410.636 342.62L412.356 343.622C413.738 344.487 415.269 345.088 416.871 345.394C418.103 345.578 419.359 345.282 420.379 344.567C421.691 343.556 422.803 342.309 423.657 340.89L426.441 336.673L395.2 316.086C394.522 315.601 393.731 315.298 392.903 315.204C392.156 315.159 391.415 315.362 390.795 315.782C390.024 316.316 389.372 317.005 388.88 317.805L388.452 318.449L387.948 318.118L397.655 303.569Z" fill="black"/>
<path id="Vector_13" d="M385.812 322.916L386.225 323.359L384.958 324.538C384.387 325.045 383.932 325.668 383.624 326.367C383.382 327.043 383.329 327.774 383.474 328.478C383.697 329.488 384.037 330.468 384.487 331.399L400.722 367.782L398.482 369.885L360.737 351.71C360.095 351.4 359.422 351.161 358.729 350.996C358.229 350.865 357.704 350.872 357.208 351.017C356.725 351.183 356.286 351.455 355.921 351.812L355.356 352.344L354.943 351.902L367.03 340.605L367.429 341.044L366.42 341.989C365.552 342.71 364.859 343.62 364.397 344.65C364.276 345.015 364.265 345.408 364.366 345.78C364.467 346.151 364.675 346.485 364.964 346.739C365.135 346.927 365.323 347.099 365.525 347.252L366.232 347.788C366.521 347.998 366.838 348.169 367.173 348.295L376.543 352.961L388.386 341.782L384.338 332.647C384.214 332.335 384.066 332.032 383.896 331.742C383.755 331.481 383.6 331.227 383.431 330.982C383.297 330.773 383.14 330.578 382.963 330.404C382.658 330.027 382.241 329.758 381.773 329.633C381.305 329.509 380.809 329.537 380.358 329.713C378.941 330.355 377.666 331.274 376.611 332.417L375.602 333.362L375.189 332.919L385.812 322.916ZM388.698 342.38L377.136 353.24L388.355 358.76C389.699 359.404 390.899 360.025 392.073 360.625C393.248 361.224 394.366 361.808 395.423 362.392C396.481 362.975 397.485 363.529 398.472 364.094L397.371 361.787L396.41 359.699C396.093 359.008 395.759 358.268 395.411 357.464C395.064 356.66 394.654 355.748 394.189 354.7L388.698 342.38Z" fill="black"/>
<path id="Vector_14" d="M337.114 360.509C340.228 358.618 343.837 357.706 347.475 357.892C350.835 358.165 354.034 359.446 356.653 361.568C362.707 366.704 366.693 373.86 367.875 381.711C368.31 385.118 367.684 388.577 366.082 391.615C364.192 394.925 361.374 397.607 357.975 399.33C356.055 400.47 353.956 401.276 351.767 401.715C350.176 402.034 348.531 401.962 346.974 401.505C345.752 401.134 344.713 400.318 344.064 399.218C343.742 398.72 343.556 398.145 343.527 397.552C343.498 396.959 343.626 396.368 343.899 395.841C344.53 394.688 345.491 393.75 346.659 393.148C347.588 394.944 348.803 396.576 350.257 397.981C351.264 398.966 352.593 399.555 353.999 399.64C355.529 399.627 357.027 399.196 358.33 398.394C360.572 397.268 362.294 395.32 363.135 392.955C363.889 390.31 363.849 387.501 363.019 384.879C360.63 377.257 356.667 370.223 351.386 364.232C349.509 362.12 347.037 360.625 344.295 359.943C341.689 359.478 339.003 359.997 336.757 361.399C334.635 362.457 332.96 364.237 332.031 366.419C331.244 368.917 331.237 371.595 332.011 374.096C331.515 374.183 331.003 374.106 330.554 373.877C330.128 373.63 329.782 373.265 329.56 372.825C329.163 372.069 328.995 371.214 329.076 370.363C329.22 369.267 329.572 368.208 330.115 367.245C330.78 365.972 331.644 364.815 332.676 363.817C334.001 362.521 335.493 361.408 337.114 360.509Z" fill="black"/>
<path id="Vector_15" d="M316.15 370.482L316.312 371.07L315.559 371.28C314.653 371.506 313.802 371.915 313.059 372.481C312.467 372.942 312.046 373.587 311.861 374.314C311.697 375.133 311.744 375.979 311.996 376.775L322.143 412.801L326.89 411.469C328.476 411.074 329.976 410.394 331.317 409.461C332.315 408.714 332.988 407.611 333.194 406.382C333.394 404.764 333.289 403.123 332.886 401.543L332.463 399.597L333.051 399.435L335.554 409.599L303.13 418.731L299.936 408.717L300.51 408.551L301.166 410.422C301.646 411.985 302.416 413.443 303.435 414.721C304.241 415.665 305.381 416.26 306.616 416.382C308.257 416.478 309.901 416.267 311.464 415.759L316.368 414.407L306.221 378.381C306.028 377.571 305.624 376.826 305.051 376.222C304.516 375.696 303.818 375.366 303.071 375.288C302.145 375.186 301.207 375.278 300.318 375.558L299.565 375.767L299.399 375.193L316.15 370.482Z" fill="black"/>
<path id="Vector_16" d="M275.204 394.266L275.219 395.467L259.597 395.522L259.596 394.325L275.204 394.266Z" fill="black"/>
<path id="Vector_17" d="M223.611 371.509C227.142 372.372 230.332 374.273 232.771 376.968C234.944 379.537 236.296 382.698 236.653 386.043C237.061 389.95 236.679 393.899 235.529 397.655C234.526 401.492 232.768 405.09 230.359 408.24C228.25 410.946 225.368 412.946 222.096 413.974C219.171 414.65 216.14 414.736 213.182 414.227C210.223 413.718 207.396 412.625 204.864 411.012C203.51 410.114 202.397 408.898 201.621 407.47C201.014 406.345 200.858 405.03 201.187 403.794C201.323 403.23 201.601 402.71 201.995 402.284C202.39 401.858 202.886 401.54 203.438 401.36C204.699 400.999 206.038 401.017 207.289 401.411C206.674 403.339 206.381 405.355 206.419 407.378C206.446 408.784 206.968 410.135 207.892 411.193C208.986 412.275 210.359 413.033 211.858 413.381C214.241 414.167 216.836 414.003 219.101 412.923C221.515 411.594 223.478 409.578 224.744 407.13C226.66 403.675 228.144 399.997 229.162 396.18C230.34 392.314 231.019 388.313 231.182 384.275C231.366 381.44 230.683 378.616 229.222 376.179C227.701 374.014 225.436 372.486 222.86 371.885C220.608 371.132 218.162 371.203 215.958 372.086C213.64 373.301 211.748 375.194 210.534 377.512C210.122 377.239 209.818 376.832 209.673 376.359C209.535 375.865 209.553 375.341 209.722 374.857C209.978 374.047 210.464 373.328 211.12 372.788C211.933 372.108 212.872 371.596 213.884 371.278C215.253 370.845 216.684 370.641 218.12 370.674C219.981 370.691 221.83 370.972 223.611 371.509Z" fill="black"/>
<path id="Vector_18" d="M191.186 357.442C194.473 359.189 197.168 361.87 198.932 365.148C200.442 368.195 200.98 371.633 200.473 374.996C199.084 382.871 194.939 389.996 188.779 395.095C186.105 397.173 182.855 398.375 179.472 398.537C175.747 398.593 172.087 397.56 168.942 395.563C165.765 393.848 163.164 391.234 161.463 388.05C159.966 385 159.398 381.577 159.83 378.207C161.071 370.283 165.243 363.115 171.519 358.122C174.252 356.08 177.519 354.877 180.923 354.66C184.543 354.556 188.114 355.524 191.186 357.442ZM190.895 357.971C189.276 356.964 187.432 356.376 185.529 356.26C183.692 356.221 181.882 356.715 180.319 357.682C178.322 358.938 176.547 360.515 175.065 362.351C173 364.872 171.155 367.566 169.551 370.404C167.88 373.192 166.455 376.12 165.291 379.155C164.43 381.344 163.939 383.662 163.837 386.012C163.766 387.837 164.217 389.644 165.138 391.221C166.218 392.792 167.632 394.105 169.28 395.066C170.927 396.027 172.766 396.611 174.666 396.778C176.508 396.814 178.323 396.329 179.901 395.378C181.909 394.133 183.69 392.556 185.168 390.713C189.256 385.645 192.567 379.996 194.991 373.952C195.867 371.753 196.368 369.422 196.471 367.056C196.541 365.222 196.074 363.408 195.128 361.836C194.063 360.213 192.607 358.884 190.895 357.971V357.971Z" fill="black"/>
<path id="Vector_19" d="M171.144 346.053L170.715 346.47L169.536 345.202C168.909 344.508 168.153 343.942 167.311 343.536C166.627 343.224 165.858 343.148 165.125 343.321C164.324 343.554 163.595 343.986 163.004 344.577L138.778 367.368C138.18 367.895 137.734 368.572 137.485 369.329C137.302 370.036 137.354 370.784 137.633 371.459C137.998 372.316 138.521 373.097 139.174 373.762L140.357 375.015L139.928 375.431L131.899 366.908L141.213 326.752L119.824 346.841C119.197 347.388 118.72 348.085 118.438 348.868C118.222 349.578 118.243 350.34 118.5 351.036C118.851 351.915 119.377 352.714 120.044 353.385L121.231 354.624L120.792 355.023L111.342 344.941L111.785 344.528L112.965 345.795C113.57 346.488 114.317 347.042 115.155 347.422C115.84 347.732 116.608 347.808 117.34 347.637C118.152 347.434 118.893 347.012 119.482 346.417L147.136 320.413L148.308 321.709L137.667 367.558L162.599 344.105C163.226 343.559 163.703 342.862 163.985 342.079C164.199 341.359 164.168 340.589 163.899 339.889C163.562 339.015 163.044 338.222 162.379 337.562L161.192 336.323L161.631 335.924L171.144 346.053Z" fill="black"/>
<path id="Vector_20" d="M137.986 306.516L137.452 306.814L137.089 306.127C136.668 305.289 136.082 304.546 135.365 303.942C134.79 303.457 134.068 303.18 133.316 303.157C132.482 303.171 131.665 303.397 130.944 303.816L98.0187 321.467L100.355 325.799C101.074 327.265 102.053 328.587 103.245 329.702C104.194 330.513 105.417 330.93 106.664 330.866C108.292 330.721 109.878 330.267 111.337 329.529L113.079 328.673L113.363 329.203L103.932 333.854L88.0147 304.162L97.1137 298.877L97.3974 299.407L95.7054 300.473C94.2815 301.276 93.0223 302.34 91.9944 303.611C91.2596 304.609 90.9309 305.849 91.0748 307.08C91.328 308.707 91.8907 310.271 92.7325 311.686L95.1136 316.136L128.074 298.524C128.819 298.153 129.457 297.597 129.926 296.909C130.334 296.274 130.508 295.516 130.418 294.767C130.327 293.845 130.048 292.951 129.599 292.14L129.236 291.453L129.766 291.169L137.986 306.516Z" fill="black"/>
<path id="Vector_21" d="M126.515 286.912L125.941 287.078L125.467 285.437C125.298 284.695 124.964 284.001 124.49 283.406C124.019 282.858 123.397 282.462 122.702 282.265C121.709 281.976 120.684 281.811 119.65 281.774L79.9581 278.826L79.2218 275.888L113.046 251.187C113.622 250.775 114.149 250.3 114.619 249.77C114.965 249.398 115.199 248.934 115.291 248.433C115.384 247.922 115.358 247.397 115.214 246.897L115.004 246.145L115.589 245.997L119.86 261.949L119.29 262.101L118.932 260.763C118.706 259.658 118.237 258.617 117.558 257.717C117.298 257.43 116.96 257.225 116.586 257.125C116.211 257.026 115.816 257.037 115.448 257.157C115.208 257.225 114.973 257.309 114.745 257.41L113.933 257.786C113.611 257.941 113.31 258.136 113.037 258.367L104.47 264.445L108.695 280.172L118.65 280.917C118.961 281.002 119.277 281.07 119.595 281.123C119.893 281.124 120.192 281.107 120.488 281.071C120.74 281.046 120.99 281 121.236 280.936C121.707 280.833 122.135 280.586 122.462 280.232C122.79 279.877 123 279.43 123.065 278.951C123.196 277.365 123.006 275.769 122.506 274.258L122.163 272.924L122.734 272.772L126.515 286.912ZM108.004 280.262L103.898 264.945L93.7263 272.218C92.5454 273.072 91.4077 273.876 90.3313 274.621C89.2549 275.366 88.2039 276.073 87.1963 276.73C86.1887 277.387 85.2027 278.02 84.2421 278.614L86.802 278.732L89.1023 278.857L91.551 279.051L94.5252 279.264L108.004 280.262Z" fill="black"/>
<path id="Vector_22" d="M116.459 226.257C116.656 229.892 115.752 233.502 113.864 236.615C112.028 239.442 109.383 241.65 106.274 242.952C102.649 244.46 98.7574 245.222 94.8313 245.191C90.8706 245.337 86.921 244.686 83.2161 243.279C80.01 242.036 77.2605 239.842 75.3366 236.992C73.8475 234.382 72.8954 231.5 72.5363 228.516C72.1772 225.533 72.4184 222.507 73.2456 219.618C73.713 218.063 74.5567 216.647 75.7021 215.496C76.6113 214.589 77.8351 214.067 79.1192 214.038C79.7109 213.989 80.3053 214.096 80.842 214.35C81.3787 214.605 81.8387 214.996 82.1754 215.485C82.8812 216.594 83.2446 217.887 83.2204 219.202C81.2012 219.159 79.1889 219.45 77.2645 220.062C75.9147 220.483 74.7625 221.378 74.0206 222.581C73.3086 223.934 72.9788 225.454 73.0664 226.98C73.0253 229.465 73.931 231.872 75.5998 233.713C77.5663 235.637 80.0587 236.936 82.7625 237.446C90.605 238.959 98.6782 238.808 106.458 237C109.21 236.363 111.706 234.913 113.623 232.839C115.254 230.754 116.064 228.144 115.901 225.503C115.985 223.138 115.217 220.821 113.738 218.974C111.912 217.093 109.553 215.817 106.979 215.318C107.133 214.853 107.431 214.449 107.831 214.165C108.253 213.907 108.74 213.773 109.236 213.78C110.088 213.794 110.919 214.051 111.631 214.521C112.583 215.126 113.404 215.915 114.045 216.843C114.859 218.03 115.468 219.344 115.848 220.731C116.307 222.535 116.513 224.395 116.459 226.257V226.257Z" fill="black"/>
<path id="Vector_23" d="M117.658 203.104L117.077 202.95L117.276 202.2C117.508 201.29 117.553 200.344 117.408 199.416C117.293 198.687 116.938 198.016 116.398 197.512C115.763 196.971 114.998 196.606 114.178 196.454L77.7151 188.301L76.6379 193.107C76.2297 194.689 76.1125 196.332 76.292 197.955C76.4767 199.188 77.132 200.301 78.1202 201.061C79.44 202.021 80.9335 202.716 82.5179 203.106L84.4433 203.617L84.2894 204.197L74.1384 201.506L81.5118 168.609L91.8439 170.561L91.69 171.141L89.7299 170.818C88.1278 170.5 86.4797 170.49 84.8738 170.789C83.6629 171.048 82.5989 171.765 81.9037 172.789C81.0342 174.186 80.4338 175.733 80.1336 177.351L79.0406 182.273L115.49 190.422C116.294 190.636 117.14 190.636 117.944 190.421C118.662 190.203 119.284 189.749 119.711 189.132C120.24 188.36 120.605 187.487 120.785 186.568L120.983 185.818L121.564 185.971L117.658 203.104Z" fill="black"/>
<path id="Vector_24" d="M116.117 155.765L115.055 155.196L122.406 141.416L123.467 141.985L116.117 155.765Z" fill="black"/>
</g>
</g>
<defs>
<clipPath id="clip0_101_124">
<rect width="529" height="448" fill="white" transform="translate(0 0.691406)"/>
</clipPath>
</defs>
</svg>
