<?xml version="1.0" encoding="utf-8"?>
<!-- Generator: Adobe Illustrator 25.1.0, SVG Export Plug-In . SVG Version: 6.00 Build 0)  -->
<svg version="1.1" id="Layer_1" xmlns="http://www.w3.org/2000/svg" xmlns:xlink="http://www.w3.org/1999/xlink" x="0px" y="0px"
	 viewBox="0 0 720 720" style="enable-background:new 0 0 720 720;" xml:space="preserve">
<style type="text/css">
	.st0{fill:#F5F5F5;}
	.st1{fill:#112E3E;}
</style>
<rect y="-2.7" class="st0" width="720" height="720"/>
<path class="st1" d="M587,346.2v-2.7c20.6-2.7,99.1-25.5,99.1-108.4c0-88.3-88.9-116-181.5-116h-48.2h-20.6h-31.4v0.5H200.2
	c-114.9,0-180.4,63.4-180.4,145.2c0,95.4,90.5,119.2,173.4,132.7c61.8,10.3,132.2,11.4,132.2,69.9c0,48.2-47.1,66.6-107.3,66.6H20.3
	v66.6H218c9.8,0,19.5-0.5,28.2-1.1c66.1-4.9,113.2-27.6,139.8-62.3c16.3-21.7,24.9-48.2,24.9-78.6c0-34.7-11.4-60.1-29.3-79.1
	c-35.2-37.9-95.9-50.4-150.1-59.6c-7.6-1.1-15.2-2.7-22.2-3.8c-59.1-9.2-104-18.4-104-62.3c0-43.9,43.3-67.7,99.1-67.7
	c63.9,0,176.1-1.1,199.9-1.6h4.3h20.1h20.6h55.3c60.7,0,94.8,17.9,94.8,61.2c0,48.2-41.7,70.4-103,70.4H363.3
	c27.6,14.1,53.1,34.1,68.8,63.4h64.5c61.2,0,112.7,22.2,112.7,79.1c0,39-24.9,78.6-88.3,78.6h-87.8c-11.4,23.3-29.3,45-54.2,62.3
	h149c86.1,0,172.3-42.8,172.3-136.5C700.3,365.7,606.5,348.9,587,346.2"/>
</svg>
