<svg width="380" height="136" viewBox="0 0 380 136" fill="none" xmlns="http://www.w3.org/2000/svg">
<g id="my-work-svg" clip-path="url(#clip0_101_124)">
<rect id="clipping-mask" x="36.374" y="10.6221" width="301.621" height="110.242" fill="#34C027"/>
<g id="Group 5">
<path id="Vector" d="M106.588 104.4L106.304 104.099L107.5 103.012C107.977 102.588 108.366 102.074 108.645 101.5C108.859 101.032 108.912 100.506 108.794 100.004C108.639 99.458 108.345 98.9615 107.94 98.5635L92.4649 81.9816C92.1106 81.5702 91.6493 81.2648 91.1322 81.0995C90.652 80.9715 90.1427 81.0076 89.6854 81.2021C89.0954 81.4402 88.56 81.7955 88.1114 82.2466L86.9155 83.3341L86.6313 83.0331L92.7129 77.349L117.254 88.2291L107.01 64.0161L112.488 58.8494L112.772 59.1505L112.387 59.5119C111.908 59.9379 111.518 60.4551 111.24 61.0335C111.026 61.4984 110.975 62.0216 111.093 62.5195C111.249 63.0675 111.543 63.5667 111.945 63.9701L127.35 80.4287C127.726 80.8584 128.205 81.1862 128.742 81.3815C129.233 81.5326 129.761 81.5138 130.241 81.3282C130.834 81.0913 131.373 80.7366 131.825 80.2854L132.22 79.9256L132.494 80.225L124.535 87.6734L124.249 87.3823L124.345 87.2968C124.744 86.9364 125.055 86.4888 125.253 85.9888C125.422 85.5352 125.448 85.0407 125.328 84.5718C125.179 84.0207 124.885 83.5198 124.476 83.1212L108.122 65.794L119.401 92.4211L118.681 93.0914L92.3239 81.3091L108.215 98.2546C108.589 98.6851 109.069 99.0102 109.608 99.1976C110.097 99.3475 110.622 99.3281 111.098 99.1427C111.695 98.914 112.237 98.5627 112.69 98.1113L113.221 97.6021L113.505 97.9031L106.588 104.4Z" fill="black"/>
<path id="Vector_2" d="M138.267 78.1398L138.085 77.7747L138.927 77.3478C139.5 77.0951 140.016 76.7299 140.445 76.2737C140.784 75.8887 140.984 75.4006 141.011 74.8882C141.02 74.3189 140.88 73.7572 140.605 73.2587L136.366 64.7827L123.624 55.6137C123.221 55.2956 122.778 55.0306 122.306 54.8254C121.957 54.681 121.579 54.6178 121.202 54.6405C120.797 54.6792 120.404 54.7997 120.048 54.9948L119.308 55.3576L119.125 54.9926L129.206 49.9474L129.389 50.3125L128.149 50.9364C127.708 51.1193 127.314 51.4001 126.997 51.7576C126.89 51.9015 126.828 52.0742 126.82 52.2535C126.812 52.4328 126.857 52.6104 126.951 52.7637C127.117 53.0569 127.33 53.3218 127.58 53.5483C127.953 53.8925 128.346 54.2155 128.756 54.5158L134.957 59.0212C135.465 59.3799 135.945 59.7239 136.394 60.0727L137.66 61.0451L138.784 61.9024C139.124 62.1723 139.438 62.4174 139.673 62.6494C139.69 61.9425 139.697 61.0514 139.695 59.9763C139.691 58.911 139.706 57.7881 139.73 56.616L139.851 49.833C139.869 49.233 139.844 48.6325 139.777 48.036C139.738 47.6323 139.633 47.2378 139.465 46.8686C139.381 46.6524 139.234 46.467 139.042 46.3371C138.85 46.2071 138.622 46.1388 138.391 46.1412C137.692 46.2356 137.019 46.4676 136.411 46.8238L134.934 47.5905L134.752 47.2254L142.598 43.2967L142.78 43.6618L141.872 44.1182C141.502 44.2928 141.185 44.5612 140.951 44.8968C140.701 45.3055 140.539 45.7616 140.473 46.2363C140.361 46.9815 140.3 47.7334 140.289 48.4868L140.097 63.0245L144.31 71.3542C144.543 71.8737 144.908 72.323 145.369 72.6569C145.799 72.936 146.307 73.0674 146.818 73.0311C147.454 72.9734 148.071 72.787 148.633 72.4832L149.473 72.0662L149.665 72.433L138.267 78.1398Z" fill="black"/>
<path id="Vector_3" d="M163.116 39.3186C162.956 38.8683 162.725 38.4464 162.433 38.0687C162.194 37.7839 161.876 37.5756 161.519 37.4697C161.055 37.3521 160.574 37.3162 160.097 37.3635L159.565 37.396L159.53 36.9948L170.817 36.1969L170.849 36.6079L169.906 36.6731C169.262 36.6759 168.631 36.8503 168.077 37.1782C167.884 37.3306 167.736 37.5321 167.647 37.7618C167.559 37.9914 167.534 38.2406 167.575 38.4832C167.588 38.661 167.613 38.8379 167.649 39.0126C167.693 39.2184 167.75 39.4211 167.821 39.6193L168.031 40.3034L173.43 54.3878C173.729 55.1881 174.019 55.9971 174.301 56.8149C174.57 57.6305 174.836 58.4659 175.09 59.3094C175.345 60.1529 175.586 61.0146 175.812 61.9041C175.946 61.1052 176.107 60.1387 176.307 58.9453C176.507 57.7519 176.708 56.5486 176.931 55.2171L180.449 35.7711L182.162 35.6522L189.407 52.9454C189.873 54.0373 190.29 55.1209 190.681 56.1191C191.071 57.1173 191.424 58.099 191.726 58.9606C192.028 59.8223 192.277 60.5738 192.458 61.192C192.565 60.551 192.651 60.0381 192.714 59.6633C192.776 59.2885 192.847 58.8644 192.927 58.391C193.006 57.9176 193.118 57.2469 193.257 56.4184L196.571 38.9155C196.671 38.5068 196.74 38.0915 196.779 37.6727C196.812 37.357 196.817 37.0392 196.796 36.7225C196.811 36.4305 196.748 36.1399 196.613 35.8804C196.478 35.6209 196.277 35.4018 196.03 35.2457C195.358 34.9575 194.621 34.8587 193.898 34.9598L192.954 35.025L192.931 34.6156L200.862 34.0571L200.895 34.4681L200.116 34.5202C199.62 34.5406 199.136 34.6747 198.701 34.9121C198.304 35.1604 197.994 35.527 197.816 35.9604C197.545 36.5779 197.351 37.2266 197.24 37.8917L192.265 63.9785L189.814 64.1461L179.925 40.2966L175.604 65.1443L173.071 65.3185L163.116 39.3186Z" fill="black"/>
<path id="Vector_4" d="M215.663 68.1171C213.191 67.5748 210.933 66.3152 209.172 64.496C207.604 62.7781 206.605 60.6171 206.314 58.3093C205.981 55.6088 206.188 52.8691 206.923 50.2492C207.539 47.6148 208.676 45.1301 210.265 42.9407C211.633 41.0796 213.541 39.6853 215.729 38.9479C218.167 38.2218 220.764 38.2195 223.203 38.9414C225.61 39.4858 227.804 40.7276 229.51 42.5115C231.061 44.237 232.07 46.3804 232.412 48.6751C233.073 54.1125 231.662 59.5992 228.461 64.0438C227.049 65.8954 225.123 67.2904 222.923 68.0546C220.563 68.7951 218.036 68.8168 215.663 68.1171V68.1171ZM215.731 67.7128C216.981 68.0746 218.302 68.1178 219.573 67.8386C220.782 67.5205 221.874 66.8623 222.719 65.942C223.802 64.7421 224.679 63.3711 225.315 61.8847C226.202 59.8438 226.915 57.7313 227.446 55.57C228.023 53.4287 228.413 51.2414 228.611 49.0326C228.774 47.4336 228.667 45.8187 228.296 44.255C228.005 43.0418 227.369 41.9387 226.465 41.0792C225.498 40.2194 224.328 39.6191 223.066 39.3342C221.803 38.9719 220.47 38.9264 219.185 39.2017C217.968 39.5174 216.866 40.1737 216.009 41.0934C214.918 42.2804 214.038 43.6454 213.407 45.1293C212.515 47.158 211.804 49.2612 211.28 51.4145C210.699 53.5616 210.305 55.7549 210.102 57.9699C209.937 59.5785 210.042 61.2033 210.413 62.7772C210.714 64.01 211.369 65.1277 212.298 65.9925C213.294 66.848 214.487 67.4416 215.771 67.7194L215.731 67.7128Z" fill="black"/>
<path id="Vector_5" d="M230.093 71.7999L230.294 71.4482L230.757 71.7083C231.304 72.0394 231.915 72.2521 232.549 72.3326C233.056 72.4013 233.571 72.2943 234.009 72.0294C234.485 71.7167 234.872 71.2852 235.131 70.7775L246.253 50.9716C246.536 50.5081 246.688 49.9764 246.693 49.4331C246.674 48.9335 246.486 48.455 246.16 48.0765C245.749 47.5916 245.247 47.191 244.684 46.8968L244.221 46.6367L244.423 46.2752L254.061 51.6904C255.835 52.6225 257.43 53.8608 258.772 55.3482C259.769 56.4522 260.388 57.8449 260.54 59.3246C260.621 60.803 260.255 62.2716 259.49 63.5391C258.866 64.7566 257.912 65.774 256.738 66.475C255.721 67.0411 254.58 67.3448 253.416 67.3588C252.29 67.3803 251.166 67.2569 250.071 66.9916L250.725 77.6862C250.796 78.7121 250.87 79.6065 250.951 80.3299C251.012 80.9323 251.126 81.5282 251.292 82.1106C251.404 82.5024 251.578 82.8739 251.808 83.2108C251.997 83.4863 252.246 83.7152 252.537 83.8804L252.655 83.9002L252.455 84.2518L251.953 83.9753C251.025 83.4635 250.123 82.9032 249.253 82.2966C248.664 81.8908 248.138 81.3995 247.693 80.839C247.335 80.3412 247.084 79.7745 246.957 79.1748C246.805 78.4167 246.71 77.6484 246.673 76.8763L246.091 65.0276L243.839 63.7586L238.799 72.7297C238.505 73.2181 238.339 73.7726 238.316 74.3422C238.32 74.8563 238.498 75.3541 238.82 75.7547C239.221 76.2497 239.718 76.6573 240.282 76.9525L240.746 77.2126L240.543 77.5741L230.093 71.7999ZM246.461 64.8767C247.532 65.5437 248.748 65.9452 250.006 66.0479C251.061 66.0714 252.087 65.6964 252.879 64.9977C253.933 64.0313 254.811 62.888 255.472 61.6194C256.239 60.3485 256.775 58.9519 257.054 57.4941C257.253 56.4121 257.047 55.2949 256.475 54.3553C255.748 53.2977 254.77 52.4372 253.629 51.8512L251.202 50.4818L243.971 63.3954L246.461 64.8767Z" fill="black"/>
<path id="Vector_6" d="M251.947 84.1355L252.23 83.8381L252.614 84.2067C253.06 84.6659 253.597 85.0255 254.192 85.2615C254.665 85.4573 255.192 85.4809 255.681 85.3283C256.22 85.1478 256.703 84.8303 257.083 84.4069L272.786 68.004C273.174 67.6228 273.454 67.1444 273.595 66.6187C273.699 66.13 273.638 65.6206 273.422 65.1702C273.138 64.6025 272.753 64.0913 272.285 63.6619L271.901 63.2934L272.184 62.996L280.801 71.2415L280.518 71.5389L280.134 71.1704C279.681 70.7197 279.146 70.3614 278.556 70.1155C278.081 69.93 277.557 69.9065 277.067 70.0487C276.528 70.2366 276.046 70.5568 275.664 70.9799L266.14 80.9344L281.885 79.6052C282.615 79.5449 283.245 79.4779 283.768 79.3829C284.211 79.3189 284.645 79.2045 285.062 79.0418C285.348 78.9347 285.61 78.7717 285.832 78.5623C285.94 78.4479 286.02 78.3095 286.064 78.1584C286.109 78.0073 286.117 77.8477 286.089 77.6928C285.98 77.252 285.767 76.8441 285.467 76.5038C285.013 75.9402 284.518 75.4102 283.988 74.918L284.296 74.5943L290.843 80.8509L290.533 81.1844C290.095 80.7632 289.579 80.4322 289.013 80.2101C288.314 79.9733 287.582 79.8506 286.844 79.8469C285.751 79.8152 284.658 79.8524 283.57 79.9582L274.095 80.7146L271.778 96.1945C271.602 97.2498 271.508 98.1769 271.441 98.9364C271.376 99.5726 271.354 100.212 271.374 100.852C271.375 101.282 271.448 101.708 271.589 102.114C271.701 102.43 271.886 102.714 272.129 102.945L272.188 102.955L271.905 103.252L271.582 102.945C270.757 102.185 269.978 101.378 269.249 100.526C268.751 99.951 268.35 99.2982 268.061 98.5938C267.83 97.9892 267.71 97.3473 267.709 96.6997C267.716 95.916 267.782 95.134 267.908 94.3604L269.961 81.0669L265.679 81.4454L260.063 87.3188C259.656 87.7164 259.357 88.2105 259.194 88.7551C259.075 89.2541 259.122 89.7785 259.329 90.2479C259.601 90.8249 259.983 91.3433 260.453 91.7743L260.837 92.1428L260.554 92.4402L251.947 84.1355Z" fill="black"/>
<path id="Vector_7" d="M284.936 104.511L285.635 104.091L291.12 113.241L290.411 113.66L284.936 104.511Z" fill="black"/>
<path id="Vector_8" d="M286.502 127.201L286.893 127.104L287.261 128.666C287.385 129.289 287.63 129.881 287.983 130.409C288.279 130.826 288.706 131.133 289.195 131.281C289.747 131.425 290.327 131.424 290.879 131.279L313.025 126.175C313.558 126.072 314.053 125.83 314.461 125.472C314.812 125.116 315.038 124.656 315.106 124.16C315.183 123.53 315.142 122.891 314.986 122.275L314.629 120.714L315.018 120.627L316.895 128.739L295.192 144.462L321.277 147.753L322.963 155.061L322.562 155.156L322.436 154.638C322.315 154.015 322.069 153.422 321.714 152.895C321.419 152.475 320.993 152.165 320.503 152.013C319.949 151.873 319.369 151.877 318.818 152.025L296.841 157.087C296.277 157.203 295.754 157.465 295.324 157.847C294.947 158.196 294.698 158.661 294.616 159.169C294.522 159.8 294.556 160.443 294.715 161.061L294.842 161.579L294.441 161.674L291.987 151.013L292.388 150.917L292.37 151.026C292.476 151.555 292.705 152.052 293.039 152.476C293.347 152.851 293.761 153.122 294.228 153.253C294.781 153.393 295.361 153.389 295.913 153.241L319.111 147.907L290.425 144.292L290.21 143.334L313.627 126.458L290.974 131.68C290.408 131.796 289.882 132.058 289.448 132.439C289.072 132.789 288.823 133.253 288.74 133.76C288.645 134.391 288.678 135.035 288.839 135.652L289.013 136.371L288.612 136.466L286.502 127.201Z" fill="black"/>
<path id="Vector_9" d="M86.9033 154.832L86.4989 154.765L86.5881 154.232C86.7616 153.62 86.8068 152.978 86.7209 152.348C86.6465 151.842 86.4076 151.374 86.0412 151.018C85.6128 150.64 85.0944 150.378 84.5358 150.259L62.5018 144.756C61.9782 144.601 61.4223 144.593 60.894 144.73C60.4209 144.883 60.0126 145.189 59.7344 145.601C59.3713 146.126 59.114 146.716 58.977 147.34L58.8895 147.863L58.4851 147.795L61.3765 136.213L61.7809 136.281L61.6918 136.813C61.5183 137.426 61.473 138.067 61.559 138.697C61.6334 139.203 61.8722 139.671 62.2387 140.028C62.6663 140.407 63.185 140.668 63.7441 140.787L77.1058 144.128L68.1319 131.108C67.7268 130.5 67.3556 129.992 67.0183 129.584C66.7389 129.231 66.4222 128.909 66.0736 128.624C65.8364 128.432 65.5648 128.287 65.2733 128.196C65.1215 128.155 64.9616 128.152 64.8085 128.189C64.6554 128.225 64.5139 128.299 64.3969 128.405C64.0649 128.714 63.8155 129.1 63.6711 129.53C63.4079 130.208 63.1932 130.904 63.0286 131.613L62.5847 131.539L64.7706 122.779L65.2144 122.853C65.0655 123.442 65.0355 124.054 65.1261 124.654C65.2607 125.352 65.5038 126.026 65.8464 126.65C66.3599 127.617 66.9313 128.552 67.5576 129.451L72.9067 137.291L87.5026 131.623C88.5123 131.224 89.3625 130.87 90.0548 130.549C90.6401 130.294 91.2077 129.999 91.7537 129.668C92.1321 129.446 92.4685 129.159 92.7472 128.82C92.9685 128.57 93.1236 128.268 93.1983 127.943L93.2115 127.864L93.6159 127.931L93.5416 128.375C93.2787 129.474 92.9519 130.557 92.5629 131.618C92.3061 132.333 91.9408 133.003 91.4798 133.607C91.0633 134.103 90.5641 134.524 90.0043 134.85C89.3243 135.262 88.6134 135.621 87.8778 135.924L75.3112 140.735L77.7633 144.259L85.6466 146.227C86.1931 146.383 86.7705 146.395 87.3234 146.264C87.8094 146.139 88.2392 145.853 88.5438 145.454C88.9179 144.935 89.1823 144.344 89.3209 143.719L89.4084 143.196L89.8128 143.264L86.9033 154.832Z" fill="black"/>
<path id="Vector_10" d="M88.2364 116.091L87.5232 115.688L92.7738 106.428L93.487 106.831L88.2364 116.091Z" fill="black"/>
</g>
</g>
<defs>
<clipPath id="clip0_101_124">
<rect width="380" height="136" fill="white"/>
</clipPath>
</defs>
</svg>
