<svg width="529" height="449" viewBox="0 0 529 449" fill="none" xmlns="http://www.w3.org/2000/svg">
<g id="my-work-svg">
<rect id="clipping-mask" x="49.8369" y="14.1406" width="422.068" height="154.265" fill="#34C027"/>
<g id="Group 5">
<path id="Vector" d="M148.089 145.367L147.692 144.945L149.365 143.423C150.033 142.83 150.577 142.111 150.968 141.308C151.268 140.653 151.341 139.916 151.176 139.215C150.96 138.45 150.548 137.756 149.981 137.199L128.327 113.995C127.831 113.419 127.185 112.992 126.462 112.761C125.79 112.582 125.077 112.632 124.437 112.904C123.612 113.238 122.862 113.735 122.235 114.366L120.561 115.888L120.163 115.467L128.674 107.513L163.014 122.738L148.68 88.8555L156.345 81.6257L156.743 82.0469L156.204 82.5527C155.533 83.1488 154.988 83.8726 154.6 84.6819C154.3 85.3325 154.228 86.0646 154.393 86.7613C154.612 87.5281 155.023 88.2267 155.586 88.7912L177.142 111.822C177.669 112.424 178.338 112.882 179.09 113.155C179.778 113.367 180.517 113.341 181.188 113.081C182.018 112.749 182.772 112.253 183.404 111.622L183.957 111.118L184.34 111.537L173.204 121.96L172.804 121.553L172.937 121.433C173.496 120.929 173.931 120.302 174.208 119.603C174.445 118.968 174.481 118.276 174.313 117.62C174.104 116.849 173.693 116.148 173.121 115.59L150.236 91.3434L166.019 128.604L165.011 129.541L128.129 113.054L150.366 136.767C150.89 137.369 151.562 137.824 152.316 138.086C152.999 138.296 153.734 138.269 154.4 138.009C155.235 137.689 155.994 137.198 156.628 136.566L157.371 135.853L157.769 136.275L148.089 145.367Z" fill="black"/>
<path id="Vector_2" d="M192.419 108.619L192.164 108.108L193.342 107.511C194.144 107.158 194.866 106.646 195.466 106.008C195.941 105.469 196.22 104.786 196.259 104.069C196.271 103.273 196.075 102.487 195.69 101.789L189.758 89.9284L171.929 77.0981C171.364 76.6528 170.744 76.2821 170.085 75.9949C169.595 75.7929 169.067 75.7044 168.539 75.7362C167.972 75.7903 167.423 75.959 166.924 76.232L165.888 76.7397L165.633 76.2288L179.74 69.169L179.995 69.6799L178.26 70.5529C177.642 70.8089 177.091 71.2018 176.648 71.702C176.498 71.9034 176.412 72.1451 176.4 72.3959C176.389 72.6468 176.452 72.8954 176.583 73.1099C176.816 73.5202 177.114 73.8908 177.463 74.2078C177.986 74.6895 178.536 75.1415 179.11 75.5616L187.787 81.8662C188.498 82.3682 189.169 82.8495 189.797 83.3376L191.57 84.6984L193.142 85.898C193.618 86.2756 194.058 86.6187 194.386 86.9432C194.41 85.9541 194.42 84.7072 194.416 83.2027C194.411 81.7119 194.432 80.1408 194.466 78.5005L194.635 69.0088C194.66 68.1692 194.625 67.329 194.531 66.4943C194.477 65.9294 194.33 65.3773 194.095 64.8607C193.978 64.5582 193.771 64.2988 193.502 64.1169C193.234 63.9351 192.916 63.8395 192.592 63.8429C191.614 63.9749 190.672 64.2995 189.821 64.798L187.755 65.8709L187.499 65.36L198.479 59.8624L198.734 60.3733L197.464 61.0119C196.946 61.2563 196.502 61.6319 196.175 62.1015C195.825 62.6735 195.597 63.3117 195.506 63.976C195.349 65.0186 195.263 66.0708 195.249 67.1251L194.98 87.4681L200.875 99.1241C201.201 99.8512 201.712 100.48 202.357 100.947C202.958 101.338 203.669 101.521 204.384 101.471C205.274 101.39 206.138 101.129 206.924 100.704L208.1 100.12L208.369 100.634L192.419 108.619Z" fill="black"/>
<path id="Vector_3" d="M227.191 54.2955C226.967 53.6654 226.644 53.075 226.235 52.5465C225.9 52.1479 225.455 51.8564 224.956 51.7082C224.307 51.5437 223.633 51.4934 222.967 51.5596L222.221 51.6051L222.173 51.0438L237.967 49.9272L238.013 50.5024L236.692 50.5935C235.791 50.5975 234.908 50.8415 234.133 51.3004C233.863 51.5136 233.655 51.7956 233.531 52.117C233.408 52.4383 233.373 52.787 233.43 53.1265C233.449 53.3753 233.483 53.6228 233.533 53.8673C233.595 54.1553 233.676 54.4389 233.774 54.7163L234.068 55.6735L241.624 75.3823C242.041 76.5021 242.448 77.6343 242.843 78.7786C243.219 79.9199 243.591 81.0888 243.947 82.2692C244.303 83.4496 244.64 84.6553 244.957 85.9001C245.144 84.7821 245.37 83.4296 245.65 81.7597C245.929 80.0897 246.211 78.4059 246.523 76.5427L251.446 49.3314L253.843 49.165L263.981 73.3638C264.633 74.8918 265.217 76.4082 265.763 77.8049C266.31 79.2017 266.803 80.5754 267.226 81.7812C267.648 82.9869 267.997 84.0385 268.25 84.9036C268.4 84.0066 268.52 83.2889 268.608 82.7644C268.696 82.24 268.795 81.6465 268.906 80.9841C269.017 80.3216 269.174 79.3831 269.368 78.2238L274.006 53.7314C274.145 53.1596 274.242 52.5784 274.297 51.9924C274.342 51.5506 274.35 51.1058 274.321 50.6627C274.341 50.2541 274.253 49.8474 274.064 49.4843C273.876 49.1212 273.594 48.8147 273.248 48.5961C272.309 48.1929 271.277 48.0546 270.265 48.1961L268.944 48.2873L268.912 47.7144L280.01 46.9329L280.056 47.5081L278.965 47.5809C278.272 47.6095 277.595 47.7972 276.987 48.1294C276.43 48.4768 275.997 48.9898 275.748 49.5963C275.369 50.4604 275.098 51.3681 274.941 52.2988L267.98 88.8028L264.55 89.0374L250.712 55.6641L244.666 90.4341L241.121 90.6779L227.191 54.2955Z" fill="black"/>
<path id="Vector_4" d="M300.722 94.5942C297.261 93.8352 294.102 92.0726 291.638 89.5269C289.444 87.1231 288.047 84.0991 287.639 80.8698C287.173 77.0909 287.463 73.2572 288.491 69.5911C289.353 65.9047 290.943 62.4277 293.168 59.364C295.081 56.7597 297.751 54.8086 300.814 53.7767C304.225 52.7607 307.858 52.7575 311.272 53.7677C314.641 54.5295 317.71 56.2671 320.098 58.7634C322.268 61.1779 323.68 64.1773 324.159 67.3884C325.083 74.997 323.109 82.6747 318.63 88.8942C316.654 91.4853 313.959 93.4372 310.881 94.5067C307.578 95.5428 304.042 95.5733 300.722 94.5942V94.5942ZM300.816 94.0283C302.566 94.5346 304.414 94.5951 306.193 94.2045C307.884 93.7593 309.412 92.8382 310.595 91.5504C312.111 89.8714 313.338 87.9529 314.227 85.8729C315.469 83.017 316.467 80.061 317.21 77.0365C318.017 74.0402 318.563 70.9794 318.84 67.8886C319.067 65.651 318.918 63.3912 318.398 61.2031C317.991 59.5055 317.101 57.962 315.836 56.7591C314.483 55.5561 312.847 54.716 311.08 54.3174C309.313 53.8104 307.447 53.7467 305.649 54.132C303.946 54.5737 302.405 55.492 301.205 56.7791C299.678 58.4401 298.447 60.3502 297.564 62.4266C296.317 65.2654 295.321 68.2085 294.588 71.2217C293.775 74.2262 293.224 77.2953 292.94 80.3949C292.709 82.6458 292.856 84.9194 293.374 87.1218C293.796 88.8469 294.713 90.4109 296.012 91.621C297.406 92.8183 299.076 93.6489 300.872 94.0375L300.816 94.0283Z" fill="black"/>
<path id="Vector_5" d="M320.914 99.7472L321.195 99.2551L321.844 99.619C322.609 100.082 323.463 100.38 324.351 100.493C325.06 100.589 325.781 100.439 326.394 100.068C327.06 99.6307 327.601 99.0269 327.964 98.3165L343.527 70.6015C343.923 69.9529 344.136 69.2088 344.143 68.4487C344.117 67.7495 343.854 67.0799 343.396 66.5503C342.821 65.8718 342.12 65.3112 341.332 64.8995L340.683 64.5356L340.966 64.0296L354.454 71.6074C356.935 72.9117 359.167 74.6445 361.046 76.7258C362.44 78.2706 363.307 80.2196 363.519 82.29C363.633 84.3588 363.121 86.4139 362.05 88.1875C361.177 89.8912 359.842 91.3149 358.199 92.2959C356.776 93.088 355.179 93.5131 353.551 93.5327C351.975 93.5627 350.401 93.39 348.87 93.0188L349.784 107.984C349.884 109.42 349.987 110.671 350.101 111.683C350.187 112.526 350.346 113.36 350.578 114.175C350.735 114.724 350.979 115.243 351.3 115.715C351.565 116.1 351.914 116.421 352.32 116.652L352.486 116.679L352.205 117.172L351.504 116.785C350.204 116.068 348.943 115.284 347.726 114.436C346.9 113.868 346.164 113.18 345.541 112.396C345.041 111.699 344.69 110.906 344.512 110.067C344.3 109.006 344.167 107.931 344.114 106.851L343.3 90.2705L340.149 88.4947L333.097 101.048C332.685 101.732 332.453 102.508 332.421 103.305C332.426 104.024 332.675 104.721 333.126 105.281C333.686 105.974 334.383 106.544 335.172 106.957L335.821 107.321L335.537 107.827L320.914 99.7472ZM343.817 90.0593C345.317 90.9927 347.018 91.5545 348.778 91.6982C350.256 91.7311 351.691 91.2064 352.798 90.2287C354.274 88.8763 355.502 87.2764 356.427 85.5013C357.5 83.7229 358.25 81.7685 358.642 79.7286C358.92 78.2146 358.631 76.6512 357.83 75.3365C356.814 73.8564 355.446 72.6523 353.848 71.8324L350.452 69.9161L340.334 87.9864L343.817 90.0593Z" fill="black"/>
<path id="Vector_6" d="M351.495 117.009L351.891 116.593L352.428 117.109C353.052 117.752 353.804 118.255 354.636 118.585C355.298 118.859 356.036 118.892 356.72 118.679C357.474 118.426 358.15 117.982 358.681 117.389L380.655 94.4362C381.199 93.9027 381.59 93.2334 381.788 92.4976C381.933 91.8138 381.848 91.101 381.545 90.4707C381.148 89.6763 380.609 88.9611 379.955 88.3601L379.417 87.8444L379.813 87.4283L391.871 98.9665L391.475 99.3826L390.937 98.867C390.304 98.2363 389.554 97.735 388.73 97.3909C388.064 97.1313 387.332 97.0984 386.646 97.2974C385.892 97.5603 385.217 98.0084 384.682 98.6005L371.355 112.53L393.388 110.67C394.41 110.586 395.291 110.492 396.023 110.359C396.642 110.269 397.25 110.109 397.833 109.882C398.233 109.732 398.6 109.504 398.911 109.211C399.062 109.051 399.174 108.857 399.236 108.645C399.299 108.434 399.31 108.211 399.27 107.994C399.119 107.377 398.82 106.806 398.399 106.33C397.764 105.542 397.073 104.8 396.331 104.111L396.761 103.658L405.923 112.413L405.49 112.88C404.877 112.291 404.154 111.827 403.363 111.517C402.384 111.185 401.359 111.014 400.326 111.008C398.798 110.964 397.268 111.016 395.746 111.164L382.488 112.222L379.245 133.884C378.998 135.361 378.866 136.658 378.773 137.721C378.682 138.611 378.651 139.506 378.68 140.401C378.681 141.002 378.782 141.6 378.98 142.168C379.137 142.609 379.396 143.007 379.736 143.33L379.819 143.344L379.423 143.76L378.97 143.33C377.816 142.267 376.725 141.137 375.705 139.946C375.008 139.141 374.447 138.227 374.044 137.241C373.719 136.395 373.552 135.497 373.551 134.591C373.56 133.494 373.653 132.4 373.829 131.317L376.702 112.715L370.711 113.245L362.851 121.464C362.282 122.02 361.864 122.712 361.635 123.474C361.469 124.172 361.535 124.906 361.825 125.563C362.205 126.37 362.739 127.096 363.397 127.699L363.935 128.214L363.539 128.63L351.495 117.009Z" fill="black"/>
<path id="Vector_7" d="M397.657 145.522L398.635 144.933L406.31 157.738L405.318 158.324L397.657 145.522Z" fill="black"/>
<path id="Vector_8" d="M399.848 177.272L400.396 177.136L400.91 179.322C401.083 180.194 401.427 181.023 401.92 181.761C402.335 182.345 402.932 182.774 403.617 182.982C404.39 183.183 405.201 183.182 405.973 182.979L436.963 175.836C437.708 175.693 438.402 175.353 438.972 174.853C439.463 174.354 439.78 173.711 439.875 173.018C439.982 172.135 439.925 171.241 439.707 170.379L439.207 168.195L439.752 168.074L442.378 179.424L412.009 201.426L448.509 206.031L450.87 216.258L450.308 216.391L450.132 215.666C449.962 214.794 449.618 213.964 449.121 213.227C448.708 212.64 448.112 212.206 447.427 211.993C446.652 211.797 445.84 211.803 445.068 212.01L414.315 219.093C413.527 219.255 412.795 219.622 412.194 220.157C411.665 220.644 411.317 221.296 411.203 222.006C411.071 222.889 411.118 223.789 411.342 224.654L411.518 225.378L410.957 225.511L407.523 210.593L408.085 210.46L408.059 210.611C408.208 211.352 408.529 212.048 408.996 212.641C409.427 213.165 410.007 213.544 410.659 213.728C411.434 213.924 412.245 213.918 413.017 213.711L445.48 206.247L405.337 201.189L405.037 199.848L437.805 176.232L406.106 183.54C405.314 183.703 404.578 184.069 403.97 184.602C403.445 185.091 403.097 185.742 402.98 186.451C402.847 187.334 402.894 188.234 403.119 189.099L403.362 190.104L402.8 190.237L399.848 177.272Z" fill="black"/>
<path id="Vector_9" d="M409.32 234.02L409.886 234.115L409.793 235.433C409.715 236.326 409.815 237.225 410.088 238.079C410.32 238.749 410.768 239.324 411.362 239.711C412.044 240.124 412.823 240.352 413.62 240.373L426.852 241.168L446.863 232.231C447.529 231.966 448.163 231.624 448.75 231.213C449.181 230.878 449.533 230.453 449.782 229.967C450.018 229.452 450.149 228.895 450.169 228.329L450.248 227.179L450.814 227.274L449.796 243.022L449.23 242.927L449.358 240.977C449.434 240.304 449.359 239.622 449.138 238.982C449.041 238.758 448.879 238.569 448.674 238.438C448.468 238.308 448.228 238.242 447.984 238.25C447.493 238.213 447.001 238.275 446.535 238.433C445.85 238.631 445.179 238.875 444.526 239.161L434.709 243.477C433.91 243.839 433.172 244.184 432.422 244.513L430.351 245.358L428.523 246.102C427.946 246.331 427.43 246.529 427.005 246.699L430.21 248.654C431.503 249.41 432.788 250.206 434.246 251.075L442.38 255.969C443.096 256.41 443.841 256.804 444.608 257.15C445.121 257.392 445.67 257.546 446.234 257.607C446.558 257.654 446.889 257.601 447.182 257.455C447.475 257.308 447.717 257.076 447.875 256.789C448.269 255.896 448.479 254.932 448.491 253.955L448.633 251.666L449.21 251.692L448.422 263.946L447.856 263.852L447.949 262.448C447.995 261.876 447.89 261.301 447.647 260.78C447.332 260.19 446.896 259.672 446.369 259.261C445.564 258.596 444.719 257.981 443.839 257.419L426.413 246.926L413.303 246.08C412.513 245.999 411.715 246.125 410.987 246.444C410.34 246.757 409.817 247.28 409.504 247.927C409.123 248.735 408.909 249.611 408.874 250.503L408.795 251.824L408.229 251.729L409.32 234.02Z" fill="black"/>
<path id="Vector_10" d="M438.741 291.44C439.397 291.574 440.072 291.591 440.733 291.489C441.265 291.401 441.758 291.151 442.144 290.775C442.608 290.294 442.988 289.739 443.27 289.133L443.595 288.464L444.108 288.706L437.167 302.881L436.656 302.626L437.237 301.446C437.686 300.66 437.923 299.77 437.924 298.865C437.878 298.533 437.746 298.219 437.542 297.954C437.338 297.688 437.068 297.48 436.759 297.351C436.535 297.243 436.304 297.152 436.066 297.079C435.786 296.987 435.5 296.91 435.211 296.85L434.231 296.686L413.386 293.311C412.213 293.115 411.026 292.916 409.839 292.718C408.652 292.519 407.454 292.219 406.267 291.935C405.08 291.652 403.845 291.317 402.612 290.969C403.502 291.671 404.576 292.546 405.831 293.607L409.871 297.022L430.991 314.943L429.92 317.105L403.929 313.705C402.3 313.433 400.711 313.266 399.193 313.012C397.675 312.758 396.281 312.525 395.052 312.319C393.824 312.114 392.718 311.858 391.83 311.652L393.483 313.05L394.844 314.242L397.003 316.093L415.851 332.414C416.28 332.814 416.734 333.184 417.212 333.522C417.572 333.779 417.951 334.009 418.346 334.208C418.695 334.43 419.097 334.555 419.51 334.572C419.923 334.589 420.333 334.496 420.699 334.304C421.507 333.683 422.135 332.857 422.518 331.913L423.085 330.731L423.612 330.975L418.645 340.813L418.121 340.555L418.612 339.573C418.929 338.963 419.105 338.289 419.126 337.602C419.106 336.941 418.88 336.303 418.481 335.777C417.904 335.007 417.24 334.306 416.504 333.687L388.443 309.34L389.952 306.259L425.703 311.107L398.683 288.424L400.238 285.237L438.741 291.44Z" fill="black"/>
<path id="Vector_11" d="M366.951 334.756C369.353 332.139 372.476 330.292 375.927 329.448C379.107 328.785 382.415 329.116 385.402 330.395C388.898 331.903 392.062 334.086 394.712 336.82C397.457 339.425 399.654 342.552 401.175 346.017C402.464 348.984 402.8 352.277 402.137 355.443C401.298 358.908 399.465 362.054 396.863 364.492C394.521 367.019 391.484 368.796 388.133 369.6C384.951 370.26 381.644 369.968 378.626 368.761C371.577 365.719 365.928 360.14 362.798 353.129C361.556 350.112 361.232 346.796 361.868 343.596C362.644 340.209 364.414 337.131 366.951 334.756V334.756ZM367.351 335.163C366.042 336.427 365.064 337.993 364.502 339.723C364.025 341.409 364.046 343.196 364.563 344.87C365.244 347.024 366.282 349.049 367.633 350.86C369.468 353.375 371.514 355.73 373.747 357.899C375.926 360.11 378.295 362.125 380.826 363.922C382.642 365.252 384.669 366.268 386.822 366.926C388.494 367.419 390.272 367.431 391.952 366.961C393.674 366.389 395.225 365.396 396.465 364.07C397.793 362.8 398.788 361.222 399.362 359.476C399.838 357.783 399.823 355.99 399.32 354.305C398.653 352.151 397.625 350.127 396.278 348.319C394.458 345.804 392.42 343.455 390.189 341.298C388.004 339.084 385.632 337.063 383.098 335.259C381.275 333.921 379.24 332.899 377.077 332.237C375.399 331.73 373.609 331.726 371.929 332.227C370.189 332.798 368.618 333.793 367.358 335.122L367.351 335.163Z" fill="black"/>
<path id="Vector_12" d="M352.317 349.546L352.604 350.034L351.96 350.409C351.183 350.842 350.501 351.428 349.955 352.131C349.515 352.699 349.278 353.399 349.282 354.118C349.335 354.917 349.586 355.69 350.012 356.368L366.145 383.741C366.503 384.428 367.038 385.008 367.695 385.419C368.311 385.749 369.019 385.868 369.71 385.756C370.59 385.587 371.428 385.245 372.176 384.75L372.821 384.376L373.108 384.864L359.82 392.713C357.445 394.209 354.822 395.269 352.074 395.844C350.04 396.272 347.922 396.041 346.027 395.186C344.293 394.223 342.835 392.833 341.788 391.148C340.742 389.464 340.143 387.54 340.047 385.559C340.075 383.931 340.508 382.336 341.306 380.918C342.079 379.543 343.021 378.27 344.111 377.131L330.729 370.365C329.418 369.72 328.301 369.192 327.362 368.78C326.588 368.432 325.785 368.151 324.963 367.939C324.401 367.782 323.816 367.723 323.234 367.763C322.763 367.795 322.307 367.937 321.901 368.178L321.759 368.268L321.474 367.766L322.166 367.357C323.435 366.592 324.745 365.897 326.09 365.275C326.994 364.84 327.962 364.552 328.957 364.422C329.808 364.333 330.667 364.424 331.481 364.688C332.502 365.044 333.497 365.471 334.459 365.967L349.216 373.587L352.36 371.758L345.057 359.355C344.665 358.667 344.109 358.087 343.439 357.666C342.808 357.318 342.078 357.196 341.368 357.319C340.487 357.463 339.644 357.78 338.886 358.252L338.255 358.628L337.954 358.138L352.317 349.546ZM349.163 374.245C347.603 375.08 346.262 376.27 345.247 377.718C344.515 378.966 344.269 380.44 344.554 381.858C344.969 383.821 345.732 385.693 346.807 387.386C347.803 389.209 349.116 390.841 350.682 392.205C351.847 393.185 353.329 393.706 354.85 393.669C356.627 393.527 358.34 392.94 359.832 391.963L363.199 389.987L352.679 372.137L349.163 374.245Z" fill="black"/>
<path id="Vector_13" d="M321.984 367.34L322.147 367.892L321.431 368.099C320.569 368.326 319.761 368.721 319.052 369.261C318.487 369.707 318.088 370.33 317.919 371.029C317.78 371.826 317.853 372.646 318.131 373.406L326.97 403.928C327.145 404.668 327.523 405.346 328.061 405.884C328.581 406.353 329.244 406.634 329.942 406.681C330.828 406.749 331.718 406.642 332.563 406.368L333.278 406.161L333.441 406.713L317.413 411.352L317.25 410.8L317.966 410.593C318.83 410.371 319.639 409.976 320.345 409.431C320.908 408.989 321.306 408.371 321.476 407.676C321.633 406.893 321.583 406.083 321.33 405.325L315.918 386.798L306.473 406.783C306.033 407.716 305.671 408.521 305.413 409.216C305.185 409.803 305.021 410.413 304.924 411.035C304.848 411.457 304.862 411.89 304.967 412.305C305.029 412.512 305.139 412.703 305.287 412.86C305.436 413.018 305.619 413.139 305.822 413.214C306.435 413.394 307.082 413.425 307.708 413.303C308.707 413.145 309.694 412.917 310.66 412.619L310.828 413.229L298.647 416.752L298.479 416.142C299.292 415.904 300.052 415.511 300.716 414.985C301.505 414.32 302.183 413.532 302.724 412.653C303.524 411.35 304.252 410.004 304.903 408.62L310.627 396.624L293.523 382.936C292.346 382.001 291.311 381.232 290.438 380.604C289.711 380.08 288.952 379.602 288.166 379.174C287.645 378.882 287.081 378.673 286.496 378.554C286.022 378.463 285.533 378.484 285.067 378.612L284.971 378.596L284.808 378.044L285.42 377.863C286.932 377.405 288.471 377.042 290.029 376.775C291.072 376.577 292.14 376.55 293.192 376.695C294.088 376.838 294.951 377.146 295.735 377.603C296.68 378.157 297.58 378.782 298.43 379.473L313.079 391.303L315.622 385.854L312.455 374.939C312.276 374.174 311.906 373.468 311.38 372.886C310.865 372.387 310.198 372.075 309.485 372.001C308.598 371.914 307.703 372.01 306.855 372.285L306.126 372.489L305.976 371.939L321.984 367.34Z" fill="black"/>
<path id="Vector_14" d="M274.216 393.015L274.222 394.165L259.308 394.265L259.285 393.126L274.216 393.015Z" fill="black"/>
<path id="Vector_15" d="M245.642 378.768L245.478 379.323L243.334 378.652C242.489 378.371 241.596 378.26 240.707 378.326C239.989 378.384 239.313 378.686 238.791 379.182C238.231 379.746 237.83 380.447 237.627 381.215L228.288 411.589C228.035 412.31 227.983 413.086 228.139 413.834C228.32 414.509 228.719 415.105 229.274 415.528C229.974 416.072 230.776 416.472 231.631 416.703L233.775 417.374L233.6 417.912L222.484 414.477L218.697 377.167L196.268 406.401L186.245 403.304L186.406 402.764L187.122 402.983C187.966 403.271 188.86 403.382 189.749 403.309C190.464 403.254 191.14 402.957 191.663 402.466C192.228 401.899 192.635 401.195 192.842 400.422L202.145 370.269C202.41 369.518 202.471 368.711 202.324 367.929C202.169 367.224 201.772 366.596 201.203 366.152C200.506 365.59 199.701 365.175 198.839 364.934L198.123 364.715L198.301 364.163L212.883 368.675L212.705 369.227L212.54 369.199C211.825 368.958 211.064 368.889 210.317 368.997C209.645 369.101 209.022 369.414 208.536 369.891C207.98 370.457 207.579 371.157 207.373 371.924L197.54 403.719L222.179 371.536L223.529 371.946L227.471 412.148L237.062 381.121C237.327 380.366 237.39 379.554 237.243 378.767C237.083 378.064 236.687 377.437 236.121 376.991C235.425 376.426 234.621 376.011 233.757 375.772L232.773 375.465L232.948 374.927L245.642 378.768Z" fill="black"/>
<path id="Vector_16" d="M191.792 358.462L191.472 358.933L190.375 358.197C189.643 357.682 188.817 357.317 187.944 357.123C187.243 356.979 186.514 357.071 185.871 357.386C185.179 357.773 184.597 358.33 184.181 359.004L176.819 370.017L174.49 391.817C174.391 392.524 174.376 393.241 174.445 393.951C174.498 394.486 174.674 395.001 174.959 395.456C175.283 395.925 175.7 396.323 176.182 396.626L177.125 397.266L176.805 397.737L163.721 388.936L164.044 388.451L165.662 389.545C166.204 389.953 166.832 390.233 167.498 390.363C167.742 390.39 167.988 390.344 168.206 390.232C168.425 390.12 168.605 389.945 168.724 389.731C168.97 389.318 169.151 388.87 169.259 388.401C169.419 387.705 169.537 387 169.612 386.29L170.827 375.639C170.901 374.772 170.996 373.951 171.1 373.16C171.204 372.368 171.352 371.655 171.468 370.965C171.583 370.275 171.699 369.585 171.793 369.019C171.888 368.453 171.987 367.86 172.068 367.377C171.196 367.841 170.112 368.468 168.814 369.187C167.516 369.907 166.138 370.683 164.688 371.462L156.207 376.101C155.464 376.493 154.749 376.937 154.069 377.432C153.596 377.762 153.186 378.174 152.858 378.648C152.654 378.903 152.532 379.215 152.511 379.541C152.489 379.867 152.568 380.192 152.738 380.472C153.321 381.235 154.055 381.87 154.894 382.337L156.793 383.619L156.473 384.091L146.268 377.247L146.589 376.776L147.775 377.57C148.245 377.901 148.794 378.101 149.367 378.148C150.058 378.187 150.749 378.075 151.394 377.821C152.375 377.442 153.33 377 154.254 376.498L172.08 366.712L179.332 355.852C179.809 355.209 180.103 354.449 180.182 353.653C180.235 352.938 180.044 352.226 179.641 351.633C179.139 350.895 178.49 350.27 177.735 349.796L176.638 349.059L176.958 348.588L191.792 358.462Z" fill="black"/>
<path id="Vector_17" d="M127.42 354.996C126.973 355.496 126.618 356.07 126.37 356.693C126.179 357.216 126.148 357.783 126.282 358.324C126.458 358.972 126.75 359.583 127.143 360.128L127.55 360.749L127.071 361.066L118.315 347.939L118.794 347.621L119.531 348.724C119.985 349.503 120.635 350.15 121.417 350.6C121.735 350.73 122.083 350.773 122.423 350.722C122.764 350.672 123.084 350.531 123.352 350.314C123.557 350.169 123.753 350.012 123.941 349.845C124.157 349.649 124.362 349.442 124.555 349.224L125.246 348.488L138.63 332.185C139.397 331.249 140.186 330.345 140.99 329.444C141.793 328.543 142.61 327.644 143.469 326.752C144.328 325.86 145.186 324.968 146.13 324.076C145.081 324.496 143.779 324.988 142.239 325.539L137.246 327.314L111.178 336.5L109.84 334.489L125.854 313.745C126.869 312.425 127.859 311.172 128.838 309.988C129.816 308.804 130.733 307.737 131.578 306.757C132.423 305.778 133.155 304.964 133.779 304.288L131.744 304.998L130.028 305.59L127.326 306.557L103.808 314.581C103.239 314.746 102.683 314.951 102.144 315.196C101.746 315.381 101.36 315.592 100.989 315.826C100.621 316.016 100.31 316.3 100.087 316.649C99.8646 316.998 99.7378 317.399 99.72 317.813C99.8374 318.828 100.231 319.792 100.857 320.599L101.595 321.702L101.116 322.019L94.9476 312.758L95.4125 312.438L96.0261 313.349C96.3895 313.938 96.8845 314.433 97.4721 314.797C98.0591 315.097 98.7242 315.208 99.3767 315.116C100.331 315.008 101.269 314.784 102.17 314.449L137.336 302.443L139.242 305.302L117.055 333.767L150.266 321.831L152.24 324.786L127.42 354.996Z" fill="black"/>
<path id="Vector_18" d="M126.067 271.188C127.125 274.579 127.16 278.207 126.165 281.618C125.148 284.699 123.211 287.395 120.616 289.344C117.559 291.614 114.082 293.255 110.387 294.173C106.754 295.231 102.948 295.559 99.1877 295.136C95.9747 294.756 92.9573 293.394 90.5474 291.235C87.9744 288.775 86.1801 285.613 85.3866 282.143C84.3613 278.848 84.334 275.324 85.3084 272.013C86.3592 268.931 88.292 266.226 90.867 264.232C93.8767 261.898 97.3426 260.221 101.041 259.309C104.692 258.239 108.525 257.939 112.298 258.427C115.506 258.875 118.515 260.246 120.959 262.373C123.496 264.741 125.274 267.809 126.067 271.188V271.188ZM125.517 271.337C125.087 269.567 124.225 267.931 123.008 266.575C121.789 265.316 120.23 264.439 118.521 264.051C116.317 263.556 114.044 263.435 111.799 263.692C108.704 264.022 105.643 264.615 102.649 265.467C99.6401 266.237 96.7043 267.269 93.8754 268.552C91.8163 269.46 89.9242 270.707 88.2782 272.241C87.0016 273.43 86.0989 274.965 85.6802 276.658C85.3016 278.43 85.3795 280.269 85.9066 282.003C86.3391 283.79 87.202 285.444 88.4201 286.821C89.6517 288.082 91.2152 288.969 92.9296 289.378C95.1219 289.882 97.3838 290.011 99.6192 289.76C102.71 289.443 105.767 288.853 108.753 287.997C111.765 287.221 114.705 286.189 117.541 284.913C119.61 283.99 121.513 282.731 123.173 281.188C124.436 279.991 125.328 278.456 125.743 276.766C126.112 274.965 126.034 273.101 125.517 271.337V271.337Z" fill="black"/>
<path id="Vector_19" d="M120.593 251.076L120.027 251.066L120.023 250.328C120.041 249.437 119.881 248.551 119.551 247.723C119.278 247.059 118.792 246.503 118.169 246.144C117.461 245.778 116.669 245.601 115.872 245.632L84.1109 245.765C83.3516 245.741 82.6001 245.924 81.9366 246.295C81.3478 246.664 80.8965 247.217 80.6519 247.867C80.3419 248.701 80.1937 249.586 80.2153 250.476L80.2171 251.228L79.6489 251.232L79.5926 235.8C79.4878 232.98 79.8966 230.164 80.7991 227.49C81.461 225.513 82.7424 223.802 84.4533 222.61C86.1975 221.497 88.2338 220.929 90.3022 220.979C92.2086 220.896 94.0994 221.355 95.7558 222.303C97.1476 223.137 98.308 224.307 99.1306 225.705C99.9113 227.085 100.513 228.559 100.922 230.091L113.509 221.94C114.736 221.138 115.76 220.444 116.57 219.842C117.266 219.35 117.918 218.8 118.52 218.196C118.932 217.783 119.279 217.31 119.549 216.793C119.749 216.365 119.856 215.9 119.863 215.427L119.89 215.261L120.459 215.257L120.467 216.053C120.485 217.539 120.421 219.025 120.276 220.504C120.192 221.503 119.957 222.483 119.577 223.41C119.221 224.191 118.703 224.888 118.057 225.454C117.241 226.161 116.374 226.808 115.463 227.389L101.433 236.278L101.454 239.885L115.85 239.826C116.646 239.858 117.435 239.676 118.137 239.3C118.759 238.947 119.242 238.392 119.507 237.728C119.832 236.898 119.981 236.01 119.944 235.119L119.939 234.381L120.522 234.379L120.593 251.076ZM100.861 235.884C100.932 234.118 100.579 232.361 99.8311 230.76C99.1408 229.454 97.9766 228.462 96.5778 227.988C94.6771 227.354 92.6777 227.067 90.6753 227.142C88.5991 227.082 86.5288 227.394 84.5623 228.063C83.1442 228.581 81.9644 229.599 81.2454 230.927C80.4809 232.536 80.1211 234.307 80.1975 236.086L80.2109 239.99L100.925 239.91L100.861 235.884Z" fill="black"/>
<path id="Vector_20" d="M120.544 215.937L119.978 215.843L120.103 215.097C120.346 214.241 120.409 213.343 120.289 212.461C120.185 211.753 119.851 211.099 119.338 210.6C118.738 210.071 118.013 209.705 117.231 209.538L86.3984 201.838C85.6657 201.621 84.8878 201.609 84.1485 201.802C83.4865 202.015 82.9152 202.444 82.5259 203.02C82.0178 203.754 81.6578 204.581 81.466 205.453L81.3436 206.184L80.7777 206.09L84.8238 189.883L85.3896 189.978L85.2649 190.723C85.0221 191.58 84.9588 192.477 85.0791 193.359C85.1831 194.068 85.5174 194.722 86.0302 195.221C86.6286 195.752 87.3544 196.118 88.1367 196.283L106.834 200.959L94.2767 182.74C93.7098 181.888 93.1904 181.177 92.7184 180.606C92.3275 180.112 91.8843 179.662 91.3965 179.264C91.0645 178.995 90.6845 178.792 90.2766 178.665C90.0641 178.607 89.8405 178.603 89.6262 178.654C89.412 178.705 89.2139 178.809 89.0502 178.957C88.5857 179.389 88.2366 179.93 88.0347 180.532C87.6663 181.481 87.3658 182.454 87.1355 183.446L86.5144 183.342L89.5732 171.085L90.1942 171.189C89.9859 172.012 89.9438 172.868 90.0706 173.707C90.259 174.685 90.5991 175.628 91.0786 176.501C91.7971 177.854 92.5967 179.163 93.4731 180.42L100.958 191.392L121.383 183.46C122.796 182.902 123.985 182.406 124.954 181.958C125.773 181.6 126.567 181.188 127.331 180.724C127.861 180.413 128.332 180.012 128.722 179.538C129.031 179.188 129.248 178.765 129.353 178.31L129.371 178.199L129.937 178.294L129.833 178.915C129.465 180.453 129.008 181.968 128.464 183.453C128.104 184.453 127.593 185.391 126.948 186.236C126.365 186.93 125.667 187.519 124.883 187.976C123.932 188.553 122.937 189.055 121.908 189.478L104.323 196.211L107.754 201.141L118.786 203.896C119.55 204.113 120.358 204.131 121.132 203.948C121.812 203.772 122.413 203.373 122.84 202.815C123.363 202.087 123.733 201.261 123.927 200.386L124.05 199.655L124.615 199.749L120.544 215.937Z" fill="black"/>
<path id="Vector_21" d="M122.409 161.726L121.411 161.162L128.759 148.203L129.757 148.768L122.409 161.726Z" fill="black"/>
</g>
</g>
</svg>
