<svg width="380" height="313" viewBox="0 0 380 313" fill="none" xmlns="http://www.w3.org/2000/svg">
<g id="my-work-svg" clip-path="url(#clip0_101_124)">
<rect id="clipping-mask" x="36.374" y="10.6221" width="301.621" height="110.242" fill="#34C027"/>
<g id="Group 5">
<path id="Vector" d="M107.031 104.4L106.747 104.099L107.943 103.012C108.419 102.588 108.809 102.074 109.088 101.5C109.302 101.032 109.355 100.506 109.237 100.004C109.082 99.458 108.788 98.9615 108.383 98.5635L92.9077 81.9816C92.5535 81.5702 92.0922 81.2648 91.575 81.0995C91.0948 80.9715 90.5856 81.0076 90.1283 81.2021C89.5383 81.4402 89.0028 81.7955 88.5543 82.2466L87.3583 83.3341L87.0741 83.0331L93.1558 77.349L117.697 88.2291L107.453 64.0161L112.931 58.8494L113.215 59.1505L112.83 59.5119C112.35 59.9379 111.961 60.4551 111.683 61.0335C111.469 61.4984 111.417 62.0216 111.536 62.5195C111.692 63.0675 111.986 63.5667 112.388 63.9701L127.793 80.4287C128.169 80.8584 128.648 81.1862 129.184 81.3815C129.676 81.5326 130.204 81.5138 130.684 81.3282C131.277 81.0913 131.816 80.7366 132.268 80.2854L132.662 79.9256L132.937 80.225L124.978 87.6734L124.692 87.3823L124.788 87.2968C125.187 86.9364 125.498 86.4888 125.696 85.9888C125.865 85.5352 125.891 85.0407 125.771 84.5718C125.622 84.0207 125.327 83.5198 124.919 83.1212L108.565 65.794L119.844 92.4211L119.123 93.0914L92.7668 81.3091L108.658 98.2546C109.032 98.6851 109.512 99.0102 110.051 99.1976C110.54 99.3475 111.064 99.3281 111.541 99.1427C112.138 98.914 112.68 98.5627 113.133 98.1113L113.664 97.6021L113.948 97.9031L107.031 104.4Z" fill="black"/>
<path id="Vector_2" d="M138.71 78.1398L138.528 77.7747L139.37 77.3478C139.943 77.0951 140.459 76.7299 140.888 76.2737C141.227 75.8887 141.427 75.4006 141.454 74.8882C141.463 74.3189 141.323 73.7572 141.048 73.2587L136.809 64.7827L124.067 55.6137C123.664 55.2956 123.221 55.0306 122.749 54.8254C122.4 54.681 122.022 54.6178 121.645 54.6405C121.24 54.6792 120.847 54.7997 120.49 54.9948L119.75 55.3576L119.568 54.9926L129.649 49.9474L129.831 50.3125L128.591 50.9364C128.15 51.1193 127.757 51.4001 127.44 51.7576C127.333 51.9015 127.271 52.0742 127.263 52.2535C127.255 52.4328 127.3 52.6104 127.393 52.7637C127.56 53.0569 127.773 53.3218 128.023 53.5483C128.396 53.8925 128.789 54.2155 129.199 54.5158L135.4 59.0212C135.908 59.3799 136.388 59.7239 136.836 60.0727L138.103 61.0451L139.227 61.9024C139.567 62.1723 139.881 62.4174 140.116 62.6494C140.133 61.9425 140.14 61.0514 140.138 59.9763C140.133 58.911 140.149 57.7881 140.173 56.616L140.294 49.833C140.312 49.233 140.287 48.6325 140.22 48.036C140.181 47.6323 140.076 47.2378 139.908 46.8686C139.824 46.6524 139.676 46.467 139.484 46.3371C139.292 46.2071 139.065 46.1388 138.833 46.1412C138.135 46.2356 137.462 46.4676 136.854 46.8238L135.377 47.5905L135.195 47.2254L143.041 43.2967L143.223 43.6618L142.315 44.1182C141.945 44.2928 141.628 44.5612 141.394 44.8968C141.144 45.3055 140.981 45.7616 140.916 46.2363C140.804 46.9815 140.743 47.7334 140.732 48.4868L140.54 63.0245L144.753 71.3542C144.986 71.8737 145.351 72.323 145.812 72.6569C146.241 72.936 146.75 73.0674 147.26 73.0311C147.896 72.9734 148.514 72.787 149.076 72.4832L149.916 72.0662L150.108 72.433L138.71 78.1398Z" fill="black"/>
<path id="Vector_3" d="M163.559 39.3186C163.399 38.8683 163.168 38.4464 162.876 38.0687C162.636 37.7839 162.319 37.5756 161.962 37.4697C161.498 37.3521 161.017 37.3162 160.54 37.3635L160.007 37.396L159.973 36.9948L171.26 36.1969L171.292 36.6079L170.349 36.6731C169.705 36.6759 169.074 36.8503 168.52 37.1782C168.327 37.3306 168.178 37.5321 168.09 37.7618C168.002 37.9914 167.977 38.2406 168.018 38.4832C168.031 38.661 168.056 38.8379 168.091 39.0126C168.136 39.2184 168.193 39.4211 168.264 39.6193L168.474 40.3034L173.873 54.3878C174.172 55.1881 174.462 55.9971 174.744 56.8149C175.013 57.6305 175.279 58.4659 175.533 59.3094C175.787 60.1529 176.029 61.0146 176.255 61.9041C176.389 61.1052 176.55 60.1387 176.75 58.9453C176.95 57.7519 177.151 56.5486 177.374 55.2171L180.892 35.7711L182.605 35.6522L189.85 52.9454C190.316 54.0373 190.733 55.1209 191.124 56.1191C191.514 57.1173 191.867 58.099 192.169 58.9606C192.471 59.8223 192.72 60.5738 192.901 61.192C193.008 60.551 193.094 60.0381 193.157 59.6633C193.219 59.2885 193.29 58.8644 193.37 58.391C193.449 57.9176 193.561 57.2469 193.7 56.4184L197.014 38.9155C197.114 38.5068 197.183 38.0915 197.222 37.6727C197.254 37.357 197.26 37.0392 197.239 36.7225C197.254 36.4305 197.19 36.1399 197.056 35.8804C196.921 35.6209 196.72 35.4018 196.473 35.2457C195.801 34.9575 195.064 34.8587 194.341 34.9598L193.397 35.025L193.374 34.6156L201.305 34.0571L201.338 34.4681L200.558 34.5202C200.063 34.5406 199.579 34.6747 199.144 34.9121C198.747 35.1604 198.437 35.527 198.259 35.9604C197.988 36.5779 197.794 37.2266 197.682 37.8917L192.708 63.9785L190.257 64.1461L180.368 40.2966L176.047 65.1443L173.514 65.3185L163.559 39.3186Z" fill="black"/>
<path id="Vector_4" d="M216.106 68.1171C213.633 67.5748 211.375 66.3152 209.615 64.496C208.047 62.7781 207.048 60.6171 206.757 58.3093C206.424 55.6088 206.631 52.8691 207.366 50.2492C207.982 47.6148 209.118 45.1301 210.708 42.9407C212.075 41.0796 213.983 39.6853 216.172 38.9479C218.61 38.2218 221.206 38.2195 223.646 38.9414C226.053 39.4858 228.247 40.7276 229.953 42.5115C231.504 44.237 232.513 46.3804 232.855 48.6751C233.516 54.1125 232.105 59.5992 228.904 64.0438C227.492 65.8954 225.566 67.2904 223.366 68.0546C221.006 68.7951 218.479 68.8168 216.106 68.1171V68.1171ZM216.174 67.7128C217.424 68.0746 218.745 68.1178 220.016 67.8386C221.224 67.5205 222.316 66.8623 223.162 65.942C224.245 64.7421 225.122 63.3711 225.757 61.8847C226.645 59.8438 227.358 57.7313 227.889 55.57C228.466 53.4287 228.856 51.2414 229.054 49.0326C229.217 47.4336 229.11 45.8187 228.738 44.255C228.448 43.0418 227.812 41.9387 226.907 41.0792C225.94 40.2194 224.771 39.6191 223.509 39.3342C222.246 38.9719 220.913 38.9264 219.628 39.2017C218.411 39.5174 217.309 40.1737 216.452 41.0934C215.361 42.2804 214.481 43.6454 213.85 45.1293C212.958 47.158 212.247 49.2612 211.723 51.4145C211.142 53.5616 210.748 55.7549 210.545 57.9699C210.38 59.5785 210.485 61.2033 210.856 62.7772C211.157 64.01 211.812 65.1277 212.741 65.9925C213.737 66.848 214.93 67.4416 216.213 67.7194L216.174 67.7128Z" fill="black"/>
<path id="Vector_5" d="M230.536 71.7999L230.737 71.4482L231.2 71.7083C231.747 72.0394 232.358 72.2521 232.992 72.3326C233.499 72.4013 234.014 72.2943 234.452 72.0294C234.928 71.7167 235.315 71.2852 235.574 70.7775L246.696 50.9716C246.979 50.5081 247.131 49.9764 247.136 49.4331C247.117 48.9335 246.929 48.455 246.602 48.0765C246.191 47.5916 245.69 47.191 245.127 46.8968L244.663 46.6367L244.866 46.2752L254.504 51.6904C256.278 52.6225 257.873 53.8608 259.215 55.3482C260.212 56.4522 260.831 57.8449 260.983 59.3246C261.064 60.803 260.698 62.2716 259.933 63.5391C259.309 64.7566 258.355 65.774 257.181 66.475C256.164 67.0411 255.022 67.3448 253.859 67.3588C252.733 67.3803 251.609 67.2569 250.514 66.9916L251.167 77.6862C251.239 78.7121 251.312 79.6065 251.394 80.3299C251.455 80.9323 251.569 81.5282 251.735 82.1106C251.847 82.5024 252.021 82.8739 252.25 83.2108C252.44 83.4863 252.689 83.7152 252.98 83.8804L253.098 83.9002L252.897 84.2518L252.396 83.9753C251.467 83.4635 250.566 82.9032 249.696 82.2966C249.107 81.8908 248.581 81.3995 248.135 80.839C247.778 80.3412 247.527 79.7745 247.4 79.1748C247.248 78.4167 247.153 77.6484 247.116 76.8763L246.533 65.0276L244.282 63.7586L239.242 72.7297C238.948 73.2181 238.782 73.7726 238.759 74.3422C238.763 74.8563 238.941 75.3541 239.263 75.7547C239.663 76.2497 240.161 76.6573 240.725 76.9525L241.189 77.2126L240.986 77.5741L230.536 71.7999ZM246.903 64.8767C247.975 65.5437 249.191 65.9452 250.449 66.0479C251.504 66.0714 252.53 65.6964 253.321 64.9977C254.376 64.0313 255.254 62.888 255.915 61.6194C256.682 60.3485 257.218 58.9519 257.497 57.4941C257.696 56.4121 257.49 55.2949 256.918 54.3553C256.191 53.2977 255.213 52.4372 254.072 51.8512L251.645 50.4818L244.414 63.3954L246.903 64.8767Z" fill="black"/>
<path id="Vector_6" d="M252.39 84.1355L252.673 83.8381L253.057 84.2067C253.503 84.6659 254.04 85.0255 254.635 85.2615C255.108 85.4573 255.635 85.4809 256.124 85.3283C256.663 85.1478 257.146 84.8303 257.525 84.4069L273.228 68.004C273.617 67.6228 273.897 67.1444 274.038 66.6187C274.142 66.13 274.081 65.6206 273.865 65.1702C273.581 64.6025 273.196 64.0913 272.728 63.6619L272.344 63.2934L272.627 62.996L281.244 71.2415L280.961 71.5389L280.577 71.1704C280.124 70.7197 279.588 70.3614 278.999 70.1155C278.523 69.93 278 69.9065 277.51 70.0487C276.971 70.2366 276.489 70.5568 276.107 70.9799L266.583 80.9344L282.328 79.6052C283.058 79.5449 283.688 79.4779 284.211 79.3829C284.654 79.3189 285.088 79.2045 285.505 79.0418C285.791 78.9347 286.052 78.7717 286.275 78.5623C286.383 78.4479 286.463 78.3095 286.507 78.1584C286.552 78.0073 286.56 77.8477 286.532 77.6928C286.423 77.252 286.21 76.8441 285.909 76.5038C285.455 75.9402 284.961 75.4102 284.431 74.918L284.739 74.5943L291.286 80.8509L290.976 81.1844C290.538 80.7632 290.022 80.4322 289.456 80.2101C288.757 79.9733 288.025 79.8506 287.286 79.8469C286.194 79.8152 285.101 79.8524 284.013 79.9582L274.538 80.7146L272.221 96.1945C272.045 97.2498 271.95 98.1769 271.884 98.9364C271.819 99.5726 271.797 100.212 271.817 100.852C271.818 101.282 271.89 101.708 272.032 102.114C272.144 102.43 272.329 102.714 272.572 102.945L272.631 102.955L272.348 103.252L272.024 102.945C271.2 102.185 270.421 101.378 269.692 100.526C269.193 99.951 268.792 99.2982 268.504 98.5938C268.272 97.9892 268.153 97.3473 268.152 96.6997C268.159 95.916 268.225 95.134 268.351 94.3604L270.403 81.0669L266.122 81.4454L260.506 87.3188C260.099 87.7164 259.8 88.2105 259.637 88.7551C259.518 89.2541 259.565 89.7785 259.772 90.2479C260.044 90.8249 260.426 91.3433 260.896 91.7743L261.28 92.1428L260.997 92.4402L252.39 84.1355Z" fill="black"/>
<path id="Vector_7" d="M285.379 104.511L286.078 104.091L291.563 113.241L290.854 113.66L285.379 104.511Z" fill="black"/>
<path id="Vector_8" d="M286.945 127.201L287.336 127.104L287.703 128.666C287.827 129.289 288.073 129.881 288.426 130.409C288.722 130.826 289.149 131.133 289.638 131.281C290.19 131.425 290.77 131.424 291.322 131.279L313.468 126.175C314.001 126.072 314.496 125.83 314.904 125.472C315.255 125.116 315.481 124.656 315.549 124.16C315.625 123.53 315.585 122.891 315.429 122.275L315.071 120.714L315.461 120.627L317.338 128.739L295.635 144.462L321.719 147.753L323.406 155.061L323.005 155.156L322.879 154.638C322.757 154.015 322.512 153.422 322.157 152.895C321.862 152.475 321.436 152.165 320.946 152.013C320.392 151.873 319.812 151.877 319.26 152.025L297.283 157.087C296.72 157.203 296.197 157.465 295.767 157.847C295.39 158.196 295.14 158.661 295.059 159.169C294.965 159.8 294.999 160.443 295.158 161.061L295.285 161.579L294.883 161.674L292.43 151.013L292.831 150.917L292.813 151.026C292.919 151.555 293.148 152.052 293.482 152.476C293.79 152.851 294.204 153.122 294.67 153.253C295.224 153.393 295.804 153.389 296.356 153.241L319.554 147.907L290.867 144.292L290.653 143.334L314.07 126.458L291.417 131.68C290.851 131.796 290.325 132.058 289.891 132.439C289.515 132.789 289.266 133.253 289.183 133.76C289.088 134.391 289.121 135.035 289.282 135.652L289.456 136.371L289.054 136.466L286.945 127.201Z" fill="black"/>
<path id="Vector_9" d="M293.714 167.755L294.118 167.823L294.052 168.765C293.996 169.403 294.068 170.045 294.263 170.655C294.428 171.134 294.748 171.545 295.173 171.821C295.66 172.117 296.217 172.28 296.787 172.294L306.242 172.863L320.543 166.476C321.019 166.287 321.472 166.042 321.891 165.749C322.199 165.509 322.451 165.205 322.629 164.858C322.797 164.49 322.891 164.092 322.906 163.688L322.962 162.866L323.366 162.933L322.639 174.188L322.234 174.12L322.326 172.726C322.38 172.245 322.326 171.758 322.169 171.301C322.099 171.141 321.984 171.005 321.837 170.912C321.69 170.819 321.518 170.772 321.344 170.777C320.993 170.751 320.641 170.795 320.308 170.908C319.819 171.05 319.339 171.224 318.873 171.428L311.857 174.513C311.287 174.772 310.759 175.018 310.223 175.253L308.743 175.857L307.437 176.389C307.024 176.553 306.656 176.694 306.352 176.815L308.642 178.213C309.566 178.752 310.484 179.322 311.526 179.942L317.339 183.44C317.851 183.755 318.383 184.037 318.931 184.284C319.298 184.457 319.691 184.567 320.093 184.611C320.325 184.644 320.561 184.606 320.771 184.502C320.98 184.397 321.153 184.231 321.266 184.026C321.548 183.388 321.697 182.699 321.706 182.001L321.808 180.365L322.22 180.384L321.657 189.141L321.253 189.073L321.319 188.07C321.351 187.661 321.277 187.25 321.103 186.878C320.878 186.456 320.567 186.086 320.189 185.793C319.614 185.318 319.011 184.878 318.382 184.476L305.929 176.978L296.56 176.373C295.995 176.315 295.425 176.405 294.905 176.633C294.442 176.857 294.069 177.23 293.845 177.693C293.573 178.27 293.42 178.896 293.395 179.534L293.339 180.477L292.934 180.41L293.714 167.755Z" fill="black"/>
<path id="Vector_10" d="M314.739 208.788C315.208 208.884 315.69 208.896 316.162 208.824C316.543 208.76 316.894 208.582 317.171 208.313C317.502 207.969 317.774 207.573 317.975 207.14L318.207 206.661L318.574 206.834L313.614 216.965L313.249 216.782L313.664 215.939C313.985 215.377 314.154 214.741 314.155 214.094C314.122 213.857 314.028 213.633 313.882 213.443C313.736 213.253 313.543 213.105 313.322 213.012C313.162 212.935 312.997 212.871 312.827 212.818C312.627 212.752 312.423 212.698 312.216 212.655L311.516 212.538L296.619 210.126C295.781 209.985 294.933 209.843 294.085 209.701C293.237 209.559 292.38 209.345 291.532 209.142C290.684 208.939 289.801 208.701 288.92 208.452C289.556 208.954 290.323 209.579 291.22 210.337L294.107 212.777L309.2 225.584L308.435 227.129L289.861 224.7C288.697 224.505 287.561 224.386 286.476 224.204C285.391 224.023 284.395 223.856 283.518 223.709C282.64 223.562 281.849 223.379 281.215 223.232L282.396 224.231L283.369 225.083L284.911 226.406L298.381 238.07C298.687 238.355 299.012 238.619 299.354 238.861C299.611 239.045 299.882 239.209 300.164 239.351C300.413 239.51 300.7 239.6 300.996 239.612C301.291 239.624 301.584 239.558 301.846 239.42C302.423 238.976 302.872 238.386 303.146 237.711L303.551 236.866L303.927 237.041L300.378 244.072L300.003 243.887L300.354 243.185C300.58 242.749 300.706 242.268 300.721 241.777C300.707 241.305 300.546 240.849 300.26 240.473C299.848 239.923 299.374 239.421 298.847 238.979L278.794 221.58L279.872 219.378L305.421 222.843L286.112 206.633L287.223 204.355L314.739 208.788Z" fill="black"/>
<path id="Vector_11" d="M263.436 239.743C265.152 237.873 267.384 236.553 269.85 235.95C272.123 235.477 274.486 235.713 276.621 236.627C279.119 237.705 281.38 239.265 283.274 241.218C285.236 243.08 286.806 245.315 287.893 247.791C288.814 249.911 289.054 252.264 288.58 254.527C287.981 257.003 286.671 259.251 284.811 260.993C283.138 262.799 280.967 264.069 278.573 264.644C276.299 265.116 273.935 264.907 271.779 264.044C266.741 261.87 262.704 257.884 260.467 252.874C259.58 250.718 259.349 248.347 259.803 246.061C260.358 243.64 261.623 241.44 263.436 239.743V239.743ZM263.721 240.035C262.786 240.938 262.087 242.057 261.686 243.293C261.345 244.498 261.36 245.775 261.729 246.971C262.216 248.51 262.957 249.957 263.923 251.252C265.234 253.049 266.696 254.732 268.292 256.282C269.849 257.862 271.542 259.302 273.351 260.586C274.649 261.537 276.097 262.262 277.636 262.733C278.831 263.085 280.101 263.094 281.302 262.758C282.532 262.35 283.641 261.639 284.527 260.692C285.476 259.784 286.187 258.657 286.597 257.409C286.937 256.199 286.927 254.918 286.567 253.713C286.091 252.174 285.356 250.728 284.393 249.436C283.093 247.639 281.637 245.96 280.042 244.419C278.481 242.836 276.785 241.392 274.974 240.103C273.672 239.147 272.217 238.417 270.672 237.943C269.473 237.581 268.193 237.578 266.993 237.936C265.749 238.344 264.627 239.055 263.726 240.005L263.721 240.035Z" fill="black"/>
<path id="Vector_12" d="M252.978 250.313L253.183 250.661L252.722 250.929C252.167 251.239 251.68 251.657 251.29 252.159C250.975 252.566 250.806 253.066 250.809 253.58C250.846 254.151 251.026 254.703 251.33 255.188L262.859 274.749C263.115 275.24 263.497 275.654 263.967 275.948C264.407 276.184 264.913 276.269 265.407 276.189C266.036 276.068 266.635 275.824 267.169 275.47L267.63 275.203L267.835 275.552L258.339 281.161C256.642 282.23 254.767 282.988 252.804 283.398C251.35 283.704 249.836 283.539 248.482 282.928C247.243 282.24 246.201 281.246 245.453 280.042C244.706 278.839 244.277 277.464 244.209 276.048C244.229 274.885 244.538 273.745 245.109 272.731C245.661 271.749 246.334 270.84 247.113 270.025L237.55 265.19C236.613 264.729 235.815 264.352 235.144 264.058C234.591 263.809 234.017 263.608 233.43 263.456C233.028 263.344 232.61 263.302 232.194 263.331C231.857 263.354 231.531 263.455 231.242 263.627L231.14 263.692L230.936 263.333L231.431 263.041C232.338 262.494 233.274 261.997 234.235 261.553C234.881 261.242 235.573 261.036 236.284 260.943C236.892 260.88 237.506 260.945 238.087 261.133C238.817 261.387 239.528 261.693 240.216 262.047L250.761 267.493L253.008 266.185L247.789 257.322C247.509 256.831 247.112 256.416 246.633 256.115C246.182 255.866 245.66 255.779 245.153 255.867C244.524 255.97 243.921 256.197 243.379 256.534L242.928 256.803L242.713 256.453L252.978 250.313ZM250.723 267.963C249.609 268.56 248.65 269.41 247.925 270.445C247.402 271.337 247.226 272.39 247.43 273.404C247.726 274.806 248.272 276.144 249.04 277.354C249.752 278.657 250.69 279.823 251.809 280.798C252.641 281.498 253.701 281.87 254.788 281.844C256.058 281.742 257.282 281.323 258.348 280.625L260.754 279.213L253.236 266.457L250.723 267.963Z" fill="black"/>
<path id="Vector_13" d="M231.301 263.029L231.417 263.424L230.906 263.571C230.29 263.733 229.712 264.016 229.206 264.402C228.802 264.721 228.517 265.166 228.396 265.665C228.297 266.235 228.349 266.821 228.548 267.364L234.864 289.176C234.989 289.705 235.259 290.189 235.644 290.574C236.015 290.909 236.489 291.11 236.988 291.143C237.621 291.192 238.257 291.116 238.861 290.919L239.372 290.772L239.489 291.166L228.034 294.481L227.918 294.087L228.429 293.939C229.047 293.78 229.625 293.498 230.13 293.108C230.532 292.793 230.817 292.351 230.938 291.854C231.05 291.295 231.014 290.716 230.834 290.174L226.966 276.934L220.216 291.216C219.902 291.883 219.643 292.458 219.459 292.955C219.296 293.374 219.179 293.81 219.109 294.255C219.055 294.556 219.065 294.865 219.14 295.162C219.185 295.31 219.263 295.446 219.369 295.559C219.475 295.672 219.606 295.758 219.751 295.812C220.189 295.941 220.651 295.963 221.099 295.875C221.813 295.763 222.518 295.6 223.209 295.387L223.328 295.823L214.623 298.34L214.504 297.905C215.085 297.734 215.628 297.453 216.102 297.077C216.666 296.602 217.151 296.039 217.537 295.411C218.109 294.48 218.629 293.518 219.094 292.529L223.185 283.956L210.962 274.174C210.121 273.506 209.382 272.957 208.757 272.508C208.238 272.133 207.696 271.792 207.134 271.486C206.761 271.277 206.359 271.128 205.94 271.043C205.601 270.978 205.252 270.993 204.919 271.085L204.85 271.073L204.734 270.678L205.171 270.549C206.252 270.222 207.352 269.962 208.465 269.772C209.21 269.63 209.974 269.611 210.725 269.714C211.366 269.817 211.982 270.037 212.543 270.363C213.218 270.759 213.862 271.206 214.469 271.699L224.937 280.153L226.755 276.26L224.491 268.459C224.364 267.913 224.099 267.408 223.723 266.992C223.355 266.635 222.878 266.413 222.369 266.36C221.735 266.297 221.095 266.366 220.489 266.563L219.968 266.709L219.862 266.316L231.301 263.029Z" fill="black"/>
<path id="Vector_14" d="M197.164 281.376L197.169 282.198L186.511 282.27L186.495 281.456L197.164 281.376Z" fill="black"/>
<path id="Vector_15" d="M176.744 271.196L176.627 271.592L175.096 271.113C174.491 270.912 173.853 270.833 173.218 270.88C172.705 270.921 172.221 271.137 171.848 271.492C171.448 271.895 171.162 272.396 171.017 272.945L164.343 294.651C164.162 295.166 164.125 295.721 164.236 296.255C164.366 296.737 164.651 297.163 165.048 297.466C165.548 297.855 166.121 298.14 166.732 298.305L168.264 298.785L168.139 299.169L160.195 296.715L157.489 270.052L141.461 290.943L134.298 288.73L134.413 288.344L134.924 288.5C135.527 288.706 136.167 288.786 136.802 288.734C137.313 288.695 137.796 288.482 138.17 288.131C138.574 287.726 138.864 287.223 139.013 286.67L145.661 265.122C145.85 264.586 145.894 264.009 145.788 263.45C145.678 262.946 145.394 262.497 144.987 262.18C144.489 261.778 143.914 261.482 143.298 261.31L142.786 261.153L142.913 260.759L153.334 263.983L153.207 264.377L153.089 264.358C152.578 264.186 152.034 264.136 151.501 264.214C151.02 264.288 150.575 264.511 150.228 264.852C149.83 265.257 149.544 265.757 149.397 266.305L142.37 289.027L159.978 266.028L160.942 266.321L163.759 295.05L170.613 272.877C170.803 272.338 170.847 271.758 170.742 271.195C170.628 270.693 170.345 270.245 169.941 269.926C169.444 269.522 168.868 269.226 168.251 269.055L167.548 268.836L167.673 268.451L176.744 271.196Z" fill="black"/>
<path id="Vector_16" d="M138.262 256.684L138.033 257.021L137.249 256.495C136.726 256.127 136.136 255.866 135.512 255.727C135.011 255.624 134.49 255.69 134.031 255.915C133.536 256.192 133.121 256.59 132.823 257.072L127.562 264.941L125.898 280.52C125.827 281.026 125.816 281.538 125.865 282.046C125.903 282.428 126.029 282.796 126.233 283.121C126.465 283.456 126.762 283.741 127.107 283.957L127.781 284.415L127.552 284.752L118.202 278.462L118.432 278.115L119.589 278.897C119.976 279.189 120.425 279.389 120.901 279.481C121.075 279.501 121.251 279.468 121.407 279.388C121.563 279.308 121.692 279.183 121.777 279.03C121.953 278.735 122.082 278.414 122.159 278.08C122.274 277.582 122.358 277.078 122.412 276.571L123.28 268.96C123.333 268.34 123.401 267.753 123.475 267.188C123.55 266.622 123.655 266.113 123.738 265.619C123.82 265.126 123.903 264.633 123.97 264.229C124.038 263.824 124.109 263.4 124.167 263.055C123.544 263.387 122.769 263.835 121.841 264.349C120.914 264.863 119.929 265.418 118.893 265.975L112.832 269.29C112.301 269.57 111.79 269.887 111.304 270.241C110.967 270.476 110.673 270.771 110.439 271.11C110.293 271.292 110.206 271.515 110.191 271.748C110.175 271.981 110.232 272.213 110.353 272.413C110.77 272.959 111.294 273.412 111.894 273.746L113.251 274.663L113.022 274.999L105.73 270.108L105.958 269.772L106.806 270.339C107.142 270.576 107.535 270.719 107.944 270.753C108.438 270.78 108.932 270.7 109.392 270.519C110.093 270.248 110.776 269.932 111.436 269.573L124.175 262.58L129.358 254.819C129.699 254.36 129.909 253.817 129.965 253.248C130.003 252.737 129.867 252.228 129.578 251.804C129.22 251.277 128.756 250.83 128.216 250.491L127.433 249.965L127.661 249.628L138.262 256.684Z" fill="black"/>
<path id="Vector_17" d="M92.2601 254.207C91.9408 254.564 91.6868 254.975 91.5096 255.42C91.3731 255.794 91.351 256.199 91.4463 256.585C91.5725 257.049 91.781 257.485 92.062 257.875L92.3526 258.319L92.0105 258.546L85.7533 249.164L86.0954 248.937L86.6226 249.725C86.9468 250.282 87.4113 250.744 87.9697 251.066C88.1974 251.159 88.4459 251.189 88.6892 251.153C88.9325 251.117 89.1616 251.016 89.3525 250.861C89.499 250.758 89.6396 250.646 89.7736 250.526C89.9281 250.387 90.0747 250.239 90.2128 250.083L90.7064 249.557L100.271 237.906C100.819 237.237 101.383 236.591 101.957 235.947C102.531 235.303 103.115 234.661 103.729 234.023C104.343 233.386 104.956 232.749 105.631 232.111C104.881 232.411 103.95 232.763 102.85 233.156L99.2818 234.425L80.6526 240.99L79.6968 239.552L91.1407 224.728C91.8664 223.785 92.5739 222.889 93.2732 222.043C93.9724 221.197 94.6273 220.435 95.2311 219.735C95.8349 219.035 96.3581 218.453 96.8039 217.97L95.3503 218.477L94.1236 218.9L92.1931 219.591L75.386 225.326C74.9796 225.443 74.5822 225.59 74.1971 225.765C73.9126 225.898 73.6368 226.048 73.3715 226.215C73.1087 226.351 72.8865 226.554 72.7273 226.803C72.568 227.053 72.4775 227.34 72.4647 227.635C72.5486 228.361 72.8296 229.049 73.2771 229.626L73.8043 230.414L73.4622 230.641L69.0542 224.023L69.3865 223.794L69.825 224.446C70.0846 224.866 70.4384 225.22 70.8583 225.48C71.2778 225.694 71.7531 225.774 72.2194 225.708C72.9017 225.631 73.572 225.471 74.2155 225.231L99.3464 216.652L100.708 218.694L84.8527 239.036L108.586 230.507L109.997 232.619L92.2601 254.207Z" fill="black"/>
<path id="Vector_18" d="M91.2928 194.316C92.0494 196.739 92.0739 199.332 91.3634 201.77C90.636 203.972 89.2521 205.898 87.3977 207.291C85.213 208.913 82.7285 210.086 80.0878 210.742C77.4918 211.498 74.7715 211.732 72.0844 211.43C69.7883 211.158 67.632 210.185 65.9098 208.642C64.0711 206.884 62.7888 204.625 62.2218 202.145C61.489 199.79 61.4696 197.271 62.1659 194.906C62.9168 192.703 64.2981 190.77 66.1382 189.345C68.289 187.677 70.7658 186.479 73.4087 185.827C76.0176 185.062 78.7569 184.848 81.4532 185.196C83.7461 185.517 85.8965 186.497 87.6425 188.017C89.4559 189.709 90.7263 191.901 91.2928 194.316V194.316ZM90.8999 194.422C90.5924 193.157 89.9764 191.988 89.1069 191.02C88.236 190.12 87.1219 189.493 85.9007 189.216C84.3252 188.862 82.7014 188.775 81.0972 188.959C78.8853 189.195 76.6977 189.619 74.5582 190.227C72.4077 190.778 70.3097 191.516 68.2881 192.433C66.8166 193.081 65.4645 193.972 64.2882 195.069C63.3759 195.918 62.7308 197.015 62.4316 198.225C62.1611 199.492 62.2167 200.806 62.5934 202.044C62.9025 203.322 63.5191 204.504 64.3896 205.488C65.2697 206.389 66.3871 207.023 67.6122 207.315C69.1789 207.676 70.7953 207.768 72.3928 207.588C74.6015 207.362 76.7859 206.94 78.9203 206.328C81.0724 205.774 83.1733 205.036 85.2002 204.125C86.679 203.465 88.0388 202.565 89.2248 201.462C90.1276 200.607 90.7653 199.51 91.0616 198.302C91.3251 197.015 91.2696 195.683 90.8999 194.422V194.422Z" fill="black"/>
<path id="Vector_19" d="M87.3814 179.943L86.9769 179.937L86.974 179.409C86.9872 178.772 86.8725 178.139 86.6366 177.548C86.4415 177.073 86.0942 176.676 85.6493 176.419C85.1428 176.157 84.577 176.031 84.0072 176.053L61.3102 176.148C60.7676 176.131 60.2305 176.262 59.7564 176.527C59.3356 176.791 59.0131 177.185 58.8383 177.65C58.6167 178.246 58.5109 178.879 58.5263 179.515L58.5276 180.052L58.1215 180.055L58.0813 169.027C58.0064 167.012 58.2985 164.999 58.9435 163.088C59.4165 161.675 60.3323 160.453 61.5549 159.601C62.8013 158.806 64.2565 158.4 65.7347 158.435C67.0971 158.376 68.4483 158.704 69.632 159.382C70.6266 159.977 71.4559 160.813 72.0437 161.813C72.6016 162.799 73.0318 163.852 73.3239 164.947L82.3188 159.122C83.1954 158.549 83.9274 158.053 84.5063 157.623C85.0038 157.271 85.47 156.878 85.8996 156.446C86.1941 156.151 86.4421 155.814 86.6351 155.444C86.778 155.138 86.8544 154.805 86.8594 154.468L86.8792 154.349L87.2853 154.346L87.2914 154.915C87.3044 155.977 87.2587 157.039 87.1545 158.096C87.0951 158.81 86.9266 159.51 86.6549 160.172C86.4011 160.731 86.0308 161.229 85.5689 161.633C84.9856 162.139 84.366 162.601 83.7152 163.016L73.6891 169.368L73.7038 171.946L83.992 171.904C84.5605 171.926 85.1248 171.797 85.6263 171.528C86.0708 171.276 86.4161 170.879 86.6053 170.404C86.8377 169.812 86.944 169.177 86.9173 168.54L86.9143 168.013L87.3302 168.011L87.3814 179.943ZM73.28 169.087C73.3313 167.825 73.079 166.569 72.5443 165.425C72.051 164.492 71.219 163.783 70.2194 163.444C68.8611 162.991 67.4323 162.786 66.0013 162.84C64.5176 162.797 63.0381 163.02 61.6328 163.498C60.6194 163.868 59.7763 164.596 59.2624 165.544C58.7161 166.694 58.459 167.96 58.5136 169.231L58.5232 172.021L73.3257 171.964L73.28 169.087Z" fill="black"/>
<path id="Vector_20" d="M87.3462 154.832L86.9418 154.765L87.0309 154.232C87.2045 153.62 87.2497 152.978 87.1637 152.348C87.0893 151.842 86.8505 151.374 86.484 151.018C86.0556 150.64 85.5372 150.378 84.9786 150.259L62.9447 144.756C62.4211 144.601 61.8652 144.593 61.3369 144.73C60.8638 144.883 60.4555 145.189 60.1773 145.601C59.8142 146.126 59.5569 146.716 59.4199 147.34L59.3324 147.863L58.928 147.795L61.8194 136.213L62.2238 136.281L62.1346 136.813C61.9611 137.426 61.9159 138.067 62.0018 138.697C62.0762 139.203 62.3151 139.671 62.6816 140.028C63.1092 140.407 63.6279 140.668 64.1869 140.787L77.5487 144.128L68.5747 131.108C68.1696 130.5 67.7984 129.992 67.4611 129.584C67.1818 129.231 66.8651 128.909 66.5165 128.624C66.2792 128.432 66.0076 128.287 65.7162 128.196C65.5643 128.155 65.4045 128.152 65.2514 128.189C65.0983 128.225 64.9567 128.299 64.8398 128.405C64.5078 128.714 64.2583 129.1 64.114 129.53C63.8508 130.208 63.6361 130.904 63.4714 131.613L63.0276 131.539L65.2135 122.779L65.6573 122.853C65.5084 123.442 65.4783 124.054 65.569 124.654C65.7036 125.352 65.9466 126.026 66.2893 126.65C66.8027 127.617 67.3741 128.552 68.0005 129.451L73.3496 137.291L87.9455 131.623C88.9552 131.224 89.8054 130.87 90.4977 130.549C91.083 130.294 91.6505 129.999 92.1966 129.668C92.575 129.446 92.9113 129.159 93.1901 128.82C93.4114 128.57 93.5664 128.268 93.6411 127.943L93.6544 127.864L94.0587 127.931L93.9844 128.375C93.7216 129.474 93.3948 130.557 93.0057 131.618C92.749 132.333 92.3837 133.003 91.9226 133.607C91.5062 134.103 91.007 134.524 90.4471 134.85C89.7672 135.262 89.0562 135.621 88.3207 135.924L75.7541 140.735L78.2062 144.259L86.0894 146.227C86.636 146.383 87.2133 146.395 87.7663 146.264C88.2523 146.139 88.6821 145.853 88.9867 145.454C89.3608 144.935 89.6252 144.344 89.7638 143.719L89.8513 143.196L90.2557 143.264L87.3462 154.832Z" fill="black"/>
<path id="Vector_21" d="M88.6792 116.091L87.966 115.688L93.2166 106.428L93.9298 106.831L88.6792 116.091Z" fill="black"/>
</g>
</g>
<defs>
<clipPath id="clip0_101_124">
<rect width="380" height="313" fill="white"/>
</clipPath>
</defs>
</svg>
