<svg width="529" height="449" viewBox="0 0 529 449" fill="none" xmlns="http://www.w3.org/2000/svg">
<g id="photos-svg" clip-path="url(#clip0_101_124)">
<rect id="clipping-mask" x="49.8369" y="14.1406" width="422.068" height="162.022" fill="#34C027"/>
<g id="Group 10">
<path id="Vector" d="M153.027 142.095L152.63 141.639L153.223 141.127C153.942 140.526 154.532 139.787 154.959 138.954C155.303 138.278 155.407 137.506 155.253 136.763C155.056 135.95 154.651 135.203 154.079 134.593L132.026 109.472C131.524 108.848 130.859 108.376 130.105 108.107C129.401 107.885 128.643 107.909 127.954 108.175C127.082 108.512 126.282 109.012 125.597 109.649L125.004 110.161L124.607 109.705L137.369 98.4962C141.168 95.1515 144.78 93.5391 148.007 93.6058C149.72 93.6948 151.395 94.149 152.919 94.9381C154.442 95.7271 155.78 96.8328 156.841 98.1809C158.002 99.4961 158.936 100.995 159.605 102.617C160.266 104.234 160.546 105.982 160.423 107.724C160.272 109.708 159.671 111.631 158.667 113.349C157.362 115.561 155.683 117.531 153.706 119.171L150.858 121.688L158.653 130.571C159.185 131.263 159.895 131.8 160.707 132.123C161.424 132.368 162.202 132.366 162.917 132.117C163.799 131.795 164.609 131.302 165.299 130.664L165.878 130.148L166.274 130.604L153.027 142.095ZM152.868 119.116C154.118 118.102 155.178 116.873 155.997 115.486C156.631 114.329 156.938 113.02 156.882 111.701C156.776 110.229 156.345 108.799 155.621 107.512C154.652 105.787 153.492 104.175 152.164 102.708C150.641 100.858 148.826 99.2685 146.791 98.0036C145.348 97.1052 143.629 96.7559 141.95 97.0198C140.108 97.4468 138.417 98.365 137.055 99.6767L133.976 102.375L150.533 121.251L152.868 119.116Z" fill="black"/>
<path id="Vector_2" d="M182.82 116.336L182.571 115.782L183.283 115.454C184.145 115.093 184.925 114.559 185.574 113.885C186.095 113.337 186.418 112.629 186.49 111.875C186.526 111.04 186.355 110.21 185.991 109.458L172.143 79.0276C171.85 78.2746 171.357 77.6163 170.716 77.1246C170.106 76.7104 169.374 76.5155 168.639 76.5719C167.705 76.6338 166.792 76.877 165.951 77.2879L165.239 77.6163L164.99 77.0627L180.98 69.8044L181.232 70.3438L180.506 70.6684C179.642 71.0344 178.861 71.5728 178.211 72.2508C177.691 72.7945 177.37 73.4978 177.299 74.2469C177.256 75.089 177.432 75.928 177.809 76.6823L184.148 90.6301L201.946 82.5281L195.588 68.6514C195.253 67.8928 194.733 67.2306 194.075 66.7257C193.469 66.2897 192.738 66.063 191.993 66.08C191.044 66.1278 190.115 66.3675 189.261 66.7848L188.55 67.1132L188.301 66.5596L204.291 59.3014L204.543 59.8407L203.831 60.169C202.973 60.5281 202.193 61.0497 201.534 61.705C201.026 62.2331 200.697 62.9075 200.594 63.6329C200.516 64.4299 200.661 65.233 201.012 65.9526L214.886 96.2833C215.21 97.0534 215.738 97.7206 216.414 98.2128C217.032 98.6464 217.773 98.8703 218.528 98.8518C219.456 98.8125 220.365 98.5768 221.195 98.1603L221.906 97.8319L222.155 98.3855L206.176 105.662L205.927 105.108L206.639 104.78C207.517 104.418 208.31 103.877 208.966 103.191C209.472 102.644 209.782 101.944 209.846 101.201C209.893 100.366 209.721 99.5325 209.347 98.784L202.199 83.0675L184.389 91.2121L191.541 106.914C191.873 107.67 192.388 108.33 193.04 108.836C193.669 109.257 194.419 109.456 195.174 109.404C196.112 109.36 197.03 109.122 197.872 108.706L198.584 108.378L198.833 108.931L182.82 116.336Z" fill="black"/>
<path id="Vector_3" d="M249.234 95.236C245.535 95.7685 241.762 95.1984 238.385 93.5971C235.35 92.0231 232.876 89.5506 231.299 86.5174C229.442 82.9705 228.316 79.0868 227.987 75.0966C227.474 71.149 227.759 67.1383 228.827 63.3032C229.753 60.0307 231.671 57.1253 234.315 54.9862C237.301 52.7225 240.882 51.3786 244.62 51.119C248.209 50.6228 251.866 51.1934 255.133 52.7599C258.161 54.345 260.658 56.7834 262.314 59.7732C264.237 63.2825 265.4 67.1572 265.729 71.1455C266.245 75.1203 265.922 79.1591 264.782 83.0015C263.781 86.2819 261.84 89.1967 259.2 91.385C256.334 93.63 252.865 94.9706 249.234 95.236V95.236ZM249.179 94.6425C251.088 94.4874 252.928 93.8629 254.537 92.8244C256.047 91.763 257.218 90.2865 257.907 88.5736C258.783 86.3666 259.282 84.0281 259.383 81.6559C259.556 78.3875 259.455 75.1103 259.081 71.8587C258.769 68.6133 258.182 65.4002 257.328 62.2537C256.732 59.9739 255.765 57.8076 254.465 55.8415C253.439 54.3198 251.996 53.1264 250.308 52.4047C248.526 51.7247 246.601 51.5004 244.71 51.7522C242.781 51.8989 240.919 52.5234 239.292 53.5693C237.777 54.6308 236.598 56.1031 235.893 57.8126C235.002 60.008 234.49 62.3383 234.378 64.7047C234.203 67.9638 234.307 71.2319 234.687 74.4734C235.003 77.7207 235.594 80.9353 236.455 84.0822C237.04 86.3735 238.005 88.5505 239.31 90.523C240.344 92.0506 241.797 93.2467 243.495 93.9673C245.308 94.6466 247.258 94.8782 249.179 94.6425Z" fill="black"/>
<path id="Vector_4" d="M282.687 94.5298L282.838 93.9609L283.592 94.1615C284.511 94.3562 285.462 94.3548 286.38 94.1574C287.096 93.9816 287.737 93.5809 288.208 93.0141C288.712 92.3425 289.037 91.5539 289.153 90.7222L295.686 53.7608L290.811 52.905C289.205 52.5616 287.548 52.5183 285.926 52.7775C284.695 53.0182 283.605 53.7273 282.886 54.7555C281.997 56.1351 281.372 57.668 281.044 59.2759L280.532 61.1959L279.949 61.0407L282.137 50.7029L315.493 56.535L314.003 66.9976L313.434 66.8462L313.657 64.8646C313.896 63.2364 313.821 61.5773 313.435 59.9775C313.115 58.7705 312.345 57.7317 311.283 57.0745C309.837 56.2789 308.257 55.7553 306.623 55.5295L301.62 54.6397L295.181 91.7632C295.011 92.583 295.053 93.4324 295.301 94.2319C295.552 94.9475 296.04 95.5558 296.685 95.9558C297.482 96.4446 298.372 96.7643 299.298 96.8951L300.052 97.0958L299.897 97.6788L282.687 94.5298Z" fill="black"/>
<path id="Vector_5" d="M331.37 109.666C327.942 108.163 325.036 105.678 323.02 102.524C321.285 99.5855 320.495 96.1852 320.755 92.7827C321.064 88.7956 322.165 84.9102 323.995 81.3542C325.651 77.7302 328.02 74.476 330.958 71.7849C333.475 69.4977 336.639 68.0466 340.014 67.631C343.743 67.3002 347.488 68.0589 350.795 69.8151C354.104 71.2896 356.905 73.7093 358.843 76.7702C360.581 79.722 361.409 83.1213 361.223 86.5417C360.994 90.538 359.929 94.4417 358.097 98.0005C356.422 101.64 354.001 104.887 350.991 107.532C348.409 109.789 345.222 111.239 341.824 111.702C338.214 112.073 334.576 111.365 331.37 109.666V109.666ZM331.635 109.127C333.333 110.011 335.224 110.457 337.138 110.424C338.964 110.319 340.72 109.686 342.192 108.602C344.109 107.195 345.776 105.476 347.124 103.518C349 100.833 350.647 97.9952 352.048 95.0349C353.509 92.1187 354.714 89.0815 355.652 85.9574C356.354 83.6938 356.675 81.3291 356.6 78.9602C356.535 77.1315 355.95 75.3591 354.914 73.8509C353.765 72.3314 352.254 71.123 350.519 70.3357C348.804 69.4441 346.896 68.9885 344.963 69.0091C343.113 69.1059 341.33 69.7306 339.823 70.809C337.903 72.2009 336.233 73.9091 334.884 75.8607C333.014 78.5306 331.376 81.3556 329.987 84.3046C328.517 87.2334 327.303 90.2835 326.357 93.421C325.652 95.6888 325.33 98.0585 325.405 100.432C325.46 102.267 326.044 104.046 327.087 105.556C328.291 107.092 329.858 108.304 331.646 109.084L331.635 109.127Z" fill="black"/>
<path id="Vector_6" d="M365.045 132.092C363.711 130.919 362.532 129.582 361.535 128.112C360.716 126.888 360.098 125.54 359.704 124.121C359.376 122.939 359.336 121.696 359.587 120.496C359.841 119.365 360.381 118.318 361.158 117.457C361.667 116.844 362.318 116.364 363.053 116.057C363.71 115.82 364.425 115.797 365.096 115.992C365.871 116.222 366.581 116.63 367.17 117.184C365.668 118.851 364.434 120.743 363.515 122.79C362.813 124.324 362.628 126.043 362.987 127.691C363.452 129.356 364.419 130.837 365.758 131.931C366.573 132.727 367.538 133.355 368.596 133.777C369.654 134.2 370.786 134.41 371.925 134.395C373.139 134.29 374.318 133.935 375.388 133.352C376.458 132.769 377.395 131.972 378.142 131.009C379.215 129.9 379.97 128.523 380.33 127.022C380.573 125.552 380.451 124.045 379.975 122.633C379.321 120.567 378.548 118.541 377.661 116.564C377.134 115.282 376.609 113.939 376.112 112.542C375.6 111.158 375.258 109.717 375.092 108.25C374.922 106.751 375.067 105.234 375.516 103.794C376.075 102.124 377.001 100.601 378.226 99.3368C379.597 97.6944 381.411 96.4803 383.452 95.8388C385.353 95.2993 387.374 95.3537 389.244 95.9944C391.426 96.7439 393.426 97.9457 395.113 99.5213C396.708 100.893 398.055 102.53 399.095 104.358C399.901 105.776 400.37 107.36 400.467 108.988C400.547 110.282 400.121 111.555 399.278 112.54C398.937 112.947 398.502 113.265 398.011 113.466C397.519 113.666 396.986 113.745 396.458 113.693C395.238 113.558 394.1 113.014 393.229 112.149C395.103 110.314 396.423 107.99 397.04 105.441C397.169 104.401 397.017 103.345 396.601 102.383C396.185 101.421 395.52 100.587 394.674 99.9681C393.644 99.0119 392.392 98.3279 391.031 97.9779C389.749 97.6617 388.399 97.7613 387.178 98.2622C385.711 98.8904 384.411 99.8538 383.383 101.075C382.228 102.264 381.414 103.741 381.026 105.352C380.753 106.856 380.865 108.405 381.351 109.855C381.854 111.512 382.614 113.405 383.565 115.668C384.445 117.685 385.201 119.652 385.811 121.536C386.398 123.34 386.586 125.251 386.362 127.135C385.987 129.227 384.995 131.159 383.514 132.682C382.074 134.381 380.183 135.636 378.058 136.302C375.976 136.877 373.77 136.82 371.72 136.138C369.232 135.28 366.957 133.9 365.045 132.092V132.092Z" fill="black"/>
<path id="Vector_7" d="M405.685 153.875L406.729 153.269L414.675 166.792L413.63 167.397L405.685 153.875Z" fill="black"/>
<path id="Vector_8" d="M410.358 198.571L410.942 198.437L411.102 199.21C411.275 200.131 411.632 201.009 412.151 201.789C412.573 202.417 413.195 202.884 413.916 203.112C414.723 203.343 415.577 203.355 416.39 203.146L449.093 196.209C449.872 196.087 450.603 195.755 451.207 195.248C451.735 194.741 452.08 194.071 452.185 193.346C452.332 192.422 452.288 191.477 452.056 190.57L451.896 189.797L452.494 189.666L456.013 206.26C457.055 211.213 456.707 215.095 455.054 217.93C454.138 219.371 452.924 220.599 451.493 221.532C450.063 222.465 448.449 223.08 446.761 223.338C445.05 223.712 443.287 223.794 441.549 223.58C439.815 223.366 438.153 222.757 436.692 221.8C435.045 220.704 433.672 219.244 432.68 217.534C431.39 215.314 430.49 212.891 430.018 210.368L429.228 206.639L417.656 209.088C416.826 209.235 416.049 209.595 415.399 210.132C414.835 210.634 414.456 211.311 414.323 212.054C414.148 212.983 414.158 213.938 414.352 214.864L414.516 215.623L413.932 215.757L410.358 198.571ZM430.464 209.664C430.763 211.237 431.336 212.745 432.157 214.12C432.854 215.239 433.846 216.146 435.023 216.741C436.37 217.385 437.846 217.71 439.339 217.692C441.313 217.704 443.283 217.487 445.207 217.045C447.565 216.615 449.838 215.806 451.937 214.648C453.419 213.836 454.56 212.518 455.149 210.934C455.687 209.118 455.721 207.19 455.248 205.356L454.395 201.351L429.829 206.556L430.464 209.664Z" fill="black"/>
<path id="Vector_9" d="M418.212 237.216L418.822 237.271L418.753 238.045C418.639 238.976 418.719 239.921 418.989 240.819C419.206 241.541 419.662 242.167 420.283 242.595C420.99 243.048 421.801 243.311 422.639 243.359L455.945 246.284C456.738 246.384 457.543 246.267 458.275 245.945C458.93 245.61 459.458 245.072 459.779 244.411C460.187 243.569 460.43 242.656 460.495 241.723L460.568 240.935L461.163 240.987L459.627 258.489L459.017 258.433L459.09 257.645C459.201 256.714 459.121 255.77 458.853 254.871C458.632 254.152 458.176 253.527 457.559 253.095C456.854 252.64 456.039 252.381 455.2 252.346L439.934 250.993L438.221 270.474L453.491 271.812C454.321 271.918 455.164 271.807 455.938 271.489C456.618 271.178 457.175 270.652 457.525 269.992C457.949 269.145 458.196 268.221 458.248 267.275L458.32 266.487L458.916 266.539L457.383 284.027L456.774 283.971L456.843 283.198C456.96 282.275 456.887 281.339 456.631 280.446C456.421 279.746 456.001 279.128 455.426 278.678C454.768 278.218 453.994 277.954 453.192 277.916L419.889 274.976C419.052 274.883 418.204 275.009 417.431 275.342C416.755 275.671 416.201 276.207 415.851 276.871C415.43 277.698 415.189 278.605 415.143 279.531L415.07 280.319L414.475 280.267L416.011 262.765L416.607 262.817L416.548 263.609C416.431 264.549 416.509 265.503 416.777 266.411C417.007 267.121 417.465 267.735 418.079 268.159C418.784 268.614 419.599 268.873 420.438 268.908L437.622 270.436L439.335 250.956L422.15 249.428C421.32 249.322 420.477 249.433 419.703 249.751C419.018 250.069 418.457 250.606 418.11 251.276C417.686 252.118 417.442 253.038 417.39 253.979L417.321 254.752L416.726 254.701L418.212 237.216Z" fill="black"/>
<path id="Vector_10" d="M403.97 305.373C405.314 301.887 407.657 298.877 410.705 296.718C413.562 294.844 416.925 293.895 420.339 293.997C424.342 294.121 428.281 295.04 431.926 296.7C435.618 298.19 438.975 300.404 441.798 303.211C444.196 305.616 445.794 308.7 446.377 312.045C446.889 315.755 446.302 319.533 444.688 322.912C443.372 326.29 441.081 329.201 438.106 331.273C435.251 333.147 431.904 334.132 428.488 334.105C424.483 334.062 420.53 333.182 416.886 331.519C413.175 330.019 409.818 327.761 407.029 324.89C404.661 322.408 403.068 319.29 402.442 315.917C401.897 312.328 402.428 308.659 403.97 305.373V305.373ZM404.516 305.609C403.716 307.353 403.358 309.266 403.474 311.181C403.654 313.014 404.366 314.755 405.523 316.188C407.019 318.039 408.816 319.624 410.839 320.878C413.602 322.633 416.512 324.146 419.535 325.401C422.516 326.725 425.607 327.787 428.772 328.576C431.062 329.175 433.436 329.385 435.796 329.196C437.639 329.058 439.403 328.391 440.877 327.274C442.336 326.05 443.47 324.484 444.176 322.715C444.987 320.961 445.353 319.034 445.243 317.105C445.081 315.242 444.378 313.467 443.222 311.998C441.748 310.142 439.965 308.555 437.952 307.305C435.202 305.547 432.301 304.036 429.284 302.79C426.288 301.465 423.185 300.394 420.008 299.59C417.708 298.994 415.325 298.781 412.956 298.962C411.106 299.103 409.338 299.781 407.868 300.912C406.379 302.178 405.223 303.789 404.501 305.606L404.516 305.609Z" fill="black"/>
<path id="Vector_11" d="M388.168 334.871L388.63 335.253L388.131 335.866C387.511 336.57 387.042 337.394 386.756 338.287C386.535 339.007 386.56 339.78 386.826 340.484C387.159 341.249 387.685 341.914 388.353 342.414L417.381 366.223L420.516 362.397C421.598 361.164 422.446 359.743 423.018 358.205C423.41 357.013 423.33 355.716 422.795 354.581C422.029 353.119 420.998 351.811 419.754 350.726L418.3 349.379L418.682 348.917L426.62 355.889L405.138 382.063L396.75 375.642L397.132 375.18L398.756 376.344C400.039 377.362 401.508 378.12 403.081 378.576C404.29 378.889 405.573 378.723 406.662 378.113C408.07 377.253 409.303 376.134 410.296 374.816L413.515 370.906L384.502 347.1C383.872 346.543 383.107 346.16 382.283 345.992C381.543 345.86 380.779 345.984 380.118 346.344C379.295 346.802 378.574 347.424 378.002 348.172L377.508 348.772L377.031 348.386L388.168 334.871Z" fill="black"/>
<path id="Vector_12" d="M351.095 369.842C354.088 367.597 357.68 366.289 361.416 366.086C364.832 366.021 368.184 367.009 371.019 368.916C374.358 371.146 377.217 374.02 379.431 377.369C381.771 380.596 383.437 384.261 384.33 388.146C385.08 391.46 384.785 394.925 383.487 398.065C381.955 401.483 379.453 404.376 376.292 406.385C373.355 408.545 369.844 409.789 366.202 409.959C362.79 410.012 359.436 409.067 356.555 407.239C353.191 405.077 350.316 402.237 348.113 398.9C345.763 395.658 344.122 391.957 343.297 388.038C342.602 384.68 342.905 381.192 344.171 378.005C345.62 374.659 348.03 371.818 351.095 369.842V369.842ZM351.434 370.343C349.832 371.387 348.512 372.809 347.591 374.483C346.772 376.137 346.448 377.991 346.656 379.824C346.947 382.185 347.628 384.482 348.67 386.62C350.078 389.572 351.736 392.398 353.626 395.067C355.449 397.778 357.501 400.327 359.762 402.686C361.382 404.407 363.28 405.845 365.377 406.937C367.008 407.78 368.845 408.142 370.674 407.981C372.564 407.726 374.36 406.999 375.896 405.868C377.54 404.827 378.9 403.394 379.855 401.698C380.671 400.04 381.001 398.184 380.807 396.346C380.54 393.989 379.874 391.695 378.835 389.562C377.436 386.614 375.781 383.793 373.89 381.133C372.066 378.415 370.01 375.86 367.744 373.497C366.112 371.769 364.208 370.321 362.108 369.209C360.469 368.364 358.62 368.014 356.786 368.204C354.85 368.453 353.008 369.189 351.434 370.343V370.343Z" fill="black"/>
<path id="Vector_13" d="M315.017 388.201C316.701 387.596 318.456 387.214 320.239 387.063C321.705 386.946 323.18 387.066 324.607 387.418C325.794 387.711 326.895 388.281 327.82 389.08C328.687 389.86 329.337 390.851 329.704 391.958C329.994 392.707 330.088 393.519 329.975 394.315C329.855 395.003 329.526 395.639 329.034 396.135C328.45 396.694 327.745 397.111 326.973 397.354C326.258 395.228 325.213 393.227 323.875 391.427C322.883 390.067 321.476 389.068 319.866 388.578C318.189 388.159 316.422 388.275 314.813 388.908C312.612 389.57 310.755 391.065 309.638 393.075C309.134 394.186 308.866 395.39 308.85 396.61C308.835 397.83 309.073 399.04 309.548 400.163C309.986 401.629 310.806 402.952 311.925 403.994C313.105 404.947 314.506 405.587 315.999 405.855C318.122 406.299 320.271 406.617 322.432 406.806C323.804 406.973 325.215 407.166 326.685 407.42C328.143 407.659 329.568 408.063 330.933 408.627C332.324 409.206 333.583 410.059 334.636 411.136C335.825 412.424 336.712 413.96 337.231 415.634C337.996 417.619 338.176 419.781 337.751 421.865C337.28 423.787 336.24 425.522 334.766 426.842C333.047 428.378 331.022 429.531 328.824 430.226C326.852 430.952 324.768 431.325 322.667 431.329C321.036 431.34 319.423 430.979 317.953 430.272C316.785 429.709 315.881 428.715 315.431 427.499C315.243 427.003 315.178 426.468 315.241 425.942C315.304 425.415 315.494 424.911 315.795 424.474C316.524 423.483 317.557 422.757 318.736 422.408C319.419 424.939 320.8 427.228 322.72 429.013C323.568 429.624 324.561 430.003 325.601 430.111C326.641 430.22 327.691 430.054 328.648 429.631C329.984 429.203 331.191 428.445 332.158 427.428C333.059 426.465 333.63 425.241 333.789 423.932C333.971 422.331 333.765 420.709 333.19 419.204C332.723 417.609 331.832 416.171 330.611 415.045C329.426 414.101 328.024 413.466 326.533 413.198C324.871 412.862 322.823 412.546 320.382 412.276C318.297 412.074 316.224 411.766 314.17 411.354C312.306 410.994 310.544 410.229 309.009 409.112C307.371 407.761 306.171 405.952 305.564 403.916C304.787 401.825 304.62 399.557 305.082 397.375C305.587 395.277 306.713 393.379 308.313 391.93C310.26 390.229 312.545 388.959 315.017 388.201Z" fill="black"/>
<path id="Vector_14" d="M276.134 412.974L276.163 414.185L260.456 414.543L260.428 413.332L276.134 412.974Z" fill="black"/>
<path id="Vector_15" d="M234.841 395.022L234.689 395.591L233.921 395.386C233.037 395.081 232.099 394.961 231.167 395.034C230.412 395.082 229.699 395.393 229.151 395.914C228.555 396.504 228.123 397.24 227.897 398.047L217.882 429.954C217.615 430.707 217.557 431.518 217.714 432.301C217.888 433.022 218.295 433.666 218.872 434.132C219.61 434.707 220.454 435.133 221.355 435.387L222.123 435.591L221.968 436.175L205.791 431.092C200.954 429.581 197.716 427.4 196.079 424.547C195.263 423.037 194.779 421.37 194.662 419.657C194.546 417.944 194.798 416.226 195.402 414.62C195.918 412.94 196.714 411.36 197.757 409.946C198.799 408.55 200.145 407.408 201.692 406.607C203.457 405.71 205.403 405.228 207.383 405.198C209.951 405.159 212.507 405.566 214.936 406.401L218.579 407.538L222.105 396.292C222.386 395.504 222.455 394.655 222.303 393.832C222.126 393.112 221.72 392.469 221.145 392.001C220.412 391.415 219.571 390.979 218.669 390.717L217.915 390.517L218.071 389.934L234.841 395.022ZM215.315 407.096C213.797 406.588 212.203 406.344 210.603 406.375C209.278 406.431 207.995 406.854 206.896 407.597C205.69 408.449 204.691 409.563 203.973 410.855C203.003 412.589 202.228 414.426 201.662 416.332C200.868 418.596 200.451 420.975 200.428 423.374C200.413 425.07 201.008 426.714 202.103 428.009C203.426 429.359 205.089 430.328 206.916 430.813L210.839 432.04L218.341 408.145L215.315 407.096Z" fill="black"/>
<path id="Vector_16" d="M197.363 382.991L197.017 383.492L196.374 383.047C195.615 382.492 194.749 382.1 193.831 381.898C193.095 381.731 192.324 381.821 191.646 382.154C190.905 382.544 190.283 383.125 189.843 383.837L170.967 411.436C170.493 412.079 170.201 412.838 170.124 413.633C170.093 414.37 170.307 415.096 170.731 415.699C171.277 416.46 171.961 417.113 172.748 417.622L173.391 418.067L173.048 418.554L158.562 408.606L158.908 408.105L159.551 408.55C160.31 409.105 161.176 409.497 162.094 409.699C162.83 409.859 163.599 409.769 164.279 409.443C165.017 409.05 165.639 408.469 166.082 407.76L174.735 395.107L158.605 384.067L149.952 396.72C149.451 397.393 149.135 398.186 149.036 399.019C148.969 399.766 149.156 400.514 149.568 401.141C150.097 401.93 150.785 402.6 151.587 403.11L152.234 403.541L151.887 404.043L137.401 394.095L137.747 393.593L138.39 394.038C139.141 394.578 139.988 394.969 140.886 395.19C141.599 395.356 142.345 395.294 143.02 395.012C143.747 394.666 144.362 394.123 144.793 393.443L163.632 365.925C164.133 365.251 164.44 364.454 164.52 363.618C164.571 362.862 164.376 362.11 163.964 361.475C163.452 360.699 162.78 360.043 161.993 359.549L161.35 359.104L161.697 358.602L176.184 368.55L175.841 369.038L175.194 368.606C174.433 368.035 173.557 367.635 172.627 367.436C171.896 367.289 171.137 367.387 170.466 367.714C169.726 368.103 169.103 368.684 168.663 369.396L158.915 383.647L175.063 394.676L184.797 380.422C185.299 379.75 185.615 378.957 185.713 378.123C185.769 377.371 185.572 376.621 185.153 375.994C184.625 375.218 183.947 374.556 183.158 374.047L182.515 373.601L182.858 373.114L197.363 382.991Z" fill="black"/>
<path id="Vector_17" d="M144.972 337.093C147.343 339.985 148.809 343.511 149.188 347.231C149.405 350.639 148.576 354.031 146.813 356.956C144.731 360.376 141.988 363.348 138.745 365.698C135.618 368.183 132.023 370.013 128.174 371.078C124.897 371.978 121.422 371.845 118.223 370.699C114.739 369.306 111.741 366.919 109.602 363.835C107.31 361.023 105.901 357.596 105.553 353.985C105.331 350.576 106.124 347.178 107.832 344.22C109.834 340.754 112.544 337.749 115.784 335.401C118.917 332.904 122.538 331.092 126.415 330.082C129.737 329.234 133.236 329.381 136.476 330.506C139.901 331.806 142.859 334.1 144.972 337.093V337.093ZM144.496 337.453C143.368 335.907 141.881 334.659 140.163 333.818C138.478 333.068 136.611 332.825 134.79 333.118C132.439 333.513 130.17 334.299 128.079 335.444C125.189 336.978 122.441 338.764 119.866 340.782C117.242 342.726 114.791 344.891 112.538 347.254C110.894 348.955 109.543 350.916 108.541 353.059C107.77 354.73 107.497 356.588 107.757 358.409C108.09 360.285 108.895 362.046 110.096 363.525C111.218 365.102 112.718 366.371 114.46 367.215C116.147 367.97 118.017 368.219 119.843 367.932C122.191 367.563 124.458 366.79 126.543 365.649C129.43 364.125 132.176 362.348 134.749 360.339C137.374 358.385 139.828 356.21 142.084 353.839C143.739 352.133 145.097 350.163 146.103 348.009C146.877 346.338 147.144 344.477 146.873 342.655C146.52 340.752 145.704 338.965 144.496 337.453V337.453Z" fill="black"/>
<path id="Vector_18" d="M126.998 308.778L126.437 308.994L126.155 308.279C125.841 307.39 125.348 306.575 124.707 305.883C124.188 305.335 123.499 304.98 122.751 304.875C121.918 304.784 121.076 304.911 120.307 305.245L85.3358 318.874L87.1544 323.486C87.6956 325.039 88.5213 326.477 89.5892 327.728C90.4321 328.657 91.6046 329.221 92.8569 329.298C94.4846 329.338 96.1053 329.072 97.6348 328.514L99.5325 327.907L99.749 328.467L89.8006 331.912L77.498 300.37L87.211 296.208L87.4274 296.768L85.6084 297.594C84.0952 298.228 82.7151 299.142 81.5406 300.288C80.6822 301.19 80.2006 302.386 80.194 303.631C80.2557 305.279 80.6246 306.901 81.2817 308.413L83.0739 313.124L118.031 299.492C118.825 299.214 119.534 298.736 120.091 298.106C120.566 297.519 120.83 296.79 120.84 296.036C120.85 295.095 120.662 294.163 120.289 293.3L119.996 292.567L120.571 292.354L126.998 308.778Z" fill="black"/>
<path id="Vector_19" d="M114.644 259.403C115.13 263.109 114.509 266.876 112.86 270.229C111.24 273.242 108.734 275.685 105.681 277.228C102.092 279.02 98.1857 280.086 94.1845 280.367C90.2301 280.816 86.2258 280.475 82.4044 279.364C79.1451 278.391 76.2667 276.433 74.164 273.759C71.9379 270.745 70.6457 267.145 70.4475 263.403C69.9976 259.807 70.6192 256.158 72.2344 252.913C73.8473 249.899 76.3221 247.435 79.3426 245.834C82.8769 243.951 86.7704 242.838 90.7662 242.569C94.7629 242.109 98.8117 242.492 102.652 243.692C105.921 244.732 108.811 246.715 110.958 249.391C113.151 252.29 114.434 255.775 114.644 259.403V259.403ZM114.037 259.455C113.92 257.544 113.323 255.693 112.301 254.074C111.279 252.548 109.835 251.354 108.144 250.637C105.946 249.73 103.612 249.197 101.239 249.058C97.9792 248.833 94.7063 248.895 91.4576 249.242C88.2033 249.498 84.9773 250.036 81.8156 250.848C79.5151 251.429 77.3283 252.391 75.3464 253.696C73.8082 254.7 72.5927 256.127 71.8461 257.805C71.1428 259.574 70.8893 261.49 71.1082 263.381C71.2293 265.313 71.8304 267.185 72.8571 268.827C73.8987 270.356 75.354 271.557 77.053 272.289C79.2393 273.212 81.5675 273.755 83.9367 273.893C87.1899 274.118 90.4566 274.06 93.6998 273.72C96.9645 273.458 100.201 272.918 103.374 272.106C105.684 271.532 107.881 270.572 109.872 269.267C111.417 268.258 112.632 266.818 113.365 265.125C114.067 263.325 114.308 261.379 114.065 259.463L114.037 259.455Z" fill="black"/>
<path id="Vector_20" d="M116.422 218.966C116.113 220.729 115.579 222.445 114.834 224.072C114.208 225.405 113.368 226.627 112.348 227.69C111.506 228.581 110.464 229.259 109.308 229.668C108.211 230.042 107.034 230.123 105.896 229.902C105.098 229.783 104.345 229.462 103.707 228.969C103.186 228.524 102.812 227.93 102.637 227.268C102.435 226.481 102.419 225.658 102.591 224.864C104.79 225.298 107.044 225.384 109.27 225.119C110.945 224.921 112.51 224.183 113.729 223.016C114.919 221.761 115.689 220.167 115.933 218.455C116.192 217.345 116.228 216.195 116.041 215.071C115.854 213.948 115.447 212.872 114.843 211.905C114.125 210.921 113.21 210.097 112.157 209.484C111.104 208.871 109.935 208.482 108.725 208.342C107.231 208.003 105.674 208.067 104.213 208.528C102.829 209.085 101.6 209.971 100.633 211.108C99.2042 212.735 97.8741 214.446 96.6493 216.231C95.8184 217.35 94.9515 218.49 94.02 219.644C93.1012 220.793 92.0528 221.832 90.8957 222.741C89.6968 223.675 88.3144 224.345 86.8389 224.708C85.1336 225.11 83.36 225.127 81.6473 224.758C79.5301 224.442 77.5485 223.523 75.9397 222.111C74.5008 220.757 73.5035 219 73.078 217.07C72.5833 214.816 72.576 212.483 73.0568 210.226C73.3874 208.149 74.0901 206.148 75.1312 204.32C75.9173 202.89 77.0262 201.662 78.37 200.735C79.4319 199.996 80.74 199.699 82.0168 199.909C82.5447 199.983 83.0457 200.187 83.4747 200.503C83.9038 200.82 84.2472 201.238 84.4741 201.72C84.9837 202.838 85.1102 204.092 84.8342 205.289C82.3038 204.655 79.6474 204.733 77.1587 205.515C76.2013 205.95 75.3758 206.63 74.7654 207.487C74.155 208.343 73.7815 209.345 73.6826 210.392C73.3968 211.772 73.4561 213.2 73.8552 214.551C74.2569 215.795 75.0287 216.888 76.0675 217.683C77.3667 218.606 78.8659 219.209 80.4427 219.441C82.062 219.809 83.7506 219.732 85.3299 219.219C86.7567 218.655 88.0173 217.738 88.9939 216.554C90.0978 215.325 91.3873 213.627 92.8132 211.646C94.0172 209.93 95.3064 208.276 96.6761 206.689C97.9047 205.245 99.4392 204.093 101.168 203.316C103.146 202.541 105.312 202.385 107.38 202.867C109.582 203.214 111.639 204.184 113.307 205.663C114.863 207.139 115.946 209.044 116.419 211.137C116.974 213.717 116.975 216.385 116.422 218.966V218.966Z" fill="black"/>
<path id="Vector_21" d="M113.906 172.971L112.84 172.398L120.279 158.584L121.345 159.158L113.906 172.971Z" fill="black"/>
</g>
</g>
<defs>
<clipPath id="clip0_101_124">
<rect width="529" height="448" fill="white" transform="translate(0 0.691406)"/>
</clipPath>
</defs>
</svg>
