<svg width="529" height="449" viewBox="0 0 529 449" fill="none" xmlns="http://www.w3.org/2000/svg">
<g id="posters-svg" clip-path="url(#clip0_101_124)">
<rect id="clipping-mask" x="49.8369" y="14.1406" width="422.068" height="162.022" fill="#34C027"/>
<g id="Group 10">
<path id="Vector" d="M148.323 142.274L147.911 141.84L148.463 141.304C149.155 140.681 149.714 139.925 150.105 139.08C150.416 138.396 150.486 137.626 150.304 136.897C150.063 136.1 149.627 135.377 149.034 134.792L126.118 110.834C125.589 110.247 124.908 109.817 124.15 109.592C123.446 109.417 122.705 109.474 122.036 109.753C121.188 110.127 120.417 110.657 119.763 111.314L119.197 111.847L118.781 111.426L130.935 99.7896C134.572 96.3176 138.02 94.5579 141.279 94.5106C142.982 94.5205 144.663 94.8971 146.207 95.6148C147.751 96.3325 149.122 97.3745 150.227 98.6697C151.434 99.9184 152.424 101.36 153.157 102.935C153.865 104.514 154.216 106.23 154.184 107.96C154.12 109.933 153.601 111.865 152.668 113.605C151.474 115.853 149.899 117.878 148.013 119.588L145.296 122.142L153.41 130.617C153.961 131.242 154.666 131.712 155.456 131.98C156.171 132.195 156.939 132.159 157.631 131.878C158.494 131.527 159.277 131.003 159.93 130.338L160.496 129.805L160.908 130.24L148.323 142.274ZM147.16 119.594C148.334 118.527 149.308 117.259 150.035 115.849C150.623 114.672 150.872 113.356 150.755 112.046C150.596 110.59 150.108 109.189 149.328 107.949C148.303 106.283 147.089 104.74 145.71 103.352C144.116 101.581 142.247 100.077 140.175 98.9008C138.709 98.08 136.999 97.8082 135.351 98.1342C133.544 98.6354 131.907 99.6169 130.613 100.974L127.659 103.79L144.896 121.65L147.16 119.594Z" fill="black"/>
<path id="Vector_2" d="M193.008 107.955C189.812 109.833 186.13 110.721 182.429 110.507C179.05 110.199 175.849 108.855 173.263 106.658C170.231 104.093 167.744 100.946 165.949 97.4034C164 93.9672 162.759 90.1756 162.298 86.2521C161.934 82.8992 162.608 79.5152 164.231 76.5584C166.126 73.3661 168.912 70.7966 172.247 69.1655C175.36 67.3601 178.938 66.5171 182.529 66.7428C185.904 67.0531 189.112 68.3547 191.749 70.4837C194.821 72.9747 197.343 76.0771 199.154 79.5941C201.096 83.0525 202.288 86.8814 202.651 90.8311C202.962 94.2172 202.272 97.6201 200.669 100.618C198.899 103.769 196.232 106.323 193.008 107.955V107.955ZM192.721 107.429C194.417 106.566 195.876 105.303 196.972 103.748C197.962 102.212 198.483 100.42 198.47 98.5929C198.455 96.2376 198.041 93.9019 197.245 91.685C196.172 88.606 194.829 85.628 193.232 82.7856C191.736 79.9151 189.994 77.1795 188.027 74.6096C186.617 72.7351 184.905 71.1089 182.96 69.798C181.453 68.7756 179.68 68.2174 177.859 68.1926C175.969 68.2303 174.118 68.7417 172.477 69.6797C170.759 70.5371 169.281 71.8083 168.177 73.3789C167.182 74.9231 166.651 76.7198 166.645 78.5567C166.643 80.9067 167.042 83.2398 167.826 85.4551C168.888 88.5141 170.209 91.4767 171.775 94.3103C173.274 97.1908 175.018 99.9369 176.988 102.518C178.405 104.403 180.124 106.041 182.076 107.364C183.6 108.376 185.384 108.926 187.213 108.948C189.147 108.905 191.039 108.383 192.721 107.429V107.429Z" fill="black"/>
<path id="Vector_3" d="M228.545 94.3385C226.821 94.7703 225.048 94.9716 223.271 94.9373C221.799 94.9256 220.341 94.664 218.957 94.1637C217.81 93.7542 216.776 93.0801 215.938 92.1963C215.161 91.3494 214.622 90.3123 214.375 89.19C214.16 88.4209 214.143 87.6097 214.328 86.8326C214.515 86.1621 214.903 85.5646 215.439 85.1196C216.073 84.6255 216.808 84.2775 217.592 84.1004C218.091 86.2697 218.928 88.3467 220.074 90.2548C220.921 91.6992 222.214 92.8295 223.758 93.4753C225.374 94.041 227.124 94.0991 228.774 93.6416C231.018 93.209 232.999 91.9051 234.284 90.0153C234.894 88.9716 235.278 87.8119 235.412 86.6108C235.546 85.4097 235.427 84.1939 235.062 83.0415C234.777 81.5495 234.098 80.1608 233.096 79.0192C232.031 77.9864 230.731 77.2274 229.309 76.8074C227.26 76.1619 225.173 75.641 223.061 75.2478C221.721 74.9518 220.338 74.6463 218.921 74.2285C217.484 73.856 216.099 73.309 214.796 72.5997C213.478 71.8863 212.325 70.9032 211.412 69.7145C210.368 68.3262 209.639 66.7265 209.278 65.0274C208.725 62.9742 208.768 60.8058 209.403 58.7764C210.055 56.9255 211.25 55.314 212.832 54.1521C214.682 52.8091 216.795 51.87 219.031 51.3957C221.052 50.8771 223.147 50.7127 225.223 50.9098C226.833 51.0573 228.386 51.5744 229.763 52.4209C230.865 53.0852 231.659 54.1581 231.974 55.4058C232.112 55.9137 232.124 56.4474 232.011 56.9613C231.897 57.4752 231.661 57.9539 231.322 58.3563C230.512 59.2611 229.425 59.8726 228.232 60.0955C227.796 57.5311 226.652 55.1397 224.928 53.1917C224.15 52.4964 223.202 52.0195 222.179 51.8094C221.157 51.5993 220.098 51.6636 219.108 51.9957C217.747 52.2851 216.478 52.9092 215.418 53.8116C214.437 54.6819 213.753 55.8378 213.462 57.1168C213.151 58.6633 213.203 60.2608 213.612 61.7842C213.927 63.3992 214.669 64.9003 215.761 66.1308C216.839 67.2047 218.177 67.9795 219.645 68.3789C221.253 68.8836 223.25 69.3846 225.622 69.8788C227.663 70.281 229.682 70.7869 231.671 71.3943C233.477 71.9317 235.14 72.866 236.538 74.1289C238.031 75.6122 239.039 77.5133 239.43 79.5813C239.996 81.7184 239.944 83.9722 239.279 86.0809C238.57 88.1022 237.275 89.8665 235.559 91.1489C233.473 92.6969 231.083 93.7841 228.545 94.3385V94.3385Z" fill="black"/>
<path id="Vector_4" d="M254.582 89.5521L254.58 88.9536L255.359 88.9463C256.289 88.9736 257.215 88.8119 258.08 88.471C258.774 88.1839 259.354 87.6763 259.73 87.0266C260.104 86.2852 260.286 85.4619 260.259 84.632L260.185 47.4073L255.266 47.4119C253.64 47.3595 252.018 47.6096 250.484 48.1494C249.335 48.5875 248.4 49.4518 247.873 50.5624C247.221 52.0519 246.867 53.6547 246.831 55.2803L246.722 57.2596L246.124 57.2619L246.451 46.7801L280.025 46.7222L280.402 57.1952L279.803 57.1976L279.685 55.2281C279.644 53.6051 279.292 52.0051 278.649 50.5143C278.13 49.3946 277.199 48.5191 276.049 48.0714C274.502 47.5283 272.865 47.2884 271.227 47.365L266.202 47.376L266.275 84.6007C266.259 85.4312 266.447 86.253 266.823 86.994C267.199 87.6431 267.783 88.1461 268.481 88.4216C269.344 88.7698 270.27 88.9337 271.2 88.9027L271.979 88.8954L271.981 89.4939L254.582 89.5521Z" fill="black"/>
<path id="Vector_5" d="M284.842 90.1517L284.971 89.5673L285.727 89.7342C286.623 90.0005 287.566 90.0711 288.491 89.9413C289.247 89.8274 289.939 89.4509 290.445 88.878C290.999 88.2561 291.382 87.5011 291.557 86.6869L299.674 54.5454C299.895 53.7815 299.903 52.972 299.698 52.2037C299.498 51.4862 299.055 50.8602 298.445 50.432C297.681 49.9085 296.827 49.5321 295.925 49.3221L295.169 49.1552L295.264 48.7276L324.448 56.0866L322.188 66.3207L321.603 66.1916L322.031 64.2531C322.395 62.6668 322.453 61.0256 322.203 59.4175C321.973 58.2043 321.285 57.1262 320.282 56.4069C318.915 55.5083 317.392 54.8728 315.792 54.5332L306.502 52.1968L301.74 71.0423L316.31 74.7242L316.181 75.3086L301.611 71.6267L296.349 92.4695L307.099 95.1729C308.769 95.6638 310.513 95.8567 312.25 95.7428C313.55 95.6422 314.758 95.0338 315.614 94.0492C316.614 92.7666 317.35 91.2981 317.779 89.7289L318.375 87.8424L318.959 87.9715L315.992 98.0196L284.842 90.1517Z" fill="black"/>
<path id="Vector_6" d="M321.721 100.034L322.015 99.5155L322.695 99.8899C323.496 100.362 324.384 100.669 325.305 100.795C326.05 100.882 326.802 100.716 327.442 100.326C328.139 99.8725 328.705 99.2453 329.085 98.506L345.162 69.5132C345.573 68.8337 345.791 68.0551 345.794 67.261C345.763 66.53 345.485 65.8312 345.006 65.2781C344.402 64.5751 343.666 63.9964 342.841 63.574L342.165 63.1854L342.458 62.6673L356.533 70.4853C359.133 71.8287 361.475 73.6215 363.45 75.7807C364.909 77.3885 365.821 79.4162 366.057 81.5739C366.179 83.73 365.654 85.8733 364.548 87.7285C363.668 89.5155 362.3 91.0168 360.602 92.0589C359.145 92.8922 357.503 93.3467 355.825 93.3807C354.183 93.4124 352.544 93.241 350.945 92.8706L351.981 108.482C352.093 110.002 352.211 111.299 352.339 112.343C352.431 113.225 352.598 114.097 352.839 114.95C353.006 115.542 353.265 116.104 353.607 116.615C353.879 117.018 354.24 117.354 354.662 117.595L354.833 117.633L354.553 118.154L353.805 117.75C352.443 117.032 351.121 116.24 349.844 115.38C348.981 114.793 348.211 114.079 347.561 113.261C346.979 112.55 346.555 111.723 346.319 110.834C346.093 109.727 345.946 108.606 345.879 107.478L344.931 90.1818L341.643 88.3493L334.345 101.492C333.923 102.209 333.687 103.02 333.659 103.852C333.673 104.598 333.934 105.319 334.403 105.9C334.993 106.618 335.721 107.211 336.544 107.643L337.238 108.021L336.944 108.539L321.721 100.034ZM345.624 89.7519C347.193 90.7224 348.973 91.3002 350.813 91.4363C352.351 91.4619 353.841 90.9046 354.985 89.8763C356.535 88.4689 357.817 86.792 358.769 84.9269C359.876 83.0716 360.645 81.0347 361.04 78.9107C361.313 77.3463 361.004 75.7357 360.171 74.3836C359.093 72.8674 357.661 71.6375 355.999 70.8011L352.446 68.8201L341.948 87.714L345.624 89.7519Z" fill="black"/>
<path id="Vector_7" d="M365.517 129.905C364.199 128.71 363.048 127.345 362.093 125.844C361.305 124.62 360.723 123.275 360.372 121.862C360.077 120.683 360.068 119.451 360.344 118.267C360.612 117.144 361.175 116.112 361.976 115.279C362.504 114.678 363.176 114.22 363.929 113.947C364.585 113.731 365.292 113.72 365.954 113.916C366.716 114.174 367.409 114.604 367.979 115.17C366.449 116.777 365.184 118.617 364.234 120.622C363.497 122.125 363.268 123.826 363.581 125.471C364.003 127.133 364.925 128.626 366.224 129.747C367.825 131.377 370.004 132.31 372.288 132.342C373.495 132.271 374.673 131.949 375.748 131.396C376.823 130.843 377.77 130.072 378.529 129.131C379.616 128.069 380.396 126.734 380.788 125.265C381.059 123.809 380.975 122.308 380.543 120.891C379.945 118.828 379.224 116.802 378.386 114.823C377.893 113.534 377.467 112.214 376.943 110.797C376.476 109.41 376.171 107.973 376.035 106.516C375.917 105.039 376.093 103.553 376.552 102.145C377.135 100.509 378.071 99.0214 379.294 97.7876C380.679 96.2003 382.491 95.044 384.515 94.4561C386.417 93.9728 388.421 94.0769 390.264 94.7545C392.409 95.5447 394.363 96.7813 395.995 98.3825C397.558 99.7628 398.869 101.403 399.872 103.23C400.638 104.651 401.067 106.229 401.126 107.843C401.176 109.13 400.721 110.387 399.859 111.345C399.514 111.744 399.075 112.052 398.582 112.24C398.089 112.429 397.557 112.492 397.034 112.425C395.833 112.25 394.723 111.685 393.876 110.816C395.778 109.023 397.143 106.736 397.817 104.212C397.974 103.178 397.851 102.121 397.461 101.151C397.07 100.181 396.426 99.3342 395.597 98.6981C394.6 97.7212 393.375 97.0087 392.033 96.6253C390.768 96.2899 389.43 96.3602 388.207 96.8264C386.746 97.4162 385.445 98.3428 384.41 99.5307C383.24 100.683 382.404 102.131 381.99 103.72C381.691 105.233 381.783 106.796 382.257 108.264C382.74 109.865 383.414 111.823 384.305 114.083C385.099 116.003 385.794 117.963 386.386 119.954C386.937 121.755 387.079 123.655 386.802 125.517C386.403 127.589 385.373 129.487 383.853 130.95C382.375 132.581 380.466 133.76 378.347 134.353C376.273 134.877 374.09 134.774 372.074 134.059C369.618 133.155 367.383 131.739 365.517 129.905Z" fill="black"/>
<path id="Vector_8" d="M402.84 148.6L403.872 147.991L411.799 161.372L410.767 161.982L402.84 148.6Z" fill="black"/>
<path id="Vector_9" d="M406.275 189.018L406.859 188.878L407.053 189.623C407.239 190.538 407.619 191.402 408.167 192.157C408.604 192.765 409.232 193.209 409.952 193.418C410.757 193.617 411.6 193.602 412.398 193.375L444.595 185.539C445.365 185.384 446.08 185.026 446.663 184.501C447.174 183.98 447.497 183.305 447.581 182.581C447.695 181.66 447.627 180.725 447.381 179.831L447.19 179.071L447.774 178.931L451.773 195.272C452.966 200.16 452.77 204.023 451.186 206.862C450.33 208.336 449.165 209.608 447.771 210.59C446.378 211.572 444.789 212.242 443.112 212.553C441.424 212.963 439.679 213.083 437.951 212.908C436.229 212.749 434.566 212.198 433.09 211.296C431.426 210.255 430.019 208.85 428.975 207.188C427.601 205.025 426.61 202.642 426.046 200.143L425.152 196.477L413.795 199.23C412.978 199.396 412.218 199.775 411.594 200.329C411.055 200.843 410.704 201.524 410.599 202.261C410.464 203.184 410.526 204.125 410.782 205.022L410.958 205.779L410.374 205.919L406.275 189.018ZM426.571 199.391C426.904 200.942 427.515 202.419 428.374 203.751C429.103 204.842 430.113 205.716 431.298 206.281C432.655 206.867 434.125 207.146 435.602 207.097C437.563 207.036 439.511 206.754 441.409 206.257C443.719 205.758 445.933 204.883 447.96 203.668C449.41 202.81 450.504 201.46 451.043 199.864C451.511 198.049 451.478 196.14 450.947 194.342L449.981 190.391L425.802 196.307L426.571 199.391Z" fill="black"/>
<path id="Vector_10" d="M413.65 244.823C413.627 241.119 414.704 237.491 416.745 234.4C418.709 231.635 421.473 229.538 424.665 228.391C428.407 227.07 432.373 226.503 436.335 226.723C440.266 226.764 444.15 227.591 447.756 229.157C450.843 230.517 453.436 232.797 455.179 235.685C456.983 238.934 457.806 242.636 457.548 246.344C457.542 249.938 456.48 253.451 454.494 256.447C452.523 259.204 449.784 261.318 446.619 262.526C442.908 263.938 438.942 264.554 434.977 264.334C431.003 264.297 427.081 263.431 423.461 261.79C420.363 260.362 417.754 258.054 415.957 255.155C414.181 252.015 413.378 248.42 413.65 244.823V244.823ZM414.242 244.85C414.128 246.743 414.485 248.635 415.283 250.356C416.116 251.989 417.406 253.343 418.996 254.256C421.043 255.416 423.267 256.231 425.579 256.667C428.767 257.285 432.001 257.63 435.248 257.697C438.48 257.849 441.72 257.719 444.931 257.31C447.264 257.038 449.534 256.372 451.645 255.339C453.286 254.546 454.659 253.291 455.597 251.728C456.509 250.074 456.996 248.219 457.013 246.33C457.131 244.414 456.768 242.499 455.957 240.76C455.132 239.121 453.849 237.757 452.264 236.835C450.235 235.647 448.014 234.823 445.702 234.398C442.526 233.771 439.301 233.424 436.064 233.361C432.821 233.213 429.571 233.345 426.35 233.756C424.007 234.022 421.727 234.687 419.607 235.72C417.966 236.513 416.593 237.768 415.655 239.332C414.715 241.016 414.209 242.908 414.185 244.837L414.242 244.85Z" fill="black"/>
<path id="Vector_11" d="M407.571 282.423C408.066 280.721 408.778 279.089 409.69 277.569C410.442 276.316 411.391 275.193 412.502 274.244C413.425 273.456 414.522 272.899 415.702 272.618C416.826 272.371 417.995 272.418 419.095 272.755C419.888 272.945 420.62 273.333 421.223 273.883C421.714 274.373 422.04 275.004 422.154 275.688C422.261 276.486 422.189 277.297 421.944 278.063C419.818 277.41 417.603 277.092 415.38 277.122C413.709 277.142 412.089 277.695 410.755 278.701C409.449 279.816 408.519 281.308 408.093 282.972C407.344 285.125 407.478 287.487 408.465 289.542C409.053 290.606 409.86 291.534 410.832 292.264C411.805 292.994 412.921 293.51 414.107 293.778C415.527 294.268 417.051 294.373 418.525 294.081C419.945 293.681 421.246 292.942 422.319 291.93C423.907 290.481 425.402 288.934 426.795 287.298C427.735 286.294 428.74 285.261 429.763 284.216C430.795 283.181 431.944 282.271 433.188 281.504C434.472 280.726 435.902 280.218 437.389 280.011C439.118 279.801 440.871 279.974 442.525 280.517C444.55 281.069 446.377 282.182 447.795 283.729C449.067 285.219 449.864 287.056 450.083 289.004C450.321 291.283 450.077 293.588 449.366 295.767C448.788 297.773 447.865 299.664 446.637 301.353C445.703 302.672 444.476 303.757 443.052 304.522C441.929 305.146 440.605 305.299 439.37 304.95C438.861 304.825 438.39 304.579 437.998 304.232C437.606 303.885 437.304 303.447 437.119 302.958C436.744 301.802 436.757 300.555 437.156 299.408C439.591 300.316 442.232 300.526 444.78 300.016C445.778 299.701 446.673 299.123 447.371 298.344C448.069 297.564 448.545 296.612 448.749 295.585C449.184 294.259 449.276 292.844 449.014 291.473C448.777 290.171 448.129 288.98 447.164 288.075C445.981 287.03 444.572 286.274 443.048 285.865C441.489 285.329 439.816 285.217 438.201 285.542C436.738 285.95 435.402 286.719 434.313 287.777C433.065 288.917 431.632 290.394 430.016 292.21C428.646 293.776 427.198 295.272 425.677 296.693C424.311 297.982 422.677 298.954 420.892 299.537C418.855 300.083 416.701 300.003 414.709 299.308C412.58 298.725 410.657 297.554 409.162 295.93C407.762 294.306 406.883 292.299 406.637 290.17C406.387 287.55 406.706 284.908 407.571 282.423V282.423Z" fill="black"/>
<path id="Vector_12" d="M398.693 307.385L399.211 307.678L398.837 308.358C398.34 309.148 398.017 310.035 397.889 310.959C397.794 311.7 397.943 312.452 398.312 313.101C398.771 313.795 399.395 314.365 400.129 314.758L432.406 333.294L434.842 329.034C435.703 327.651 436.3 326.12 436.601 324.519C436.795 323.289 436.498 322.032 435.775 321.018C434.799 319.716 433.58 318.614 432.187 317.773L430.527 316.689L430.836 316.174L439.736 321.698L423.002 350.89L413.74 345.989L414.034 345.47L415.815 346.342C417.244 347.12 418.808 347.618 420.424 347.809C421.655 347.923 422.882 347.557 423.849 346.787C425.08 345.71 426.101 344.415 426.86 342.967L429.318 338.607L397.042 320.07C396.334 319.63 395.524 319.379 394.691 319.342C393.947 319.35 393.226 319.6 392.636 320.054C391.906 320.637 391.303 321.364 390.863 322.189L390.478 322.851L389.96 322.557L398.693 307.385Z" fill="black"/>
<path id="Vector_13" d="M383.056 333.306L383.486 333.729L382.945 334.283C382.272 334.929 381.739 335.707 381.379 336.568C381.097 337.262 381.053 338.031 381.255 338.753C381.521 339.541 381.981 340.249 382.594 340.813L406.325 363.994C406.871 364.57 407.565 364.987 408.331 365.199C409.038 365.356 409.777 365.272 410.431 364.961C411.273 364.567 412.03 364.013 412.66 363.331L413.204 362.763L413.634 363.187L392.615 384.705L384.848 377.637L385.272 377.208L386.764 378.509C387.955 379.615 389.346 380.485 390.861 381.073C392.025 381.492 393.306 381.443 394.435 380.936C395.908 380.191 397.231 379.181 398.337 377.956L405.023 371.106L391.092 357.564L380.6 368.312L380.17 367.888L390.662 357.14L375.288 342.144L367.559 350.064C366.297 351.266 365.256 352.68 364.483 354.243C364.208 354.818 364.05 355.442 364.017 356.078C363.984 356.715 364.077 357.352 364.292 357.953C364.885 359.482 365.783 360.876 366.93 362.048L368.266 363.51L367.843 363.939L360.635 356.367L383.056 333.306Z" fill="black"/>
<path id="Vector_14" d="M356.006 360.203L356.313 360.704L355.625 361.046C354.809 361.496 354.097 362.113 353.536 362.856C353.081 363.452 352.84 364.184 352.853 364.933C352.905 365.761 353.171 366.562 353.625 367.256L370.693 395.767C371.075 396.464 371.639 397.043 372.325 397.444C372.97 397.781 373.709 397.891 374.424 397.758C375.338 397.586 376.211 397.241 376.995 396.741L377.668 396.337L377.972 396.852L364.183 405.138C361.718 406.71 358.995 407.834 356.139 408.458C354.014 408.921 351.796 408.693 349.81 407.808C347.884 406.841 346.293 405.318 345.244 403.436C344.141 401.761 343.536 399.808 343.499 397.803C343.517 396.107 343.956 394.442 344.778 392.958C345.574 391.521 346.546 390.189 347.672 388.993L333.661 382.041C332.314 381.37 331.12 380.822 330.149 380.413C329.34 380.045 328.498 379.754 327.635 379.544C327.043 379.39 326.431 379.33 325.82 379.367C325.338 379.416 324.871 379.568 324.451 379.812L324.298 379.898L323.99 379.396L324.701 378.955C326.317 377.997 327.675 377.265 328.791 376.749C329.732 376.324 330.732 376.041 331.757 375.909C332.643 375.82 333.538 375.911 334.388 376.177C335.459 376.538 336.501 376.978 337.506 377.493L352.939 385.387L356.176 383.457L348.454 370.569C348.053 369.842 347.473 369.23 346.768 368.791C346.114 368.422 345.353 368.286 344.611 368.404C343.702 368.537 342.829 368.853 342.045 369.332L341.372 369.737L341.067 369.221L356.006 360.203ZM352.895 385.991C351.287 386.856 349.904 388.087 348.857 389.584C348.085 390.883 347.82 392.421 348.112 393.904C348.572 395.946 349.387 397.892 350.52 399.653C351.571 401.544 352.949 403.235 354.589 404.648C355.811 405.664 357.362 406.198 358.951 406.15C360.807 405.975 362.591 405.341 364.142 404.306L367.597 402.199L356.566 383.857L352.895 385.991Z" fill="black"/>
<path id="Vector_15" d="M308.203 383.189C309.896 382.65 311.654 382.34 313.43 382.266C314.905 382.186 316.384 382.356 317.803 382.768C318.975 383.1 320.051 383.707 320.941 384.538C321.762 385.339 322.365 386.336 322.692 387.436C322.954 388.193 323.017 389.005 322.874 389.793C322.745 390.475 322.398 391.096 321.885 391.563C321.289 392.104 320.573 392.494 319.795 392.701C319.159 390.572 318.198 388.554 316.945 386.72C316.019 385.348 314.675 384.312 313.113 383.765C311.464 383.293 309.708 383.343 308.088 383.911C305.882 384.484 303.989 385.902 302.821 387.86C302.283 388.945 301.977 390.13 301.92 391.34C301.864 392.55 302.059 393.758 302.494 394.889C302.875 396.358 303.642 397.699 304.715 398.773C305.84 399.739 307.184 400.415 308.63 400.744C310.713 401.251 312.824 401.638 314.952 401.901C316.311 402.112 317.72 402.363 319.166 402.653C320.61 402.94 322.014 403.401 323.348 404.025C324.705 404.652 325.915 405.556 326.902 406.679C328.033 408.005 328.863 409.56 329.334 411.237C330.017 413.247 330.11 415.41 329.601 417.47C329.07 419.358 327.979 421.041 326.472 422.295C324.713 423.762 322.661 424.838 320.453 425.451C318.464 426.102 316.375 426.395 314.283 426.315C312.67 426.271 311.089 425.856 309.663 425.1C308.535 424.504 307.686 423.49 307.297 422.275C307.124 421.776 307.076 421.243 307.158 420.721C307.239 420.2 307.447 419.706 307.764 419.284C308.519 418.327 309.568 417.645 310.749 417.342C311.336 419.876 312.627 422.193 314.475 424.025C315.291 424.679 316.268 425.101 317.303 425.248C318.338 425.395 319.393 425.262 320.359 424.862C321.699 424.484 322.924 423.779 323.922 422.808C324.843 421.879 325.452 420.687 325.663 419.396C325.855 417.849 325.69 416.278 325.182 414.805C324.744 413.186 323.868 411.72 322.65 410.568C321.498 409.563 320.105 408.875 318.607 408.569C316.953 408.203 314.944 407.759 312.533 407.436C310.372 407.138 308.318 406.759 306.4 406.306C304.573 405.877 302.862 405.055 301.386 403.897C299.805 402.529 298.674 400.716 298.14 398.695C297.434 396.603 297.345 394.352 297.883 392.211C298.463 390.171 299.636 388.348 301.252 386.975C303.267 385.224 305.639 383.932 308.203 383.189V383.189Z" fill="black"/>
<path id="Vector_16" d="M273.377 406.171L273.382 407.368L257.831 407.52L257.812 406.32L273.377 406.171Z" fill="black"/>
<path id="Vector_17" d="M236.647 388.849L236.521 389.419L235.752 389.249C234.867 388.965 233.935 388.861 233.009 388.942C232.264 389.02 231.566 389.345 231.026 389.865C230.458 390.47 230.049 391.206 229.835 392.008L220.534 423.828C220.285 424.583 220.246 425.391 220.421 426.165C220.613 426.868 221.034 427.487 221.617 427.925C222.363 428.476 223.207 428.881 224.104 429.117L224.86 429.284L224.734 429.854L208.585 425.135C203.754 423.724 200.509 421.632 198.827 418.824C197.998 417.342 197.495 415.7 197.353 414.008C197.211 412.317 197.433 410.614 198.004 409.015C198.48 407.34 199.239 405.758 200.248 404.338C201.247 402.926 202.557 401.762 204.078 400.939C205.787 400.025 207.679 399.508 209.615 399.426C212.165 399.341 214.711 399.697 217.142 400.476L220.751 401.527L224.04 390.295C224.3 389.505 224.353 388.662 224.192 387.847C224.024 387.117 223.623 386.461 223.05 385.98C222.313 385.41 221.469 384.994 220.569 384.759L219.813 384.592L219.942 384.008L236.647 388.849ZM217.477 401.193C215.961 400.712 214.373 400.503 212.784 400.575C211.477 400.664 210.218 401.104 209.14 401.848C207.966 402.722 207.002 403.847 206.319 405.141C205.371 406.879 204.633 408.723 204.119 410.635C203.382 412.898 203.016 415.265 203.034 417.645C203.053 419.331 203.676 420.953 204.789 422.219C206.123 423.532 207.789 424.458 209.609 424.898L213.526 426.047L220.503 402.175L217.477 401.193Z" fill="black"/>
<path id="Vector_18" d="M184.631 367.297C187.847 369.143 190.452 371.89 192.123 375.201C193.516 378.266 193.95 381.681 193.368 384.998C192.637 388.914 191.142 392.648 188.967 395.985C186.938 399.388 184.251 402.352 181.062 404.703C178.338 406.691 175.067 407.79 171.696 407.851C167.979 407.804 164.357 406.666 161.281 404.579C158.149 402.787 155.62 400.106 154.014 396.874C152.608 393.79 152.144 390.359 152.679 387.012C153.315 383.081 154.771 379.328 156.952 375.997C158.951 372.572 161.643 369.602 164.857 367.279C167.638 365.324 170.931 364.227 174.329 364.124C178.005 364.117 181.596 365.223 184.631 367.297V367.297ZM184.309 367.808C182.722 366.761 180.902 366.123 179.009 365.95C177.184 365.859 175.373 366.3 173.795 367.22C171.76 368.412 169.939 369.934 168.405 371.725C166.276 374.175 164.36 376.803 162.678 379.579C160.927 382.303 159.422 385.177 158.18 388.167C157.248 390.323 156.69 392.621 156.529 394.963C156.4 396.777 156.8 398.589 157.679 400.181C158.661 401.786 160.032 403.118 161.667 404.051C163.265 405.107 165.099 405.754 167.007 405.934C168.84 406.024 170.662 405.592 172.26 404.687C174.324 403.525 176.174 402.017 177.729 400.23C179.856 397.792 181.765 395.172 183.435 392.401C185.163 389.663 186.65 386.781 187.88 383.786C188.817 381.622 189.382 379.316 189.551 376.964C189.679 375.137 189.272 373.312 188.379 371.712C187.362 370.098 185.964 368.758 184.309 367.808V367.808Z" fill="black"/>
<path id="Vector_19" d="M155.146 343.233C156.38 344.511 157.44 345.947 158.299 347.502C159.003 348.777 159.496 350.159 159.757 351.592C159.976 352.792 159.903 354.027 159.545 355.192C159.204 356.289 158.578 357.275 157.732 358.051C157.166 358.616 156.468 359.032 155.701 359.262C155.026 359.43 154.315 359.387 153.665 359.141C152.917 358.847 152.251 358.377 151.725 357.77C153.37 356.266 154.767 354.511 155.863 352.57C156.666 351.102 156.976 349.415 156.747 347.758C156.432 346.074 155.611 344.526 154.394 343.321C152.904 341.594 150.792 340.525 148.518 340.349C147.308 340.338 146.109 340.58 144.998 341.061C143.888 341.542 142.89 342.25 142.071 343.14C140.92 344.131 140.054 345.41 139.563 346.847C139.196 348.284 139.181 349.788 139.521 351.232C139.982 353.328 140.569 355.395 141.278 357.421C141.69 358.738 142.075 360.108 142.45 361.522C142.831 362.938 143.041 364.395 143.076 365.861C143.105 367.336 142.832 368.802 142.274 370.168C141.588 371.765 140.558 373.191 139.258 374.346C137.761 375.885 135.847 376.953 133.751 377.419C131.822 377.773 129.832 377.537 128.041 376.741C125.951 375.806 124.083 374.44 122.557 372.734C121.101 371.242 119.916 369.508 119.055 367.61C118.391 366.136 118.066 364.532 118.104 362.915C118.137 361.627 118.676 360.404 119.604 359.509C119.976 359.145 120.432 358.876 120.931 358.726C121.43 358.576 121.958 358.549 122.47 358.648C123.664 358.906 124.74 359.548 125.534 360.476C123.516 362.119 121.999 364.296 121.156 366.759C120.928 367.793 120.985 368.869 121.322 369.873C121.658 370.877 122.262 371.771 123.067 372.458C124 373.483 125.176 374.256 126.486 374.708C127.723 375.134 129.062 375.158 130.313 374.776C131.814 374.282 133.178 373.442 134.294 372.322C135.543 371.25 136.48 369.861 137.006 368.302C137.391 366.834 137.397 365.292 137.024 363.821C136.656 362.17 136.095 360.178 135.347 357.875C134.692 355.903 134.137 353.899 133.684 351.871C133.247 350.041 133.228 348.136 133.629 346.298C134.174 344.255 135.323 342.425 136.927 341.047C138.496 339.482 140.478 338.395 142.642 337.915C144.747 337.531 146.919 337.781 148.881 338.635C151.275 339.701 153.411 341.269 155.146 343.233V343.233Z" fill="black"/>
<path id="Vector_20" d="M138.013 323.004L137.497 323.308L137.107 322.639C136.665 321.819 136.062 321.096 135.334 320.513C134.741 320.055 134.011 319.809 133.261 319.816C132.431 319.852 131.624 320.101 130.918 320.539L98.7044 339.21L101.173 343.463C101.938 344.898 102.963 346.179 104.196 347.24C105.165 348.024 106.401 348.399 107.642 348.286C109.252 348.088 110.809 347.585 112.23 346.803L113.927 345.892L114.231 346.408L105.121 351.376L88.2335 322.322L97.1057 316.807L97.3929 317.334L95.7382 318.463C94.3903 319.297 93.2094 320.375 92.2558 321.641C91.5529 322.66 91.2761 323.913 91.4844 325.133C91.7922 326.74 92.4018 328.275 93.2807 329.656L95.7878 334.007L127.888 315.31C128.647 314.94 129.291 314.369 129.748 313.658C130.141 313.024 130.306 312.275 130.217 311.535C130.086 310.617 129.773 309.734 129.295 308.939L128.905 308.27L129.435 307.968L138.013 323.004Z" fill="black"/>
<path id="Vector_21" d="M123.402 296.501L122.826 296.673L122.603 295.921C122.387 295.014 121.978 294.164 121.405 293.429C120.947 292.836 120.303 292.414 119.576 292.232C118.761 292.065 117.917 292.11 117.125 292.364L85.2346 301.314C84.4595 301.491 83.7505 301.884 83.1904 302.447C82.694 302.982 82.3945 303.67 82.3411 304.398C82.2676 305.323 82.3714 306.254 82.6469 307.141L82.8553 307.89L82.2823 308.047L74.1063 279.078L84.0945 275.888L84.2519 276.461L82.3892 277.111C80.8292 277.585 79.3749 278.355 78.1061 279.379C77.1719 280.183 76.5841 281.317 76.465 282.544C76.3602 284.178 76.5665 285.816 77.0728 287.373L79.6714 296.587L98.3999 291.322L94.3143 276.86L94.8904 276.689L98.9776 291.21L119.711 285.326L116.698 274.674C116.288 272.979 115.581 271.37 114.608 269.922C114.248 269.397 113.788 268.949 113.253 268.603C112.719 268.256 112.122 268.019 111.496 267.904C109.883 267.676 108.241 267.77 106.666 268.183L104.733 268.608L104.565 268.017L114.758 265.59L123.402 296.501Z" fill="black"/>
<path id="Vector_22" d="M113.592 259.637L112.994 259.639L112.987 258.86C113.001 257.928 112.823 257.004 112.465 256.144C112.179 255.455 111.668 254.883 111.015 254.523C110.275 254.143 109.451 253.96 108.62 253.994L75.4649 254.458C74.6708 254.433 73.8856 254.632 73.1999 255.034C72.5802 255.421 72.1125 256.009 71.8752 256.7C71.5616 257.571 71.4234 258.495 71.4686 259.42L71.4759 260.199L70.8774 260.202L70.6498 244.111C70.5182 241.161 70.9167 238.211 71.8264 235.401C72.4922 233.329 73.8024 231.523 75.566 230.248C77.3673 229.064 79.4822 228.448 81.6373 228.479C83.6178 228.362 85.592 228.798 87.3387 229.739C88.7936 230.609 90.0091 231.828 90.8755 233.286C91.7251 234.695 92.3961 236.204 92.8729 237.778L105.916 229.149C107.182 228.292 108.242 227.555 109.112 226.865C109.826 226.349 110.494 225.771 111.108 225.138C111.542 224.706 111.901 224.204 112.168 223.653C112.388 223.211 112.496 222.722 112.483 222.228L112.521 222.057L113.122 222.04L113.131 222.879C113.178 224.43 113.13 225.982 112.987 227.527C112.917 228.567 112.691 229.59 112.316 230.563C111.957 231.382 111.428 232.116 110.764 232.716C109.918 233.461 109.018 234.141 108.072 234.753L93.5379 244.174L93.5854 247.952L108.582 247.737C109.414 247.749 110.235 247.55 110.967 247.157C111.61 246.776 112.108 246.192 112.381 245.496C112.706 244.625 112.855 243.697 112.819 242.768L112.812 241.989L113.413 241.972L113.592 259.637ZM92.8427 244.005C92.9023 242.16 92.5178 240.326 91.7214 238.66C90.9826 237.311 89.7596 236.293 88.2994 235.811C86.307 235.171 84.2153 234.896 82.1252 235C79.9629 234.952 77.8099 235.297 75.7711 236.019C74.2758 236.557 73.0325 237.629 72.2805 239.03C71.4894 240.717 71.1351 242.577 71.2502 244.438L71.2949 248.499L92.9049 248.19L92.8427 244.005Z" fill="black"/>
<path id="Vector_23" d="M117.622 206.815C117.237 208.549 116.621 210.223 115.79 211.792C115.12 213.087 114.239 214.262 113.183 215.267C112.305 216.107 111.241 216.727 110.077 217.078C108.971 217.388 107.803 217.408 106.686 217.136C105.899 216.975 105.165 216.618 104.554 216.097C104.043 215.642 103.684 215.041 103.529 214.375C103.37 213.588 103.396 212.775 103.605 212C105.763 212.529 107.991 212.718 110.208 212.562C111.877 212.451 113.464 211.799 114.729 210.705C115.987 209.534 116.848 208 117.193 206.317C117.504 205.229 117.598 204.091 117.469 202.967C117.341 201.844 116.992 200.756 116.443 199.768C115.783 198.755 114.919 197.892 113.906 197.233C112.893 196.574 111.754 196.134 110.561 195.942C109.101 195.535 107.56 195.514 106.089 195.881C104.693 196.372 103.436 197.191 102.422 198.27C100.924 199.816 99.5161 201.447 98.2042 203.153C97.341 204.218 96.4146 205.299 95.4391 206.399C94.466 207.495 93.3672 208.471 92.1654 209.309C90.9332 210.164 89.5353 210.752 88.062 211.033C86.3536 211.341 84.5986 211.27 82.9208 210.824C80.834 210.411 78.9125 209.399 77.3899 207.913C76.0287 206.503 75.1263 204.715 74.8011 202.782C74.4452 200.501 74.5729 198.171 75.1757 195.943C75.6191 193.906 76.4179 191.962 77.5355 190.201C78.3832 188.827 79.5397 187.67 80.9132 186.821C82.0011 186.117 83.3236 185.871 84.5919 186.139C85.1091 186.244 85.5928 186.475 86.0008 186.81C86.4088 187.145 86.7288 187.574 86.9328 188.061C87.3773 189.189 87.434 190.432 87.094 191.595C84.6136 190.827 81.9689 190.76 79.4528 191.402C78.4816 191.783 77.6287 192.415 76.9807 193.233C76.3326 194.051 75.9125 195.025 75.7632 196.058C75.4099 197.408 75.4002 198.824 75.7351 200.178C76.0685 201.443 76.7924 202.571 77.8038 203.401C79.039 204.38 80.4884 205.054 82.0336 205.366C83.6167 205.819 85.293 205.833 86.8833 205.406C88.324 204.919 89.6171 204.073 90.6406 202.947C91.8276 201.725 93.1682 200.167 94.6626 198.275C96.0142 196.555 97.3801 194.973 98.6972 193.545C99.9822 192.2 101.55 191.157 103.288 190.493C105.283 189.814 107.439 189.768 109.461 190.362C111.627 190.807 113.619 191.865 115.201 193.409C116.69 194.95 117.681 196.903 118.044 199.015C118.479 201.614 118.334 204.278 117.622 206.815V206.815Z" fill="black"/>
<path id="Vector_24" d="M115.239 165.088L114.189 164.498L121.833 150.938L122.884 151.529L115.239 165.088Z" fill="black"/>
</g>
</g>
<defs>
<clipPath id="clip0_101_124">
<rect width="529" height="448" fill="white" transform="translate(0 0.691406)"/>
</clipPath>
</defs>
</svg>
