<svg width="529" height="449" viewBox="0 0 529 449" fill="none" xmlns="http://www.w3.org/2000/svg">
<g id="publications-svg" clip-path="url(#clip0_101_124)">
<rect id="clipping-mask" x="49.8369" y="14.1406" width="422.068" height="237.538" fill="#34C027"/>
<g id="Group 10">
<path id="Vector" d="M111.318 205.139L110.744 204.945L110.998 204.201C111.318 203.318 111.455 202.378 111.4 201.44C111.353 200.681 111.052 199.96 110.544 199.394C109.958 198.795 109.23 198.353 108.428 198.11L76.5623 187.547C75.8208 187.275 75.0192 187.211 74.2438 187.36C73.5277 187.538 72.8873 187.94 72.4163 188.508C71.835 189.244 71.3963 190.082 71.1227 190.979L70.8686 191.723L70.262 191.523L75.6345 175.366C77.2289 170.545 79.5394 167.319 82.3704 165.756C83.8965 164.957 85.5772 164.498 87.2974 164.409C89.0176 164.32 90.7367 164.604 92.3372 165.241C94.0091 165.781 95.577 166.601 96.9742 167.667C98.3638 168.734 99.4914 170.104 100.271 171.674C101.145 173.468 101.599 175.437 101.601 177.433C101.59 180.008 101.14 182.561 100.27 184.984L99.0857 188.574L110.335 192.314C111.124 192.611 111.976 192.697 112.809 192.566C113.554 192.415 114.226 192.019 114.719 191.441C115.325 190.718 115.776 189.88 116.045 188.976L116.285 188.236L116.86 188.43L111.318 205.139ZM99.5601 185.41C100.099 183.899 100.369 182.306 100.359 180.702C100.317 179.374 99.918 178.082 99.2034 176.962C98.3621 175.744 97.2651 174.724 95.9891 173.974C94.2786 172.971 92.4586 172.168 90.5649 171.581C88.3061 170.753 85.9295 170.293 83.5252 170.216C81.8216 170.176 80.1594 170.744 78.8361 171.817C77.4578 173.12 76.4584 174.772 75.9439 176.598L74.6496 180.509L98.4673 188.331L99.5601 185.41Z" fill="black"/>
<path id="Vector_2" d="M133.684 155.28C132.223 157.661 130.325 159.745 128.089 161.42C126.196 162.802 123.893 163.508 121.551 163.424C118.8 163.201 116.162 162.236 113.917 160.63L92.5723 146.842C91.916 146.38 91.1466 146.105 90.3464 146.047C89.613 146.036 88.8963 146.266 88.3063 146.702C87.5505 147.257 86.9104 147.954 86.4221 148.754L85.9904 149.409L85.4882 149.089L95.0529 134.301L95.555 134.622L95.1414 135.288C94.599 136.058 94.2249 136.934 94.0436 137.858C93.9011 138.594 94.004 139.357 94.3366 140.029C94.7412 140.758 95.3321 141.366 96.0489 141.792L117.552 155.767C119.646 157.248 122.031 158.265 124.549 158.752C126.318 159.062 128.14 158.717 129.673 157.781C131.178 156.805 132.452 155.513 133.406 153.994C134.797 151.995 135.72 149.709 136.108 147.305C136.378 145.208 136.014 143.079 135.063 141.191C133.987 139.196 132.404 137.52 130.474 136.331L108.592 122.093C107.936 121.631 107.166 121.357 106.366 121.298C105.633 121.288 104.916 121.518 104.326 121.954C103.57 122.508 102.93 123.205 102.442 124.006L102.01 124.661L101.508 124.34L108.076 114.179L108.593 114.496L108.165 115.165C107.638 115.943 107.276 116.819 107.1 117.742C106.964 118.488 107.074 119.259 107.415 119.937C107.834 120.667 108.435 121.277 109.159 121.707L130.905 135.783C132.965 137.042 134.649 138.83 135.781 140.962C136.801 143.009 137.166 145.319 136.828 147.581C136.365 150.349 135.291 152.979 133.684 155.28V155.28Z" fill="black"/>
<path id="Vector_3" d="M146.045 136.366L145.63 135.914L146.218 135.384C146.936 134.779 147.523 134.033 147.942 133.193C148.281 132.511 148.374 131.733 148.207 130.99C147.998 130.177 147.581 129.431 146.997 128.828L124.553 103.901C124.05 103.285 123.392 102.816 122.646 102.543C121.938 102.346 121.185 102.382 120.499 102.646C119.627 102.997 118.828 103.509 118.143 104.154L117.555 104.684L117.153 104.228L129.214 93.3776C133.055 89.9275 136.514 87.9769 139.62 87.5178C141.115 87.2847 142.646 87.4493 144.057 87.9952C145.469 88.5411 146.712 89.4489 147.662 90.6276C148.913 91.9402 149.777 93.5726 150.159 95.345C150.463 97.0626 150.241 98.832 149.524 100.422C148.597 102.446 147.316 104.289 145.741 105.862L145.773 105.976C149.516 102.89 152.758 101.428 155.647 101.519C157.1 101.577 158.524 101.94 159.827 102.586C161.13 103.232 162.281 104.146 163.207 105.267C164.408 106.42 165.308 107.849 165.83 109.429C166.352 111.01 166.479 112.694 166.201 114.335C165.54 117.489 163.385 120.78 159.427 124.308L146.045 136.366ZM142.616 108.578C144.048 107.408 145.21 105.943 146.025 104.283C146.606 102.943 146.67 101.436 146.205 100.052C145.551 98.2985 144.541 96.6999 143.239 95.3563C140.761 92.5942 138.454 91.1175 136.361 90.9143C134.267 90.711 131.993 91.7373 129.423 94.0244L126.405 96.7416L139.628 111.348L142.616 108.578ZM158.811 124.019C161.336 121.79 162.559 119.507 162.483 117.292C162.408 115.076 161.066 112.491 158.419 109.561C157.066 107.937 155.419 106.583 153.564 105.571C152.184 104.851 150.591 104.655 149.077 105.018C147.303 105.564 145.689 106.536 144.375 107.848L139.92 111.85L154.46 128.008L158.811 124.019Z" fill="black"/>
<path id="Vector_4" d="M175.053 111.002L174.782 110.464L175.475 110.089C176.325 109.682 177.078 109.098 177.683 108.376C178.172 107.8 178.453 107.075 178.478 106.319C178.47 105.478 178.242 104.654 177.818 103.928L162.192 74.2386C161.85 73.5144 161.314 72.8989 160.644 72.4603C160.009 72.0852 159.266 71.9343 158.535 72.0318C157.603 72.1554 156.703 72.4558 155.884 72.9168L155.187 73.2777L154.902 72.7438L170.527 64.5393L170.812 65.0732L170.115 65.4341C169.268 65.8536 168.513 66.437 167.893 67.1504C167.414 67.738 167.136 68.4645 167.102 69.2221C167.118 70.0619 167.345 70.8842 167.762 71.6131L185.321 104.919L195.23 99.7022C196.816 98.944 198.212 97.8416 199.318 96.4754C200.171 95.2624 200.521 93.7657 200.294 92.3C199.975 90.1994 199.34 88.1593 198.409 86.2495L197.583 84.4249L198.121 84.1539L203.805 95.8643L175.053 111.002Z" fill="black"/>
<path id="Vector_5" d="M208.433 94.7091L208.272 94.1256L209.026 93.9173C209.936 93.6702 210.787 93.2426 211.528 92.6598C212.117 92.1871 212.534 91.5337 212.715 90.8005C212.859 89.9723 212.798 89.1214 212.536 88.3225L202.872 56.2061C202.668 55.4289 202.255 54.722 201.68 54.1612C201.127 53.6753 200.428 53.3885 199.693 53.3464C198.757 53.2776 197.816 53.3968 196.926 53.697L196.171 53.9053L196.01 53.3217L212.883 48.2497L213.044 48.8331L212.204 49.065C211.3 49.3123 210.454 49.7386 209.717 50.3185C209.125 50.7882 208.707 51.4429 208.53 52.1779C208.368 53.0051 208.43 53.8605 208.709 54.6559L218.306 86.5304C218.519 87.3472 218.937 88.0963 219.52 88.7072C220.064 89.2552 220.781 89.5983 221.549 89.6785C222.491 89.7571 223.44 89.6462 224.339 89.3526L225.093 89.1443L225.254 89.7278L208.433 94.7091Z" fill="black"/>
<path id="Vector_6" d="M249.029 86.6873C245.4 87.2053 241.699 86.6271 238.4 85.0269C235.397 83.4353 232.944 80.973 231.365 77.9631C229.521 74.4389 228.404 70.5806 228.079 66.6168C227.591 62.6512 227.902 58.6281 228.993 54.7847C229.954 51.4537 231.912 48.497 234.604 46.3125C237.675 44.0098 241.349 42.6495 245.179 42.3971C247.41 42.1159 249.673 42.2108 251.873 42.6778C253.473 43.0155 254.966 43.739 256.223 44.7852C257.218 45.6126 257.856 46.7913 258.005 48.0766C258.1 48.6677 258.039 49.2734 257.829 49.8339C257.618 50.3944 257.265 50.8902 256.804 51.2723C255.756 52.0804 254.49 52.5578 253.17 52.6434C253.024 50.6113 252.551 48.6162 251.768 46.7351C251.222 45.4283 250.232 44.3563 248.972 43.7086C247.549 43.1152 245.992 42.9204 244.466 43.1452C241.943 43.2941 239.574 44.4089 237.851 46.2582C236.091 48.4075 235.009 51.0306 234.74 53.7955C234.25 57.7217 234.251 61.6935 234.742 65.6195C235.068 69.6862 235.922 73.6931 237.282 77.5392C238.168 80.2423 239.854 82.613 242.116 84.338C244.349 85.7973 247.04 86.3844 249.678 85.9873C252.066 85.8657 254.33 84.8871 256.055 83.2311C257.782 81.2343 258.856 78.757 259.134 76.1317C259.618 76.2435 260.053 76.511 260.37 76.8931C260.662 77.3026 260.837 77.7836 260.877 78.2849C260.932 79.1381 260.748 79.9897 260.346 80.7443C259.813 81.7251 259.096 82.594 258.234 83.3033C257.11 84.2148 255.847 84.9409 254.494 85.4542C252.737 86.1114 250.898 86.5262 249.029 86.6873V86.6873Z" fill="black"/>
<path id="Vector_7" d="M262.808 84.1694L262.905 83.576L264.631 83.8347C265.385 83.9797 266.163 83.9533 266.907 83.7577C267.604 83.538 268.223 83.1225 268.69 82.5608C269.354 81.7615 269.919 80.8854 270.374 79.9513L289.185 44.5069L292.241 44.9804L301.258 86.2359C301.41 86.936 301.634 87.6184 301.927 88.2721C302.138 88.7348 302.465 89.1352 302.876 89.4345C303.307 89.7064 303.789 89.8861 304.293 89.9623L305.073 90.0686L304.98 90.6762L288.534 88.1406L288.627 87.5329L290.004 87.75C291.118 87.9903 292.271 87.9805 293.381 87.7213C293.745 87.585 294.061 87.3471 294.293 87.036C294.525 86.7248 294.662 86.3536 294.689 85.9665C294.724 85.7133 294.74 85.4579 294.738 85.2023C294.671 84.9604 294.735 84.6364 294.724 84.3179C294.707 83.9557 294.649 83.5967 294.551 83.2475L292.42 72.8688L276.19 70.335L271.479 79.2939C271.31 79.5911 271.16 79.8987 271.029 80.2148C270.901 80.526 270.793 80.8008 270.709 81.0536C270.635 81.2939 270.58 81.5395 270.545 81.7883C270.439 82.2645 270.487 82.7621 270.682 83.2092C270.877 83.6564 271.209 84.03 271.63 84.2764C273.02 85.0378 274.552 85.5063 276.13 85.653L277.507 85.8702L277.411 86.4635L262.808 84.1694ZM276.47 69.7981L292.262 72.2387L289.697 59.8969C289.389 58.4502 289.105 57.0888 288.869 55.7907C288.633 54.4926 288.391 53.2269 288.187 52.0427C287.982 50.8585 287.81 49.6806 287.654 48.5597L286.496 50.8554L285.447 52.937C285.098 53.6154 284.7 54.3379 284.286 55.111C283.871 55.8841 283.384 56.7843 282.854 57.8038L276.47 69.7981Z" fill="black"/>
<path id="Vector_8" d="M309.586 93.4326L309.816 92.879L310.539 93.1694C311.404 93.5439 312.334 93.7451 313.276 93.7616C314.031 93.7584 314.764 93.5022 315.357 93.0338C316.002 92.496 316.491 91.7951 316.773 91.0041L330.907 56.1001L326.302 54.2317C324.801 53.5615 323.188 53.1759 321.546 53.0941C320.29 53.0702 319.073 53.5323 318.15 54.3842C316.987 55.5529 316.053 56.9277 315.394 58.4382L314.52 60.2111L313.966 59.9811L318.279 50.3047L349.754 63.0582L346.118 73.0225L345.564 72.7925L346.206 70.8999C346.778 69.3571 347.059 67.7215 347.034 66.0762C346.973 64.8266 346.433 63.6483 345.528 62.7853C344.281 61.6933 342.841 60.844 341.283 60.2813L336.576 58.3795L322.445 93.2978C322.104 94.0626 321.967 94.9025 322.046 95.7361C322.137 96.4903 322.487 97.1896 323.037 97.7143C323.718 98.3616 324.523 98.8635 325.404 99.1895L326.146 99.4902L325.916 100.044L309.586 93.4326Z" fill="black"/>
<path id="Vector_9" d="M336.202 105.399L336.523 104.897L337.188 105.31C337.958 105.853 338.834 106.227 339.758 106.408C340.505 106.552 341.278 106.441 341.954 106.093C342.681 105.674 343.29 105.079 343.727 104.363L361.992 76.2066C362.444 75.5477 362.713 74.7811 362.773 73.9847C362.82 73.2473 362.618 72.5154 362.199 71.9068C361.637 71.1577 360.941 70.5189 360.147 70.0226L359.477 69.5948L359.812 69.0887L374.589 78.6715L374.268 79.1737L373.599 78.7458C372.827 78.2124 371.953 77.8435 371.033 77.6623C370.287 77.5115 369.511 77.6228 368.838 77.9773C368.107 78.3911 367.495 78.9873 367.064 79.7078L348.977 107.677C348.482 108.367 348.177 109.175 348.092 110.02C348.04 110.773 348.246 111.521 348.678 112.14C349.226 112.912 349.927 113.563 350.737 114.053L351.403 114.466L351.072 114.987L336.202 105.399Z" fill="black"/>
<path id="Vector_10" d="M368.521 131.198C365.78 128.641 363.858 125.328 362.998 121.679C362.322 118.316 362.701 114.825 364.083 111.684C365.705 108.012 368.038 104.697 370.948 101.931C373.72 99.0547 377.04 96.763 380.713 95.1917C383.858 93.8626 387.337 93.5387 390.673 94.2643C394.31 95.1896 397.601 97.1483 400.149 99.9039C402.788 102.402 404.635 105.62 405.461 109.159C406.124 112.521 405.781 116.005 404.474 119.173C402.935 122.882 400.633 126.226 397.718 128.988C394.929 131.881 391.567 134.16 387.848 135.68C384.654 136.955 381.156 137.266 377.787 136.574C374.232 135.745 371.005 133.873 368.521 131.198V131.198ZM368.941 130.776C370.257 132.181 371.907 133.232 373.736 133.832C375.51 134.373 377.403 134.382 379.182 133.861C381.462 133.16 383.608 132.081 385.53 130.668C388.187 128.764 390.673 126.632 392.961 124.297C395.311 122.016 397.461 119.537 399.385 116.887C400.805 114.987 401.89 112.858 402.595 110.594C403.125 108.834 403.139 106.959 402.635 105.191C402.043 103.376 401.011 101.735 399.631 100.414C398.303 98.9968 396.646 97.9288 394.806 97.3049C393.026 96.7759 391.131 96.7674 389.346 97.2805C387.066 97.9534 384.918 99.0127 382.997 100.412C380.341 102.319 377.855 104.45 375.566 106.783C373.21 109.07 371.051 111.551 369.113 114.201C367.691 116.116 366.599 118.256 365.882 120.531C365.34 122.294 365.328 124.178 365.846 125.948C366.466 127.787 367.528 129.445 368.941 130.776Z" fill="black"/>
<path id="Vector_11" d="M385.172 147.677L385.706 147.392L386.532 148.941C386.962 149.779 387.548 150.527 388.259 151.144C388.843 151.625 389.57 151.898 390.326 151.921C391.166 151.905 391.988 151.678 392.717 151.261L422.291 135.437C423.013 135.087 423.626 134.547 424.065 133.875C424.435 133.24 424.581 132.498 424.479 131.77C424.358 130.837 424.052 129.937 423.58 129.123L422.754 127.574L423.288 127.289L428.858 137.699L409.242 174.33L435.351 160.382C436.101 160.004 436.746 159.447 437.231 158.76C437.629 158.126 437.805 157.377 437.731 156.631C437.632 155.685 437.332 154.77 436.852 153.948L436.056 152.453L436.59 152.167L443.181 164.5L442.647 164.786L441.821 163.237C441.401 162.403 440.816 161.664 440.103 161.062C439.516 160.584 438.79 160.311 438.035 160.285C437.192 160.277 436.364 160.506 435.644 160.945L401.901 178.976L401.045 177.375L423.44 135.549L393.007 151.809C392.248 152.19 391.604 152.764 391.138 153.474C390.736 154.117 390.562 154.878 390.646 155.632C390.756 156.566 391.052 157.468 391.517 158.286L392.313 159.782L391.779 160.067L385.172 147.677Z" fill="black"/>
<path id="Vector_12" d="M407.824 201.037C407.376 199.294 407.158 197.5 407.178 195.701C407.191 194.23 407.439 192.77 407.914 191.378C408.314 190.211 408.99 189.157 409.884 188.306C410.739 187.516 411.782 186.959 412.915 186.689C413.695 186.469 414.518 186.453 415.306 186.641C415.971 186.814 416.569 187.183 417.023 187.699C417.535 188.333 417.889 189.081 418.054 189.88C415.865 190.397 413.771 191.254 411.847 192.421C410.397 193.292 409.267 194.609 408.626 196.175C408.064 197.813 408.018 199.585 408.495 201.25C408.715 202.373 409.155 203.441 409.788 204.393C410.422 205.346 411.237 206.164 412.188 206.801C413.251 207.404 414.428 207.779 415.643 207.905C416.859 208.031 418.087 207.904 419.251 207.531C420.754 207.233 422.148 206.535 423.289 205.513C424.327 204.433 425.083 203.114 425.491 201.673C426.132 199.593 426.647 197.476 427.035 195.335C427.32 193.984 427.651 192.576 428.021 191.141C428.401 189.705 428.943 188.317 429.636 187.004C430.349 185.665 431.334 184.491 432.528 183.556C433.924 182.489 435.537 181.74 437.253 181.363C439.322 180.779 441.516 180.806 443.57 181.441C445.448 182.076 447.086 183.27 448.267 184.862C449.644 186.726 450.614 188.859 451.114 191.122C451.653 193.16 451.833 195.277 451.646 197.377C451.512 199.007 451.004 200.583 450.161 201.984C449.497 203.098 448.422 203.906 447.168 204.235C446.647 204.379 446.099 204.391 445.573 204.268C445.047 204.146 444.56 203.894 444.156 203.535C443.285 202.756 442.683 201.721 442.436 200.579C445.028 200.108 447.433 198.913 449.373 197.132C450.079 196.344 450.561 195.381 450.767 194.343C450.974 193.305 450.898 192.231 450.547 191.232C450.242 189.859 449.6 188.584 448.68 187.52C447.793 186.533 446.618 185.85 445.322 185.568C443.759 185.257 442.145 185.325 440.613 185.765C438.978 186.084 437.461 186.842 436.225 187.957C435.155 189.062 434.381 190.419 433.975 191.902C433.5 193.565 432.993 195.558 432.582 197.954C432.172 200.349 431.665 202.174 431.088 204.08C430.56 205.904 429.633 207.588 428.375 209.01C426.883 210.536 424.964 211.573 422.87 211.985C420.716 212.579 418.437 212.544 416.302 211.884C414.253 211.183 412.46 209.886 411.154 208.159C409.54 206.055 408.404 203.624 407.824 201.037Z" fill="black"/>
<path id="Vector_13" d="M429.051 233.376L430.27 233.407L430.012 249.117L428.798 249.1L429.051 233.376Z" fill="black"/>
<path id="Vector_14" d="M411.188 266.261L411.773 266.436L411.551 267.187C411.251 268.079 411.137 269.022 411.214 269.96C411.285 270.714 411.605 271.424 412.123 271.976C412.731 272.564 413.48 272.985 414.299 273.198L446.403 282.852C447.165 283.114 447.983 283.164 448.771 282.995C449.482 282.801 450.109 282.375 450.55 281.784C451.113 281.036 451.529 280.189 451.775 279.286L452.011 278.532L452.581 278.711L447.688 294.996C446.231 299.851 444.071 303.122 441.208 304.811C439.706 305.649 438.042 306.154 436.328 306.291C434.613 306.429 432.89 306.196 431.273 305.609C429.581 305.115 427.984 304.339 426.55 303.314C425.136 302.286 423.973 300.953 423.145 299.414C422.227 297.644 421.719 295.69 421.659 293.697C421.589 291.118 421.967 288.547 422.777 286.098L423.866 282.442L412.507 279.023C411.712 278.755 410.862 278.694 410.038 278.847C409.299 279.022 408.638 279.436 408.157 280.025C407.555 280.774 407.116 281.642 406.869 282.571L406.648 283.321L406.063 283.146L411.188 266.261ZM423.545 285.717C423.044 287.256 422.826 288.873 422.902 290.49C422.974 291.813 423.406 293.092 424.153 294.188C425.027 295.385 426.157 296.37 427.461 297.073C429.196 298.011 431.029 298.753 432.928 299.286C435.212 300.032 437.601 300.407 440.004 300.395C441.705 300.376 443.346 299.761 444.64 298.656C445.984 297.318 446.935 295.635 447.387 293.793L448.58 289.848L424.461 282.6L423.545 285.717Z" fill="black"/>
<path id="Vector_15" d="M390.27 316.762C391.661 314.338 393.497 312.199 395.683 310.458C397.532 309.021 399.81 308.246 402.152 308.258C404.913 308.393 407.585 309.282 409.877 310.828L431.608 324.02C432.279 324.462 433.058 324.713 433.861 324.746C434.597 324.742 435.31 324.491 435.885 324.034C436.599 323.447 437.197 322.731 437.646 321.924L438.06 321.258L438.576 321.575L429.452 336.624L428.935 336.307L429.345 335.627C429.862 334.844 430.208 333.96 430.36 333.034C430.482 332.292 430.358 331.53 430.006 330.865C429.579 330.153 428.973 329.565 428.248 329.16L406.353 315.875C404.201 314.43 401.762 313.468 399.203 313.055C397.424 312.802 395.614 313.199 394.104 314.172C392.632 315.191 391.399 316.519 390.492 318.064C389.175 320.117 388.34 322.442 388.05 324.865C387.84 326.974 388.271 329.097 389.288 330.956C390.403 332.963 392.043 334.629 394.034 335.773L416.282 349.282C416.948 349.722 417.722 349.975 418.52 350.012C419.261 350.007 419.978 349.755 420.559 349.295C421.292 348.734 421.916 348.042 422.4 347.255L422.796 346.579L423.312 346.896L416.981 357.252L416.451 356.939L416.864 356.274C417.379 355.482 417.728 354.594 417.889 353.663C418.001 352.915 417.866 352.151 417.503 351.487C417.07 350.766 416.457 350.17 415.724 349.757L393.627 336.299C391.539 335.095 389.807 333.358 388.608 331.267C387.535 329.244 387.103 326.944 387.369 324.67C387.734 321.851 388.725 319.148 390.27 316.762Z" fill="black"/>
<path id="Vector_16" d="M378.409 336.043L378.821 336.481L378.254 337.035C377.544 337.661 376.973 338.429 376.579 339.29C376.272 339.98 376.205 340.754 376.389 341.487C376.612 342.3 377.054 343.036 377.666 343.616L400.796 367.863C401.324 368.469 402.009 368.916 402.776 369.154C403.489 369.344 404.245 369.286 404.921 368.991C405.785 368.621 406.568 368.087 407.229 367.42L407.8 366.879L408.226 367.313L396.475 378.507C392.744 382.08 389.326 384.126 386.245 384.67C384.757 384.946 383.223 384.826 381.796 384.322C380.369 383.818 379.1 382.948 378.115 381.799C376.83 380.525 375.921 378.921 375.487 377.164C375.146 375.459 375.325 373.691 376.001 372.09C376.858 370.026 378.079 368.133 379.604 366.5L379.577 366.4C375.965 369.573 372.722 371.142 369.842 371.141C368.389 371.121 366.957 370.798 365.637 370.192C364.317 369.586 363.138 368.71 362.177 367.62C360.943 366.503 360.001 365.1 359.432 363.535C358.864 361.97 358.687 360.29 358.916 358.641C359.44 355.433 361.603 352.043 365.406 348.471L378.409 336.043ZM365.98 348.665C363.562 351.002 362.371 353.291 362.493 355.509C362.616 357.727 364.063 360.253 366.784 363.116C368.19 364.695 369.874 366 371.753 366.968C373.152 367.654 374.751 367.816 376.26 367.423C378.018 366.876 379.618 365.909 380.919 364.605L385.228 360.352L370.158 344.601L365.98 348.665ZM382.619 363.661C381.24 364.874 380.138 366.369 379.388 368.046C378.847 369.399 378.826 370.905 379.33 372.274C380.01 374.032 381.051 375.628 382.385 376.96C384.946 379.653 387.282 381.05 389.393 381.151C391.504 381.253 393.784 380.153 396.233 377.854L399.166 375.053L385.599 360.863L382.619 363.661Z" fill="black"/>
<path id="Vector_17" d="M350.152 362.241L350.448 362.756L349.759 363.146C348.93 363.59 348.196 364.194 347.599 364.921C347.131 365.515 346.875 366.249 346.873 367.006C346.878 367.847 347.105 368.672 347.533 369.397L364.006 398.546C364.371 399.258 364.923 399.857 365.602 400.28C366.248 400.638 366.996 400.766 367.725 400.644C368.651 400.501 369.54 400.177 370.341 399.691L371.03 399.302L371.33 399.832L356.057 408.537L355.772 408.003L356.447 407.617C357.283 407.183 358.019 406.578 358.606 405.842C359.086 405.251 359.348 404.514 359.347 403.753C359.335 402.913 359.108 402.09 358.687 401.362L340.17 368.581L330.418 374.092C328.858 374.885 327.496 376.02 326.434 377.413C325.571 378.643 325.226 380.163 325.473 381.645C325.85 383.739 326.543 385.763 327.529 387.648L328.408 389.443L327.892 389.738L321.858 378.201L350.152 362.241Z" fill="black"/>
<path id="Vector_18" d="M317.293 379.476L317.455 380.06L316.7 380.268C315.796 380.541 314.957 380.997 314.236 381.607C313.665 382.078 313.267 382.727 313.106 383.451C312.969 384.283 313.052 385.137 313.346 385.927L323.937 417.742C324.185 418.537 324.651 419.247 325.284 419.79C325.848 420.261 326.553 420.53 327.287 420.554C328.226 420.587 329.163 420.438 330.045 420.114L330.799 419.906L330.961 420.489L314.254 426.052L314.093 425.468L314.861 425.256C315.759 424.983 316.593 424.534 317.315 423.935C317.89 423.463 318.292 422.813 318.459 422.088C318.591 421.255 318.504 420.403 318.205 419.615L307.599 387.912C307.362 387.105 306.923 386.372 306.322 385.783C305.755 385.281 305.037 384.983 304.281 384.938C303.34 384.881 302.398 385.016 301.511 385.335L300.757 385.543L300.596 384.96L317.293 379.476Z" fill="black"/>
<path id="Vector_19" d="M276.884 388.734C280.509 388.12 284.234 388.606 287.579 390.131C290.617 391.645 293.133 394.034 294.803 396.99C296.747 400.462 297.976 404.29 298.416 408.245C299.016 412.197 298.822 416.229 297.846 420.105C296.956 423.409 295.086 426.365 292.483 428.586C289.483 430.984 285.847 432.452 282.022 432.806C279.806 433.164 277.544 433.135 275.336 432.722C273.722 432.435 272.204 431.755 270.915 430.742C269.9 429.942 269.234 428.782 269.055 427.503C268.939 426.917 268.98 426.311 269.174 425.746C269.367 425.182 269.707 424.678 270.159 424.288C271.182 423.449 272.431 422.934 273.748 422.807C273.962 424.832 274.508 426.808 275.363 428.656C275.954 429.949 276.979 430.993 278.261 431.608C279.681 432.148 281.219 432.3 282.717 432.048C285.236 431.807 287.569 430.615 289.241 428.715C290.932 426.511 291.936 423.858 292.128 421.086C292.483 417.158 292.357 413.201 291.754 409.304C291.302 405.25 290.332 401.271 288.868 397.464C287.9 394.792 286.15 392.473 283.845 390.81C281.57 389.412 278.861 388.901 276.234 389.373C273.849 389.574 271.612 390.615 269.922 392.31C268.263 394.361 267.267 396.869 267.068 399.501C266.579 399.407 266.136 399.152 265.811 398.776C265.496 398.38 265.304 397.9 265.261 397.396C265.174 396.544 265.336 395.685 265.727 394.923C266.222 393.92 266.912 393.026 267.759 392.295C268.847 391.345 270.086 390.584 271.425 390.042C273.177 389.359 275.014 388.919 276.884 388.734V388.734Z" fill="black"/>
<path id="Vector_20" d="M263.214 391.59L263.146 392.175L261.404 391.967C260.644 391.848 259.868 391.895 259.129 392.105C258.444 392.348 257.841 392.78 257.39 393.351C256.748 394.197 256.21 395.117 255.788 396.091L237.991 431.99L234.93 431.61L224.72 390.638C224.553 389.94 224.31 389.262 223.994 388.618C223.771 388.163 223.432 387.776 223.01 387.495C222.574 387.227 222.083 387.059 221.573 387.004L220.797 386.912L220.875 386.308L237.388 388.366L237.31 388.97L235.93 388.799C234.798 388.58 233.631 388.624 232.52 388.929C232.156 389.074 231.843 389.322 231.619 389.642C231.394 389.963 231.268 390.342 231.256 390.733C231.231 390.985 231.219 391.239 231.221 391.493C231.288 391.735 231.253 392.051 231.268 392.384C231.288 392.745 231.356 393.103 231.469 393.446L233.903 403.757L250.189 405.77L254.668 396.752C254.829 396.447 254.958 396.136 255.086 395.825C255.215 395.514 255.304 395.229 255.374 394.98C255.445 394.736 255.494 394.487 255.52 394.235C255.612 393.756 255.55 393.261 255.343 392.82C255.136 392.379 254.795 392.015 254.368 391.78C252.947 391.069 251.399 390.648 249.813 390.541L248.434 390.371L248.498 389.771L263.214 391.59ZM249.977 406.334L234.118 404.371L237.088 416.571C237.481 417.994 237.751 419.359 238.048 420.656C238.344 421.952 238.593 423.186 238.83 424.376C239.067 425.567 239.277 426.719 239.466 427.846C239.861 427.002 240.211 426.216 240.552 425.509C240.893 424.802 241.219 424.099 241.507 423.422C241.795 422.746 242.199 421.991 242.596 421.207C242.992 420.424 243.446 419.517 243.94 418.477L249.977 406.334Z" fill="black"/>
<path id="Vector_21" d="M216.197 383.679L215.986 384.243L215.252 383.971C214.378 383.639 213.445 383.49 212.512 383.533C211.754 383.555 211.027 383.831 210.446 384.318C209.827 384.884 209.36 385.598 209.089 386.392L195.947 421.62L200.618 423.393C202.142 424.019 203.768 424.359 205.414 424.397C206.67 424.382 207.871 423.88 208.765 422.997C209.9 421.801 210.797 420.399 211.408 418.867L212.205 417.039L212.745 417.166L208.715 426.978L176.963 415.159L180.298 405.048L180.862 405.26L180.289 407.18C179.745 408.718 179.498 410.346 179.561 411.976C179.668 413.224 180.245 414.384 181.176 415.221C182.452 416.273 183.911 417.08 185.479 417.602L190.25 419.348L203.336 384.197C203.663 383.418 203.782 382.567 203.681 381.728C203.549 380.982 203.178 380.3 202.623 379.784C201.925 379.157 201.105 378.679 200.214 378.381L199.462 378.099L199.674 377.535L216.197 383.679Z" fill="black"/>
<path id="Vector_22" d="M189.242 372.481L188.925 372.997L188.26 372.584C187.466 372.078 186.58 371.735 185.652 371.573C184.885 371.439 184.094 371.576 183.416 371.961C182.696 372.4 182.102 373.018 181.69 373.754L164.326 402.397C163.885 403.084 163.638 403.877 163.612 404.693C163.623 405.427 163.873 406.138 164.324 406.717C164.91 407.442 165.629 408.049 166.441 408.507L167.107 408.92L166.804 409.433L151.756 400.308L152.073 399.791L152.738 400.205C153.532 400.711 154.418 401.054 155.346 401.216C156.093 401.341 156.861 401.21 157.525 400.844C158.241 400.405 158.83 399.789 159.236 399.054L176.503 370.5C176.976 369.804 177.249 368.992 177.295 368.152C177.346 367.399 177.139 366.651 176.709 366.031C176.155 365.281 175.459 364.646 174.661 364.162L173.985 363.766L174.298 363.236L189.242 372.481Z" fill="black"/>
<path id="Vector_23" d="M156.186 347.618C158.996 350.097 161.012 353.35 161.984 356.969C162.771 360.334 162.498 363.86 161.203 367.064C159.689 370.783 157.452 374.165 154.622 377.014C151.931 379.966 148.68 382.353 145.057 384.036C141.952 385.452 138.484 385.874 135.129 385.245C131.467 384.426 128.122 382.561 125.499 379.878C122.783 377.459 120.843 374.291 119.921 370.773C119.13 367.416 119.353 363.9 120.563 360.67C121.984 356.924 124.174 353.518 126.992 350.67C129.692 347.697 132.988 345.326 136.665 343.71C139.813 342.317 143.302 341.887 146.693 342.473C150.301 343.199 153.608 344.992 156.186 347.618ZM155.77 348.054C154.413 346.693 152.741 345.687 150.902 345.125C149.097 344.676 147.199 344.764 145.442 345.377C143.199 346.114 141.092 347.214 139.203 348.631C136.594 350.627 134.156 352.837 131.914 355.239C129.646 357.593 127.587 360.139 125.76 362.85C124.399 364.797 123.375 366.959 122.732 369.246C122.23 371.003 122.235 372.865 122.745 374.619C123.375 376.424 124.453 378.039 125.879 379.313C127.25 380.685 128.934 381.703 130.787 382.278C132.584 382.738 134.475 382.683 136.242 382.119C138.503 381.37 140.621 380.242 142.504 378.782C145.108 376.793 147.537 374.585 149.765 372.182C152.051 369.823 154.135 367.275 155.994 364.566C157.36 362.618 158.389 360.454 159.037 358.165C159.543 356.382 159.51 354.488 158.943 352.723C158.283 350.931 157.193 349.328 155.77 348.054V348.054Z" fill="black"/>
<path id="Vector_24" d="M139.083 331.664L138.553 331.964L137.688 330.441C137.235 329.615 136.627 328.883 135.899 328.285C135.298 327.819 134.56 327.565 133.8 327.563C132.96 327.576 132.137 327.803 131.409 328.223L102.315 344.895C101.603 345.265 101.005 345.822 100.585 346.506C100.226 347.166 100.106 347.929 100.247 348.667C100.396 349.592 100.724 350.48 101.213 351.28L102.096 352.813L101.566 353.112L95.6744 342.868L114.202 305.679L88.5285 320.426C87.7792 320.811 87.1456 321.387 86.6923 322.097C86.3136 322.745 86.156 323.498 86.2432 324.243C86.3778 325.186 86.706 326.092 87.2072 326.902L88.0561 328.368L87.5262 328.668L80.5744 316.526L81.1044 316.227L81.969 317.749C82.4078 318.575 83.0149 319.3 83.751 319.877C84.3498 320.336 85.0807 320.591 85.8356 320.603C86.6819 320.598 87.5119 320.369 88.2408 319.939L121.436 300.925L122.331 302.5L101.187 344.915L131.129 327.764C131.878 327.38 132.512 326.803 132.965 326.093C133.35 325.439 133.501 324.674 133.392 323.923C133.262 322.994 132.943 322.102 132.454 321.302L131.601 319.822L132.131 319.523L139.083 331.664Z" fill="black"/>
<path id="Vector_25" d="M114.846 278.941C115.322 280.673 115.564 282.461 115.563 284.257C115.578 285.727 115.345 287.19 114.873 288.583C114.492 289.755 113.835 290.819 112.958 291.685C112.112 292.49 111.07 293.058 109.935 293.331C109.162 293.561 108.344 293.592 107.555 293.422C106.858 293.274 106.224 292.914 105.739 292.391C105.225 291.763 104.864 291.024 104.684 290.232C106.866 289.688 108.947 288.798 110.848 287.596C112.294 286.714 113.412 285.384 114.03 283.807C114.592 282.159 114.635 280.377 114.152 278.703C113.657 276.455 112.307 274.488 110.386 273.218C109.314 272.626 108.131 272.263 106.911 272.152C105.691 272.04 104.461 272.183 103.3 272.571C101.797 272.89 100.408 273.607 99.2776 274.646C98.2568 275.746 97.5153 277.075 97.1155 278.521C96.5119 280.606 96.0278 282.724 95.6657 284.864C95.398 286.225 95.0813 287.63 94.7297 289.075C94.3737 290.502 93.8621 291.886 93.2043 293.202C92.4952 294.542 91.5255 295.726 90.3521 296.686C88.9621 297.765 87.356 298.532 85.643 298.936C83.5848 299.543 81.3956 299.547 79.3354 298.946C77.4474 298.328 75.792 297.151 74.5892 295.57C73.1835 293.732 72.1866 291.616 71.6652 289.362C71.1005 287.331 70.8902 285.218 71.0435 283.116C71.1533 281.484 71.6446 279.9 72.478 278.492C73.1146 277.352 74.1752 276.509 75.4296 276.146C75.9396 275.989 76.4807 275.961 77.0041 276.065C77.5275 276.169 78.0168 276.402 78.4279 276.742C79.3639 277.543 80.0088 278.63 80.2622 279.835C77.6785 280.314 75.2806 281.507 73.3399 283.278C72.6517 284.081 72.1882 285.052 71.9966 286.093C71.8049 287.133 71.8919 288.205 72.2487 289.201C72.5718 290.569 73.2319 291.835 74.169 292.883C75.0659 293.86 76.2478 294.531 77.547 294.799C79.1149 295.081 80.7269 294.992 82.2546 294.541C83.8832 294.199 85.389 293.424 86.6128 292.296C87.6701 291.178 88.4256 289.81 88.8082 288.32C89.2718 286.671 89.7333 284.644 90.1928 282.24C90.5459 280.173 91.0028 278.124 91.5617 276.103C92.1046 274.276 93.0472 272.592 94.3213 271.175C95.796 269.632 97.7031 268.571 99.792 268.133C101.942 267.517 104.223 267.525 106.369 268.155C108.425 268.826 110.233 270.098 111.559 271.807C113.147 273.925 114.268 276.357 114.846 278.941V278.941Z" fill="black"/>
<path id="Vector_26" d="M92.7337 247.229L91.5127 247.245L91.3649 231.509L92.586 231.494L92.7337 247.229Z" fill="black"/>
</g>
</g>
<defs>
<clipPath id="clip0_101_124">
<rect width="529" height="448" fill="white" transform="translate(0 0.691406)"/>
</clipPath>
</defs>
</svg>
