<svg width="102" height="40" viewBox="0 0 102 40" fill="none" xmlns="http://www.w3.org/2000/svg">
<g id="search-bar">
<path id="search-bar-closed " fill-rule="evenodd" clip-rule="evenodd" d="M80.8387 26.4227C84.3859 26.4227 87.2614 23.5472 87.2614 20C87.2614 16.4528 84.3859 13.5773 80.8387 13.5773C77.2915 13.5773 74.4159 16.4528 74.4159 20C74.4159 23.5472 77.2915 26.4227 80.8387 26.4227ZM80.8387 29.4227C86.0427 29.4227 90.2614 25.204 90.2614 20C90.2614 14.796 86.0427 10.5773 80.8387 10.5773C75.6346 10.5773 71.4159 14.796 71.4159 20C71.4159 25.204 75.6346 29.4227 80.8387 29.4227Z" fill="#C8F8D6"/>
<path id="search-bar-line" d="M87.2671 26.5663L92.8555 32.3715" stroke="#C8F8D6" stroke-width="3" stroke-linecap="round" stroke-linejoin="round"/>
<path id="search-bar-open " fill-rule="evenodd" clip-rule="evenodd" d="M80.8387 13.5773H24.9559C21.4087 13.5773 18.5331 16.4528 18.5331 20C18.5331 23.5472 21.4087 26.4227 24.9559 26.4227H80.8387C84.3859 26.4227 87.2614 23.5472 87.2614 20C87.2614 16.4528 84.3859 13.5773 80.8387 13.5773ZM24.9559 10.5773C19.7518 10.5773 15.5331 14.796 15.5331 20C15.5331 25.204 19.7518 29.4227 24.9559 29.4227H80.8387C86.0427 29.4227 90.2614 25.204 90.2614 20C90.2614 14.796 86.0427 10.5773 80.8387 10.5773H24.9559Z" fill="#C8F8D6"/>
</g>
</svg>
