<svg width="529" height="449" viewBox="0 0 529 449" fill="none" xmlns="http://www.w3.org/2000/svg">
<g id="typography-svg" clip-path="url(#clip0_101_124)">
<rect id="clipping-mask" x="49.8369" y="14.1406" width="422.068" height="240.637" fill="#34C027"/>
<g id="Group 8">
<path id="Vector" d="M123.498 195.224L122.94 195.062L123.167 194.319C123.463 193.453 123.581 192.536 123.512 191.623C123.453 190.891 123.146 190.201 122.641 189.667C122.048 189.086 121.309 188.676 120.502 188.48L85.5945 177.608L84.1598 182.219C83.6352 183.732 83.3926 185.328 83.4441 186.929C83.5191 188.154 84.073 189.302 84.9862 190.123C86.2059 191.161 87.614 191.954 89.1336 192.461L90.9428 193.147L90.7667 193.709L81.039 190.302L90.8274 158.776L100.767 161.491L100.591 162.053L98.6977 161.586C97.1616 161.154 95.5586 161.009 93.9698 161.161C92.7667 161.328 91.6718 161.945 90.9064 162.888C89.9455 164.188 89.2369 165.656 88.8174 167.216L87.3524 171.926L122.315 182.782C123.088 183.055 123.919 183.121 124.725 182.973C125.442 182.814 126.084 182.416 126.544 181.843C127.123 181.133 127.55 180.312 127.798 179.429L128.016 178.705L128.578 178.881L123.498 195.224Z" fill="black"/>
<path id="Vector_2" d="M137.27 159.791L136.771 159.476L137.491 158.331C138.001 157.567 138.35 156.708 138.517 155.806C138.64 155.082 138.522 154.339 138.182 153.688C137.764 152.982 137.17 152.397 136.458 151.987L124.944 144.771L102.531 143.084C101.8 142.996 101.062 143.001 100.332 143.099C99.7878 143.171 99.2674 143.368 98.8117 143.675C98.3684 144.033 97.991 144.465 97.6965 144.953L97.0805 145.947L96.5855 145.646L105.178 131.921L105.677 132.236L104.612 133.934C104.203 134.498 103.937 135.154 103.837 135.845C103.807 136.105 103.858 136.369 103.984 136.599C104.109 136.83 104.302 137.016 104.538 137.133C104.958 137.366 105.413 137.533 105.885 137.628C106.599 137.772 107.32 137.876 108.046 137.939L119.017 138.846C119.915 138.891 120.761 138.967 121.563 139.041L123.84 139.288L125.854 139.508C126.478 139.59 127.052 139.658 127.558 139.746C127.04 138.867 126.383 137.776 125.583 136.457C124.783 135.139 123.953 133.769 123.112 132.313L118.154 123.924C117.728 123.175 117.248 122.458 116.717 121.778C116.368 121.309 115.947 120.899 115.469 120.564C115.204 120.357 114.883 120.235 114.548 120.215C114.212 120.195 113.879 120.278 113.592 120.452C112.797 121.066 112.135 121.835 111.648 122.714L110.374 124.714L109.875 124.399L116.567 113.731L117.066 114.046L116.283 115.285C115.962 115.781 115.777 116.354 115.747 116.944C115.745 117.629 115.887 118.306 116.163 118.932C116.58 119.928 117.065 120.894 117.615 121.824L128.233 139.798L139.654 146.953C140.332 147.417 141.118 147.698 141.936 147.768C142.669 147.803 143.392 147.586 143.985 147.153C144.726 146.607 145.344 145.911 145.8 145.111L146.521 143.966L147.02 144.281L137.27 159.791Z" fill="black"/>
<path id="Vector_3" d="M154.919 133.341L154.505 132.91L155.066 132.383C155.751 131.779 156.305 131.042 156.694 130.216C157.008 129.55 157.088 128.797 156.923 128.08C156.697 127.289 156.27 126.57 155.683 125.994L133.416 102.206C132.915 101.619 132.265 101.177 131.534 100.927C130.843 100.736 130.108 100.788 129.45 101.072C128.605 101.421 127.837 101.931 127.188 102.575L126.627 103.103L126.258 102.719L138.26 91.3732C141.878 87.9807 145.285 86.2802 148.479 86.2715C150.149 86.2989 151.795 86.6852 153.303 87.4042C154.811 88.1231 156.147 89.158 157.22 90.4386C158.4 91.6826 159.362 93.1166 160.066 94.6804C160.752 96.2352 161.079 97.9245 161.023 99.623C160.942 101.551 160.42 103.435 159.498 105.13C158.303 107.344 156.735 109.335 154.863 111.015L152.162 113.548L160.052 121.972C160.591 122.583 161.277 123.048 162.045 123.322C162.75 123.537 163.507 123.51 164.195 123.247C165.048 122.909 165.824 122.401 166.475 121.754L167.022 121.231L167.436 121.661L154.919 133.341ZM154.007 110.957C155.178 109.92 156.152 108.679 156.88 107.294C157.456 106.145 157.713 104.862 157.624 103.579C157.474 102.132 157 100.738 156.236 99.4999C155.239 97.8466 154.059 96.3103 152.72 94.9198C151.174 93.177 149.354 91.6981 147.331 90.5415C145.899 89.7188 144.22 89.4356 142.597 89.7433C140.814 90.2212 139.194 91.173 137.908 92.4977L134.996 95.229L151.828 113.034L154.007 110.957Z" fill="black"/>
<path id="Vector_4" d="M200.306 99.5039C197.124 101.288 193.483 102.087 189.846 101.801C186.536 101.427 183.422 100.043 180.926 97.8372C178.004 95.2495 175.625 92.1068 173.928 88.5918C172.11 85.1803 170.989 81.4415 170.63 77.5927C170.338 74.286 171.07 70.9695 172.727 68.0931C174.628 64.9794 177.396 62.4882 180.693 60.9247C183.792 59.2119 187.329 58.4538 190.858 58.7459C194.176 59.1401 197.302 60.5073 199.843 62.6752C202.806 65.2029 205.21 68.3196 206.903 71.8271C208.768 75.2554 209.901 79.0336 210.23 82.9224C210.473 86.2718 209.732 89.6191 208.097 92.5527C206.247 95.5914 203.535 98.0111 200.306 99.5039V99.5039ZM200.031 98.9869C201.718 98.1844 203.179 96.974 204.28 95.4653C205.29 93.9982 205.849 92.268 205.89 90.4874C205.923 88.1672 205.565 85.8581 204.831 83.6571C203.85 80.62 202.611 77.6728 201.126 74.848C199.713 71.9942 198.058 69.2669 196.179 66.6959C194.826 64.8259 193.176 63.1896 191.295 61.8517C189.824 60.8255 188.089 60.2431 186.296 60.1736C184.439 60.1776 182.611 60.6431 180.978 61.5283C179.275 62.3409 177.798 63.5608 176.679 65.0801C175.675 66.5672 175.116 68.3099 175.068 70.1034C175.015 72.4157 175.361 74.7199 176.091 76.9144C177.065 79.9431 178.297 82.8825 179.774 85.7001C181.19 88.5645 182.852 91.3 184.743 93.8756C186.084 95.7503 187.734 97.3837 189.623 98.7061C191.091 99.7382 192.828 100.321 194.621 100.384C196.523 100.377 198.392 99.894 200.059 98.9787L200.031 98.9869Z" fill="black"/>
<path id="Vector_5" d="M244.758 85.0818C240.894 85.9109 236.876 85.6644 233.141 84.3692C229.927 83.1244 227.174 80.9208 225.255 78.0575C223.122 74.7795 221.713 71.0846 221.121 67.2191C220.386 63.4432 220.461 59.5542 221.342 55.8095C222.137 52.4786 223.934 49.4714 226.49 47.193C229.514 44.678 233.181 43.0594 237.077 42.5204C239.5 42.0529 241.972 41.9008 244.434 42.0679C246.165 42.1671 247.851 42.6611 249.362 43.5122C249.917 43.8243 250.396 44.2555 250.764 44.7747C251.132 45.294 251.381 45.8884 251.491 46.5152C251.631 47.0692 251.639 47.6482 251.515 48.2058C251.391 48.7635 251.138 49.2843 250.776 49.7266C249.694 50.7492 248.336 51.4325 246.87 51.692C246.594 49.7141 245.97 47.8009 245.026 46.0412C244.321 44.7869 243.183 43.8333 241.824 43.3598C240.218 42.9033 238.524 42.8501 236.893 43.205C234.196 43.5422 231.676 44.7281 229.696 46.5914C227.879 48.6171 226.814 51.2062 226.68 53.9242C226.384 58.0085 226.647 62.114 227.462 66.1272C228.046 70.2088 229.237 74.1803 230.995 77.9099C232.188 80.4449 234.231 82.4829 236.768 83.6713C239.55 84.7201 242.578 84.937 245.481 84.2956C246.568 84.1034 247.637 83.8278 248.681 83.4712C249.59 83.1547 250.48 82.7876 251.348 82.3718L248.938 68.6342C248.841 67.8595 248.528 67.1277 248.035 66.5223C247.554 66.0233 246.929 65.6867 246.248 65.5597C245.348 65.3948 244.426 65.4068 243.531 65.595L243.311 65.6609L243.211 65.0766L258.276 62.4477L258.372 63.0182L258.221 63.0636C257.398 63.1328 256.604 63.4017 255.909 63.8468C255.386 64.2468 255.026 64.8233 254.897 65.469C254.752 66.255 254.76 67.0616 254.92 67.8447L257.102 80.1221C255.349 81.3453 253.464 82.3679 251.483 83.1705C249.316 84.0448 247.061 84.6855 244.758 85.0818V85.0818Z" fill="black"/>
<path id="Vector_6" d="M267.079 81.7627L267.142 81.1743L267.916 81.2569C268.821 81.3854 269.742 81.3285 270.623 81.0896C271.333 80.8971 271.955 80.4673 272.386 79.8718C272.851 79.1949 273.132 78.4083 273.2 77.5898L276.843 45.2093C276.964 44.4367 276.872 43.6458 276.577 42.9215C276.271 42.2722 275.754 41.7457 275.11 41.4282C274.299 41.0214 273.417 40.777 272.512 40.7088L271.752 40.6221L271.815 40.0337L287.546 41.8207C290.416 42.0507 293.221 42.7929 295.83 44.0121C297.76 44.9172 299.353 46.413 300.377 48.2831C301.309 50.1915 301.644 52.3365 301.338 54.4383C301.183 56.3854 300.486 58.2502 299.326 59.8217C298.295 61.1356 296.952 62.1716 295.42 62.8361C293.946 63.4957 292.393 63.9612 290.8 64.2211L297.577 78.0282C298.251 79.3247 298.855 80.492 299.368 81.4022C299.78 82.1693 300.259 82.8982 300.8 83.5802C301.173 84.0504 301.619 84.4579 302.121 84.7875C302.521 85.0497 302.976 85.2158 303.451 85.273L303.636 85.2923L303.555 85.8711L302.749 85.783C301.231 85.623 299.722 85.3799 298.23 85.055C297.227 84.85 296.261 84.4928 295.365 83.9959C294.611 83.5454 293.964 82.9369 293.467 82.2124C292.842 81.2922 292.287 80.3266 291.807 79.3237L284.432 63.9726L280.748 63.5788L279.079 78.2547C278.961 79.0619 279.053 79.8859 279.347 80.647C279.635 81.3259 280.147 81.886 280.797 82.2351C281.6 82.6488 282.48 82.895 283.381 82.9587L284.142 83.0454L284.078 83.6338L267.079 81.7627ZM284.911 63.4695C286.705 63.7494 288.539 63.5999 290.264 63.0332C291.67 62.4847 292.818 61.4292 293.483 60.0751C294.355 58.2123 294.881 56.2064 295.035 54.1554C295.347 52.0519 295.283 49.9097 294.846 47.8285C294.495 46.3177 293.606 44.9864 292.345 44.0831C290.8 43.1023 289.035 42.5239 287.21 42.4008L283.237 41.9437L280.832 63.0592L284.911 63.4695Z" fill="black"/>
<path id="Vector_7" d="M305.271 86.1947L305.496 85.6476L307.075 86.3133C307.758 86.621 308.5 86.7769 309.249 86.7701C309.951 86.7193 310.625 86.4758 311.196 86.0665C312.014 85.4633 312.755 84.7631 313.403 83.9812L339.463 54.9493L342.221 56.1005L341.043 97.1523C341.016 97.8495 341.07 98.5475 341.202 99.2325C341.291 99.7177 341.51 100.17 341.835 100.541C342.172 100.905 342.585 101.191 343.044 101.377L343.744 101.662L343.518 102.209L328.632 95.9886L328.857 95.4415L330.108 95.9655C331.109 96.4602 332.211 96.7145 333.328 96.7084C333.705 96.671 334.062 96.5231 334.356 96.2832C334.649 96.0433 334.865 95.7221 334.976 95.36C335.069 95.1335 335.144 94.9006 335.202 94.663L335.4 93.8244C335.458 93.474 335.487 93.1195 335.487 92.7644L335.896 82.4822L321.2 76.399L314.648 83.6831C314.422 83.9179 314.211 84.1663 314.016 84.4268C313.827 84.6935 313.656 84.9244 313.527 85.143C313.395 85.3521 313.28 85.5719 313.184 85.8001C312.977 86.2268 312.908 86.7076 312.986 87.1755C313.065 87.6435 313.287 88.0753 313.622 88.4109C314.742 89.404 316.041 90.1741 317.45 90.68L318.687 91.2081L318.461 91.7553L305.271 86.1947ZM321.539 75.8326L335.865 81.8319L336.329 69.5851C336.382 68.1608 336.437 66.7956 336.503 65.5171C336.569 64.2385 336.658 62.9833 336.743 61.8188C336.828 60.6544 336.932 59.4995 337.052 58.3997L335.422 60.3118C334.937 60.8919 334.433 61.4624 333.94 62.015C333.446 62.5676 332.924 63.1738 332.332 63.8006C331.741 64.4274 331.092 65.1615 330.371 66.0069L321.539 75.8326Z" fill="black"/>
<path id="Vector_8" d="M346.935 105.006L347.29 104.54L347.897 105.017C348.6 105.604 349.415 106.043 350.292 106.307C350.997 106.515 351.752 106.479 352.434 106.204C353.178 105.862 353.825 105.338 354.315 104.681L374.515 79.1446C375.025 78.5495 375.362 77.8265 375.491 77.0537C375.564 76.3434 375.403 75.6288 375.031 75.0189C374.56 74.2378 373.939 73.5582 373.203 73.0196L372.609 72.5383L372.968 72.0861L385.957 82.3223C389.869 85.375 392.031 88.488 392.534 91.6639C392.753 93.3228 392.615 95.0094 392.128 96.6105C391.642 98.2115 390.818 99.6898 389.713 100.946C388.65 102.251 387.383 103.375 385.96 104.274C384.522 105.184 382.899 105.763 381.209 105.968C379.288 106.164 377.348 105.926 375.531 105.273C373.181 104.412 370.996 103.157 369.068 101.562L366.146 99.261L359.017 108.321C358.443 108.949 358.047 109.719 357.873 110.552C357.774 111.282 357.918 112.023 358.281 112.663C358.739 113.452 359.353 114.14 360.086 114.684L360.694 115.161L360.325 115.631L346.935 105.006ZM368.934 100.763C370.135 101.761 371.505 102.538 372.978 103.057C374.2 103.463 375.509 103.527 376.764 103.24C378.158 102.878 379.452 102.208 380.552 101.28C382.04 100.042 383.378 98.6351 384.54 97.0876C386.047 95.2996 387.253 93.278 388.11 91.1022C388.704 89.5617 388.726 87.859 388.17 86.3041C387.442 84.6384 386.276 83.2013 384.795 82.1461L381.656 79.671L366.447 98.9159L368.934 100.763Z" fill="black"/>
<path id="Vector_9" d="M376.383 128.408L376.866 128.069L377.31 128.7C377.81 129.464 378.465 130.115 379.231 130.611C379.848 131.015 380.584 131.196 381.318 131.124C382.129 131.019 382.897 130.701 383.544 130.202L410.217 111.461C410.871 111.037 411.398 110.444 411.741 109.745C412.024 109.087 412.079 108.353 411.895 107.661C411.668 106.776 411.271 105.943 410.726 105.209L410.286 104.592L410.768 104.253L420.604 118.266L420.122 118.606L419.692 117.971C419.178 117.212 418.525 116.558 417.766 116.046C417.145 115.651 416.412 115.47 415.679 115.532C414.868 115.653 414.099 115.971 413.439 116.459L401.184 125.063L412.157 140.669L424.384 132.073C425.066 131.622 425.624 131.006 426.005 130.283C426.318 129.626 426.401 128.884 426.242 128.174C426.027 127.271 425.629 126.421 425.074 125.677L424.634 125.06L425.117 124.72L434.967 138.73L434.484 139.07L434.04 138.438C433.548 137.68 432.905 137.031 432.15 136.533C431.553 136.141 430.85 135.944 430.137 135.967C429.357 136.035 428.612 136.321 427.987 136.792L401.332 155.543C400.647 155.99 400.094 156.611 399.728 157.342C399.423 158.016 399.344 158.77 399.504 159.492C399.713 160.372 400.098 161.199 400.638 161.925L401.082 162.556L400.595 162.881L390.745 148.872L391.228 148.532L391.672 149.163C392.175 149.944 392.839 150.608 393.62 151.112C394.238 151.492 394.962 151.664 395.685 151.602C396.491 151.482 397.256 151.165 397.911 150.679L411.684 140.991L400.715 125.398L386.952 135.069C386.269 135.52 385.712 136.136 385.33 136.859C385.016 137.525 384.935 138.278 385.102 138.996C385.318 139.888 385.713 140.728 386.262 141.465L386.702 142.082L386.219 142.422L376.383 128.408Z" fill="black"/>
<path id="Vector_10" d="M405.046 175.677L405.61 175.508L405.997 176.8C406.261 177.679 406.7 178.495 407.287 179.201C407.76 179.757 408.402 180.144 409.115 180.301C409.922 180.429 410.749 180.346 411.515 180.061L424.415 175.804L440.012 159.604C440.545 159.095 441.012 158.522 441.403 157.898C441.739 157.455 441.96 156.936 442.044 156.387C442.077 155.807 441.994 155.225 441.801 154.677L441.463 153.549L442.027 153.38L447.113 168.743L446.549 168.912L445.976 167.001C445.797 166.327 445.461 165.703 444.996 165.182C444.817 165.007 444.591 164.889 444.345 164.842C444.099 164.796 443.845 164.824 443.614 164.922C443.152 165.097 442.721 165.343 442.334 165.651C441.765 166.112 441.222 166.605 440.709 167.127L433.027 174.99C432.416 175.652 431.817 176.252 431.236 176.815L429.603 178.414L428.152 179.823C427.685 180.263 427.278 180.654 426.882 180.983L430.665 181.557C432.23 181.777 433.802 182.025 435.392 182.328L445.029 183.933C445.877 184.081 446.735 184.169 447.596 184.198C448.177 184.226 448.759 184.158 449.318 183.996C449.647 183.923 449.945 183.748 450.168 183.495C450.391 183.242 450.528 182.925 450.56 182.59C450.595 181.616 450.431 180.645 450.079 179.737L449.403 177.482L449.829 177.354L453.774 189.313L453.211 189.482L452.799 188.107C452.623 187.549 452.307 187.045 451.88 186.644C451.359 186.202 450.75 185.874 450.093 185.682C449.041 185.37 447.967 185.131 446.882 184.966L426.279 181.673L413.476 185.901C412.694 186.135 411.982 186.56 411.404 187.137C410.889 187.686 410.573 188.393 410.508 189.144C410.455 190.056 410.587 190.97 410.894 191.83L411.281 193.123L410.717 193.292L405.046 175.677Z" fill="black"/>
<path id="Vector_11" d="M430.857 222.68L432.038 222.671L432.126 237.959L430.945 237.968L430.857 222.68Z" fill="black"/>
<path id="Vector_12" d="M410.881 267.958L411.447 268.148L411.198 268.867C410.891 269.734 410.764 270.654 410.825 271.571C410.882 272.301 411.179 272.992 411.669 273.536C412.247 274.116 412.962 274.541 413.748 274.771L448.593 286.036L450.078 281.44C450.627 279.927 450.888 278.324 450.848 276.714C450.774 275.493 450.237 274.347 449.347 273.508C448.137 272.464 446.742 271.657 445.233 271.13L443.416 270.416L443.605 269.85L453.289 273.36L443.09 304.814L433.245 301.967L433.421 301.404L435.305 301.888C436.837 302.346 438.442 302.511 440.035 302.373C441.241 302.218 442.344 301.614 443.125 300.683C444.098 299.398 444.82 297.941 445.254 296.388L446.837 291.673L411.991 280.407C411.224 280.118 410.394 280.041 409.587 280.184C408.863 280.329 408.213 280.72 407.746 281.291C407.163 281.993 406.729 282.806 406.469 283.681L406.238 284.41L405.676 284.234L410.881 267.958Z" fill="black"/>
<path id="Vector_13" d="M396.687 303.232L397.186 303.547L396.451 304.697C395.933 305.449 395.576 306.301 395.403 307.198C395.264 307.921 395.372 308.67 395.711 309.324C396.121 310.034 396.707 310.628 397.411 311.047L408.845 318.393L431.259 320.334C431.991 320.431 432.733 320.435 433.466 320.347C434.006 320.28 434.523 320.089 434.977 319.789C435.425 319.44 435.804 319.011 436.096 318.524L436.73 317.54L437.229 317.855L428.468 331.465L427.969 331.15L429.051 329.462C429.46 328.901 429.738 328.254 429.863 327.571C429.892 327.311 429.842 327.048 429.72 326.818C429.597 326.587 429.407 326.399 429.176 326.278C428.757 326.028 428.298 325.852 427.82 325.756C427.108 325.602 426.389 325.488 425.664 325.413L414.702 324.384C413.814 324.321 412.967 324.245 412.161 324.157L409.89 323.879L407.885 323.641C407.252 323.561 406.687 323.475 406.19 323.385C406.695 324.267 407.328 325.381 408.11 326.69C408.893 327.999 409.703 329.404 410.535 330.878L415.387 339.313C415.807 340.069 416.279 340.793 416.801 341.482C417.145 341.955 417.567 342.365 418.049 342.696C418.318 342.931 418.657 343.069 419.013 343.09C419.369 343.111 419.722 343.012 420.017 342.81C420.816 342.21 421.481 341.449 421.969 340.576L423.247 338.59L423.75 338.919L416.929 349.505L416.43 349.19L417.226 347.947C417.561 347.455 417.751 346.879 417.776 346.284C417.796 345.593 417.662 344.906 417.384 344.274C416.982 343.274 416.511 342.304 415.973 341.37L405.572 323.27L394.202 316.085C393.535 315.618 392.758 315.335 391.947 315.263C391.21 315.229 390.482 315.447 389.885 315.881C389.139 316.428 388.516 317.125 388.056 317.928L387.318 319.063L386.832 318.744L396.687 303.232Z" fill="black"/>
<path id="Vector_14" d="M378.694 329.486L379.094 329.921L378.529 330.435C377.831 331.032 377.266 331.768 376.869 332.596C376.556 333.263 376.47 334.016 376.627 334.736C376.842 335.521 377.253 336.238 377.821 336.821L399.831 360.851C400.332 361.444 400.983 361.89 401.717 362.143C402.408 362.34 403.145 362.298 403.809 362.025C404.655 361.687 405.426 361.186 406.08 360.551L406.645 360.037L407.045 360.471L394.834 371.624C391.191 374.965 387.768 376.625 384.565 376.606C382.883 376.567 381.229 376.165 379.716 375.43C378.202 374.694 376.865 373.641 375.795 372.343C374.636 371.088 373.698 369.647 373.018 368.081C372.364 366.523 372.074 364.837 372.169 363.15C372.275 361.222 372.818 359.342 373.758 357.654C374.991 355.474 376.582 353.517 378.466 351.867L381.208 349.367L373.425 340.851C372.893 340.232 372.21 339.76 371.442 339.483C370.742 339.256 369.987 339.271 369.297 339.526C368.438 339.856 367.655 340.355 366.995 340.996L366.444 341.506L366.044 341.071L378.694 329.486ZM379.287 351.906C378.106 352.922 377.122 354.146 376.384 355.518C375.787 356.662 375.509 357.947 375.581 359.236C375.716 360.683 376.171 362.082 376.914 363.331C377.89 364.995 379.053 366.541 380.379 367.942C381.905 369.716 383.71 371.23 385.723 372.423C387.153 373.27 388.84 373.573 390.475 373.276C392.266 372.831 393.9 371.9 395.198 370.586L398.15 367.888L381.658 349.816L379.287 351.906Z" fill="black"/>
<path id="Vector_15" d="M332.925 362.749C336.132 361.014 339.78 360.264 343.412 360.593C346.719 361.002 349.819 362.422 352.289 364.66C355.178 367.287 357.515 370.462 359.165 374.002C360.958 377.427 362.046 381.177 362.367 385.029C362.626 388.336 361.853 391.641 360.153 394.489C358.175 397.546 355.345 399.957 352.013 401.425C348.898 403.097 345.357 403.809 341.838 403.472C338.531 403.047 335.421 401.661 332.895 399.485C327.084 394.193 323.482 386.905 322.805 379.074C322.611 375.739 323.397 372.419 325.066 369.525C326.967 366.547 329.699 364.191 332.925 362.749V362.749ZM333.19 363.283C331.495 364.067 330.019 365.255 328.893 366.744C327.871 368.215 327.293 369.949 327.229 371.739C327.173 374.057 327.507 376.368 328.215 378.576C330.176 384.649 333.022 390.4 336.659 395.644C337.982 397.533 339.613 399.187 341.482 400.537C342.952 401.585 344.694 402.186 346.497 402.27C348.356 402.293 350.191 401.851 351.836 400.984C353.55 400.191 355.042 398.987 356.179 397.479C357.209 396.007 357.796 394.271 357.871 392.476C357.945 390.166 357.624 387.86 356.921 385.658C355.99 382.615 354.793 379.66 353.344 376.826C351.963 373.945 350.335 371.189 348.477 368.59C347.153 366.691 345.52 365.028 343.645 363.67C342.177 362.618 340.435 362.016 338.63 361.937C336.753 361.928 334.902 362.385 333.245 363.267L333.19 363.283Z" fill="black"/>
<path id="Vector_16" d="M288.285 376.642C292.163 375.869 296.179 376.167 299.902 377.504C303.135 378.751 305.898 380.977 307.804 383.871C311.867 390.549 313.189 398.54 311.494 406.171C310.641 409.499 308.783 412.484 306.174 414.719C303.116 417.18 299.431 418.737 295.534 419.213C293.1 419.654 290.619 419.778 288.153 419.583C286.408 419.469 284.714 418.951 283.203 418.07C282.65 417.753 282.175 417.317 281.811 416.794C281.446 416.271 281.203 415.673 281.098 415.045C280.963 414.486 280.961 413.903 281.092 413.343C281.224 412.783 281.485 412.261 281.854 411.821C282.95 410.818 284.312 410.155 285.777 409.91C286.03 411.891 286.636 413.811 287.566 415.578C288.245 416.854 289.366 417.839 290.72 418.348C292.321 418.829 294.017 418.903 295.654 418.562C298.355 418.259 300.889 417.105 302.893 415.268C304.736 413.262 305.836 410.685 306.008 407.966C306.335 403.89 306.114 399.788 305.348 395.771C304.81 391.683 303.661 387.698 301.939 383.951C300.781 381.376 298.755 379.289 296.216 378.055C293.45 376.963 290.424 376.708 287.515 377.322C286.423 377.487 285.348 377.749 284.303 378.105C283.391 378.409 282.497 378.762 281.623 379.163L283.865 392.937C283.953 393.711 284.256 394.446 284.74 395.057C285.209 395.599 285.848 395.967 286.552 396.102C287.448 396.278 288.37 396.281 289.267 396.112L289.487 396.046L289.587 396.63L274.482 399.076L274.382 398.492L274.602 398.426C275.429 398.338 276.222 398.049 276.911 397.584C277.433 397.193 277.795 396.626 277.932 395.989C278.094 395.203 278.095 394.392 277.936 393.605L275.937 381.288C277.709 380.093 279.604 379.093 281.59 378.304C283.758 377.519 286.002 376.962 288.285 376.642Z" fill="black"/>
<path id="Vector_17" d="M265.959 379.695L265.882 380.287L265.131 380.183C264.226 380.041 263.301 380.089 262.416 380.323C261.702 380.506 261.072 380.927 260.631 381.517C260.165 382.189 259.883 382.971 259.813 383.785L255.743 416.144C255.619 416.912 255.705 417.699 255.992 418.422C256.292 419.073 256.8 419.605 257.435 419.937C258.243 420.339 259.12 420.584 260.02 420.661L260.766 420.752L260.703 421.34L244.988 419.354C242.142 419.067 239.37 418.28 236.798 417.029C234.875 416.104 233.301 414.585 232.307 412.696C231.502 410.828 231.187 408.785 231.393 406.762C231.6 404.738 232.32 402.801 233.486 401.134C234.529 399.83 235.881 398.807 237.419 398.157C238.907 397.533 240.465 397.091 242.059 396.84L235.443 382.97C234.797 381.665 234.202 380.48 233.703 379.566C233.301 378.797 232.831 378.065 232.298 377.38C231.935 376.902 231.497 376.487 231 376.15C230.601 375.883 230.144 375.712 229.667 375.651L229.495 375.628L229.563 375.053L230.386 375.151C231.894 375.328 233.391 375.584 234.872 375.919C235.877 376.138 236.843 376.511 237.735 377.023C238.483 377.483 239.123 378.099 239.61 378.829C240.226 379.751 240.767 380.721 241.229 381.73L248.404 397.261L252.081 397.732L253.922 383.079C254.051 382.271 253.973 381.444 253.695 380.675C253.408 379.993 252.901 379.427 252.255 379.069C251.452 378.633 250.571 378.363 249.663 378.272L248.899 378.172L248.98 377.593L265.959 379.695ZM247.911 397.768C246.121 397.464 244.285 397.593 242.555 398.145C241.14 398.675 239.981 399.725 239.314 401.08C238.417 402.933 237.859 404.933 237.667 406.983C237.34 409.084 237.384 411.227 237.797 413.313C238.128 414.822 238.998 416.16 240.244 417.075C241.782 418.063 243.54 418.658 245.363 418.806L249.335 419.309L252.003 398.22L247.911 397.768Z" fill="black"/>
<path id="Vector_18" d="M227.822 374.797L227.583 375.348L226.014 374.664C225.341 374.344 224.605 374.176 223.859 374.172C223.152 374.219 222.473 374.459 221.894 374.866C221.069 375.455 220.319 376.143 219.661 376.914L193.269 405.641L190.513 404.444L192.149 363.42C192.19 362.726 192.147 362.029 192.021 361.345C191.942 360.86 191.733 360.405 191.417 360.028C191.079 359.66 190.664 359.37 190.203 359.178L189.499 358.88L189.742 358.342L204.596 364.753L204.357 365.304L203.115 364.762C202.113 364.254 201.007 363.986 199.883 363.978C199.506 364.015 199.147 364.161 198.851 364.399C198.555 364.637 198.334 364.956 198.217 365.317C198.111 365.54 198.03 365.776 197.978 366.018L197.78 366.856C197.706 367.201 197.671 367.554 197.675 367.907L197.195 378.15L211.829 384.477L218.469 377.286C218.694 377.039 218.92 376.791 219.114 376.539C219.291 376.31 219.454 376.07 219.603 375.822C219.736 375.614 219.857 375.398 219.964 375.175C220.172 374.749 220.245 374.269 220.171 373.801C220.098 373.332 219.882 372.897 219.553 372.556C218.418 371.511 217.09 370.698 215.643 370.162L214.406 369.633L214.632 369.086L227.822 374.797ZM211.395 384.981L197.126 378.77L196.492 390.948C196.439 392.373 196.348 393.734 196.217 395.032C196.137 396.314 196.041 397.542 195.932 398.728C195.823 399.915 195.721 401.024 195.588 402.128L197.226 400.244L198.726 398.55L200.355 396.788L202.37 394.611L211.395 384.981Z" fill="black"/>
<path id="Vector_19" d="M186.387 355.497L186.015 355.953L185.421 355.472C184.725 354.876 183.918 354.425 183.045 354.146C182.34 353.934 181.584 353.965 180.899 354.235C180.15 354.561 179.498 355.076 179.01 355.731L158.516 381.086C158.002 381.672 157.657 382.387 157.517 383.154C157.43 383.864 157.577 384.582 157.936 385.201C158.408 385.985 159.022 386.675 159.745 387.236L160.339 387.717L159.98 388.169L147.109 377.778C143.271 374.673 141.121 371.532 140.657 368.354C140.453 366.694 140.608 365.01 141.113 363.416C141.617 361.822 142.459 360.355 143.582 359.116C144.65 357.775 145.936 356.625 147.386 355.712C148.835 354.819 150.463 354.259 152.155 354.073C154.076 353.899 156.013 354.158 157.821 354.831C160.164 355.722 162.338 357.006 164.249 358.628L167.139 360.969L174.383 351.993C174.917 351.373 175.286 350.629 175.457 349.828C175.573 349.099 175.439 348.353 175.077 347.71C174.632 346.911 174.025 346.215 173.295 345.666L172.701 345.185L173.074 344.729L186.387 355.497ZM164.299 359.542C163.107 358.539 161.749 357.749 160.287 357.209C159.071 356.786 157.761 356.707 156.503 356.98C155.103 357.322 153.798 357.974 152.684 358.889C151.189 360.107 149.834 361.489 148.645 363.007C147.121 364.782 145.892 366.79 145.003 368.954C144.412 370.49 144.389 372.187 144.939 373.738C145.647 375.442 146.81 376.918 148.301 378.005L151.412 380.534L166.801 361.49L164.299 359.542Z" fill="black"/>
<path id="Vector_20" d="M157.208 331.697L156.726 332.037L156.282 331.406C155.793 330.629 155.144 329.966 154.379 329.459C153.768 329.049 153.035 328.862 152.302 328.928C151.491 329.016 150.718 329.32 150.064 329.809L123.16 348.23C122.497 348.644 121.964 349.235 121.618 349.935C121.325 350.588 121.259 351.32 121.432 352.014C121.654 352.9 122.047 353.734 122.588 354.47L123.018 355.105L122.536 355.444L112.858 341.308L113.345 340.983L113.771 341.604C114.267 342.375 114.914 343.037 115.673 343.551C116.289 343.955 117.02 344.146 117.755 344.096C118.568 343.993 119.342 343.684 120.003 343.197L132.335 334.75L121.621 319.006L109.284 327.44C108.595 327.879 108.029 328.487 107.641 329.206C107.318 329.863 107.225 330.608 107.377 331.324C107.574 332.226 107.961 333.075 108.513 333.815L108.944 334.45L108.461 334.79L98.7254 320.761L99.2122 320.435L99.6383 321.057C100.129 321.82 100.764 322.48 101.509 322.998C102.099 323.398 102.8 323.603 103.512 323.581C104.292 323.525 105.041 323.248 105.671 322.784L132.575 304.363C133.265 303.922 133.825 303.304 134.196 302.574C134.506 301.909 134.598 301.163 134.456 300.443C134.259 299.557 133.881 298.722 133.346 297.989L132.915 297.353L133.402 297.028L143.076 311.15L142.579 311.493L142.171 310.732C141.675 309.95 141.025 309.279 140.261 308.757C139.645 308.367 138.918 308.191 138.192 308.254C137.382 308.349 136.611 308.653 135.953 309.135L122.084 318.702L132.819 334.515L146.704 325.002C147.395 324.564 147.961 323.956 148.348 323.235C148.667 322.569 148.752 321.815 148.59 321.095C148.391 320.205 148.012 319.365 147.475 318.627L147.045 317.992L147.532 317.666L157.208 331.697Z" fill="black"/>
<path id="Vector_21" d="M129.121 284.046L128.557 284.215L128.17 282.923C127.921 282.041 127.491 281.221 126.908 280.514C126.44 279.947 125.794 279.554 125.075 279.4C124.267 279.264 123.438 279.332 122.663 279.599L109.708 283.723L93.9173 299.726C93.3751 300.223 92.8999 300.789 92.5038 301.408C92.2097 301.868 92.0274 302.389 91.9714 302.932C91.9341 303.518 92.0135 304.105 92.2049 304.66L92.5429 305.787L91.9792 305.956L87.086 290.536L87.6497 290.367L88.2268 292.291C88.3984 292.966 88.7245 293.592 89.1793 294.119C89.3579 294.294 89.5845 294.412 89.8305 294.459C90.0765 294.505 90.3308 294.477 90.5609 294.379C91.0301 294.223 91.4657 293.981 91.8451 293.664C92.4225 293.216 92.9738 292.736 93.4965 292.225L101.263 284.442C101.891 283.789 102.491 283.19 103.071 282.626L104.726 281.051L106.199 279.665C106.667 279.225 107.091 278.843 107.474 278.519C106.48 278.337 105.22 278.131 103.692 277.9C102.127 277.679 100.53 277.349 98.9529 277.088L89.3569 275.469C88.5111 275.311 87.6553 275.212 86.7957 275.173C86.2131 275.138 85.6286 275.197 85.0647 275.348C84.7366 275.423 84.4397 275.597 84.2143 275.847C83.9889 276.097 83.846 276.41 83.8052 276.744C83.7596 277.719 83.909 278.693 84.2446 279.609L84.9207 281.864L84.357 282.033L80.5493 270.033L81.113 269.864L81.5252 271.239C81.6902 271.803 81.9985 272.315 82.42 272.724C82.9442 273.163 83.5523 273.49 84.2071 273.687C85.2375 274.009 86.2889 274.259 87.3539 274.436L107.899 277.987L120.747 273.91C121.529 273.68 122.243 273.26 122.823 272.688C123.342 272.151 123.661 271.452 123.728 270.708C123.792 269.795 123.665 268.879 123.356 268.018L122.944 266.643L123.507 266.474L129.121 284.046Z" fill="black"/>
<path id="Vector_22" d="M103.881 236.801L102.71 236.792L102.858 221.493L104.03 221.502L103.881 236.801Z" fill="black"/>
</g>
</g>
<defs>
<clipPath id="clip0_101_124">
<rect width="529" height="448" fill="white" transform="translate(0 0.691406)"/>
</clipPath>
</defs>
</svg>
