<svg width="529" height="449" viewBox="0 0 529 449" fill="none" xmlns="http://www.w3.org/2000/svg">
<g id="welcome-svg" clip-path="url(#clip0_101_124)">
<rect id="clipping-mask" x="49.8369" y="14.1406" width="422.068" height="148.645" fill="#34C027"/>
<g id="Group 6">
<path id="Vector" d="M122.992 110.725C122.412 110.365 121.779 110.101 121.115 109.942C120.575 109.836 120.016 109.896 119.51 110.115C118.898 110.41 118.344 110.816 117.877 111.312L117.307 111.818L116.909 111.394L128.738 100.435L129.136 100.859L128.139 101.778C127.417 102.354 126.864 103.115 126.539 103.981C126.457 104.325 126.47 104.686 126.575 105.024C126.681 105.362 126.876 105.665 127.14 105.9C127.302 106.07 127.492 106.245 127.697 106.421C127.901 106.598 128.164 106.769 128.425 106.954L129.279 107.521L147.859 118.454C148.906 119.08 149.962 119.737 150.991 120.388C152.02 121.04 153.068 121.753 154.114 122.48C155.159 123.208 156.187 123.961 157.238 124.747C156.638 123.755 155.947 122.517 155.146 121.045L152.55 116.294L139.128 91.3845L140.934 89.7209L164.454 102.606C165.936 103.415 167.361 104.216 168.714 105.019C170.066 105.823 171.367 106.589 172.419 107.274C173.472 107.958 174.476 108.578 175.212 109.155L174.183 107.198L173.299 105.612L171.928 103.051L160.024 80.4929C159.765 79.945 159.47 79.415 159.14 78.9064C158.893 78.5226 158.615 78.1596 158.309 77.821C158.058 77.483 157.724 77.2164 157.338 77.0476C156.953 76.8787 156.531 76.8134 156.112 76.8581C155.103 77.142 154.191 77.6981 153.475 78.4657L152.479 79.3845L152.083 78.9465L160.444 71.2207L160.842 71.6447L160.03 72.4035C159.495 72.867 159.074 73.4466 158.798 74.0979C158.578 74.7357 158.557 75.4253 158.738 76.075C158.995 77.0257 159.37 77.9406 159.852 78.7989L177.57 112.449L175.022 114.693L142.75 96.8014L160.092 128.479L157.406 130.964L122.992 110.725Z" fill="black"/>
<path id="Vector_2" d="M189.256 104.005L188.991 103.471L189.679 103.142C190.511 102.767 191.263 102.233 191.891 101.57C192.379 101.022 192.675 100.33 192.732 99.5978C192.754 98.7835 192.57 97.9768 192.197 97.2533L178.125 67.9225C177.815 67.2054 177.315 66.5867 176.679 66.1331C176.078 65.7477 175.365 65.5762 174.655 65.6462C173.749 65.726 172.868 65.984 172.062 66.4053L171.374 66.734L171.123 66.2022L197.714 53.4071L202.475 62.5087L201.944 62.7601L201.002 61.0777C200.28 59.6519 199.293 58.3773 198.094 57.3224C197.158 56.5522 195.963 56.1703 194.755 56.2554C193.16 56.4371 191.613 56.9159 190.193 57.667L181.731 61.738L189.985 78.9623L203.264 72.5767L203.515 73.1084L190.236 79.494L199.358 98.5052L209.149 93.7988C210.71 93.1057 212.141 92.1499 213.379 90.9729C214.277 90.0837 214.791 88.8773 214.811 87.6131C214.75 86.0159 214.378 84.4463 213.715 82.9927L212.995 81.1851L213.512 80.9315L217.597 90.3781L189.256 104.005Z" fill="black"/>
<path id="Vector_3" d="M218.547 89.9454L218.418 89.3746L219.155 89.1984C220.053 89.026 220.904 88.6631 221.651 88.1343C222.255 87.7174 222.697 87.1048 222.903 86.3996C223.11 85.6102 223.108 84.7807 222.899 83.9922L215.55 52.2934C215.404 51.5286 215.054 50.8179 214.536 50.2372C214.03 49.7334 213.373 49.4082 212.666 49.3104C211.761 49.2007 210.844 49.2605 209.961 49.4866L209.224 49.6627L209.095 49.0918L225.721 45.2243L225.849 45.7952L225.113 45.9713C224.217 46.1495 223.367 46.5119 222.617 47.0354C222.013 47.4523 221.571 48.0649 221.365 48.7701C221.156 49.5606 221.162 50.3926 221.383 51.1797L229.622 86.7712L240.137 84.308C241.817 83.9914 243.407 83.3062 244.791 82.3016C245.911 81.3827 246.634 80.0657 246.807 78.6261C247.021 76.5744 246.927 74.5022 246.526 72.4789L246.152 70.5942L246.724 70.4506L249.152 82.8452L218.547 89.9454Z" fill="black"/>
<path id="Vector_4" d="M269.516 83.078C265.961 83.2367 262.44 82.3239 259.41 80.4575C256.679 78.6432 254.557 76.0467 253.322 73.0067C250.551 65.7553 250.493 57.7438 253.16 50.4509C254.393 47.3286 256.549 44.6573 259.339 42.7938C261.901 41.3554 264.723 40.4419 267.641 40.1063C270.559 39.7707 273.514 40.0199 276.334 40.8393C277.834 41.3148 279.195 42.1471 280.303 43.2651C281.181 44.1555 281.686 45.3488 281.713 46.6002C281.753 47.1801 281.641 47.7605 281.388 48.2836C281.134 48.8066 280.748 49.254 280.268 49.581C279.181 50.2627 277.919 50.612 276.638 50.5858C276.691 48.6088 276.418 46.6367 275.831 44.7487C275.431 43.4365 274.579 42.3086 273.428 41.5645C272.109 40.8621 270.623 40.5323 269.131 40.6102C266.686 40.5263 264.302 41.3884 262.475 43.0176C260.577 44.9322 259.289 47.3667 258.773 50.0136C257.955 53.7673 257.595 57.6065 257.701 61.4467C257.64 65.4241 258.092 69.3925 259.046 73.2536C259.66 75.95 261.073 78.3973 263.101 80.2742C265.125 81.8832 267.668 82.694 270.249 82.5533C272.562 82.6398 274.831 81.9013 276.652 80.4694C278.502 78.7019 279.762 76.4053 280.26 73.8938C280.72 74.0391 281.118 74.3356 281.389 74.7353C281.639 75.1498 281.766 75.6271 281.756 76.1114C281.73 76.94 281.47 77.7444 281.006 78.4313C280.41 79.3371 279.64 80.1151 278.741 80.7199C277.577 81.5005 276.293 82.0856 274.941 82.4522C273.169 82.9055 271.344 83.116 269.516 83.078Z" fill="black"/>
<path id="Vector_5" d="M300.968 86.983C297.399 86.2923 294.115 84.5588 291.531 82.0011C289.247 79.5861 287.759 76.5272 287.268 73.2375C286.72 69.3998 286.926 65.4918 287.873 61.7323C288.666 57.9347 290.207 54.3332 292.406 51.1386C294.305 48.4283 296.995 46.3725 300.106 45.2535C303.57 44.1196 307.289 44.0291 310.803 44.9931C314.283 45.6594 317.488 47.3401 320.017 49.8245C322.293 52.2421 323.803 55.2803 324.357 58.5565C325.007 62.3889 324.844 66.3155 323.879 70.0814C323.078 73.8971 321.49 77.5035 319.216 80.6696C317.253 83.3754 314.536 85.4417 311.406 86.6102C308.042 87.7751 304.406 87.905 300.968 86.983V86.983ZM301.057 86.4024C302.863 86.8712 304.756 86.8848 306.568 86.4422C308.294 85.9591 309.841 84.9779 311.014 83.6209C312.527 81.8739 313.735 79.8844 314.588 77.7359C315.79 74.7823 316.745 71.7342 317.444 68.6229C318.197 65.5363 318.684 62.3905 318.898 59.2205C319.075 56.9237 318.869 54.6136 318.289 52.3846C317.834 50.6545 316.889 49.0934 315.567 47.8898C314.15 46.6921 312.455 45.8715 310.637 45.5039C308.82 45.0281 306.914 45.0073 305.087 45.4434C303.358 45.9376 301.806 46.9148 300.612 48.2603C299.083 49.9936 297.865 51.9783 297.012 54.1268C295.797 57.0603 294.843 60.0956 294.162 63.1973C293.407 66.2934 292.92 69.4486 292.704 72.628C292.521 74.934 292.725 77.2542 293.308 79.4922C293.759 81.228 294.711 82.7922 296.045 83.9892C297.503 85.2029 299.24 86.0343 301.1 86.409L301.057 86.4024Z" fill="black"/>
<path id="Vector_6" d="M320.243 89.9475L320.539 89.4421L322.519 90.5891C323.294 91.0775 324.159 91.4036 325.063 91.5479C325.789 91.6487 326.528 91.5082 327.167 91.1481C327.853 90.7107 328.416 90.1035 328.8 89.3853L345.251 61.2636C345.678 60.6079 345.911 59.8449 345.924 59.0624C345.912 58.3505 345.661 57.6633 345.212 57.1111C344.637 56.3914 343.929 55.7896 343.126 55.3388L341.163 54.1798L341.458 53.6746L351.733 59.6993L346.758 97.7864L375.812 73.8313L385.104 79.2837L384.809 79.789L384.146 79.3965C383.375 78.9114 382.513 78.5906 381.613 78.454C380.887 78.3467 380.146 78.4875 379.51 78.8539C378.819 79.2898 378.252 79.896 377.862 80.6145L361.529 108.537C361.091 109.225 360.84 110.016 360.798 110.831C360.796 111.566 361.037 112.281 361.483 112.865C362.039 113.59 362.74 114.192 363.541 114.633L364.206 115.011L363.894 115.528L350.431 107.648L350.741 107.145L350.885 107.24C351.539 107.647 352.281 107.891 353.049 107.951C353.736 108 354.423 107.838 355.017 107.487C355.708 107.051 356.275 106.445 356.665 105.726L373.834 76.3238L341.893 102.66L340.673 101.935L346.127 60.9351L329.291 89.6785C328.857 90.3687 328.61 91.1599 328.574 91.9745C328.557 92.7089 328.794 93.4265 329.244 94.0064C329.803 94.7293 330.503 95.3308 331.302 95.7744L332.219 96.3075L331.923 96.8128L320.243 89.9475Z" fill="black"/>
<path id="Vector_7" d="M363.005 116.508L363.428 116.109L363.966 116.657C364.57 117.338 365.308 117.887 366.135 118.268C366.808 118.564 367.559 118.635 368.276 118.468C369.057 118.234 369.766 117.805 370.336 117.221L393.847 94.7574C394.427 94.2391 394.86 93.5753 395.099 92.8343C395.274 92.1394 395.214 91.4064 394.929 90.7492C394.574 89.9106 394.057 89.1506 393.407 88.5131L392.884 87.9682L393.309 87.5556L413.68 108.914L406.505 116.273L406.093 115.846L407.413 114.427C408.542 113.294 409.446 111.958 410.078 110.489C410.521 109.359 410.513 108.101 410.056 106.977C409.389 105.514 408.454 104.19 407.301 103.071L400.823 96.2707L387.027 109.463L397.194 120.125L396.77 120.524L386.602 109.876L371.321 124.434L378.794 132.287C379.932 133.563 381.279 134.634 382.778 135.455C383.902 136.027 385.206 136.134 386.409 135.755C387.914 135.217 389.294 134.38 390.467 133.294L391.945 132.073L392.356 132.499L384.646 139.296L363.005 116.508Z" fill="black"/>
<path id="Vector_8" d="M404.136 141.062L405.155 140.465L412.877 153.635L411.859 154.231L404.136 141.062Z" fill="black"/>
<path id="Vector_9" d="M443.23 165.024C443.837 164.719 444.389 164.314 444.863 163.826C445.229 163.413 445.461 162.897 445.526 162.348C445.593 161.665 445.543 160.976 445.378 160.31L445.202 159.572L445.772 159.443L449.286 175.21L448.716 175.339L448.428 174.019C448.301 173.106 447.934 172.244 447.366 171.52C447.105 171.284 446.787 171.12 446.443 171.044C446.1 170.968 445.742 170.983 445.406 171.087C445.157 171.147 444.912 171.225 444.675 171.322C444.394 171.423 444.12 171.541 443.853 171.673C443.568 171.832 443.256 171.972 442.943 172.127L424.14 182.777C423.079 183.367 421.998 183.896 420.902 184.524C419.806 185.152 418.689 185.631 417.533 186.178C416.377 186.724 415.222 187.27 414.018 187.751C415.166 187.725 416.582 187.741 418.255 187.783L423.675 187.939L451.939 188.77L452.463 191.185L429.545 205.041C428.106 205.92 426.688 206.76 425.325 207.52C423.962 208.281 422.681 208.982 421.512 209.613C420.343 210.245 419.356 210.73 418.513 211.122L420.731 211.203L422.573 211.271L425.454 211.368L450.921 212.405C451.522 212.452 452.125 212.458 452.728 212.423C453.176 212.395 453.621 212.333 454.059 212.237C454.48 212.193 454.882 212.038 455.223 211.788C455.565 211.538 455.833 211.201 456.002 210.812C456.264 209.799 456.244 208.732 455.943 207.73L455.655 206.409L456.225 206.28L458.704 217.406L458.12 217.534L457.874 216.408C457.741 215.714 457.451 215.059 457.026 214.494C456.588 213.981 456.002 213.617 455.348 213.452C454.404 213.185 453.43 213.035 452.45 213.004L414.49 211.486L413.719 208.046L445.381 189.047L409.314 188.213L408.517 184.653L443.23 165.024Z" fill="black"/>
<path id="Vector_10" d="M415.76 225.847L416.34 225.937L416.224 226.687C416.123 227.597 416.207 228.517 416.471 229.393C416.701 230.091 417.151 230.695 417.755 231.114C418.447 231.541 419.235 231.787 420.047 231.831L452.441 234.417C453.216 234.506 454.001 234.382 454.712 234.057C455.348 233.732 455.858 233.204 456.16 232.556C456.537 231.729 456.754 230.837 456.798 229.929L456.914 229.178L457.479 229.266L455.129 258.711L444.862 258.255L444.951 257.675L446.9 257.715C448.493 257.796 450.087 257.581 451.602 257.079C452.736 256.656 453.664 255.813 454.196 254.725C454.844 253.252 455.211 251.672 455.278 250.064L456.031 240.699L437.019 239.21L435.834 253.902L435.254 253.812L436.439 239.12L415.445 237.441L414.58 248.282C414.372 249.984 414.473 251.709 414.878 253.374C415.194 254.59 415.974 255.632 417.05 256.276C418.458 257.04 420.004 257.515 421.598 257.675L423.507 257.97L423.417 258.551L413.223 257.337L415.76 225.847Z" fill="black"/>
<path id="Vector_11" d="M413.128 258.236L413.694 258.411L413.465 259.144C413.181 260.01 413.069 260.924 413.136 261.833C413.209 262.563 413.514 263.251 414.006 263.794C414.585 264.369 415.306 264.78 416.095 264.987L447.171 274.503C447.908 274.761 448.7 274.813 449.464 274.654C450.16 274.471 450.772 274.053 451.196 273.472C451.754 272.752 452.162 271.928 452.396 271.048L452.625 270.315L453.192 270.489L448.189 286.839L447.622 286.664L447.852 285.931C448.136 285.065 448.248 284.151 448.18 283.242C448.124 282.507 447.817 281.815 447.311 281.281C446.732 280.706 446.011 280.294 445.222 280.088L410.33 269.403L407.147 279.784C406.587 281.393 406.391 283.106 406.575 284.8C406.816 286.217 407.603 287.484 408.766 288.328C410.426 289.551 412.266 290.51 414.219 291.172L416.041 291.845L415.866 292.412L403.931 288.32L413.128 258.236Z" fill="black"/>
<path id="Vector_12" d="M393.52 305.848C395.162 302.684 397.712 300.084 400.841 298.382C403.786 296.909 407.105 296.361 410.365 296.81C418.028 298.029 424.988 301.99 429.954 307.957C432.045 310.602 433.271 313.829 433.463 317.198C433.572 320.923 432.581 324.598 430.614 327.762C429.587 329.706 428.233 331.459 426.613 332.943C425.45 334.027 424.036 334.804 422.499 335.207C421.293 335.528 420.011 335.371 418.918 334.77C418.395 334.514 417.947 334.125 417.62 333.642C417.294 333.159 417.099 332.599 417.056 332.017C417.004 330.737 417.336 329.47 418.009 328.38C419.695 329.406 421.536 330.15 423.46 330.586C424.797 330.898 426.201 330.719 427.418 330.081C428.689 329.294 429.722 328.176 430.408 326.846C431.72 324.745 432.173 322.218 431.672 319.792C430.964 317.196 429.506 314.867 427.48 313.098C421.627 307.94 414.758 304.068 407.317 301.732C404.679 300.921 401.858 300.925 399.222 301.742C396.81 302.675 394.829 304.472 393.664 306.784C392.424 308.744 391.924 311.084 392.254 313.38C392.863 315.86 394.216 318.092 396.13 319.779C395.769 320.094 395.319 320.288 394.842 320.334C394.352 320.342 393.869 320.207 393.454 319.945C392.742 319.516 392.17 318.888 391.808 318.139C391.331 317.171 391.051 316.117 390.984 315.04C390.884 313.637 391.019 312.227 391.383 310.868C391.86 309.104 392.58 307.415 393.52 305.848V305.848Z" fill="black"/>
<path id="Vector_13" d="M374.358 331.087C376.754 328.348 379.904 326.378 383.414 325.426C386.647 324.673 390.033 324.928 393.117 326.157C396.729 327.615 400.017 329.774 402.791 332.51C405.662 335.107 407.986 338.251 409.629 341.758C411.01 344.766 411.431 348.127 410.834 351.383C410.055 354.936 408.26 358.185 405.668 360.734C403.336 363.385 400.271 365.283 396.862 366.187C393.631 366.942 390.249 366.722 387.143 365.554C379.873 362.622 373.977 357.05 370.631 349.954C369.292 346.899 368.879 343.518 369.441 340.23C370.14 336.762 371.851 333.58 374.358 331.087ZM374.789 331.487C373.478 332.814 372.511 334.441 371.971 336.228C371.529 337.97 371.598 339.803 372.169 341.507C372.92 343.69 374.028 345.732 375.447 347.552C379.385 352.554 384.039 356.947 389.257 360.589C391.148 361.893 393.242 362.873 395.454 363.49C397.177 363.973 399.003 363.943 400.709 363.403C402.452 362.779 404.013 361.73 405.249 360.35C406.571 359.011 407.549 357.371 408.102 355.571C408.543 353.821 408.481 351.982 407.923 350.266C407.194 348.077 406.095 346.029 404.675 344.211C402.746 341.691 400.605 339.342 398.274 337.191C395.998 334.977 393.533 332.966 390.907 331.18C389.011 329.863 386.909 328.871 384.686 328.247C382.955 327.773 381.123 327.813 379.413 328.36C377.64 329.001 376.052 330.07 374.791 331.473L374.789 331.487Z" fill="black"/>
<path id="Vector_14" d="M362.035 346.276L362.316 346.798L360.329 347.94C359.522 348.364 358.81 348.95 358.239 349.662C357.782 350.236 357.529 350.947 357.521 351.682C357.552 352.5 357.793 353.296 358.221 353.994L374.23 382.305C374.588 383.001 375.128 383.586 375.793 383.996C376.423 384.327 377.144 384.438 377.844 384.313C378.746 384.17 379.612 383.851 380.392 383.373L382.379 382.23L382.676 382.74L372.313 388.62L341.892 365.215L348.044 402.412L338.697 407.709L338.414 407.201L339.08 406.826C339.885 406.398 340.596 405.813 341.17 405.104C341.624 404.528 341.872 403.816 341.874 403.082C341.849 402.265 341.613 401.469 341.188 400.772L325.264 372.663C324.886 371.937 324.328 371.322 323.643 370.875C323.015 370.498 322.277 370.348 321.552 370.451C320.645 370.572 319.773 370.882 318.993 371.36L318.327 371.735L318.044 371.228L331.615 363.51L331.913 364.02L331.754 364.111C331.086 364.479 330.511 364.996 330.073 365.62C329.684 366.197 329.483 366.88 329.496 367.575C329.526 368.394 329.767 369.19 330.195 369.887L346.954 399.532L340.243 358.653L341.465 357.957L374.171 383.253L357.787 354.275C357.408 353.55 356.85 352.935 356.166 352.487C355.536 352.116 354.8 351.966 354.075 352.063C353.168 352.184 352.296 352.494 351.516 352.972L350.595 353.497L350.312 352.989L362.035 346.276Z" fill="black"/>
<path id="Vector_15" d="M317.635 370.033L317.764 370.604L317.027 370.78C316.137 370.965 315.293 371.327 314.546 371.846C313.948 372.274 313.511 372.891 313.305 373.597C313.109 374.391 313.12 375.221 313.338 376.009L320.973 407.636C321.12 408.404 321.482 409.113 322.018 409.682C322.521 410.189 323.18 410.511 323.889 410.595C324.792 410.701 325.708 410.631 326.585 410.388L327.322 410.212L327.465 410.785L298.78 417.733L295.97 407.816L296.542 407.673L297.109 409.529C297.513 411.075 298.213 412.528 299.17 413.806C299.925 414.756 301.015 415.381 302.216 415.553C303.814 415.712 305.428 415.568 306.972 415.128L316.089 412.912L311.642 394.377L297.322 397.847L297.194 397.277L311.513 393.807L306.559 373.308L296.028 375.871C294.351 376.214 292.746 376.844 291.281 377.732C290.229 378.421 289.483 379.49 289.199 380.716C288.921 382.292 288.952 383.907 289.289 385.471L289.631 387.379L289.059 387.523L287.041 377.439L317.635 370.033Z" fill="black"/>
<path id="Vector_16" d="M275.78 393.345L275.772 394.518L260.517 394.581L260.524 393.408L275.78 393.345Z" fill="black"/>
<path id="Vector_17" d="M235.495 415.114C235.466 415.798 235.551 416.483 235.746 417.139C235.929 417.655 236.256 418.109 236.688 418.444C237.245 418.851 237.87 419.154 238.534 419.339L239.251 419.566L239.077 420.133L223.699 415.277L223.873 414.709L225.155 415.125C226.014 415.462 226.947 415.567 227.86 415.427C228.198 415.323 228.502 415.13 228.741 414.869C228.979 414.607 229.145 414.287 229.219 413.941C229.28 413.695 229.319 413.443 229.335 413.19C229.378 412.907 229.424 412.61 229.473 412.298C229.523 411.972 229.573 411.647 229.557 411.282L229.841 389.679C229.858 388.45 229.888 387.222 229.949 385.985C230.01 384.747 230.102 383.5 230.209 382.241C230.317 380.981 230.458 379.698 230.614 378.403C230.052 379.418 229.33 380.626 228.457 382.057C227.584 383.488 226.623 385.021 225.614 386.677L210.66 410.739L208.299 409.997L207.786 383.153C207.743 381.465 207.736 379.825 207.762 378.249C207.789 376.673 207.81 375.226 207.867 373.916C207.925 372.605 207.971 371.467 208.054 370.552C207.57 371.347 207.17 371.966 206.881 372.429L205.899 374.003L204.345 376.474L190.731 398.046C190.39 398.543 190.082 399.062 189.81 399.6C189.607 400.005 189.431 400.424 189.283 400.852C189.115 401.239 189.051 401.664 189.098 402.083C189.145 402.503 189.301 402.902 189.551 403.242C190.291 403.969 191.21 404.486 192.215 404.741L193.499 405.143L193.325 405.71L182.475 402.279L182.648 401.726L183.712 402.05C184.377 402.289 185.089 402.369 185.79 402.284C186.452 402.161 187.059 401.834 187.527 401.349C188.223 400.649 188.83 399.867 189.335 399.019L209.663 366.886L213.019 367.941L213.629 404.833L232.438 374.002L235.919 375.091L235.495 415.114Z" fill="black"/>
<path id="Vector_18" d="M196.747 360.902L196.411 361.386L195.785 360.942C195.05 360.402 194.212 360.021 193.323 359.822C192.61 359.652 191.86 359.736 191.201 360.059C190.499 360.443 189.912 361.008 189.501 361.695L170.987 388.454C170.523 389.082 170.238 389.825 170.163 390.603C170.125 391.316 170.327 392.021 170.737 392.606C171.258 393.35 171.916 393.988 172.676 394.486L173.304 394.916L172.969 395.401L148.708 378.602L154.258 369.949L154.742 370.285L153.747 371.944C152.863 373.275 152.245 374.764 151.926 376.33C151.721 377.526 151.982 378.755 152.655 379.763C153.599 381.063 154.777 382.175 156.13 383.041L163.847 388.38L174.703 372.66L162.608 364.266L162.929 363.779L175.038 372.175L187.029 354.833L178.047 348.587C176.674 347.565 175.132 346.792 173.492 346.303C172.892 346.133 172.263 346.083 171.643 346.156C171.023 346.23 170.424 346.425 169.879 346.73C168.516 347.566 167.333 348.665 166.397 349.962L165.205 351.488L164.722 351.153L170.901 342.93L196.747 360.902Z" fill="black"/>
<path id="Vector_19" d="M170.076 342.367L169.638 342.764L169.133 342.193C168.527 341.508 167.791 340.951 166.968 340.553C166.306 340.243 165.559 340.163 164.846 340.327C164.057 340.542 163.338 340.961 162.762 341.541L138.889 363.63C138.299 364.137 137.857 364.795 137.61 365.534C137.421 366.222 137.466 366.954 137.738 367.613C138.082 368.46 138.587 369.232 139.225 369.887L139.747 370.446L139.309 370.842L127.726 358.294L128.15 357.896L128.671 358.455C129.271 359.146 130.008 359.705 130.836 360.094C131.498 360.405 132.245 360.485 132.958 360.321C133.732 360.125 134.445 359.736 135.029 359.191L161.834 334.337L154.467 326.355C153.364 325.057 151.986 324.022 150.433 323.325C149.084 322.847 147.605 322.892 146.287 323.452C144.395 324.278 142.64 325.391 141.086 326.752L139.594 327.971L139.185 327.531L148.73 319.263L170.076 342.367Z" fill="black"/>
<path id="Vector_20" d="M138.817 301.435C140.739 304.439 141.71 307.955 141.602 311.522C141.396 314.809 140.208 317.96 138.192 320.564C133.281 326.576 126.369 330.615 118.726 331.937C115.411 332.448 112.019 331.924 109.012 330.436C106.494 328.923 104.301 326.925 102.56 324.558C100.818 322.191 99.5628 319.501 98.8659 316.645C98.5234 315.094 98.5638 313.483 98.9833 311.951C99.3189 310.748 100.099 309.718 101.166 309.07C101.649 308.745 102.209 308.552 102.789 308.509C103.369 308.467 103.951 308.577 104.476 308.828C105.61 309.43 106.54 310.356 107.148 311.488C105.406 312.432 103.832 313.658 102.49 315.118C101.55 316.123 101.004 317.433 100.949 318.809C100.987 320.301 101.434 321.754 102.24 323.01C103.403 325.174 105.355 326.805 107.69 327.564C110.282 328.267 113.025 328.187 115.573 327.332C119.231 326.181 122.736 324.585 126.008 322.58C129.463 320.657 132.655 318.295 135.506 315.552C137.537 313.679 138.954 311.235 139.572 308.54C139.96 305.978 139.395 303.363 137.986 301.191C136.915 299.14 135.152 297.537 133.01 296.666C130.551 295.954 127.933 296.005 125.503 296.811C125.413 296.328 125.49 295.828 125.721 295.395C125.959 294.973 126.308 294.626 126.731 294.391C127.465 293.996 128.296 293.818 129.127 293.877C130.206 293.947 131.259 294.233 132.225 294.718C133.459 295.32 134.587 296.116 135.567 297.076C136.847 298.371 137.941 299.838 138.817 301.435V301.435Z" fill="black"/>
<path id="Vector_21" d="M126.591 272.157C127.762 275.604 127.888 279.322 126.952 282.841C125.977 286.021 124.058 288.829 121.451 290.892C118.38 293.283 114.871 295.046 111.122 296.081C107.435 297.28 103.546 297.724 99.6849 297.387C96.3908 297.082 93.2719 295.764 90.7556 293.615C88.069 291.159 86.1567 287.971 85.2528 284.442C84.13 281.097 84.0269 277.492 84.9566 274.088C85.9235 270.906 87.8056 268.08 90.3676 265.964C96.5527 261.14 104.322 258.822 112.134 259.469C115.449 259.832 118.582 261.169 121.139 263.311C123.793 265.652 125.691 268.732 126.591 272.157V272.157ZM126.028 272.331C125.537 270.544 124.611 268.907 123.334 267.565C122.054 266.306 120.437 265.446 118.677 265.091C116.411 264.645 114.086 264.585 111.799 264.913C108.644 265.325 105.53 266.007 102.492 266.954C99.4412 267.822 96.4711 268.954 93.6153 270.337C91.5364 271.322 89.6344 272.645 87.9862 274.251C86.7141 275.506 85.8293 277.101 85.4374 278.845C85.1034 280.669 85.2312 282.548 85.8089 284.31C86.2863 286.133 87.2124 287.806 88.5023 289.178C89.7881 290.44 91.4066 291.309 93.1682 291.682C95.4249 292.145 97.7441 292.219 100.026 291.901C106.334 291.012 112.474 289.18 118.24 286.467C120.334 285.487 122.247 284.161 123.9 282.543C125.178 281.287 126.065 279.686 126.451 277.935C126.758 276.083 126.609 274.184 126.017 272.402L126.028 272.331Z" fill="black"/>
<path id="Vector_22" d="M119.635 253.931L119.07 253.93L119.105 251.645C119.139 250.732 118.989 249.821 118.665 248.967C118.408 248.272 117.922 247.685 117.286 247.304C116.563 246.925 115.755 246.735 114.939 246.753L82.4384 246.354C81.6628 246.314 80.8907 246.485 80.2045 246.85C79.5963 247.225 79.1276 247.789 78.8703 248.456C78.5603 249.313 78.4198 250.222 78.4566 251.132L78.4219 253.418L77.829 253.413L77.9923 241.491L113.54 226.949L78.3889 213.542L78.5303 202.791L79.1091 202.793L79.1062 203.561C79.0659 204.475 79.2158 205.387 79.5465 206.239C79.7992 206.937 80.2868 207.525 80.9256 207.902C81.6414 208.288 82.4461 208.477 83.2586 208.451L115.528 208.843C116.34 208.883 117.149 208.713 117.877 208.351C118.521 207.991 119.026 207.426 119.313 206.746C119.652 205.899 119.821 204.995 119.811 204.083L119.661 203.277L120.237 203.293L120.138 218.922L119.559 218.919L119.586 218.75C119.623 217.978 119.474 217.209 119.15 216.507C118.848 215.884 118.362 215.368 117.757 215.031C117.039 214.64 116.23 214.445 115.412 214.465L81.3942 214.05L120.045 228.796L120.025 230.242L81.7546 245.814L114.994 246.21C115.81 246.25 116.623 246.082 117.357 245.72C117.998 245.36 118.499 244.794 118.778 244.113C119.131 243.271 119.301 242.363 119.277 241.45L119.295 240.394L119.888 240.399L119.635 253.931Z" fill="black"/>
<path id="Vector_23" d="M121.514 203.564L120.945 203.403L121.16 202.668C121.447 201.802 121.554 200.886 121.474 199.976C121.406 199.245 121.094 198.559 120.589 198.027C119.998 197.461 119.274 197.055 118.483 196.846L87.3097 187.678C86.5756 187.428 85.7872 187.381 85.0285 187.543C84.3353 187.732 83.7254 188.148 83.2966 188.725C82.7561 189.453 82.3584 190.277 82.1249 191.154L81.9099 191.889L81.3411 191.729L89.7319 163.391L99.6707 165.971L99.4961 166.538L97.609 166.102C96.0734 165.678 94.4707 165.553 92.8879 165.734C91.6862 165.919 90.5995 166.555 89.8478 167.512C88.9145 168.817 88.2311 170.285 87.8323 171.84L85.1652 180.851L103.48 186.191L107.664 172.049L108.219 172.207L104.019 186.361L124.24 192.386L127.3 181.956C127.854 180.335 128.118 178.628 128.08 176.915C128.055 176.29 127.907 175.675 127.644 175.107C127.382 174.539 127.01 174.029 126.55 173.605C125.329 172.577 123.92 171.798 122.402 171.311L120.578 170.652L120.738 170.083L130.476 173.4L121.514 203.564Z" fill="black"/>
<path id="Vector_24" d="M122.351 155.616L121.328 155.023L128.934 141.787L129.945 142.363L122.351 155.616Z" fill="black"/>
</g>
</g>
<defs>
<clipPath id="clip0_101_124">
<rect width="529" height="448" fill="white" transform="translate(0 0.691406)"/>
</clipPath>
</defs>
</svg>
