<?xml version="1.0" encoding="UTF-8"?>
<svg width="203px" height="50px" viewBox="0 0 203 50" version="1.1" xmlns="http://www.w3.org/2000/svg" xmlns:xlink="http://www.w3.org/1999/xlink">
    <title>visit NJ logo</title>
    <defs>
        <linearGradient x1="79.5912268%" y1="52.1081884%" x2="44.4786413%" y2="51.8295541%" id="linearGradient-1">
            <stop stop-color="#B3ECFF" offset="0%"></stop>
            <stop stop-color="#249379" offset="100%"></stop>
        </linearGradient>
        <linearGradient x1="79.5912268%" y1="55.1334963%" x2="44.4786413%" y2="54.4550143%" id="linearGradient-2">
            <stop stop-color="#B3ECFF" offset="0%"></stop>
            <stop stop-color="#249379" offset="100%"></stop>
        </linearGradient>
    </defs>
    <g id="Page-1" stroke="none" stroke-width="1" fill="none" fill-rule="evenodd">
        <g id="Desktop-HD" transform="translate(-10.000000, -10.000000)">
            <g id="header/hero" transform="translate(-1.000000, 0.000000)">
                <g id="visit-NJ-logo" transform="translate(11.000000, 10.000000)">
                    <text id="visit-NJ" font-family="Dosis-Regular, Dosis" font-size="24" font-weight="normal" fill="#B3ECFF">
                        <tspan x="96.1811271" y="43.1870673">New Jersey</tspan>
                    </text>
                    <g id="Group-3">
                        <path d="M2.07048054e-13,28.4818528 C19.5850587,11.554536 31.9081158,0.903748844 42.1379054,0.903748844 C56.9848003,0.903748844 48.3488048,23.393282 58.4719694,23.393282 C68.5951341,23.393282 93.7995204,-1.13895942 111.923271,0.0412583111 C94.3586812,4.18096609 72.8712878,28.4818528 56.9848003,28.4818528 C44.700622,28.4818528 49.7882407,5.80230023 42.1379054,5.80230023 C34.4875701,5.80230023 27.1042253,11.9370109 7.19191304,28.4818528 C2.07048054e-13,28.4818528 7.19191304,28.4818528 2.07048054e-13,28.4818528 Z" id="Path-3" fill="url(#linearGradient-1)"></path>
                        <path d="M43.7981877,29.3856064 C45.8325022,34.1738812 48.9205228,36.5680186 53.0622494,36.5680186 C77.9431615,36.5680186 98.0942782,5.12264253 117.088861,5.12264253 C123.451797,5.12264253 127.175118,8.51994356 128.258824,15.3145456 C122.861667,12.8788883 120.163088,13.0091512 120.163088,15.7053343 C120.163088,18.4015174 123.071117,19.7636788 128.887175,19.7918183 C121.021632,21.0720435 117.088861,19.5796193 117.088861,15.3145456 C117.088861,11.0494719 119.879557,10.0736084 125.460949,12.386955 C123.872209,9.70291955 121.537993,8.3609018 118.458302,8.3609018 C101.460311,8.3609018 81.8702437,40.9819735 53.0622494,40.9819735 C46.4569258,40.9819735 41.6308842,37.1165178 38.5841246,29.3856064 L43.7981877,29.3856064 Z" id="Path-4" fill="url(#linearGradient-2)"></path>
                    </g>
                </g>
            </g>
        </g>
    </g>
</svg>